<svg width="140" height="184" viewBox="0 0 140 184" fill="none" xmlns="http://www.w3.org/2000/svg">
<g opacity="0.3" filter="url(#filter0_d_2416_1536)">
<path d="M343.55 170.689L341.751 167.448C341.276 166.593 340.621 165.851 339.831 165.273L139.468 18.7232C135.902 16.1148 130.896 16.8912 128.288 20.4575C126.485 22.9214 126.332 26.1815 127.15 29.1226C127.818 31.5224 128.138 34.3243 126.863 36.1545C125.861 37.5937 123.967 38.2961 121.984 38.6109C117.76 39.2815 113.452 40.7409 110.927 44.1935C108.197 47.9258 108.505 52.8822 109.11 57.4666C109.28 58.76 109.199 60.0232 108.653 61.0513C107.572 63.0878 104.829 63.8933 102.208 64.1728C98.6093 64.5563 95.0229 65.9369 92.8865 68.8578C90.6145 71.9641 90.3578 76.0977 91.8509 79.6448C94.8636 86.8019 98.7284 98.9982 93.8501 106.04C88.6364 113.565 74.5546 113.587 66.6692 112.94C63.2581 112.66 59.8489 114.027 57.8284 116.789C55.752 119.628 55.6631 123.394 56.5869 126.788C57.2117 129.083 57.4469 131.631 56.2674 133.36C55.214 134.906 53.1631 135.606 51.0359 135.882C46.7586 136.439 42.3969 137.887 39.8505 141.368C37.3258 144.82 37.2331 149.372 37.9947 153.581C38.3941 155.788 38.3471 158.067 37.0989 159.568C35.6419 161.32 32.7741 161.74 30.2371 161.715C27.2478 161.685 24.2142 162.746 22.4493 165.159C19.9918 168.519 20.7233 173.235 24.0832 175.693L224.548 322.317C224.669 322.406 224.828 322.27 224.759 322.136C224.704 322.029 224.798 321.906 224.916 321.931L231.824 323.427C232.195 323.508 232.578 323.362 232.802 323.056C233.017 322.762 233.047 322.372 232.881 322.049L232.214 320.755C231.097 318.585 233.007 316.094 235.392 316.611L236.616 316.876C236.987 316.956 237.37 316.81 237.594 316.504C237.809 316.21 237.84 315.821 237.673 315.497L237.006 314.203C235.889 312.034 237.799 309.542 240.184 310.059L241.408 310.324C241.779 310.404 242.162 310.259 242.386 309.952C242.601 309.659 242.632 309.269 242.465 308.946L241.798 307.651C240.681 305.482 242.591 302.99 244.976 303.507L246.2 303.772C246.571 303.852 246.955 303.707 247.179 303.4C247.393 303.107 247.424 302.717 247.257 302.394L246.59 301.099C245.473 298.93 247.384 296.439 249.768 296.955L250.992 297.22C251.363 297.301 251.747 297.155 251.971 296.849C252.185 296.555 252.216 296.165 252.049 295.842L251.438 294.655C250.261 292.37 252.198 289.721 254.733 290.151L256.049 290.374C256.407 290.435 256.77 290.288 256.984 289.994C257.208 289.688 257.231 289.278 257.042 288.949L256.419 287.863C255.204 285.747 256.999 283.171 259.405 283.579L260.841 283.822C261.2 283.883 261.562 283.736 261.777 283.442C262.001 283.136 262.023 282.726 261.834 282.397L261.211 281.311C259.996 279.195 261.792 276.619 264.197 277.027L265.618 277.268C265.986 277.33 266.357 277.179 266.578 276.878C266.798 276.577 266.829 276.177 266.658 275.845L265.999 274.565C264.881 272.395 266.792 269.904 269.177 270.421L270.4 270.686C270.771 270.766 271.155 270.62 271.379 270.314C271.594 270.02 271.624 269.631 271.457 269.307L270.791 268.013C269.673 265.843 271.584 263.352 273.969 263.869L275.193 264.134C275.564 264.214 275.947 264.068 276.171 263.762C276.386 263.469 276.416 263.079 276.25 262.755L275.583 261.461C274.465 259.292 276.376 256.8 278.761 257.317L279.985 257.582C280.356 257.662 280.739 257.517 280.963 257.21C281.178 256.917 281.208 256.527 281.042 256.204L280.375 254.909C279.258 252.74 281.168 250.249 283.553 250.765L284.777 251.03C285.148 251.111 285.531 250.965 285.755 250.659C285.97 250.365 286 249.975 285.834 249.652L285.167 248.357C284.05 246.188 285.96 243.697 288.345 244.213L289.569 244.478C289.94 244.559 290.323 244.413 290.547 244.107C290.762 243.813 290.793 243.424 290.626 243.1L289.959 241.806C288.842 239.636 290.752 237.145 293.137 237.662L294.361 237.927C294.732 238.007 295.115 237.861 295.339 237.555C295.554 237.261 295.585 236.872 295.418 236.548L294.751 235.254C293.634 233.085 295.544 230.593 297.929 231.11L299.153 231.375C299.524 231.455 299.908 231.31 300.132 231.003C300.346 230.71 300.377 230.32 300.21 229.997L299.543 228.702C298.426 226.533 300.337 224.042 302.721 224.558L303.945 224.823C304.316 224.903 304.7 224.758 304.924 224.451C305.138 224.158 305.169 223.768 305.002 223.445L304.336 222.15C303.218 219.981 305.129 217.49 307.514 218.006L308.737 218.271C309.108 218.352 309.492 218.206 309.716 217.9C309.931 217.606 309.961 217.216 309.794 216.893L309.183 215.707C308.006 213.421 309.943 210.772 312.478 211.202L313.794 211.425C314.153 211.486 314.515 211.339 314.73 211.045C314.954 210.739 314.976 210.329 314.787 210L314.164 208.914C312.949 206.798 314.745 204.222 317.15 204.63L318.586 204.873C318.945 204.934 319.307 204.787 319.522 204.493C319.746 204.187 319.768 203.777 319.579 203.448L318.956 202.362C317.741 200.246 319.537 197.67 321.943 198.078L323.378 198.321C323.737 198.382 324.099 198.235 324.314 197.941C324.538 197.635 324.56 197.226 324.372 196.896L323.748 195.81C322.533 193.694 324.329 191.119 326.735 191.526L328.17 191.77C328.529 191.83 328.891 191.683 329.106 191.39C329.33 191.083 329.353 190.674 329.164 190.345L328.54 189.259C327.326 187.142 329.121 184.567 331.527 184.974L332.962 185.218C333.321 185.279 333.683 185.131 333.898 184.838C334.122 184.532 334.145 184.122 333.956 183.793L333.332 182.707C332.118 180.59 333.913 178.015 336.319 178.423L337.755 178.666C338.113 178.727 338.475 178.58 338.69 178.286C338.914 177.98 338.937 177.57 338.748 177.241L338.125 176.155C336.91 174.039 338.705 171.463 341.111 171.871L342.542 172.113C342.904 172.175 343.269 172.026 343.485 171.73C343.708 171.426 343.733 171.019 343.55 170.689Z" fill="url(#paint0_linear_2416_1536)" shape-rendering="crispEdges"/>
<path d="M343.55 170.689L341.751 167.448C341.276 166.593 340.621 165.851 339.831 165.273L139.468 18.7232C135.902 16.1148 130.896 16.8912 128.288 20.4575C126.485 22.9214 126.332 26.1815 127.15 29.1226C127.818 31.5224 128.138 34.3243 126.863 36.1545C125.861 37.5937 123.967 38.2961 121.984 38.6109C117.76 39.2815 113.452 40.7409 110.927 44.1935C108.197 47.9258 108.505 52.8822 109.11 57.4666C109.28 58.76 109.199 60.0232 108.653 61.0513C107.572 63.0878 104.829 63.8933 102.208 64.1728C98.6093 64.5563 95.0229 65.9369 92.8865 68.8578C90.6145 71.9641 90.3578 76.0977 91.8509 79.6448C94.8636 86.8019 98.7284 98.9982 93.8501 106.04C88.6364 113.565 74.5546 113.587 66.6692 112.94C63.2581 112.66 59.8489 114.027 57.8284 116.789C55.752 119.628 55.6631 123.394 56.5869 126.788C57.2117 129.083 57.4469 131.631 56.2674 133.36C55.214 134.906 53.1631 135.606 51.0359 135.882C46.7586 136.439 42.3969 137.887 39.8505 141.368C37.3258 144.82 37.2331 149.372 37.9947 153.581C38.3941 155.788 38.3471 158.067 37.0989 159.568C35.6419 161.32 32.7741 161.74 30.2371 161.715C27.2478 161.685 24.2142 162.746 22.4493 165.159C19.9918 168.519 20.7233 173.235 24.0832 175.693L224.548 322.317C224.669 322.406 224.828 322.27 224.759 322.136C224.704 322.029 224.798 321.906 224.916 321.931L231.824 323.427C232.195 323.508 232.578 323.362 232.802 323.056C233.017 322.762 233.047 322.372 232.881 322.049L232.214 320.755C231.097 318.585 233.007 316.094 235.392 316.611L236.616 316.876C236.987 316.956 237.37 316.81 237.594 316.504C237.809 316.21 237.84 315.821 237.673 315.497L237.006 314.203C235.889 312.034 237.799 309.542 240.184 310.059L241.408 310.324C241.779 310.404 242.162 310.259 242.386 309.952C242.601 309.659 242.632 309.269 242.465 308.946L241.798 307.651C240.681 305.482 242.591 302.99 244.976 303.507L246.2 303.772C246.571 303.852 246.955 303.707 247.179 303.4C247.393 303.107 247.424 302.717 247.257 302.394L246.59 301.099C245.473 298.93 247.384 296.439 249.768 296.955L250.992 297.22C251.363 297.301 251.747 297.155 251.971 296.849C252.185 296.555 252.216 296.165 252.049 295.842L251.438 294.655C250.261 292.37 252.198 289.721 254.733 290.151L256.049 290.374C256.407 290.435 256.77 290.288 256.984 289.994C257.208 289.688 257.231 289.278 257.042 288.949L256.419 287.863C255.204 285.747 256.999 283.171 259.405 283.579L260.841 283.822C261.2 283.883 261.562 283.736 261.777 283.442C262.001 283.136 262.023 282.726 261.834 282.397L261.211 281.311C259.996 279.195 261.792 276.619 264.197 277.027L265.618 277.268C265.986 277.33 266.357 277.179 266.578 276.878C266.798 276.577 266.829 276.177 266.658 275.845L265.999 274.565C264.881 272.395 266.792 269.904 269.177 270.421L270.4 270.686C270.771 270.766 271.155 270.62 271.379 270.314C271.594 270.02 271.624 269.631 271.457 269.307L270.791 268.013C269.673 265.843 271.584 263.352 273.969 263.869L275.193 264.134C275.564 264.214 275.947 264.068 276.171 263.762C276.386 263.469 276.416 263.079 276.25 262.755L275.583 261.461C274.465 259.292 276.376 256.8 278.761 257.317L279.985 257.582C280.356 257.662 280.739 257.517 280.963 257.21C281.178 256.917 281.208 256.527 281.042 256.204L280.375 254.909C279.258 252.74 281.168 250.249 283.553 250.765L284.777 251.03C285.148 251.111 285.531 250.965 285.755 250.659C285.97 250.365 286 249.975 285.834 249.652L285.167 248.357C284.05 246.188 285.96 243.697 288.345 244.213L289.569 244.478C289.94 244.559 290.323 244.413 290.547 244.107C290.762 243.813 290.793 243.424 290.626 243.1L289.959 241.806C288.842 239.636 290.752 237.145 293.137 237.662L294.361 237.927C294.732 238.007 295.115 237.861 295.339 237.555C295.554 237.261 295.585 236.872 295.418 236.548L294.751 235.254C293.634 233.085 295.544 230.593 297.929 231.11L299.153 231.375C299.524 231.455 299.908 231.31 300.132 231.003C300.346 230.71 300.377 230.32 300.21 229.997L299.543 228.702C298.426 226.533 300.337 224.042 302.721 224.558L303.945 224.823C304.316 224.903 304.7 224.758 304.924 224.451C305.138 224.158 305.169 223.768 305.002 223.445L304.336 222.15C303.218 219.981 305.129 217.49 307.514 218.006L308.737 218.271C309.108 218.352 309.492 218.206 309.716 217.9C309.931 217.606 309.961 217.216 309.794 216.893L309.183 215.707C308.006 213.421 309.943 210.772 312.478 211.202L313.794 211.425C314.153 211.486 314.515 211.339 314.73 211.045C314.954 210.739 314.976 210.329 314.787 210L314.164 208.914C312.949 206.798 314.745 204.222 317.15 204.63L318.586 204.873C318.945 204.934 319.307 204.787 319.522 204.493C319.746 204.187 319.768 203.777 319.579 203.448L318.956 202.362C317.741 200.246 319.537 197.67 321.943 198.078L323.378 198.321C323.737 198.382 324.099 198.235 324.314 197.941C324.538 197.635 324.56 197.226 324.372 196.896L323.748 195.81C322.533 193.694 324.329 191.119 326.735 191.526L328.17 191.77C328.529 191.83 328.891 191.683 329.106 191.39C329.33 191.083 329.353 190.674 329.164 190.345L328.54 189.259C327.326 187.142 329.121 184.567 331.527 184.974L332.962 185.218C333.321 185.279 333.683 185.131 333.898 184.838C334.122 184.532 334.145 184.122 333.956 183.793L333.332 182.707C332.118 180.59 333.913 178.015 336.319 178.423L337.755 178.666C338.113 178.727 338.475 178.58 338.69 178.286C338.914 177.98 338.937 177.57 338.748 177.241L338.125 176.155C336.91 174.039 338.705 171.463 341.111 171.871L342.542 172.113C342.904 172.175 343.269 172.026 343.485 171.73C343.708 171.426 343.733 171.019 343.55 170.689Z" fill="black" fill-opacity="0.2" shape-rendering="crispEdges"/>
<path d="M343.55 170.689L341.751 167.448C341.276 166.593 340.621 165.851 339.831 165.273L139.468 18.7232C135.902 16.1148 130.896 16.8912 128.288 20.4575C126.485 22.9214 126.332 26.1815 127.15 29.1226C127.818 31.5224 128.138 34.3243 126.863 36.1545C125.861 37.5937 123.967 38.2961 121.984 38.6109C117.76 39.2815 113.452 40.7409 110.927 44.1935C108.197 47.9258 108.505 52.8822 109.11 57.4666C109.28 58.76 109.199 60.0232 108.653 61.0513C107.572 63.0878 104.829 63.8933 102.208 64.1728C98.6093 64.5563 95.0229 65.9369 92.8865 68.8578C90.6145 71.9641 90.3578 76.0977 91.8509 79.6448C94.8636 86.8019 98.7284 98.9982 93.8501 106.04C88.6364 113.565 74.5546 113.587 66.6692 112.94C63.2581 112.66 59.8489 114.027 57.8284 116.789C55.752 119.628 55.6631 123.394 56.5869 126.788C57.2117 129.083 57.4469 131.631 56.2674 133.36C55.214 134.906 53.1631 135.606 51.0359 135.882C46.7586 136.439 42.3969 137.887 39.8505 141.368C37.3258 144.82 37.2331 149.372 37.9947 153.581C38.3941 155.788 38.3471 158.067 37.0989 159.568C35.6419 161.32 32.7741 161.74 30.2371 161.715C27.2478 161.685 24.2142 162.746 22.4493 165.159C19.9918 168.519 20.7233 173.235 24.0832 175.693L224.548 322.317C224.669 322.406 224.828 322.27 224.759 322.136C224.704 322.029 224.798 321.906 224.916 321.931L231.824 323.427C232.195 323.508 232.578 323.362 232.802 323.056C233.017 322.762 233.047 322.372 232.881 322.049L232.214 320.755C231.097 318.585 233.007 316.094 235.392 316.611L236.616 316.876C236.987 316.956 237.37 316.81 237.594 316.504C237.809 316.21 237.84 315.821 237.673 315.497L237.006 314.203C235.889 312.034 237.799 309.542 240.184 310.059L241.408 310.324C241.779 310.404 242.162 310.259 242.386 309.952C242.601 309.659 242.632 309.269 242.465 308.946L241.798 307.651C240.681 305.482 242.591 302.99 244.976 303.507L246.2 303.772C246.571 303.852 246.955 303.707 247.179 303.4C247.393 303.107 247.424 302.717 247.257 302.394L246.59 301.099C245.473 298.93 247.384 296.439 249.768 296.955L250.992 297.22C251.363 297.301 251.747 297.155 251.971 296.849C252.185 296.555 252.216 296.165 252.049 295.842L251.438 294.655C250.261 292.37 252.198 289.721 254.733 290.151L256.049 290.374C256.407 290.435 256.77 290.288 256.984 289.994C257.208 289.688 257.231 289.278 257.042 288.949L256.419 287.863C255.204 285.747 256.999 283.171 259.405 283.579L260.841 283.822C261.2 283.883 261.562 283.736 261.777 283.442C262.001 283.136 262.023 282.726 261.834 282.397L261.211 281.311C259.996 279.195 261.792 276.619 264.197 277.027L265.618 277.268C265.986 277.33 266.357 277.179 266.578 276.878C266.798 276.577 266.829 276.177 266.658 275.845L265.999 274.565C264.881 272.395 266.792 269.904 269.177 270.421L270.4 270.686C270.771 270.766 271.155 270.62 271.379 270.314C271.594 270.02 271.624 269.631 271.457 269.307L270.791 268.013C269.673 265.843 271.584 263.352 273.969 263.869L275.193 264.134C275.564 264.214 275.947 264.068 276.171 263.762C276.386 263.469 276.416 263.079 276.25 262.755L275.583 261.461C274.465 259.292 276.376 256.8 278.761 257.317L279.985 257.582C280.356 257.662 280.739 257.517 280.963 257.21C281.178 256.917 281.208 256.527 281.042 256.204L280.375 254.909C279.258 252.74 281.168 250.249 283.553 250.765L284.777 251.03C285.148 251.111 285.531 250.965 285.755 250.659C285.97 250.365 286 249.975 285.834 249.652L285.167 248.357C284.05 246.188 285.96 243.697 288.345 244.213L289.569 244.478C289.94 244.559 290.323 244.413 290.547 244.107C290.762 243.813 290.793 243.424 290.626 243.1L289.959 241.806C288.842 239.636 290.752 237.145 293.137 237.662L294.361 237.927C294.732 238.007 295.115 237.861 295.339 237.555C295.554 237.261 295.585 236.872 295.418 236.548L294.751 235.254C293.634 233.085 295.544 230.593 297.929 231.11L299.153 231.375C299.524 231.455 299.908 231.31 300.132 231.003C300.346 230.71 300.377 230.32 300.21 229.997L299.543 228.702C298.426 226.533 300.337 224.042 302.721 224.558L303.945 224.823C304.316 224.903 304.7 224.758 304.924 224.451C305.138 224.158 305.169 223.768 305.002 223.445L304.336 222.15C303.218 219.981 305.129 217.49 307.514 218.006L308.737 218.271C309.108 218.352 309.492 218.206 309.716 217.9C309.931 217.606 309.961 217.216 309.794 216.893L309.183 215.707C308.006 213.421 309.943 210.772 312.478 211.202L313.794 211.425C314.153 211.486 314.515 211.339 314.73 211.045C314.954 210.739 314.976 210.329 314.787 210L314.164 208.914C312.949 206.798 314.745 204.222 317.15 204.63L318.586 204.873C318.945 204.934 319.307 204.787 319.522 204.493C319.746 204.187 319.768 203.777 319.579 203.448L318.956 202.362C317.741 200.246 319.537 197.67 321.943 198.078L323.378 198.321C323.737 198.382 324.099 198.235 324.314 197.941C324.538 197.635 324.56 197.226 324.372 196.896L323.748 195.81C322.533 193.694 324.329 191.119 326.735 191.526L328.17 191.77C328.529 191.83 328.891 191.683 329.106 191.39C329.33 191.083 329.353 190.674 329.164 190.345L328.54 189.259C327.326 187.142 329.121 184.567 331.527 184.974L332.962 185.218C333.321 185.279 333.683 185.131 333.898 184.838C334.122 184.532 334.145 184.122 333.956 183.793L333.332 182.707C332.118 180.59 333.913 178.015 336.319 178.423L337.755 178.666C338.113 178.727 338.475 178.58 338.69 178.286C338.914 177.98 338.937 177.57 338.748 177.241L338.125 176.155C336.91 174.039 338.705 171.463 341.111 171.871L342.542 172.113C342.904 172.175 343.269 172.026 343.485 171.73C343.708 171.426 343.733 171.019 343.55 170.689Z" stroke="#4D67FE" stroke-opacity="0.9" stroke-width="0.811728" shape-rendering="crispEdges"/>
</g>
<defs>
<filter id="filter0_d_2416_1536" x="0.589844" y="0.773926" width="363.488" height="347.081" filterUnits="userSpaceOnUse" color-interpolation-filters="sRGB">
<feFlood flood-opacity="0" result="BackgroundImageFix"/>
<feColorMatrix in="SourceAlpha" type="matrix" values="0 0 0 0 0 0 0 0 0 0 0 0 0 0 0 0 0 0 127 0" result="hardAlpha"/>
<feOffset dy="4"/>
<feGaussianBlur stdDeviation="10"/>
<feComposite in2="hardAlpha" operator="out"/>
<feColorMatrix type="matrix" values="0 0 0 0 0.815686 0 0 0 0 0.815686 0 0 0 0 0.815686 0 0 0 0.15 0"/>
<feBlend mode="normal" in2="BackgroundImageFix" result="effect1_dropShadow_2416_1536"/>
<feBlend mode="normal" in="SourceGraphic" in2="effect1_dropShadow_2416_1536" result="shape"/>
</filter>
<linearGradient id="paint0_linear_2416_1536" x1="124.138" y1="248.875" x2="239.15" y2="91.6326" gradientUnits="userSpaceOnUse">
<stop offset="0.31" stop-color="#010136"/>
<stop offset="1" stop-color="#FECAC6"/>
</linearGradient>
</defs>
</svg>
