<svg width="135" height="277" viewBox="0 0 135 277" fill="none" xmlns="http://www.w3.org/2000/svg">
<g opacity="0.3" filter="url(#filter0_d_2409_4159)">
<path d="M-208.18 183.197L-206.58 179.853C-206.158 178.971 -205.55 178.19 -204.797 177.566L-13.7123 19.1068C-10.3112 16.2864 -5.26769 16.7572 -2.44728 20.1583C-0.498676 22.5081 -0.147663 25.7529 -0.785307 28.7382C-1.3056 31.1741 -1.45485 33.9904 -0.0714011 35.7397C1.01647 37.1153 2.9494 37.7013 4.94773 37.895C9.20536 38.3075 13.594 39.5023 16.3245 42.795C19.2762 46.3545 19.2698 51.3205 18.9448 55.9332C18.853 57.2345 19.0108 58.4905 19.6184 59.4835C20.8219 61.4505 23.608 62.0878 26.2417 62.2074C29.8568 62.3715 33.5205 63.5316 35.8305 66.3172C38.2871 69.2796 38.7946 73.39 37.5199 77.0213C34.9478 84.3483 31.8315 96.757 37.1288 103.489C42.7903 110.683 56.8475 109.85 64.679 108.724C68.0668 108.238 71.5527 109.394 73.7374 112.029C75.9825 114.736 76.3001 118.49 75.5844 121.934C75.1003 124.263 75.0203 126.82 76.3028 128.475C77.4482 129.953 79.5379 130.527 81.678 130.674C85.9811 130.969 90.4228 132.15 93.1761 135.47C95.906 138.762 96.2752 143.3 95.7709 147.547C95.5064 149.774 95.6918 152.046 97.0289 153.468C98.5897 155.128 101.478 155.374 104.009 155.194C106.991 154.983 110.083 155.858 111.991 158.159C114.649 161.363 114.205 166.115 111.001 168.772L-80.1802 327.311C-80.2962 327.407 -80.4628 327.281 -80.402 327.143C-80.3534 327.033 -80.4552 326.916 -80.5714 326.948L-87.3754 328.862C-87.7408 328.964 -88.1323 328.842 -88.3746 328.55C-88.6068 328.27 -88.6608 327.883 -88.5142 327.55L-87.9274 326.217C-86.944 323.984 -89.0024 321.614 -91.3514 322.274L-92.557 322.613C-92.9223 322.716 -93.3139 322.594 -93.5561 322.302C-93.7883 322.022 -93.8424 321.635 -93.6958 321.302L-93.1089 319.969C-92.1255 317.736 -94.1839 315.365 -96.5329 316.026L-97.7385 316.365C-98.1038 316.468 -98.4954 316.346 -98.7376 316.053C-98.9698 315.773 -99.0239 315.386 -98.8773 315.053L-98.2904 313.721C-97.307 311.488 -99.3654 309.117 -101.714 309.778L-102.92 310.116C-103.285 310.219 -103.677 310.097 -103.919 309.805C-104.151 309.525 -104.205 309.138 -104.059 308.805L-103.472 307.472C-102.489 305.239 -104.547 302.869 -106.896 303.529L-108.102 303.868C-108.467 303.971 -108.858 303.849 -109.101 303.557C-109.333 303.277 -109.387 302.89 -109.24 302.557L-108.702 301.335C-107.666 298.982 -109.761 296.456 -112.265 297.039L-113.565 297.342C-113.919 297.424 -114.29 297.299 -114.522 297.019C-114.764 296.727 -114.812 296.32 -114.643 295.98L-114.087 294.858C-113.003 292.672 -114.952 290.21 -117.328 290.763L-118.746 291.093C-119.101 291.176 -119.471 291.051 -119.703 290.771C-119.946 290.479 -119.993 290.072 -119.824 289.731L-119.268 288.609C-118.184 286.423 -120.133 283.962 -122.51 284.515L-123.913 284.842C-124.276 284.926 -124.656 284.798 -124.895 284.511C-125.133 284.224 -125.188 283.827 -125.038 283.485L-124.457 282.166C-123.474 279.933 -125.532 277.563 -127.881 278.223L-129.087 278.562C-129.452 278.665 -129.844 278.543 -130.086 278.251C-130.318 277.971 -130.372 277.584 -130.226 277.251L-129.639 275.918C-128.655 273.685 -130.714 271.314 -133.063 271.975L-134.268 272.314C-134.634 272.417 -135.025 272.295 -135.267 272.002C-135.5 271.722 -135.554 271.335 -135.407 271.002L-134.82 269.67C-133.837 267.437 -135.895 265.066 -138.244 265.727L-139.45 266.065C-139.815 266.168 -140.207 266.046 -140.449 265.754C-140.681 265.474 -140.735 265.087 -140.589 264.754L-140.002 263.421C-139.018 261.188 -141.077 258.818 -143.426 259.478L-144.631 259.817C-144.997 259.92 -145.388 259.798 -145.63 259.506C-145.863 259.226 -145.917 258.839 -145.77 258.506L-145.183 257.173C-144.2 254.94 -146.258 252.569 -148.607 253.23L-149.813 253.569C-150.178 253.671 -150.57 253.549 -150.812 253.257C-151.044 252.977 -151.098 252.59 -150.952 252.257L-150.365 250.925C-149.381 248.691 -151.44 246.321 -153.789 246.981L-154.994 247.32C-155.36 247.423 -155.751 247.301 -155.994 247.009C-156.226 246.729 -156.28 246.342 -156.133 246.009L-155.546 244.676C-154.563 242.443 -156.621 240.073 -158.97 240.733L-160.176 241.072C-160.541 241.175 -160.933 241.053 -161.175 240.761C-161.407 240.481 -161.461 240.093 -161.315 239.761L-160.728 238.428C-159.744 236.195 -161.803 233.824 -164.152 234.485L-165.357 234.824C-165.723 234.926 -166.114 234.804 -166.357 234.512C-166.589 234.232 -166.643 233.845 -166.496 233.512L-165.909 232.18C-164.926 229.946 -166.984 227.576 -169.333 228.236L-170.539 228.575C-170.904 228.678 -171.296 228.556 -171.538 228.264C-171.77 227.984 -171.824 227.597 -171.678 227.264L-171.14 226.042C-170.104 223.689 -172.198 221.164 -174.702 221.746L-176.002 222.049C-176.357 222.131 -176.727 222.007 -176.959 221.727C-177.201 221.434 -177.249 221.027 -177.08 220.687L-176.524 219.565C-175.44 217.379 -177.389 214.917 -179.766 215.47L-181.184 215.801C-181.538 215.883 -181.909 215.758 -182.141 215.478C-182.383 215.186 -182.43 214.779 -182.262 214.439L-181.706 213.317C-180.622 211.13 -182.57 208.669 -184.947 209.222L-186.365 209.552C-186.72 209.635 -187.09 209.51 -187.322 209.23C-187.564 208.938 -187.612 208.53 -187.443 208.19L-186.887 207.068C-185.803 204.882 -187.752 202.421 -190.129 202.974L-191.547 203.304C-191.901 203.386 -192.272 203.261 -192.504 202.981C-192.746 202.689 -192.794 202.282 -192.625 201.942L-192.069 200.82C-190.985 198.634 -192.934 196.172 -195.31 196.725L-196.728 197.055C-197.083 197.138 -197.453 197.013 -197.685 196.733C-197.928 196.441 -197.975 196.034 -197.806 195.694L-197.25 194.572C-196.166 192.385 -198.115 189.924 -200.492 190.477L-201.91 190.807C-202.264 190.89 -202.635 190.765 -202.867 190.485C-203.109 190.193 -203.157 189.785 -202.988 189.445L-202.432 188.323C-201.348 186.137 -203.297 183.675 -205.673 184.229L-207.087 184.558C-207.444 184.641 -207.817 184.515 -208.051 184.233C-208.292 183.942 -208.342 183.538 -208.18 183.197Z" fill="url(#paint0_linear_2409_4159)" shape-rendering="crispEdges"/>
<path d="M-208.18 183.197L-206.58 179.853C-206.158 178.971 -205.55 178.19 -204.797 177.566L-13.7123 19.1068C-10.3112 16.2864 -5.26769 16.7572 -2.44728 20.1583C-0.498676 22.5081 -0.147663 25.7529 -0.785307 28.7382C-1.3056 31.1741 -1.45485 33.9904 -0.0714011 35.7397C1.01647 37.1153 2.9494 37.7013 4.94773 37.895C9.20536 38.3075 13.594 39.5023 16.3245 42.795C19.2762 46.3545 19.2698 51.3205 18.9448 55.9332C18.853 57.2345 19.0108 58.4905 19.6184 59.4835C20.8219 61.4505 23.608 62.0878 26.2417 62.2074C29.8568 62.3715 33.5205 63.5316 35.8305 66.3172C38.2871 69.2796 38.7946 73.39 37.5199 77.0213C34.9478 84.3483 31.8315 96.757 37.1288 103.489C42.7903 110.683 56.8475 109.85 64.679 108.724C68.0668 108.238 71.5527 109.394 73.7374 112.029C75.9825 114.736 76.3001 118.49 75.5844 121.934C75.1003 124.263 75.0203 126.82 76.3028 128.475C77.4482 129.953 79.5379 130.527 81.678 130.674C85.9811 130.969 90.4228 132.15 93.1761 135.47C95.906 138.762 96.2752 143.3 95.7709 147.547C95.5064 149.774 95.6918 152.046 97.0289 153.468C98.5897 155.128 101.478 155.374 104.009 155.194C106.991 154.983 110.083 155.858 111.991 158.159C114.649 161.363 114.205 166.115 111.001 168.772L-80.1802 327.311C-80.2962 327.407 -80.4628 327.281 -80.402 327.143C-80.3534 327.033 -80.4552 326.916 -80.5714 326.948L-87.3754 328.862C-87.7408 328.964 -88.1323 328.842 -88.3746 328.55C-88.6068 328.27 -88.6608 327.883 -88.5142 327.55L-87.9274 326.217C-86.944 323.984 -89.0024 321.614 -91.3514 322.274L-92.557 322.613C-92.9223 322.716 -93.3139 322.594 -93.5561 322.302C-93.7883 322.022 -93.8424 321.635 -93.6958 321.302L-93.1089 319.969C-92.1255 317.736 -94.1839 315.365 -96.5329 316.026L-97.7385 316.365C-98.1038 316.468 -98.4954 316.346 -98.7376 316.053C-98.9698 315.773 -99.0239 315.386 -98.8773 315.053L-98.2904 313.721C-97.307 311.488 -99.3654 309.117 -101.714 309.778L-102.92 310.116C-103.285 310.219 -103.677 310.097 -103.919 309.805C-104.151 309.525 -104.205 309.138 -104.059 308.805L-103.472 307.472C-102.489 305.239 -104.547 302.869 -106.896 303.529L-108.102 303.868C-108.467 303.971 -108.858 303.849 -109.101 303.557C-109.333 303.277 -109.387 302.89 -109.24 302.557L-108.702 301.335C-107.666 298.982 -109.761 296.456 -112.265 297.039L-113.565 297.342C-113.919 297.424 -114.29 297.299 -114.522 297.019C-114.764 296.727 -114.812 296.32 -114.643 295.98L-114.087 294.858C-113.003 292.672 -114.952 290.21 -117.328 290.763L-118.746 291.093C-119.101 291.176 -119.471 291.051 -119.703 290.771C-119.946 290.479 -119.993 290.072 -119.824 289.731L-119.268 288.609C-118.184 286.423 -120.133 283.962 -122.51 284.515L-123.913 284.842C-124.276 284.926 -124.656 284.798 -124.895 284.511C-125.133 284.224 -125.188 283.827 -125.038 283.485L-124.457 282.166C-123.474 279.933 -125.532 277.563 -127.881 278.223L-129.087 278.562C-129.452 278.665 -129.844 278.543 -130.086 278.251C-130.318 277.971 -130.372 277.584 -130.226 277.251L-129.639 275.918C-128.655 273.685 -130.714 271.314 -133.063 271.975L-134.268 272.314C-134.634 272.417 -135.025 272.295 -135.267 272.002C-135.5 271.722 -135.554 271.335 -135.407 271.002L-134.82 269.67C-133.837 267.437 -135.895 265.066 -138.244 265.727L-139.45 266.065C-139.815 266.168 -140.207 266.046 -140.449 265.754C-140.681 265.474 -140.735 265.087 -140.589 264.754L-140.002 263.421C-139.018 261.188 -141.077 258.818 -143.426 259.478L-144.631 259.817C-144.997 259.92 -145.388 259.798 -145.63 259.506C-145.863 259.226 -145.917 258.839 -145.77 258.506L-145.183 257.173C-144.2 254.94 -146.258 252.569 -148.607 253.23L-149.813 253.569C-150.178 253.671 -150.57 253.549 -150.812 253.257C-151.044 252.977 -151.098 252.59 -150.952 252.257L-150.365 250.925C-149.381 248.691 -151.44 246.321 -153.789 246.981L-154.994 247.32C-155.36 247.423 -155.751 247.301 -155.994 247.009C-156.226 246.729 -156.28 246.342 -156.133 246.009L-155.546 244.676C-154.563 242.443 -156.621 240.073 -158.97 240.733L-160.176 241.072C-160.541 241.175 -160.933 241.053 -161.175 240.761C-161.407 240.481 -161.461 240.093 -161.315 239.761L-160.728 238.428C-159.744 236.195 -161.803 233.824 -164.152 234.485L-165.357 234.824C-165.723 234.926 -166.114 234.804 -166.357 234.512C-166.589 234.232 -166.643 233.845 -166.496 233.512L-165.909 232.18C-164.926 229.946 -166.984 227.576 -169.333 228.236L-170.539 228.575C-170.904 228.678 -171.296 228.556 -171.538 228.264C-171.77 227.984 -171.824 227.597 -171.678 227.264L-171.14 226.042C-170.104 223.689 -172.198 221.164 -174.702 221.746L-176.002 222.049C-176.357 222.131 -176.727 222.007 -176.959 221.727C-177.201 221.434 -177.249 221.027 -177.08 220.687L-176.524 219.565C-175.44 217.379 -177.389 214.917 -179.766 215.47L-181.184 215.801C-181.538 215.883 -181.909 215.758 -182.141 215.478C-182.383 215.186 -182.43 214.779 -182.262 214.439L-181.706 213.317C-180.622 211.13 -182.57 208.669 -184.947 209.222L-186.365 209.552C-186.72 209.635 -187.09 209.51 -187.322 209.23C-187.564 208.938 -187.612 208.53 -187.443 208.19L-186.887 207.068C-185.803 204.882 -187.752 202.421 -190.129 202.974L-191.547 203.304C-191.901 203.386 -192.272 203.261 -192.504 202.981C-192.746 202.689 -192.794 202.282 -192.625 201.942L-192.069 200.82C-190.985 198.634 -192.934 196.172 -195.31 196.725L-196.728 197.055C-197.083 197.138 -197.453 197.013 -197.685 196.733C-197.928 196.441 -197.975 196.034 -197.806 195.694L-197.25 194.572C-196.166 192.385 -198.115 189.924 -200.492 190.477L-201.91 190.807C-202.264 190.89 -202.635 190.765 -202.867 190.485C-203.109 190.193 -203.157 189.785 -202.988 189.445L-202.432 188.323C-201.348 186.137 -203.297 183.675 -205.673 184.229L-207.087 184.558C-207.444 184.641 -207.817 184.515 -208.051 184.233C-208.292 183.942 -208.342 183.538 -208.18 183.197Z" stroke="#4D67FE" stroke-opacity="0.9" stroke-width="0.811728" shape-rendering="crispEdges"/>
</g>
<defs>
<filter id="filter0_d_2409_4159" x="-228.68" y="0.858887" width="362.812" height="352.444" filterUnits="userSpaceOnUse" color-interpolation-filters="sRGB">
<feFlood flood-opacity="0" result="BackgroundImageFix"/>
<feColorMatrix in="SourceAlpha" type="matrix" values="0 0 0 0 0 0 0 0 0 0 0 0 0 0 0 0 0 0 127 0" result="hardAlpha"/>
<feOffset dy="4"/>
<feGaussianBlur stdDeviation="10"/>
<feComposite in2="hardAlpha" operator="out"/>
<feColorMatrix type="matrix" values="0 0 0 0 0.815686 0 0 0 0 0.815686 0 0 0 0 0.815686 0 0 0 0.15 0"/>
<feBlend mode="normal" in2="BackgroundImageFix" result="effect1_dropShadow_2409_4159"/>
<feBlend mode="normal" in="SourceGraphic" in2="effect1_dropShadow_2409_4159" result="shape"/>
</filter>
<linearGradient id="paint0_linear_2409_4159" x1="-85.6445" y1="331.842" x2="-102.787" y2="19.2222" gradientUnits="userSpaceOnUse">
<stop stop-color="#3B2667"/>
<stop offset="1" stop-color="#BC78EC"/>
</linearGradient>
</defs>
</svg>
