<svg width="148" height="363" viewBox="0 0 148 363" fill="none" xmlns="http://www.w3.org/2000/svg">
<g opacity="0.3" filter="url(#filter0_d_2409_4160)">
<path d="M333.225 218.601L332.298 215.012C332.054 214.065 331.607 213.182 330.988 212.425L173.92 20.1953C171.124 16.7738 166.084 16.2664 162.663 19.0621C160.299 20.9936 159.331 24.1104 159.383 27.1626C159.425 29.6532 159.03 32.4456 157.336 33.8964C156.004 35.0373 153.995 35.2409 151.997 35.0469C147.739 34.6334 143.203 34.9625 139.89 37.6691C136.309 40.5949 135.361 45.4696 134.794 50.0587C134.634 51.3535 134.237 52.5557 133.45 53.4134C131.891 55.1124 129.035 55.2024 126.427 54.8135C122.848 54.2798 119.029 54.7141 116.227 57.0039C113.247 59.4389 111.959 63.3752 112.512 67.1837C113.628 74.8685 114.301 87.6448 107.809 93.2329C100.87 99.2053 87.2354 95.6855 79.7662 93.0761C76.5351 91.9474 72.8919 92.4125 70.2416 94.578C67.518 96.8034 66.4848 100.426 66.5254 103.943C66.5529 106.322 66.1399 108.847 64.5633 110.224C63.1551 111.455 60.994 111.617 58.8656 111.349C54.586 110.812 50.0002 111.117 46.6601 113.846C43.3484 116.552 42.114 120.934 41.7927 125.199C41.6242 127.435 41.0056 129.629 39.4201 130.768C37.5692 132.098 34.688 131.783 32.2388 131.121C29.353 130.34 26.15 130.605 23.835 132.496C20.6116 135.13 20.1336 139.878 22.7674 143.102L179.915 335.428C180.01 335.545 180.198 335.453 180.165 335.306C180.138 335.189 180.26 335.093 180.368 335.148L186.678 338.333C187.017 338.504 187.424 338.459 187.718 338.219C188 337.989 188.127 337.62 188.047 337.265L187.728 335.844C187.192 333.463 189.667 331.533 191.846 332.632L192.964 333.197C193.302 333.368 193.71 333.323 194.004 333.083C194.286 332.853 194.413 332.483 194.333 332.129L194.013 330.708C193.477 328.327 195.953 326.397 198.131 327.496L199.249 328.061C199.588 328.232 199.996 328.187 200.29 327.947C200.571 327.717 200.699 327.347 200.619 326.993L200.299 325.572C199.763 323.191 202.239 321.261 204.417 322.36L205.535 322.925C205.874 323.096 206.282 323.051 206.576 322.811C206.857 322.581 206.985 322.211 206.905 321.857L206.585 320.436C206.049 318.055 208.525 316.125 210.703 317.224L211.821 317.789C212.16 317.96 212.567 317.915 212.861 317.675C213.143 317.445 213.27 317.075 213.191 316.72L212.897 315.418C212.333 312.91 214.874 310.834 217.219 311.887L218.437 312.434C218.769 312.583 219.156 312.532 219.438 312.302C219.732 312.061 219.857 311.671 219.756 311.305L219.426 310.097C218.783 307.743 221.168 305.702 223.394 306.701L224.723 307.298C225.054 307.447 225.442 307.396 225.724 307.165C226.017 306.925 226.142 306.535 226.042 306.169L225.712 304.961C225.069 302.607 227.454 300.566 229.68 301.565L230.994 302.156C231.335 302.308 231.732 302.256 232.021 302.02C232.31 301.784 232.441 301.405 232.359 301.041L232.043 299.635C231.507 297.254 233.982 295.324 236.161 296.423L237.278 296.988C237.617 297.159 238.025 297.114 238.319 296.874C238.601 296.644 238.728 296.274 238.648 295.919L238.328 294.499C237.792 292.118 240.268 290.188 242.446 291.287L243.564 291.852C243.903 292.023 244.311 291.978 244.605 291.738C244.886 291.508 245.014 291.138 244.934 290.783L244.614 289.363C244.078 286.982 246.554 285.052 248.732 286.151L249.85 286.716C250.189 286.887 250.597 286.842 250.89 286.602C251.172 286.372 251.3 286.002 251.22 285.647L250.9 284.227C250.364 281.846 252.84 279.916 255.018 281.015L256.136 281.58C256.475 281.751 256.882 281.706 257.176 281.466C257.458 281.236 257.585 280.866 257.506 280.511L257.186 279.091C256.65 276.71 259.125 274.779 261.304 275.879L262.422 276.444C262.761 276.615 263.168 276.57 263.462 276.33C263.744 276.1 263.871 275.73 263.791 275.375L263.472 273.955C262.936 271.574 265.411 269.643 267.59 270.743L268.708 271.307C269.046 271.478 269.454 271.434 269.748 271.194C270.03 270.964 270.157 270.594 270.077 270.239L269.757 268.819C269.221 266.438 271.697 264.507 273.875 265.607L274.993 266.171C275.332 266.342 275.74 266.298 276.034 266.058C276.315 265.828 276.443 265.458 276.363 265.103L276.043 263.683C275.507 261.302 277.983 259.371 280.161 260.471L281.279 261.035C281.618 261.206 282.026 261.162 282.32 260.922C282.601 260.692 282.729 260.322 282.649 259.967L282.329 258.547C281.793 256.166 284.269 254.235 286.447 255.335L287.565 255.899C287.904 256.07 288.311 256.026 288.605 255.786C288.887 255.556 289.014 255.186 288.935 254.831L288.641 253.529C288.077 251.021 290.618 248.945 292.963 249.998L294.181 250.545C294.513 250.694 294.9 250.642 295.182 250.412C295.476 250.172 295.601 249.781 295.5 249.415L295.17 248.207C294.527 245.854 296.912 243.812 299.138 244.812L300.467 245.409C300.798 245.558 301.186 245.506 301.468 245.276C301.761 245.036 301.886 244.645 301.786 244.279L301.456 243.071C300.813 240.718 303.198 238.676 305.424 239.676L306.752 240.273C307.084 240.422 307.472 240.37 307.753 240.14C308.047 239.9 308.172 239.509 308.072 239.143L307.742 237.935C307.098 235.581 309.484 233.54 311.71 234.54L313.038 235.136C313.37 235.285 313.758 235.234 314.039 235.004C314.333 234.764 314.458 234.373 314.358 234.007L314.028 232.799C313.384 230.445 315.77 228.404 317.996 229.404L319.324 230C319.656 230.149 320.043 230.098 320.325 229.868C320.619 229.628 320.744 229.237 320.644 228.871L320.313 227.663C319.67 225.309 322.055 223.268 324.281 224.268L325.61 224.864C325.942 225.013 326.329 224.962 326.611 224.732C326.905 224.492 327.03 224.101 326.929 223.735L326.599 222.527C325.956 220.173 328.341 218.132 330.567 219.132L331.891 219.726C332.226 219.877 332.616 219.825 332.9 219.593C333.193 219.354 333.319 218.967 333.225 218.601Z" fill="url(#paint0_linear_2409_4160)" shape-rendering="crispEdges"/>
<path d="M333.225 218.601L332.298 215.012C332.054 214.065 331.607 213.182 330.988 212.425L173.92 20.1953C171.124 16.7738 166.084 16.2664 162.663 19.0621C160.299 20.9936 159.331 24.1104 159.383 27.1626C159.425 29.6532 159.03 32.4456 157.336 33.8964C156.004 35.0373 153.995 35.2409 151.997 35.0469C147.739 34.6334 143.203 34.9625 139.89 37.6691C136.309 40.5949 135.361 45.4696 134.794 50.0587C134.634 51.3535 134.237 52.5557 133.45 53.4134C131.891 55.1124 129.035 55.2024 126.427 54.8135C122.848 54.2798 119.029 54.7141 116.227 57.0039C113.247 59.4389 111.959 63.3752 112.512 67.1837C113.628 74.8685 114.301 87.6448 107.809 93.2329C100.87 99.2053 87.2354 95.6855 79.7662 93.0761C76.5351 91.9474 72.8919 92.4125 70.2416 94.578C67.518 96.8034 66.4848 100.426 66.5254 103.943C66.5529 106.322 66.1399 108.847 64.5633 110.224C63.1551 111.455 60.994 111.617 58.8656 111.349C54.586 110.812 50.0002 111.117 46.6601 113.846C43.3484 116.552 42.114 120.934 41.7927 125.199C41.6242 127.435 41.0056 129.629 39.4201 130.768C37.5692 132.098 34.688 131.783 32.2388 131.121C29.353 130.34 26.15 130.605 23.835 132.496C20.6116 135.13 20.1336 139.878 22.7674 143.102L179.915 335.428C180.01 335.545 180.198 335.453 180.165 335.306C180.138 335.189 180.26 335.093 180.368 335.148L186.678 338.333C187.017 338.504 187.424 338.459 187.718 338.219C188 337.989 188.127 337.62 188.047 337.265L187.728 335.844C187.192 333.463 189.667 331.533 191.846 332.632L192.964 333.197C193.302 333.368 193.71 333.323 194.004 333.083C194.286 332.853 194.413 332.483 194.333 332.129L194.013 330.708C193.477 328.327 195.953 326.397 198.131 327.496L199.249 328.061C199.588 328.232 199.996 328.187 200.29 327.947C200.571 327.717 200.699 327.347 200.619 326.993L200.299 325.572C199.763 323.191 202.239 321.261 204.417 322.36L205.535 322.925C205.874 323.096 206.282 323.051 206.576 322.811C206.857 322.581 206.985 322.211 206.905 321.857L206.585 320.436C206.049 318.055 208.525 316.125 210.703 317.224L211.821 317.789C212.16 317.96 212.567 317.915 212.861 317.675C213.143 317.445 213.27 317.075 213.191 316.72L212.897 315.418C212.333 312.91 214.874 310.834 217.219 311.887L218.437 312.434C218.769 312.583 219.156 312.532 219.438 312.302C219.732 312.061 219.857 311.671 219.756 311.305L219.426 310.097C218.783 307.743 221.168 305.702 223.394 306.701L224.723 307.298C225.054 307.447 225.442 307.396 225.724 307.165C226.017 306.925 226.142 306.535 226.042 306.169L225.712 304.961C225.069 302.607 227.454 300.566 229.68 301.565L230.994 302.156C231.335 302.308 231.732 302.256 232.021 302.02C232.31 301.784 232.441 301.405 232.359 301.041L232.043 299.635C231.507 297.254 233.982 295.324 236.161 296.423L237.278 296.988C237.617 297.159 238.025 297.114 238.319 296.874C238.601 296.644 238.728 296.274 238.648 295.919L238.328 294.499C237.792 292.118 240.268 290.188 242.446 291.287L243.564 291.852C243.903 292.023 244.311 291.978 244.605 291.738C244.886 291.508 245.014 291.138 244.934 290.783L244.614 289.363C244.078 286.982 246.554 285.052 248.732 286.151L249.85 286.716C250.189 286.887 250.597 286.842 250.89 286.602C251.172 286.372 251.3 286.002 251.22 285.647L250.9 284.227C250.364 281.846 252.84 279.916 255.018 281.015L256.136 281.58C256.475 281.751 256.882 281.706 257.176 281.466C257.458 281.236 257.585 280.866 257.506 280.511L257.186 279.091C256.65 276.71 259.125 274.779 261.304 275.879L262.422 276.444C262.761 276.615 263.168 276.57 263.462 276.33C263.744 276.1 263.871 275.73 263.791 275.375L263.472 273.955C262.936 271.574 265.411 269.643 267.59 270.743L268.708 271.307C269.046 271.478 269.454 271.434 269.748 271.194C270.03 270.964 270.157 270.594 270.077 270.239L269.757 268.819C269.221 266.438 271.697 264.507 273.875 265.607L274.993 266.171C275.332 266.342 275.74 266.298 276.034 266.058C276.315 265.828 276.443 265.458 276.363 265.103L276.043 263.683C275.507 261.302 277.983 259.371 280.161 260.471L281.279 261.035C281.618 261.206 282.026 261.162 282.32 260.922C282.601 260.692 282.729 260.322 282.649 259.967L282.329 258.547C281.793 256.166 284.269 254.235 286.447 255.335L287.565 255.899C287.904 256.07 288.311 256.026 288.605 255.786C288.887 255.556 289.014 255.186 288.935 254.831L288.641 253.529C288.077 251.021 290.618 248.945 292.963 249.998L294.181 250.545C294.513 250.694 294.9 250.642 295.182 250.412C295.476 250.172 295.601 249.781 295.5 249.415L295.17 248.207C294.527 245.854 296.912 243.812 299.138 244.812L300.467 245.409C300.798 245.558 301.186 245.506 301.468 245.276C301.761 245.036 301.886 244.645 301.786 244.279L301.456 243.071C300.813 240.718 303.198 238.676 305.424 239.676L306.752 240.273C307.084 240.422 307.472 240.37 307.753 240.14C308.047 239.9 308.172 239.509 308.072 239.143L307.742 237.935C307.098 235.581 309.484 233.54 311.71 234.54L313.038 235.136C313.37 235.285 313.758 235.234 314.039 235.004C314.333 234.764 314.458 234.373 314.358 234.007L314.028 232.799C313.384 230.445 315.77 228.404 317.996 229.404L319.324 230C319.656 230.149 320.043 230.098 320.325 229.868C320.619 229.628 320.744 229.237 320.644 228.871L320.313 227.663C319.67 225.309 322.055 223.268 324.281 224.268L325.61 224.864C325.942 225.013 326.329 224.962 326.611 224.732C326.905 224.492 327.03 224.101 326.929 223.735L326.599 222.527C325.956 220.173 328.341 218.132 330.567 219.132L331.891 219.726C332.226 219.877 332.616 219.825 332.9 219.593C333.193 219.354 333.319 218.967 333.225 218.601Z" stroke="#4D67FE" stroke-opacity="0.9" stroke-width="0.811728" shape-rendering="crispEdges"/>
</g>
<defs>
<filter id="filter0_d_2409_4160" x="0.660156" y="0.851074" width="353" height="361.991" filterUnits="userSpaceOnUse" color-interpolation-filters="sRGB">
<feFlood flood-opacity="0" result="BackgroundImageFix"/>
<feColorMatrix in="SourceAlpha" type="matrix" values="0 0 0 0 0 0 0 0 0 0 0 0 0 0 0 0 0 0 127 0" result="hardAlpha"/>
<feOffset dy="4"/>
<feGaussianBlur stdDeviation="10"/>
<feComposite in2="hardAlpha" operator="out"/>
<feColorMatrix type="matrix" values="0 0 0 0 0.815686 0 0 0 0 0.815686 0 0 0 0 0.815686 0 0 0 0.15 0"/>
<feBlend mode="normal" in2="BackgroundImageFix" result="effect1_dropShadow_2409_4160"/>
<feBlend mode="normal" in="SourceGraphic" in2="effect1_dropShadow_2409_4160" result="shape"/>
</filter>
<linearGradient id="paint0_linear_2409_4160" x1="184.406" y1="340.925" x2="261.312" y2="37.4279" gradientUnits="userSpaceOnUse">
<stop stop-color="#3B2667"/>
<stop offset="1" stop-color="#BC78EC"/>
</linearGradient>
</defs>
</svg>
