<svg width="693" height="340" viewBox="0 0 693 340" fill="none" xmlns="http://www.w3.org/2000/svg">
<path d="M131.61 263C129.348 263 128.218 261.869 128.218 259.608V218.226C128.218 215.964 127.087 214.834 124.826 214.834H6.784C4.52267 214.834 3.392 213.703 3.392 211.442V159.544C3.392 157.961 3.61813 156.717 4.0704 155.813C4.52267 154.908 5.20107 153.891 6.1056 152.76L107.526 24.5424C109.335 22.281 111.145 20.9242 112.954 20.472C114.763 20.0197 116.798 19.7936 119.059 19.7936H155.354C161.459 19.7936 166.999 20.472 171.974 21.8288C176.949 22.9594 179.437 24.8816 179.437 27.5952V169.042C179.437 171.303 180.567 172.434 182.829 172.434H197.075C199.337 172.434 200.467 173.564 200.467 175.826V211.442C200.467 213.703 199.789 214.834 198.432 214.834H182.829C180.567 214.834 179.437 215.964 179.437 218.226V259.608C179.437 261.869 178.306 263 176.045 263H131.61ZM128.218 169.042V80.1712C128.218 78.5883 127.878 77.7968 127.2 77.7968C126.522 77.7968 125.73 78.4752 124.826 79.832C123.921 80.9627 123.13 81.8672 122.451 82.5456L61.056 166.328C60.3776 167.233 59.8123 168.024 59.36 168.702C59.1339 169.155 59.0208 169.946 59.0208 171.077C59.0208 171.755 59.4731 172.207 60.3776 172.434C61.2821 172.434 62.1867 172.434 63.0912 172.434H124.826C127.087 172.434 128.218 171.303 128.218 169.042Z" fill="#14124D"/>
<path d="M254.229 179.896V72.0304C254.229 55.0704 258.978 42.1808 268.475 33.3616C278.199 24.3163 291.541 19.7936 308.501 19.7936H383.803C400.311 19.7936 413.54 24.3163 423.49 33.3616C433.439 42.1808 438.414 55.0704 438.414 72.0304V198.213C438.414 210.198 437.058 220.374 434.344 228.741C431.857 236.882 428.238 243.553 423.49 248.754C418.741 253.729 412.974 257.347 406.19 259.608C399.406 261.869 391.831 263 383.464 263H315.285C304.883 263 295.837 261.869 288.149 259.608C280.686 257.347 274.355 253.729 269.154 248.754C264.179 243.553 260.447 236.882 257.96 228.741C255.473 220.374 254.229 210.198 254.229 198.213V179.896ZM326.818 220.6H365.486C376.567 220.6 383.916 218.452 387.534 214.155C391.153 209.633 392.962 202.849 392.962 193.803V88.6512C392.962 85.4853 392.396 82.3195 391.266 79.1536C390.361 75.9877 388.778 73.161 386.517 70.6736C384.255 68.1861 381.429 66.1509 378.037 64.568C374.645 62.9851 370.461 62.1936 365.486 62.1936H326.818C318.903 62.1936 312.458 64.2288 307.483 68.2992C302.508 72.3696 300.021 79.1536 300.021 88.6512V193.803C300.021 202.849 301.943 209.633 305.787 214.155C309.858 218.452 316.755 220.6 326.478 220.6H326.818Z" fill="#14124D"/>
<path d="M613.61 263C611.348 263 610.218 261.869 610.218 259.608V218.226C610.218 215.964 609.087 214.834 606.826 214.834H488.784C486.523 214.834 485.392 213.703 485.392 211.442V159.544C485.392 157.961 485.618 156.717 486.07 155.813C486.523 154.908 487.201 153.891 488.106 152.76L589.526 24.5424C591.335 22.281 593.145 20.9242 594.954 20.472C596.763 20.0197 598.798 19.7936 601.059 19.7936H637.354C643.459 19.7936 648.999 20.472 653.974 21.8288C658.949 22.9594 661.437 24.8816 661.437 27.5952V169.042C661.437 171.303 662.567 172.434 664.829 172.434H679.075C681.337 172.434 682.467 173.564 682.467 175.826V211.442C682.467 213.703 681.789 214.834 680.432 214.834H664.829C662.567 214.834 661.437 215.964 661.437 218.226V259.608C661.437 261.869 660.306 263 658.045 263H613.61ZM610.218 169.042V80.1712C610.218 78.5883 609.878 77.7968 609.2 77.7968C608.522 77.7968 607.73 78.4752 606.826 79.832C605.921 80.9627 605.13 81.8672 604.451 82.5456L543.056 166.328C542.378 167.233 541.812 168.024 541.36 168.702C541.134 169.155 541.021 169.946 541.021 171.077C541.021 171.755 541.473 172.207 542.378 172.434C543.282 172.434 544.187 172.434 545.091 172.434H606.826C609.087 172.434 610.218 171.303 610.218 169.042Z" fill="#14124D"/>
</svg>
