<svg width="500" height="500" viewBox="0 0 500 500" fill="none" xmlns="http://www.w3.org/2000/svg">
<path d="M214.742 88.8398H41.1523V244.14H214.742V88.8398Z" fill="#FAFAFA"/>
<path d="M214.742 244.14C214.742 244.14 214.742 243.14 214.742 241.26C214.742 239.38 214.742 236.57 214.742 232.94C214.742 225.65 214.682 214.99 214.642 201.42C214.592 174.28 214.522 135.51 214.442 88.8397L214.832 89.2298L41.1717 89.2998L41.6317 88.8397C41.6317 145.34 41.6317 198.51 41.6317 244.14L41.2217 243.74L166.772 243.94L202.192 244.05H211.562H213.982H214.812C214.812 244.05 214.552 244.05 214.022 244.05H211.652L202.362 244.1L167.042 244.21L41.2217 244.41H40.8117V244C40.8117 198.37 40.8117 145.2 40.7617 88.6997V88.2397H41.2417L214.812 88.3097H215.212V88.6997C215.132 135.47 215.062 174.33 215.012 201.52C215.012 215.06 214.932 225.69 214.912 232.96C214.912 236.56 214.912 239.32 214.912 241.21C214.912 243.1 214.742 244.14 214.742 244.14Z" fill="#E0E0E0"/>
<path d="M107.712 116.43C107.712 116.69 98.5723 116.9 87.3123 116.9C76.0523 116.9 66.9023 116.69 66.9023 116.43C66.9023 116.17 76.0023 116 87.3123 116C98.6223 116 107.712 116.18 107.712 116.43Z" fill="#E0E0E0"/>
<path d="M181.261 128.1C181.261 128.35 156.161 128.56 125.261 128.56C94.3614 128.56 69.1914 128.35 69.1914 128.1C69.1914 127.85 94.2914 127.63 125.261 127.63C156.231 127.63 181.261 127.84 181.261 128.1Z" fill="#E0E0E0"/>
<path d="M74.5131 147.85H67.2031V155.16H74.5131V147.85Z" fill="#E0E0E0"/>
<path d="M92.5131 147.85H85.2031V155.16H92.5131V147.85Z" fill="#E0E0E0"/>
<path d="M110.841 147.52H103.531V154.83H110.841V147.52Z" fill="#E0E0E0"/>
<path d="M128.513 147.85H121.203V155.16H128.513V147.85Z" fill="#E0E0E0"/>
<path d="M146.521 147.85H139.211V155.16H146.521V147.85Z" fill="#E0E0E0"/>
<path d="M164.521 147.85H157.211V155.16H164.521V147.85Z" fill="#E0E0E0"/>
<path d="M182.521 147.85H175.211V155.16H182.521V147.85Z" fill="#EBEBEB"/>
<path d="M74.5131 163.4H67.2031V170.71H74.5131V163.4Z" fill="#EBEBEB"/>
<path d="M92.5131 163.4H85.2031V170.71H92.5131V163.4Z" fill="#E0E0E0"/>
<path d="M110.513 163.4H103.203V170.71H110.513V163.4Z" fill="#EBEBEB"/>
<path d="M128.513 163.4H121.203V170.71H128.513V163.4Z" fill="#E0E0E0"/>
<path d="M146.521 163.4H139.211V170.71H146.521V163.4Z" fill="#E0E0E0"/>
<path d="M164.853 163.06H157.543V170.37H164.853V163.06Z" fill="#E0E0E0"/>
<path d="M182.521 163.4H175.211V170.71H182.521V163.4Z" fill="#E0E0E0"/>
<path d="M74.5131 178.94H67.2031V186.25H74.5131V178.94Z" fill="#E0E0E0"/>
<path d="M92.8412 178.61H85.5312V185.92H92.8412V178.61Z" fill="#E0E0E0"/>
<path d="M110.513 178.94H103.203V186.25H110.513V178.94Z" fill="#E0E0E0"/>
<path d="M128.513 178.94H121.203V186.25H128.513V178.94Z" fill="#EBEBEB"/>
<path d="M146.521 178.94H139.211V186.25H146.521V178.94Z" fill="#E0E0E0"/>
<path d="M164.521 178.94H157.211V186.25H164.521V178.94Z" fill="#E0E0E0"/>
<path d="M182.521 178.94H175.211V186.25H182.521V178.94Z" fill="#E0E0E0"/>
<path d="M74.5131 194.49H67.2031V201.8H74.5131V194.49Z" fill="#E0E0E0"/>
<path d="M92.5131 194.49H85.2031V201.8H92.5131V194.49Z" fill="#E0E0E0"/>
<path d="M110.513 194.49H103.203V201.8H110.513V194.49Z" fill="#E0E0E0"/>
<path d="M128.853 194.16H121.543V201.47H128.853V194.16Z" fill="#E0E0E0"/>
<path d="M146.521 194.49H139.211V201.8H146.521V194.49Z" fill="#E0E0E0"/>
<path d="M164.521 194.49H157.211V201.8H164.521V194.49Z" fill="#EBEBEB"/>
<path d="M182.521 194.49H175.211V201.8H182.521V194.49Z" fill="#E0E0E0"/>
<path d="M74.5131 210.04H67.2031V217.35H74.5131V210.04Z" fill="#E0E0E0"/>
<path d="M92.5131 210.04H85.2031V217.35H92.5131V210.04Z" fill="#EBEBEB"/>
<path d="M110.513 210.04H103.203V217.35H110.513V210.04Z" fill="#E0E0E0"/>
<path d="M128.513 210.04H121.203V217.35H128.513V210.04Z" fill="#E0E0E0"/>
<path d="M146.521 210.04H139.211V217.35H146.521V210.04Z" fill="#E0E0E0"/>
<path d="M164.853 209.71H157.543V217.02H164.853V209.71Z" fill="#E0E0E0"/>
<path d="M182.521 210.04H175.211V217.35H182.521V210.04Z" fill="#E0E0E0"/>
<path d="M410.765 51.8659L399.605 51.9263L399.906 107.435L411.066 107.375L410.765 51.8659Z" fill="#E0E0E0"/>
<path d="M331.85 52.0131L302.961 52.1694L303.127 82.809L332.016 82.6527L331.85 52.0131Z" fill="#EBEBEB"/>
<path d="M360.608 51.8476L331.719 52.0039L331.885 82.6435L360.774 82.4871L360.608 51.8476Z" fill="#F5F5F5"/>
<path d="M303.001 60.6499C322.201 60.8099 341.415 60.7199 360.641 60.3799C360.713 60.367 360.777 60.3293 360.824 60.2736C360.87 60.2178 360.896 60.1475 360.896 60.0749C360.896 60.0023 360.87 59.9321 360.824 59.8763C360.777 59.8206 360.713 59.7829 360.641 59.7699C341.451 59.6599 322.201 59.7699 303.011 60.1199C302.95 60.1319 302.894 60.1649 302.855 60.2133C302.815 60.2616 302.793 60.3223 302.793 60.3849C302.793 60.4476 302.815 60.5083 302.855 60.5566C302.894 60.605 302.95 60.638 303.011 60.6499H303.001Z" fill="#E0E0E0"/>
<path d="M337.45 82.1428L284.961 82.4268L285.096 107.396L337.585 107.112L337.45 82.1428Z" fill="#EBEBEB"/>
<path d="M389.688 81.86L337.199 82.144L337.334 107.114L389.824 106.83L389.688 81.86Z" fill="#F5F5F5"/>
<path d="M285.003 89.3897C319.873 89.7897 354.863 89.3897 389.723 88.8697C389.795 88.8567 389.859 88.8191 389.906 88.7633C389.953 88.7076 389.978 88.6373 389.978 88.5647C389.978 88.4921 389.953 88.4218 389.906 88.3661C389.859 88.3103 389.795 88.2727 389.723 88.2597C354.853 88.0797 319.863 88.0997 285.003 88.8597C284.942 88.8717 284.887 88.9047 284.847 88.953C284.807 89.0014 284.785 89.0621 284.785 89.1247C284.785 89.1873 284.807 89.248 284.847 89.2964C284.887 89.3447 284.942 89.3777 285.003 89.3897Z" fill="#E0E0E0"/>
<path d="M468.713 107.42H265.363V116.37H468.713V107.42Z" fill="#E0E0E0"/>
<path d="M306.902 111.72H298.652V142.25H306.902V111.72Z" fill="#E0E0E0"/>
<path d="M430.143 111.72H421.883V142.25H430.143V111.72Z" fill="#E0E0E0"/>
<path d="M421.656 31.1672L410.496 31.2275L410.909 107.566L422.069 107.506L421.656 31.1672Z" fill="#EBEBEB"/>
<path d="M439.295 43.3575L421.965 43.5308L422.584 105.401L439.914 105.227L439.295 43.3575Z" fill="#F5F5F5"/>
<path d="M439.002 57.32C436.122 57.616 433.225 57.7162 430.332 57.62C427.442 57.7161 424.548 57.6159 421.672 57.32C421.672 57.15 425.552 57.02 430.332 57.02C435.112 57.02 439.002 57.15 439.002 57.32Z" fill="#E0E0E0"/>
<path d="M439.002 54.7199C436.122 55.0159 433.225 55.1161 430.332 55.0199C427.442 55.1161 424.548 55.0158 421.672 54.7199C421.672 54.5499 425.552 54.4199 430.332 54.4199C435.112 54.4199 439.002 54.5499 439.002 54.7199Z" fill="#E0E0E0"/>
<path d="M439.002 97.9997C433.232 98.3997 427.442 98.3997 421.672 97.9997C421.672 97.8297 425.552 97.6997 430.332 97.6997C435.112 97.6997 439.002 97.7897 439.002 97.9997Z" fill="#E0E0E0"/>
<path d="M439.002 95.3601C433.232 95.7601 427.442 95.7601 421.672 95.3601C421.672 95.1901 425.552 95.0601 430.332 95.0601C435.112 95.0601 439.002 95.1901 439.002 95.3601Z" fill="#E0E0E0"/>
<path d="M430.573 89.6901C430.413 89.6901 430.273 83.4501 430.273 75.7501C430.273 68.0501 430.413 61.8101 430.573 61.8101C430.733 61.8101 430.873 68.0501 430.873 75.7501C430.873 83.4501 430.743 89.6901 430.573 89.6901Z" fill="#E0E0E0"/>
<path d="M458.022 60.5898H439.152V107.29H458.022V60.5898Z" fill="#EBEBEB"/>
<path d="M419.111 44.2198C419.111 44.8551 418.923 45.4761 418.57 46.0042C418.217 46.5323 417.715 46.9437 417.128 47.1864C416.54 47.429 415.894 47.492 415.271 47.3674C414.649 47.2427 414.077 46.936 413.628 46.486C413.18 46.0361 412.875 45.4632 412.752 44.8399C412.629 44.2165 412.694 43.5708 412.939 42.9844C413.183 42.3981 413.596 41.8974 414.125 41.5459C414.655 41.1944 415.276 41.0078 415.911 41.0098C416.761 41.0124 417.575 41.3518 418.175 41.9535C418.775 42.5552 419.111 43.3702 419.111 44.2198Z" fill="#E0E0E0"/>
<path d="M416.89 53.04H414.91V98.46H416.89V53.04Z" fill="#E0E0E0"/>
<path d="M74.2597 342.83C79.4997 340.13 85.6597 339.78 91.4697 340.74C94.5897 341.26 97.8397 342.19 99.9697 344.54C102.1 346.89 102.49 351.01 100.05 353.02C98.5997 354.22 96.5797 354.4 94.6997 354.38C90.1497 354.33 85.0997 353.53 81.4697 356.26C79.3897 357.83 78.0097 360.42 75.5397 361.19C73.0697 361.96 70.3697 360.51 69.0897 358.32C67.9068 356.042 67.6455 353.396 68.3597 350.93C68.6525 349.217 69.3374 347.594 70.3608 346.189C71.3843 344.784 72.7186 343.634 74.2597 342.83Z" fill="#F796FF"/>
<path d="M62.27 319.69C65.47 324.26 71.69 322.74 74.58 319.96C77.47 317.18 78.68 313.12 79.79 309.27C82.32 300.46 84.88 291.27 82.99 282.27C82.5393 279.552 81.3452 277.012 79.54 274.93C78.6277 273.902 77.461 273.131 76.1569 272.696C74.8528 272.261 73.4572 272.176 72.11 272.45C68.97 273.28 67.03 276.35 65.62 279.28C61.4666 287.905 59.2904 297.348 59.25 306.92C59.25 311.37 59.76 316.04 62.25 319.72" fill="#F796FF"/>
<path d="M53.4804 326.25C56.9604 322.12 57.6204 316.11 56.0704 310.94C54.5204 305.77 51.0704 301.38 47.0104 297.79C42.2733 293.577 36.7606 290.326 30.7804 288.22C28.4659 287.282 25.9749 286.859 23.4804 286.98C22.2345 287.051 21.0248 287.425 19.9565 288.07C18.8881 288.715 17.9935 289.611 17.3504 290.68C15.6404 293.94 17.2804 297.89 19.0504 301.12C22.1728 306.801 25.7371 312.228 29.7104 317.35C32.9104 321.47 36.5704 325.53 41.4404 327.35C46.3104 329.17 51.3704 329 54.0004 325.66" fill="#F796FF"/>
<path d="M62.0622 388.63C62.2284 387.952 62.3255 387.258 62.3522 386.56C62.4922 385.04 62.6822 383.15 62.9022 380.89C63.1814 378.097 63.6053 375.32 64.1722 372.57C64.9126 369.226 65.9157 365.946 67.1722 362.76C68.4134 359.58 70.0966 356.59 72.1722 353.88C73.8665 351.676 76.0328 349.878 78.5122 348.62C80.2014 347.799 82.0108 347.252 83.8722 347C84.5707 346.972 85.2644 346.871 85.9422 346.7C85.2444 346.622 84.54 346.622 83.8422 346.7C81.9149 346.846 80.0289 347.334 78.2722 348.14C75.6668 349.373 73.3809 351.19 71.5922 353.45C69.4258 356.198 67.677 359.251 66.4022 362.51C65.1135 365.75 64.1097 369.096 63.4022 372.51C62.864 375.292 62.4934 378.104 62.2922 380.93C62.1122 383.34 62.0522 385.29 62.0122 386.64C61.9571 387.303 61.9738 387.971 62.0622 388.63Z" fill="#263238"/>
<path d="M62.4487 384.27C62.4863 383.938 62.4863 383.602 62.4487 383.27V380.51C62.4487 378.12 62.4487 374.66 62.5687 370.39C62.7787 361.84 63.5688 352.64 64.9388 339.67C66.2788 327.48 68.0887 313.28 69.9987 304.06C70.3987 301.96 70.8187 300.06 71.1987 298.42C71.5787 296.78 71.8887 295.33 72.1987 294.17C72.5087 293.01 72.6787 292.17 72.8487 291.5C72.9476 291.175 73.0047 290.839 73.0187 290.5C72.8654 290.783 72.7511 291.086 72.6787 291.4C72.4687 292.09 72.2087 292.97 71.8787 294.04C71.5487 295.11 71.1587 296.6 70.7487 298.26C70.3387 299.92 69.8588 301.79 69.4088 303.88C67.054 314.778 65.2782 325.794 64.0887 336.88C62.6687 349.88 62.0287 361.71 61.9688 370.27C61.9688 374.56 61.9687 378.03 62.1187 380.42C62.1887 381.54 62.2487 382.42 62.2887 383.17C62.2919 383.542 62.3457 383.912 62.4487 384.27Z" fill="#263238"/>
<path d="M62.5001 361.45C62.5764 360.492 62.5764 359.529 62.5001 358.57C62.3372 355.957 62.0435 353.354 61.6201 350.77C60.9931 346.939 60.1484 343.146 59.0901 339.41C57.8422 334.825 56.2441 330.341 54.3101 326C50.9996 317.968 46.2557 310.605 40.3101 304.27C39.2799 303.188 38.1845 302.169 37.0301 301.22C36.5201 300.8 36.0801 300.37 35.6201 300.04L34.3501 299.16C33.6098 298.569 32.824 298.038 32.0001 297.57C31.8601 297.75 35.4301 299.86 39.9401 304.65C45.6666 311.043 50.2623 318.364 53.5301 326.3C55.4153 330.63 57.0121 335.08 58.3101 339.62C59.5501 343.8 60.3801 347.62 61.0001 350.87C61.6201 354.12 61.9401 356.76 62.1501 358.6C62.1997 359.557 62.3167 360.51 62.5001 361.45Z" fill="#263238"/>
<path d="M40.4492 401.71L42.7292 433.04H82.9792L85.2692 401.71H40.4492Z" fill="#263238"/>
<path d="M90.0686 389.36H36.5586V401.71H90.0686V389.36Z" fill="#263238"/>
<path d="M36.5586 431.84V435.26H39.0686H89.1886V431.84H36.5586Z" fill="#455A64"/>
<path d="M41.5403 441.29L39.0703 435.26H87.2703L84.3903 441.29H41.5403Z" fill="#455A64"/>
<path d="M84.5189 412C84.4689 412.102 84.4049 412.196 84.3289 412.28C84.1689 412.5 83.9789 412.76 83.7289 413.08L81.3889 416.08L81.2789 416.22L81.1789 416.08L75.4189 408.08H75.7489L70.0789 416.08L69.8989 416.33L69.6989 416.1L62.9789 408.1H63.3689C63.2489 408.24 63.1189 408.4 62.9989 408.56L56.9989 416.1L56.7989 416.35L56.6189 416.09L50.9389 408.09H51.2689C48.4789 411.28 46.0989 413.98 44.2689 416.09L44.1489 416.23L44.0589 416.07C43.1289 414.53 42.3989 413.29 41.8689 412.4C41.6389 412 41.4489 411.68 41.3089 411.4C41.2328 411.292 41.1722 411.175 41.1289 411.05C41.1289 411.05 41.2189 411.15 41.3689 411.36L41.9889 412.3L44.2889 415.91H44.0689L50.9389 407.85L51.1189 407.65L51.2689 407.87L56.9989 415.87H56.5989L62.5989 408.32L62.9689 407.86L63.1689 407.62L63.3589 407.85C65.7189 410.66 67.9789 413.37 70.0689 415.85H69.6889L75.4189 407.85L75.5889 407.62L75.7489 407.85L81.3889 415.91H81.1889L83.6289 413L84.2789 412.24C84.4322 412.033 84.5122 411.953 84.5189 412Z" fill="#E0E0E0"/>
<path d="M85.8313 401.5C85.8313 401.64 75.7413 401.75 63.3113 401.75C50.8813 401.75 40.7812 401.64 40.7812 401.5C40.7812 401.36 50.8613 401.25 63.3113 401.25C75.7613 401.25 85.8313 401.36 85.8313 401.5Z" fill="#455A64"/>
<path d="M87.8584 435.6C87.8584 435.74 76.8584 435.85 63.3784 435.85C49.8984 435.85 38.8984 435.74 38.8984 435.6C38.8984 435.46 49.8984 435.35 63.3784 435.35C76.8584 435.35 87.8584 435.46 87.8584 435.6Z" fill="#263238"/>
<path d="M363.1 309.11H456.63C460.643 309.11 464.491 310.704 467.329 313.541C470.166 316.379 471.76 320.227 471.76 324.24V441.86H348V324.24C348 320.232 349.59 316.389 352.421 313.552C355.252 310.715 359.092 309.118 363.1 309.11Z" fill="#455A64"/>
<path d="M461.338 309.79C461.488 309.79 461.598 339.34 461.598 375.79C461.598 412.24 461.488 441.79 461.338 441.79C461.188 441.79 461.078 412.24 461.078 375.79C461.078 339.34 461.198 309.79 461.338 309.79Z" fill="#263238"/>
<path d="M400.36 165C411.742 181.295 418.268 200.484 419.18 220.34C419.76 233.64 417.97 247.81 424.28 259.53C433.34 276.35 452.93 275.78 458.93 293.91C461.54 301.8 456.73 319.15 455.43 327.36C453.96 336.68 459.66 344.51 458.19 353.84C456.84 362.39 450.44 368.49 442.76 372.47C435.92 376.01 429.6 376.11 422.49 373.16C408.93 367.55 397.65 361.63 388 350.59C374.44 335.09 370.34 313.59 368 293.16C362.894 247.978 363.926 202.314 371.07 157.41" fill="#263238"/>
<path d="M429.35 375.07C429.491 375.024 429.634 374.988 429.78 374.96C430.07 374.89 430.51 374.82 431.07 374.65C435.288 373.503 439.069 371.125 441.93 367.82C443.006 366.56 443.828 365.103 444.35 363.53C444.849 361.74 445.134 359.897 445.2 358.04C445.273 353.757 444.836 349.48 443.9 345.3C443.03 340.76 441.9 335.92 441.56 330.67C441.394 327.99 441.586 325.299 442.13 322.67C442.757 319.938 443.606 317.263 444.67 314.67C445.759 312.009 446.713 309.296 447.53 306.54C448.378 303.722 448.616 300.757 448.23 297.84C447.764 294.937 446.653 292.176 444.98 289.76C443.344 287.408 441.441 285.254 439.31 283.34C435.18 279.48 430.71 276.34 426.89 272.72C420.075 266.414 414.576 258.821 410.71 250.38C409.212 247.148 407.968 243.805 406.99 240.38C406.51 238.89 406.23 237.45 405.89 236.15C405.55 234.85 405.4 233.63 405.18 232.55C404.87 230.36 404.63 228.67 404.57 227.55C404.57 226.99 404.49 226.55 404.47 226.23C404.45 225.91 404.47 225.78 404.47 225.78C404.47 225.78 404.47 225.93 404.54 226.23C404.61 226.53 404.63 226.98 404.7 227.54C404.79 228.69 405.06 230.38 405.4 232.54C405.63 233.62 405.88 234.82 406.15 236.13C406.42 237.44 406.79 238.84 407.29 240.33C408.294 243.721 409.554 247.03 411.06 250.23C414.953 258.594 420.446 266.116 427.23 272.37C431.03 275.91 435.51 279.08 439.68 282.96C441.84 284.902 443.769 287.086 445.43 289.47C447.147 291.952 448.285 294.789 448.76 297.77C449.159 300.756 448.917 303.794 448.05 306.68C447.27 309.52 446.18 312.21 445.17 314.85C444.115 317.411 443.265 320.053 442.63 322.75C442.09 325.343 441.898 327.996 442.06 330.64C442.33 335.82 443.49 340.64 444.35 345.21C445.27 349.426 445.686 353.736 445.59 358.05C445.506 359.938 445.204 361.811 444.69 363.63C444.134 365.231 443.283 366.713 442.18 368C440.416 370.046 438.269 371.728 435.86 372.95C434.358 373.747 432.762 374.352 431.11 374.75C430.532 374.901 429.944 375.008 429.35 375.07Z" fill="#455A64"/>
<path d="M247 410.8L295 388.01C295 388.01 313.69 297.26 317.23 290.451C320.77 283.641 335.53 277.75 335.53 277.75L333.06 400.63L328.66 429L260.98 435.41L247 410.8Z" fill="#6C74E5"/>
<path d="M202.211 432.3C201.941 432.3 200.611 433.12 201.721 435.23C202.831 437.34 210.971 444.31 213.361 441.88C215.751 439.45 212.101 436.49 212.101 436.49L202.211 432.3Z" fill="#FFBE9D"/>
<path d="M212.44 436.58C212.44 436.58 222.26 437.82 226.03 439.26C230.14 440.82 235.14 439.75 238.5 437.48C240.409 436.208 242.191 434.755 243.82 433.14L256.34 432.94C258.14 430.832 259.32 428.267 259.751 425.529C260.182 422.792 259.846 419.988 258.78 417.43C258.109 415.65 257.142 413.996 255.92 412.54C254.43 410.93 252.08 409.63 248.02 408.93L233.15 412.14C233.15 412.14 210.15 410.49 206.01 412.43C206.01 412.43 200.86 415.48 199.27 416.76C198.67 417.25 196.84 423.11 200.59 426.16C200.59 426.16 197.33 428.75 199.1 431.08L199.94 432.08C199.94 432.08 197.75 434.92 198.88 436.16C200.01 437.4 209.88 443.16 213.39 441.8C216.9 440.44 214 437.15 212.44 436.55" fill="#FFBE9D"/>
<path d="M203.059 421.09C203.474 421.212 203.882 421.359 204.279 421.53C205.049 421.82 206.179 422.24 207.599 422.69C208.299 422.92 209.079 423.15 209.929 423.37C210.779 423.59 211.689 423.78 212.639 424.09C213.673 424.373 214.607 424.937 215.339 425.72C215.743 426.154 216.022 426.688 216.149 427.266C216.275 427.845 216.244 428.447 216.059 429.01C215.824 429.576 215.395 430.041 214.849 430.32C214.335 430.572 213.779 430.728 213.209 430.78C212.163 430.842 211.113 430.785 210.079 430.61C208.348 430.33 206.647 429.888 204.999 429.29C203.589 428.79 202.479 428.29 201.709 427.99C201.301 427.842 200.91 427.655 200.539 427.43C200.957 427.541 201.368 427.678 201.769 427.84C202.549 428.12 203.679 428.55 205.089 429.01C206.717 429.562 208.39 429.974 210.089 430.24C211.081 430.395 212.087 430.442 213.089 430.38C213.608 430.334 214.113 430.191 214.579 429.96C215.032 429.723 215.386 429.333 215.579 428.86C215.741 428.374 215.772 427.854 215.67 427.353C215.569 426.851 215.337 426.384 214.999 426C214.318 425.27 213.45 424.741 212.489 424.47C211.569 424.16 210.649 423.96 209.809 423.72C208.969 423.48 208.179 423.23 207.479 422.99C206.059 422.5 204.949 421.99 204.189 421.7C203.794 421.532 203.416 421.328 203.059 421.09Z" fill="#6C74E5"/>
<path d="M203.94 414C204.354 414.116 204.758 414.263 205.15 414.44C205.93 414.74 207.05 415.17 208.45 415.63C209.85 416.09 211.54 416.63 213.45 417.06C214.498 417.224 215.494 417.628 216.36 418.24C216.819 418.622 217.122 419.159 217.21 419.75C217.298 420.345 217.211 420.953 216.96 421.5C216.706 422.021 216.346 422.485 215.904 422.86C215.461 423.235 214.946 423.514 214.39 423.68C213.381 424.008 212.308 424.094 211.26 423.93C209.554 423.589 207.881 423.1 206.26 422.47L202.95 421.31C202.54 421.181 202.139 421.024 201.75 420.84C202.175 420.911 202.593 421.018 203 421.16L206.35 422.16C207.98 422.74 209.651 423.195 211.35 423.52C212.34 423.662 213.35 423.573 214.3 423.26C214.805 423.105 215.273 422.848 215.674 422.504C216.075 422.16 216.401 421.736 216.63 421.26C216.866 420.806 216.946 420.286 216.858 419.782C216.769 419.278 216.517 418.817 216.14 418.47C215.322 417.899 214.385 417.52 213.4 417.36C211.49 416.88 209.8 416.36 208.4 415.84C207 415.32 205.9 414.84 205.14 414.52C204.727 414.379 204.325 414.206 203.94 414Z" fill="#6C74E5"/>
<path d="M208.67 416C208.466 415.347 208.315 414.678 208.22 414C207.995 413.35 207.831 412.681 207.73 412C208.207 412.52 208.517 413.172 208.62 413.87C208.871 414.555 208.888 415.304 208.67 416Z" fill="#6C74E5"/>
<path d="M243.298 416.32L234.548 413C234.548 413 210.258 401.66 209.848 402.28C209.438 402.9 208.118 402.82 208.408 405.78C208.698 408.74 222.848 414.72 223.298 415.78C223.748 416.84 222.998 422 228.228 425.71C233.458 429.42 237.228 429.51 237.228 429.51" fill="#FFBE9D"/>
<path d="M237.231 429.42H237.001L236.401 429.36C235.631 429.238 234.872 429.054 234.131 428.81C231.404 427.881 228.884 426.431 226.711 424.54C225.239 423.162 224.198 421.387 223.711 419.43C223.46 418.354 223.286 417.261 223.191 416.16C223.174 416.034 223.144 415.91 223.101 415.79C223.044 415.693 222.965 415.611 222.871 415.55C222.643 415.384 222.406 415.231 222.161 415.09C221.671 414.8 221.161 414.52 220.621 414.24C218.521 413.11 216.271 411.98 214.011 410.68C212.853 410.027 211.728 409.316 210.641 408.55C210.078 408.155 209.55 407.714 209.061 407.23C208.801 406.982 208.576 406.699 208.391 406.39C208.292 406.22 208.224 406.034 208.191 405.84C208.171 405.661 208.171 405.48 208.191 405.3C208.111 404.576 208.24 403.844 208.561 403.19C208.76 402.881 209.022 402.619 209.331 402.42C209.457 402.339 209.571 402.241 209.671 402.13C209.671 402.13 209.671 402.13 209.751 402.04C209.8 402.003 209.86 401.985 209.921 401.99C209.978 401.984 210.035 401.984 210.091 401.99L210.361 402.06C211.671 402.46 212.881 402.99 214.091 403.49C216.491 404.49 218.781 405.49 220.961 406.49C225.331 408.49 229.231 410.27 232.511 411.81C233.331 412.18 234.101 412.57 234.841 412.89L236.981 413.73L240.411 415.09L242.571 415.96L243.121 416.2C243.251 416.2 243.311 416.28 243.311 416.29C243.311 416.3 243.241 416.29 243.111 416.23L242.541 416.04L240.351 415.23L236.891 414L234.731 413.19C233.971 412.88 233.201 412.5 232.381 412.13L220.801 406.9C218.611 405.9 216.321 404.9 213.921 403.9C212.721 403.41 211.501 402.9 210.241 402.49L210.021 402.44H209.941C209.941 402.44 209.941 402.38 209.941 402.34C210.221 402.52 210.011 402.4 210.071 402.44C209.952 402.588 209.81 402.716 209.651 402.82C209.384 402.984 209.159 403.206 208.991 403.47C208.71 404.058 208.599 404.713 208.671 405.36C208.665 405.673 208.737 405.982 208.881 406.26C209.048 406.538 209.25 406.793 209.481 407.02C209.954 407.486 210.466 407.911 211.011 408.29C212.091 409.07 213.221 409.75 214.341 410.4C216.591 411.7 218.821 412.84 220.931 413.97C221.461 414.26 221.931 414.54 222.481 414.85C222.739 414.997 222.989 415.157 223.231 415.33C223.377 415.428 223.494 415.563 223.571 415.72C223.622 415.866 223.655 416.017 223.671 416.17C223.766 417.259 223.93 418.342 224.161 419.41C224.618 421.315 225.611 423.05 227.021 424.41C229.152 426.296 231.618 427.764 234.291 428.74C235.019 428.997 235.764 429.201 236.521 429.35C236.781 429.41 236.981 429.43 237.121 429.45L237.231 429.42Z" fill="#6C74E5"/>
<path d="M210.441 430.56C210.764 430.599 211.078 430.69 211.371 430.83C212.193 431.16 212.964 431.605 213.661 432.15C214.148 432.53 214.59 432.963 214.981 433.44C215.227 433.709 215.417 434.025 215.539 434.368C215.661 434.712 215.713 435.076 215.691 435.44C215.611 435.854 215.417 436.237 215.131 436.546C214.845 436.855 214.478 437.078 214.071 437.19C213.236 437.419 212.351 437.391 211.531 437.11C208.75 436.287 206.052 435.206 203.471 433.88C202.694 433.475 201.94 433.027 201.211 432.54C200.932 432.38 200.673 432.185 200.441 431.96C200.739 432.078 201.024 432.225 201.291 432.4C201.831 432.71 202.611 433.14 203.601 433.62C206.186 434.855 208.86 435.891 211.601 436.72C212.349 436.979 213.156 437.01 213.921 436.81C214.258 436.722 214.564 436.542 214.805 436.292C215.047 436.041 215.215 435.73 215.291 435.39C215.313 435.068 215.272 434.746 215.169 434.44C215.066 434.135 214.904 433.853 214.691 433.61C214.324 433.144 213.909 432.718 213.451 432.34C212.527 431.622 211.516 431.024 210.441 430.56Z" fill="#6C74E5"/>
<g opacity="0.3">
<path d="M324.479 429C316.619 402.49 309.689 368.35 301.829 341.84C298.949 366.31 302.549 398.62 307.049 422.84C307.579 425.68 307.819 428.46 310.049 430.33L324.479 429Z" fill="#1B212D"/>
</g>
<path d="M311.609 410.8C311.499 410.8 311.169 409.07 310.099 406.42C309.47 404.875 308.718 403.384 307.849 401.96C306.765 400.232 305.527 398.605 304.149 397.1C302.752 395.611 301.218 394.255 299.569 393.05C298.218 392.072 296.786 391.209 295.289 390.47C292.729 389.21 291.009 388.75 291.039 388.65C291.456 388.699 291.865 388.796 292.259 388.94C292.733 389.06 293.198 389.213 293.649 389.4C294.262 389.614 294.863 389.861 295.449 390.14C296.989 390.845 298.462 391.689 299.849 392.66C301.541 393.864 303.112 395.231 304.539 396.74C305.937 398.283 307.183 399.957 308.259 401.74C309.123 403.195 309.856 404.725 310.449 406.31C310.719 406.98 310.879 407.61 311.049 408.16C311.204 408.627 311.324 409.105 311.409 409.59C311.515 409.986 311.582 410.391 311.609 410.8Z" fill="#263238"/>
<path d="M330.431 276.509C330.431 276.509 305.301 332.659 305.301 342.999C305.301 353.339 324.131 424.929 324.131 424.929C323.951 427.779 323.221 442.049 323.221 442.049L428.811 442.419L430.421 419.719L422.181 398.089L430.411 336.939C430.411 336.939 435.951 301.439 436.411 291.509C437.031 279.089 394.951 264.689 396.101 262.969L388.841 253.209L347.231 286.999L339.001 263.239L329.141 272.549L330.431 276.509Z" fill="#6C74E5"/>
<path d="M399.581 291.449C388.151 310.779 367.241 345.999 367.241 345.999L329.761 388.739C329.761 388.739 327.311 410.449 332.211 417.109C337.111 423.769 345.521 428.319 345.521 428.319C345.521 428.319 355.411 428.319 367.981 417.809C380.551 407.299 415.221 363.869 415.221 363.869L427.131 349.499C427.131 349.499 441.331 314.619 438.681 296.869C437.681 290.019 434.741 287.179 430.861 284.039C421.091 276.169 405.971 280.639 399.581 291.449Z" fill="#6C74E5"/>
<path d="M427.7 337.4C427.65 337.537 427.59 337.671 427.52 337.8C427.39 338.08 427.2 338.45 426.97 338.94C426.47 339.94 425.71 341.39 424.67 343.23C422.6 346.92 419.38 352.13 415.18 358.42C413.07 361.56 410.72 364.97 408.13 368.59C405.54 372.21 402.6 375.94 400.18 380.3C397.76 384.66 395.56 389.42 392.91 394.18C390.188 399.112 386.996 403.77 383.38 408.09C379.763 412.428 375.508 416.191 370.76 419.25C366.311 422.089 361.341 424.013 356.14 424.91C351.433 425.745 346.6 425.54 341.98 424.31C339.89 423.745 337.875 422.929 335.98 421.88C334.217 420.95 332.561 419.83 331.04 418.54C329.646 417.385 328.397 416.065 327.32 414.61C326.351 413.317 325.526 411.922 324.86 410.45C323.832 408.081 323.158 405.575 322.86 403.01C322.688 401.393 322.632 399.765 322.69 398.14C322.69 397.6 322.75 397.14 322.77 396.87C322.76 396.727 322.76 396.583 322.77 396.44C322.781 396.583 322.781 396.727 322.77 396.87C322.77 397.18 322.77 397.6 322.77 398.14C322.751 399.757 322.838 401.374 323.03 402.98C323.366 405.517 324.067 407.993 325.11 410.33C325.783 411.774 326.607 413.141 327.57 414.41C328.642 415.839 329.885 417.132 331.27 418.26C332.777 419.524 334.416 420.621 336.16 421.53C338.029 422.552 340.013 423.348 342.07 423.9C346.642 425.094 351.42 425.278 356.07 424.44C361.202 423.54 366.103 421.63 370.49 418.82C375.195 415.783 379.413 412.05 383 407.75C386.595 403.459 389.767 398.831 392.47 393.93C395.12 389.2 397.26 384.4 399.77 380.06C402.221 376.007 404.892 372.091 407.77 368.33C410.37 364.73 412.77 361.33 414.86 358.21C419.1 351.96 422.36 346.78 424.48 343.13C425.55 341.3 426.34 339.87 426.86 338.89L427.47 337.77C427.533 337.638 427.61 337.514 427.7 337.4Z" fill="#263238"/>
<path d="M324.001 386.83C324.001 386.9 323.471 387.23 322.781 388C321.863 388.975 321.297 390.229 321.174 391.563C321.05 392.897 321.377 394.233 322.101 395.36C322.631 396.24 323.101 396.67 323.101 396.73C323.101 396.79 322.471 396.45 321.811 395.57C320.949 394.403 320.547 392.96 320.682 391.516C320.816 390.071 321.478 388.727 322.541 387.74C322.929 387.301 323.436 386.984 324.001 386.83Z" fill="#263238"/>
<path d="M330.93 398.17C331.131 398.196 331.328 398.243 331.52 398.31L332.22 398.5L333.22 398.68C335.297 398.954 337.41 398.755 339.4 398.1C342.361 397.108 345.084 395.515 347.4 393.42C350.151 390.779 352.646 387.882 354.85 384.77C357.089 381.632 359.668 378.751 362.54 376.18C363.9 375.04 365.23 374.03 366.34 372.94C367.397 371.97 368.247 370.796 368.84 369.49C369.237 368.535 369.393 367.498 369.293 366.468C369.194 365.439 368.842 364.451 368.27 363.59C367.787 362.998 367.165 362.534 366.46 362.24C366.658 362.277 366.852 362.334 367.04 362.41C367.579 362.651 368.054 363.014 368.43 363.47C369.063 364.35 369.465 365.376 369.598 366.453C369.731 367.529 369.59 368.622 369.19 369.63C368.594 370.994 367.73 372.225 366.65 373.25C365.52 374.37 364.18 375.41 362.85 376.55C360.025 379.117 357.484 381.98 355.27 385.09C353.039 388.229 350.507 391.143 347.71 393.79C345.346 395.897 342.566 397.484 339.55 398.45C337.503 399.091 335.334 399.238 333.22 398.88L332.22 398.65C331.94 398.57 331.71 398.47 331.53 398.41C331.321 398.354 331.119 398.273 330.93 398.17Z" fill="#263238"/>
<path d="M400.829 285.51C400.703 285.719 400.563 285.919 400.409 286.11C400.079 286.53 399.659 287.11 399.129 287.78C397.989 289.2 396.419 291.32 394.499 293.96C389.606 300.896 385.154 308.134 381.169 315.63C376.449 324.39 372.549 332.52 369.559 338.32C368.079 341.23 366.859 343.57 365.969 345.17L364.999 347C364.89 347.219 364.76 347.427 364.609 347.62C364.685 347.388 364.782 347.163 364.899 346.95L365.839 345.06L369.269 338.15C372.169 332.3 376.029 324.15 380.749 315.37C384.738 307.85 389.249 300.619 394.249 293.73C396.249 291.12 397.819 289.02 399.009 287.64L400.369 286.03C400.503 285.84 400.658 285.666 400.829 285.51Z" fill="#263238"/>
<g opacity="0.3">
<path d="M322.798 396.44C327.668 399.08 333.028 398.8 338.468 397.74C343.96 396.642 348.905 393.682 352.468 389.36C351.645 394.173 349.39 398.627 345.998 402.14C342.538 405.53 337.518 407.49 332.758 406.62C327.998 405.75 323.178 401.27 322.758 396.44" fill="#1B212D"/>
</g>
<g opacity="0.3">
<path d="M368.9 367.58C371.991 372.345 373.07 378.141 371.9 383.7C376.03 377.38 377 369.38 375.9 361.91C374.8 354.44 371.75 347.39 368.37 340.64C368.37 340.64 364.65 346.94 364.61 347.64C364.43 351.28 365.77 358.12 366.47 361.69C367.404 362.586 368.1 363.701 368.497 364.933C368.893 366.165 368.977 367.477 368.74 368.75" fill="#1B212D"/>
</g>
<g opacity="0.3">
<path d="M339.32 422.6C349.26 430.35 364.01 430.71 374.88 424.35C385.35 418.22 391.8 407.18 397.78 396.63C407.05 380.29 418.35 360.08 424.97 342.5C424.97 342.5 406.42 367.81 400.83 378.72C397.104 386.095 392.874 393.206 388.17 400C382.848 407.656 375.653 413.82 367.271 417.904C358.888 421.989 349.6 423.857 340.29 423.33" fill="#1B212D"/>
</g>
<path d="M319.379 442C319.363 441.897 319.363 441.792 319.379 441.69C319.379 441.45 319.379 441.15 319.379 440.78C319.379 439.93 319.449 438.78 319.509 437.31C319.649 434.31 319.839 430.01 320.079 424.88V425C318.289 419 316.189 411.72 314.009 403.86C311.129 393.44 308.699 383.96 307.059 377.07C306.249 373.63 305.609 370.83 305.209 368.89C305.019 367.96 304.869 367.21 304.759 366.66C304.7 366.399 304.656 366.135 304.629 365.87C304.73 366.115 304.807 366.369 304.859 366.63L305.409 368.85C305.899 370.85 306.579 373.59 307.409 376.98C309.139 383.85 311.629 393.31 314.509 403.72C316.679 411.58 318.749 418.86 320.509 424.87V424.94C320.199 430.07 319.939 434.34 319.749 437.38C319.649 438.83 319.569 439.99 319.509 440.84C319.509 441.2 319.449 441.5 319.429 441.74C319.423 441.828 319.406 441.915 319.379 442Z" fill="#263238"/>
<path d="M424.998 283.46C424.998 283.54 423.918 283.16 422.188 282.73C419.932 282.161 417.623 281.826 415.298 281.73C412.972 281.666 410.646 281.847 408.358 282.27C406.598 282.6 405.528 282.9 405.508 282.82C405.73 282.677 405.973 282.569 406.228 282.5C406.901 282.268 407.585 282.071 408.278 281.91C410.571 281.375 412.924 281.139 415.278 281.21C417.65 281.281 420.002 281.658 422.278 282.33C422.959 282.528 423.627 282.768 424.278 283.05C424.778 283.3 424.998 283.42 424.998 283.46Z" fill="#263238"/>
<path d="M391.568 265C391.495 265.182 391.405 265.356 391.298 265.52L390.448 266.95C389.698 268.19 388.588 269.95 387.178 272.14C384.348 276.47 380.298 282.38 375.508 288.66C371.658 293.73 367.928 298.28 364.878 301.84L364.658 302.09L364.528 301.79C363.068 298.61 361.868 295.97 360.998 294.06C360.608 293.18 360.298 292.46 360.048 291.91C359.925 291.664 359.828 291.406 359.758 291.14C359.918 291.366 360.056 291.607 360.168 291.86C360.438 292.4 360.778 293.1 361.218 293.96C362.128 295.85 363.388 298.46 364.898 301.62L364.558 301.57C367.558 297.97 371.248 293.41 375.098 288.35C379.878 282.07 383.958 276.21 386.868 271.93L390.278 266.84L391.208 265.46C391.307 265.291 391.428 265.137 391.568 265Z" fill="#263238"/>
<path d="M415.88 426.27C415.73 426.27 416.19 421.06 416.88 414.67C417.57 408.28 418.28 403.12 418.42 403.14C418.56 403.16 418.1 408.34 417.42 414.73C416.74 421.12 416 426.28 415.88 426.27Z" fill="#263238"/>
<path d="M343.5 424.9C344.068 427.781 344.466 430.692 344.69 433.62C345.095 436.527 345.319 439.456 345.36 442.39C344.798 439.508 344.4 436.597 344.17 433.67C343.777 430.762 343.553 427.834 343.5 424.9Z" fill="#263238"/>
<path d="M396.911 310.69C396.862 310.492 396.767 310.308 396.633 310.153C396.498 309.999 396.329 309.88 396.139 309.804C395.949 309.729 395.744 309.7 395.541 309.72C395.338 309.74 395.142 309.809 394.971 309.92L394.901 309.98C394.744 310.12 394.626 310.298 394.559 310.497C394.492 310.696 394.478 310.91 394.519 311.116C394.559 311.322 394.653 311.514 394.79 311.673C394.927 311.832 395.103 311.953 395.301 312.023C395.499 312.094 395.712 312.111 395.919 312.074C396.126 312.037 396.319 311.947 396.481 311.812C396.642 311.678 396.766 311.504 396.839 311.307C396.913 311.11 396.934 310.897 396.901 310.69H396.911Z" fill="white"/>
<path d="M386.479 285.27C386.43 285.072 386.335 284.888 386.201 284.733C386.067 284.579 385.897 284.46 385.708 284.384C385.518 284.309 385.312 284.28 385.109 284.3C384.906 284.32 384.71 284.389 384.539 284.5L384.479 284.56C384.322 284.7 384.204 284.878 384.137 285.077C384.07 285.277 384.056 285.49 384.097 285.696C384.137 285.902 384.231 286.094 384.368 286.253C384.505 286.412 384.681 286.533 384.879 286.603C385.077 286.674 385.29 286.691 385.497 286.654C385.704 286.617 385.898 286.527 386.059 286.392C386.22 286.258 386.344 286.084 386.418 285.887C386.491 285.69 386.512 285.477 386.479 285.27Z" fill="white"/>
<path d="M362.55 305.74C362.502 305.541 362.407 305.357 362.272 305.203C362.138 305.049 361.969 304.929 361.779 304.854C361.589 304.779 361.384 304.75 361.181 304.77C360.977 304.79 360.782 304.859 360.61 304.97H360.55C360.394 305.109 360.276 305.287 360.209 305.486C360.141 305.684 360.127 305.897 360.166 306.103C360.206 306.309 360.299 306.501 360.435 306.661C360.572 306.82 360.747 306.941 360.945 307.012C361.142 307.084 361.355 307.102 361.561 307.066C361.768 307.03 361.962 306.941 362.124 306.808C362.286 306.675 362.41 306.501 362.485 306.305C362.56 306.109 362.582 305.897 362.55 305.69V305.74Z" fill="white"/>
<path d="M336.678 295.46C336.631 295.262 336.537 295.078 336.404 294.924C336.271 294.769 336.102 294.649 335.913 294.574C335.724 294.498 335.519 294.469 335.316 294.49C335.113 294.51 334.919 294.579 334.748 294.69L334.678 294.75C334.521 294.89 334.404 295.068 334.337 295.267C334.27 295.466 334.256 295.68 334.296 295.886C334.336 296.092 334.43 296.284 334.567 296.443C334.704 296.602 334.881 296.723 335.079 296.793C335.277 296.864 335.49 296.881 335.696 296.844C335.903 296.807 336.097 296.717 336.258 296.582C336.42 296.448 336.543 296.274 336.617 296.077C336.69 295.88 336.711 295.667 336.678 295.46Z" fill="white"/>
<path d="M332.111 285.33C332.063 285.131 331.967 284.947 331.833 284.793C331.699 284.639 331.53 284.519 331.34 284.444C331.15 284.368 330.945 284.34 330.741 284.36C330.538 284.38 330.343 284.448 330.171 284.56L330.101 284.62C329.94 284.759 329.818 284.939 329.748 285.14C329.677 285.342 329.661 285.558 329.701 285.768C329.74 285.978 329.834 286.173 329.973 286.335C330.112 286.497 330.29 286.62 330.492 286.692C330.693 286.763 330.909 286.78 331.119 286.742C331.329 286.704 331.525 286.611 331.688 286.473C331.851 286.335 331.975 286.157 332.047 285.957C332.12 285.756 332.138 285.54 332.101 285.33H332.111Z" fill="white"/>
<path d="M334.1 273.63C334.051 273.431 333.956 273.247 333.821 273.093C333.687 272.939 333.518 272.819 333.328 272.744C333.138 272.669 332.933 272.64 332.73 272.66C332.526 272.68 332.331 272.749 332.159 272.86L332.089 272.91C331.933 273.049 331.815 273.227 331.748 273.426C331.68 273.625 331.666 273.837 331.706 274.043C331.745 274.249 331.838 274.442 331.974 274.601C332.111 274.76 332.286 274.882 332.484 274.953C332.681 275.024 332.894 275.042 333.1 275.006C333.307 274.97 333.501 274.881 333.663 274.748C333.825 274.615 333.949 274.441 334.024 274.245C334.099 274.049 334.121 273.837 334.089 273.63H334.1Z" fill="white"/>
<path d="M319.771 289.73C319.723 289.532 319.628 289.348 319.493 289.193C319.359 289.039 319.19 288.92 319 288.844C318.81 288.769 318.605 288.74 318.402 288.76C318.198 288.78 318.003 288.849 317.831 288.96L317.761 289.01C317.605 289.149 317.487 289.327 317.419 289.526C317.352 289.725 317.338 289.938 317.377 290.144C317.417 290.35 317.51 290.542 317.646 290.701C317.783 290.86 317.958 290.982 318.156 291.053C318.353 291.124 318.566 291.142 318.772 291.106C318.979 291.071 319.173 290.982 319.335 290.848C319.497 290.715 319.621 290.542 319.696 290.346C319.771 290.15 319.793 289.937 319.761 289.73H319.771Z" fill="white"/>
<path d="M352.998 294.37C352.951 294.171 352.857 293.987 352.724 293.833C352.591 293.679 352.422 293.559 352.233 293.483C352.044 293.408 351.839 293.379 351.637 293.399C351.434 293.42 351.239 293.488 351.068 293.6L350.998 293.66C350.841 293.8 350.724 293.978 350.657 294.177C350.59 294.376 350.576 294.589 350.616 294.795C350.657 295.002 350.75 295.194 350.887 295.353C351.025 295.512 351.201 295.633 351.399 295.703C351.597 295.773 351.81 295.791 352.017 295.754C352.223 295.717 352.417 295.627 352.579 295.492C352.74 295.358 352.863 295.183 352.937 294.986C353.011 294.79 353.032 294.577 352.998 294.37Z" fill="white"/>
<path d="M324.861 315.24C324.813 315.041 324.717 314.857 324.583 314.703C324.449 314.549 324.28 314.429 324.09 314.354C323.9 314.279 323.695 314.25 323.492 314.27C323.288 314.29 323.093 314.359 322.921 314.47H322.851C322.694 314.609 322.577 314.787 322.509 314.986C322.442 315.184 322.427 315.397 322.467 315.603C322.507 315.809 322.6 316.001 322.736 316.161C322.873 316.32 323.048 316.441 323.245 316.512C323.443 316.584 323.655 316.602 323.862 316.566C324.069 316.53 324.263 316.441 324.425 316.308C324.587 316.175 324.711 316.001 324.786 315.805C324.861 315.609 324.883 315.397 324.851 315.19L324.861 315.24Z" fill="white"/>
<path d="M299.14 375.26C299.092 375.061 298.996 374.877 298.862 374.723C298.728 374.569 298.559 374.449 298.369 374.374C298.179 374.299 297.974 374.27 297.771 374.29C297.567 374.31 297.372 374.379 297.2 374.49L297.14 374.54C296.984 374.679 296.866 374.857 296.798 375.056C296.731 375.254 296.717 375.467 296.756 375.673C296.796 375.879 296.889 376.071 297.025 376.231C297.162 376.39 297.337 376.511 297.535 376.582C297.732 376.654 297.944 376.672 298.151 376.636C298.358 376.6 298.552 376.511 298.714 376.378C298.876 376.245 299 376.071 299.075 375.875C299.15 375.679 299.172 375.467 299.14 375.26Z" fill="white"/>
<path d="M308.321 340.64C308.272 340.441 308.177 340.257 308.043 340.103C307.909 339.949 307.739 339.829 307.55 339.754C307.36 339.678 307.154 339.65 306.951 339.67C306.748 339.69 306.552 339.759 306.381 339.87L306.311 339.93C306.154 340.07 306.036 340.248 305.969 340.447C305.902 340.646 305.888 340.859 305.929 341.066C305.969 341.272 306.063 341.464 306.2 341.623C306.337 341.782 306.513 341.903 306.711 341.973C306.909 342.043 307.122 342.061 307.329 342.024C307.536 341.987 307.73 341.897 307.891 341.762C308.052 341.628 308.176 341.453 308.25 341.256C308.323 341.06 308.344 340.847 308.311 340.64H308.321Z" fill="white"/>
<path d="M375.998 279.86C375.949 279.661 375.854 279.477 375.72 279.323C375.586 279.169 375.417 279.049 375.227 278.974C375.037 278.899 374.832 278.87 374.628 278.89C374.425 278.91 374.229 278.979 374.058 279.09L373.988 279.14C373.831 279.279 373.713 279.457 373.646 279.656C373.579 279.855 373.564 280.067 373.604 280.273C373.644 280.479 373.736 280.672 373.873 280.831C374.009 280.99 374.185 281.112 374.382 281.183C374.58 281.254 374.792 281.272 374.999 281.236C375.206 281.2 375.399 281.111 375.561 280.978C375.723 280.845 375.848 280.671 375.923 280.475C375.997 280.279 376.02 280.067 375.988 279.86H375.998Z" fill="white"/>
<path d="M408.24 348.78C408.191 348.581 408.096 348.397 407.962 348.243C407.828 348.089 407.659 347.969 407.469 347.894C407.279 347.819 407.074 347.79 406.87 347.81C406.667 347.83 406.471 347.899 406.3 348.01L406.23 348.07C406.069 348.21 405.947 348.389 405.877 348.591C405.806 348.792 405.79 349.008 405.83 349.218C405.869 349.428 405.963 349.623 406.102 349.786C406.241 349.948 406.419 350.07 406.62 350.142C406.822 350.213 407.038 350.231 407.248 350.192C407.458 350.154 407.654 350.061 407.817 349.923C407.98 349.786 408.103 349.607 408.176 349.407C408.248 349.206 408.267 348.99 408.23 348.78H408.24Z" fill="white"/>
<path d="M420.808 289.47C420.761 289.272 420.667 289.087 420.534 288.933C420.401 288.779 420.232 288.659 420.043 288.584C419.854 288.508 419.649 288.479 419.447 288.499C419.244 288.52 419.049 288.588 418.878 288.7L418.808 288.75C418.651 288.889 418.534 289.067 418.466 289.266C418.399 289.464 418.385 289.677 418.424 289.883C418.464 290.089 418.557 290.281 418.693 290.441C418.83 290.6 419.005 290.721 419.202 290.792C419.4 290.863 419.612 290.882 419.819 290.846C420.026 290.81 420.22 290.721 420.382 290.588C420.544 290.455 420.668 290.281 420.743 290.085C420.818 289.889 420.84 289.677 420.808 289.47Z" fill="white"/>
<path d="M415.881 328.31C415.832 328.111 415.737 327.927 415.603 327.773C415.468 327.619 415.299 327.499 415.109 327.424C414.919 327.348 414.714 327.32 414.511 327.34C414.308 327.36 414.112 327.428 413.941 327.54L413.871 327.6C413.709 327.739 413.587 327.919 413.517 328.12C413.447 328.322 413.431 328.538 413.47 328.748C413.51 328.958 413.604 329.153 413.742 329.315C413.881 329.477 414.06 329.6 414.261 329.672C414.462 329.743 414.678 329.76 414.888 329.722C415.098 329.684 415.294 329.591 415.457 329.453C415.62 329.315 415.744 329.137 415.817 328.937C415.889 328.736 415.908 328.52 415.871 328.31H415.881Z" fill="white"/>
<path d="M387.668 356.36C387.62 356.161 387.525 355.977 387.39 355.823C387.256 355.669 387.087 355.549 386.897 355.474C386.707 355.399 386.502 355.37 386.299 355.39C386.095 355.41 385.9 355.479 385.728 355.59L385.658 355.65C385.502 355.79 385.384 355.968 385.317 356.167C385.25 356.366 385.236 356.58 385.277 356.786C385.317 356.992 385.41 357.184 385.548 357.343C385.685 357.502 385.861 357.623 386.059 357.693C386.257 357.763 386.47 357.781 386.677 357.744C386.884 357.707 387.077 357.617 387.239 357.482C387.4 357.348 387.524 357.173 387.597 356.977C387.671 356.78 387.692 356.567 387.658 356.36H387.668Z" fill="white"/>
<path d="M388.861 333C388.813 332.802 388.717 332.618 388.583 332.463C388.449 332.309 388.28 332.19 388.09 332.114C387.9 332.039 387.695 332.01 387.491 332.03C387.288 332.05 387.093 332.119 386.921 332.23L386.851 332.29C386.69 332.43 386.568 332.609 386.498 332.811C386.427 333.012 386.411 333.229 386.451 333.438C386.49 333.648 386.584 333.844 386.723 334.006C386.862 334.168 387.04 334.291 387.242 334.362C387.443 334.433 387.659 334.451 387.869 334.413C388.079 334.374 388.275 334.281 388.438 334.144C388.601 334.006 388.725 333.828 388.797 333.627C388.87 333.426 388.888 333.21 388.851 333H388.861Z" fill="white"/>
<path d="M405.869 289.67C405.822 289.472 405.728 289.288 405.595 289.133C405.462 288.979 405.294 288.859 405.104 288.784C404.915 288.708 404.71 288.679 404.508 288.7C404.305 288.72 404.11 288.789 403.939 288.9L403.869 288.96C403.713 289.1 403.595 289.278 403.528 289.477C403.461 289.676 403.447 289.89 403.487 290.096C403.528 290.302 403.621 290.494 403.759 290.653C403.896 290.812 404.072 290.933 404.27 291.003C404.468 291.073 404.681 291.091 404.888 291.054C405.095 291.017 405.288 290.927 405.45 290.792C405.611 290.658 405.735 290.484 405.808 290.287C405.882 290.09 405.903 289.877 405.869 289.67Z" fill="white"/>
<path d="M383 267.05C382.953 266.852 382.858 266.668 382.725 266.513C382.592 266.359 382.424 266.239 382.235 266.164C382.045 266.088 381.841 266.059 381.638 266.08C381.435 266.1 381.24 266.168 381.07 266.28L381 266.33C380.843 266.469 380.725 266.647 380.658 266.846C380.59 267.045 380.576 267.257 380.616 267.463C380.655 267.669 380.748 267.861 380.885 268.021C381.021 268.18 381.196 268.301 381.394 268.373C381.591 268.444 381.804 268.462 382.011 268.426C382.217 268.39 382.411 268.301 382.573 268.168C382.735 268.035 382.859 267.861 382.934 267.665C383.009 267.469 383.032 267.257 383 267.05Z" fill="white"/>
<path d="M382.129 303.52C382.082 303.32 381.988 303.135 381.854 302.979C381.72 302.824 381.551 302.703 381.36 302.627C381.169 302.552 380.963 302.523 380.759 302.545C380.555 302.566 380.359 302.636 380.189 302.75L380.129 302.8C379.972 302.939 379.854 303.117 379.787 303.316C379.719 303.515 379.705 303.727 379.745 303.933C379.784 304.139 379.877 304.332 380.013 304.491C380.15 304.65 380.325 304.772 380.523 304.843C380.72 304.914 380.933 304.932 381.139 304.896C381.346 304.86 381.54 304.771 381.702 304.638C381.864 304.505 381.988 304.331 382.063 304.135C382.138 303.939 382.16 303.727 382.129 303.52Z" fill="white"/>
<path d="M352.889 414.77C352.84 414.578 352.747 414.4 352.616 414.25C352.486 414.101 352.322 413.984 352.138 413.909C351.955 413.834 351.756 413.803 351.558 413.819C351.36 413.835 351.169 413.897 350.999 414L350.929 414.05C350.773 414.189 350.655 414.367 350.587 414.566C350.52 414.764 350.506 414.977 350.545 415.183C350.585 415.389 350.678 415.581 350.814 415.741C350.951 415.9 351.126 416.021 351.324 416.092C351.521 416.163 351.734 416.182 351.94 416.146C352.147 416.11 352.341 416.021 352.503 415.888C352.665 415.754 352.789 415.581 352.864 415.385C352.939 415.189 352.961 414.977 352.929 414.77H352.889Z" fill="white"/>
<path d="M319.34 396.47C319.292 396.271 319.196 396.087 319.062 395.933C318.928 395.779 318.759 395.659 318.569 395.584C318.379 395.509 318.174 395.48 317.971 395.5C317.767 395.52 317.572 395.589 317.4 395.7L317.33 395.76C317.174 395.9 317.056 396.078 316.989 396.277C316.922 396.476 316.908 396.689 316.948 396.896C316.989 397.102 317.082 397.294 317.219 397.453C317.357 397.612 317.533 397.733 317.731 397.803C317.929 397.873 318.142 397.891 318.349 397.854C318.556 397.817 318.749 397.727 318.911 397.592C319.072 397.458 319.196 397.283 319.269 397.087C319.343 396.89 319.364 396.677 319.33 396.47H319.34Z" fill="white"/>
<path d="M292.211 405.44C292.162 405.242 292.067 405.058 291.933 404.903C291.798 404.749 291.629 404.63 291.439 404.554C291.249 404.479 291.044 404.45 290.841 404.47C290.638 404.49 290.442 404.559 290.271 404.67L290.211 404.72C290.054 404.859 289.936 405.037 289.869 405.236C289.801 405.435 289.787 405.647 289.827 405.854C289.866 406.06 289.959 406.252 290.095 406.411C290.232 406.57 290.407 406.692 290.605 406.763C290.802 406.834 291.015 406.852 291.221 406.816C291.428 406.781 291.622 406.692 291.784 406.558C291.946 406.425 292.07 406.252 292.145 406.056C292.22 405.86 292.243 405.647 292.211 405.44Z" fill="white"/>
<path d="M289.31 420.89C289.262 420.691 289.167 420.507 289.032 420.353C288.898 420.199 288.729 420.079 288.539 420.004C288.349 419.928 288.144 419.9 287.941 419.92C287.737 419.94 287.542 420.009 287.37 420.12L287.3 420.17C287.144 420.309 287.026 420.487 286.959 420.686C286.891 420.884 286.877 421.097 286.916 421.303C286.956 421.509 287.049 421.701 287.185 421.861C287.322 422.02 287.497 422.141 287.695 422.212C287.892 422.283 288.105 422.302 288.311 422.266C288.518 422.23 288.712 422.141 288.874 422.008C289.036 421.874 289.16 421.701 289.235 421.505C289.31 421.309 289.332 421.097 289.3 420.89H289.31Z" fill="white"/>
<path d="M314.74 426.06C314.692 425.861 314.597 425.677 314.462 425.523C314.328 425.369 314.159 425.249 313.969 425.174C313.779 425.098 313.574 425.07 313.371 425.09C313.167 425.11 312.972 425.178 312.8 425.29L312.74 425.35C312.584 425.49 312.466 425.668 312.399 425.867C312.332 426.066 312.318 426.279 312.359 426.485C312.399 426.692 312.492 426.884 312.63 427.043C312.767 427.202 312.943 427.323 313.141 427.393C313.339 427.463 313.552 427.481 313.759 427.444C313.966 427.407 314.159 427.317 314.321 427.182C314.482 427.047 314.606 426.873 314.679 426.676C314.753 426.48 314.774 426.267 314.74 426.06Z" fill="white"/>
<path d="M306.24 391.46C306.191 391.262 306.096 391.078 305.962 390.923C305.828 390.769 305.659 390.65 305.469 390.574C305.279 390.499 305.074 390.47 304.87 390.49C304.667 390.51 304.471 390.579 304.3 390.69L304.23 390.75C304.069 390.89 303.947 391.069 303.877 391.271C303.806 391.472 303.79 391.689 303.83 391.898C303.869 392.108 303.963 392.304 304.102 392.466C304.241 392.628 304.419 392.751 304.62 392.822C304.822 392.893 305.038 392.911 305.248 392.872C305.458 392.834 305.654 392.741 305.817 392.604C305.98 392.466 306.103 392.288 306.176 392.087C306.248 391.886 306.267 391.67 306.23 391.46H306.24Z" fill="white"/>
<path d="M337.441 400.26C337.395 400.06 337.3 399.874 337.167 399.719C337.033 399.563 336.863 399.443 336.673 399.367C336.482 399.291 336.276 399.263 336.072 399.284C335.868 399.306 335.672 399.376 335.501 399.49L335.441 399.54C335.284 399.679 335.166 399.857 335.099 400.056C335.032 400.254 335.017 400.467 335.057 400.673C335.097 400.879 335.189 401.071 335.326 401.231C335.462 401.39 335.638 401.511 335.835 401.582C336.033 401.653 336.245 401.672 336.452 401.636C336.659 401.6 336.853 401.511 337.014 401.378C337.176 401.244 337.301 401.071 337.376 400.875C337.45 400.679 337.473 400.467 337.441 400.26Z" fill="white"/>
<path d="M411.609 391.41C411.564 391.21 411.471 391.024 411.338 390.869C411.206 390.713 411.037 390.592 410.847 390.516C410.657 390.441 410.451 390.412 410.248 390.434C410.044 390.455 409.849 390.526 409.679 390.64L409.609 390.69C409.452 390.829 409.334 391.007 409.267 391.206C409.2 391.404 409.185 391.617 409.225 391.823C409.265 392.029 409.357 392.221 409.494 392.381C409.63 392.54 409.806 392.661 410.003 392.732C410.201 392.803 410.413 392.822 410.62 392.786C410.827 392.75 411.02 392.661 411.182 392.528C411.344 392.394 411.469 392.221 411.544 392.025C411.618 391.829 411.641 391.617 411.609 391.41Z" fill="white"/>
<path d="M365.719 435.38C365.671 435.181 365.575 434.997 365.441 434.843C365.307 434.689 365.138 434.569 364.948 434.494C364.758 434.419 364.553 434.39 364.35 434.41C364.146 434.43 363.951 434.499 363.779 434.61L363.709 434.67C363.552 434.81 363.435 434.988 363.368 435.187C363.301 435.386 363.287 435.6 363.327 435.806C363.368 436.012 363.461 436.204 363.598 436.363C363.736 436.522 363.912 436.643 364.11 436.713C364.308 436.783 364.521 436.801 364.728 436.764C364.934 436.727 365.128 436.637 365.289 436.502C365.451 436.368 365.574 436.194 365.648 435.997C365.722 435.8 365.743 435.587 365.709 435.38H365.719Z" fill="white"/>
<path d="M385.291 410.9C385.244 410.702 385.15 410.518 385.017 410.363C384.884 410.209 384.715 410.089 384.526 410.014C384.337 409.938 384.132 409.909 383.93 409.93C383.727 409.95 383.532 410.019 383.361 410.13L383.291 410.19C383.134 410.33 383.017 410.508 382.95 410.707C382.883 410.906 382.869 411.12 382.909 411.326C382.95 411.532 383.043 411.724 383.18 411.883C383.318 412.042 383.494 412.163 383.692 412.233C383.89 412.303 384.103 412.321 384.31 412.284C384.516 412.247 384.71 412.157 384.871 412.022C385.033 411.888 385.156 411.714 385.23 411.517C385.304 411.32 385.325 411.107 385.291 410.9Z" fill="white"/>
<path d="M396.92 430.81C396.875 430.611 396.784 430.426 396.653 430.269C396.522 430.113 396.356 429.99 396.168 429.911C395.98 429.831 395.776 429.798 395.573 429.814C395.37 429.829 395.173 429.893 395 430L394.94 430.06C394.783 430.2 394.665 430.378 394.598 430.577C394.531 430.776 394.517 430.99 394.558 431.196C394.598 431.402 394.692 431.594 394.829 431.753C394.966 431.912 395.142 432.033 395.34 432.103C395.538 432.174 395.751 432.191 395.958 432.154C396.165 432.117 396.359 432.027 396.52 431.892C396.681 431.758 396.805 431.584 396.878 431.387C396.952 431.19 396.973 430.977 396.94 430.77L396.92 430.81Z" fill="white"/>
<path d="M364.571 326.55C364.522 326.351 364.427 326.167 364.293 326.013C364.159 325.859 363.989 325.739 363.8 325.664C363.61 325.589 363.404 325.56 363.201 325.58C362.998 325.6 362.802 325.669 362.631 325.78L362.561 325.84C362.404 325.98 362.286 326.158 362.219 326.357C362.152 326.556 362.138 326.769 362.179 326.976C362.219 327.182 362.313 327.374 362.45 327.533C362.587 327.692 362.763 327.813 362.961 327.883C363.159 327.953 363.372 327.971 363.579 327.934C363.786 327.897 363.98 327.807 364.141 327.672C364.302 327.538 364.426 327.363 364.5 327.167C364.573 326.97 364.594 326.757 364.561 326.55H364.571Z" fill="white"/>
<path d="M390.9 377.38C390.852 377.181 390.756 376.997 390.622 376.843C390.488 376.689 390.319 376.569 390.129 376.494C389.939 376.419 389.734 376.39 389.531 376.41C389.327 376.43 389.132 376.499 388.96 376.61L388.89 376.66C388.734 376.799 388.616 376.977 388.548 377.176C388.481 377.375 388.467 377.587 388.506 377.793C388.546 377.999 388.639 378.192 388.775 378.351C388.912 378.51 389.087 378.632 389.285 378.703C389.482 378.774 389.694 378.792 389.901 378.756C390.108 378.72 390.302 378.631 390.464 378.498C390.626 378.365 390.75 378.191 390.825 377.995C390.9 377.799 390.922 377.587 390.89 377.38H390.9Z" fill="white"/>
<path d="M382.361 396.63C382.313 396.431 382.217 396.247 382.083 396.093C381.949 395.939 381.78 395.819 381.59 395.744C381.4 395.669 381.195 395.64 380.992 395.66C380.788 395.68 380.593 395.749 380.421 395.86L380.351 395.91C380.194 396.049 380.077 396.227 380.009 396.426C379.942 396.625 379.927 396.837 379.967 397.043C380.007 397.249 380.1 397.442 380.236 397.601C380.373 397.76 380.548 397.882 380.745 397.953C380.943 398.024 381.155 398.042 381.362 398.006C381.569 397.97 381.763 397.881 381.925 397.748C382.087 397.615 382.211 397.441 382.286 397.245C382.361 397.049 382.383 396.837 382.351 396.63H382.361Z" fill="white"/>
<path d="M410.43 412.09C410.382 411.891 410.286 411.707 410.152 411.553C410.018 411.399 409.849 411.279 409.659 411.204C409.469 411.129 409.264 411.1 409.06 411.12C408.857 411.14 408.662 411.209 408.49 411.32L408.42 411.38C408.263 411.52 408.146 411.698 408.079 411.897C408.012 412.096 407.998 412.31 408.038 412.516C408.079 412.722 408.172 412.914 408.309 413.073C408.447 413.232 408.623 413.353 408.821 413.423C409.019 413.493 409.232 413.511 409.439 413.474C409.645 413.437 409.839 413.347 410 413.212C410.162 413.078 410.285 412.904 410.359 412.707C410.433 412.51 410.454 412.297 410.42 412.09H410.43Z" fill="white"/>
<path d="M333.619 434.42C333.573 434.22 333.478 434.034 333.345 433.879C333.211 433.724 333.041 433.603 332.851 433.527C332.66 433.451 332.454 433.423 332.25 433.444C332.046 433.466 331.85 433.536 331.679 433.65L331.609 433.7C331.452 433.839 331.334 434.017 331.267 434.216C331.2 434.414 331.185 434.627 331.225 434.833C331.265 435.039 331.357 435.231 331.494 435.391C331.63 435.55 331.806 435.671 332.003 435.742C332.201 435.814 332.413 435.832 332.62 435.796C332.827 435.76 333.02 435.671 333.182 435.538C333.344 435.405 333.469 435.231 333.544 435.035C333.618 434.839 333.641 434.627 333.609 434.42H333.619Z" fill="white"/>
<path d="M269.619 428.57C269.57 428.371 269.475 428.187 269.341 428.033C269.207 427.879 269.038 427.759 268.848 427.684C268.658 427.609 268.453 427.58 268.249 427.6C268.046 427.62 267.85 427.689 267.679 427.8L267.609 427.86C267.448 428 267.326 428.179 267.256 428.381C267.185 428.582 267.169 428.798 267.209 429.008C267.248 429.218 267.342 429.413 267.481 429.576C267.619 429.738 267.798 429.861 267.999 429.932C268.2 430.003 268.417 430.021 268.627 429.982C268.836 429.944 269.033 429.851 269.196 429.713C269.358 429.576 269.482 429.398 269.555 429.197C269.627 428.996 269.646 428.78 269.609 428.57H269.619Z" fill="white"/>
<path d="M325.998 418.06C325.949 417.861 325.854 417.677 325.72 417.523C325.586 417.369 325.417 417.249 325.227 417.174C325.037 417.098 324.831 417.07 324.628 417.09C324.425 417.11 324.229 417.178 324.058 417.29L323.988 417.35C323.826 417.489 323.705 417.669 323.634 417.87C323.564 418.072 323.548 418.288 323.588 418.498C323.627 418.708 323.721 418.903 323.86 419.065C323.998 419.227 324.177 419.35 324.378 419.422C324.579 419.493 324.796 419.51 325.006 419.472C325.215 419.434 325.412 419.341 325.574 419.203C325.737 419.065 325.861 418.887 325.934 418.687C326.006 418.486 326.025 418.27 325.988 418.06H325.998Z" fill="white"/>
<path d="M272 406.63C271.953 406.43 271.859 406.244 271.725 406.089C271.591 405.933 271.422 405.813 271.231 405.737C271.041 405.661 270.834 405.633 270.63 405.654C270.426 405.676 270.23 405.746 270.06 405.86L270 405.91C269.843 406.049 269.725 406.227 269.658 406.426C269.59 406.624 269.576 406.837 269.616 407.043C269.655 407.249 269.748 407.441 269.885 407.601C270.021 407.76 270.196 407.881 270.394 407.952C270.591 408.023 270.804 408.042 271.011 408.006C271.217 407.97 271.411 407.881 271.573 407.748C271.735 407.615 271.859 407.441 271.934 407.245C272.009 407.049 272.032 406.837 272 406.63Z" fill="white"/>
<path d="M362.201 370.33C362.153 370.131 362.057 369.947 361.923 369.793C361.789 369.639 361.62 369.519 361.43 369.444C361.24 369.368 361.035 369.34 360.831 369.36C360.628 369.38 360.432 369.448 360.261 369.56L360.191 369.61C360.034 369.749 359.916 369.927 359.849 370.126C359.782 370.324 359.767 370.537 359.807 370.743C359.847 370.949 359.939 371.141 360.076 371.301C360.212 371.46 360.388 371.581 360.585 371.652C360.783 371.723 360.995 371.742 361.202 371.706C361.409 371.67 361.603 371.581 361.764 371.448C361.926 371.314 362.051 371.141 362.126 370.945C362.2 370.749 362.223 370.537 362.191 370.33H362.201Z" fill="white"/>
<path d="M343.318 315.24C343.27 315.041 343.174 314.857 343.04 314.703C342.906 314.549 342.737 314.429 342.547 314.354C342.357 314.279 342.152 314.25 341.949 314.27C341.745 314.29 341.55 314.359 341.378 314.47H341.308C341.151 314.609 341.034 314.787 340.966 314.986C340.899 315.184 340.885 315.397 340.924 315.603C340.964 315.809 341.057 316.001 341.193 316.161C341.33 316.32 341.505 316.441 341.702 316.512C341.9 316.584 342.112 316.602 342.319 316.566C342.526 316.53 342.72 316.441 342.882 316.308C343.044 316.175 343.168 316.001 343.243 315.805C343.318 315.609 343.34 315.397 343.308 315.19L343.318 315.24Z" fill="white"/>
<path d="M338.6 363C338.551 362.802 338.456 362.618 338.322 362.463C338.188 362.309 338.019 362.19 337.829 362.114C337.639 362.039 337.433 362.01 337.23 362.03C337.027 362.05 336.831 362.119 336.66 362.23L336.6 362.29C336.443 362.43 336.325 362.608 336.258 362.807C336.191 363.007 336.178 363.22 336.218 363.426C336.258 363.632 336.352 363.824 336.489 363.983C336.626 364.142 336.802 364.263 337 364.333C337.198 364.404 337.411 364.421 337.618 364.384C337.825 364.347 338.019 364.257 338.18 364.122C338.341 363.988 338.465 363.814 338.539 363.617C338.612 363.42 338.633 363.207 338.6 363Z" fill="white"/>
<path d="M330.922 347.43C330.873 347.231 330.778 347.047 330.644 346.893C330.509 346.739 330.34 346.619 330.15 346.544C329.96 346.469 329.755 346.44 329.552 346.46C329.349 346.48 329.153 346.549 328.982 346.66H328.922C328.765 346.799 328.647 346.977 328.58 347.176C328.512 347.374 328.498 347.587 328.538 347.793C328.577 347.999 328.67 348.191 328.806 348.351C328.943 348.51 329.118 348.631 329.316 348.702C329.513 348.773 329.726 348.792 329.932 348.756C330.139 348.72 330.333 348.631 330.495 348.498C330.657 348.365 330.781 348.191 330.856 347.995C330.931 347.799 330.953 347.587 330.922 347.38V347.43Z" fill="white"/>
<path d="M364.888 396.41C364.84 396.211 364.745 396.027 364.61 395.873C364.476 395.719 364.307 395.599 364.117 395.524C363.927 395.449 363.722 395.42 363.519 395.44C363.315 395.46 363.12 395.529 362.948 395.64L362.878 395.7C362.717 395.839 362.595 396.019 362.525 396.22C362.455 396.422 362.439 396.638 362.478 396.848C362.518 397.058 362.611 397.253 362.75 397.415C362.889 397.577 363.068 397.7 363.269 397.772C363.47 397.843 363.686 397.861 363.896 397.822C364.106 397.784 364.302 397.691 364.465 397.553C364.628 397.416 364.752 397.237 364.824 397.037C364.897 396.836 364.916 396.62 364.878 396.41H364.888Z" fill="white"/>
<path d="M340.938 386.8C340.895 386.598 340.804 386.409 340.672 386.25C340.54 386.091 340.371 385.966 340.179 385.887C339.988 385.809 339.781 385.778 339.575 385.797C339.369 385.817 339.171 385.886 338.998 386L338.928 386.06C338.771 386.2 338.654 386.378 338.587 386.577C338.52 386.776 338.506 386.99 338.546 387.196C338.586 387.402 338.68 387.594 338.817 387.753C338.954 387.912 339.131 388.033 339.329 388.103C339.527 388.173 339.74 388.191 339.946 388.154C340.153 388.117 340.347 388.027 340.508 387.892C340.67 387.758 340.793 387.584 340.867 387.387C340.94 387.19 340.961 386.977 340.928 386.77L340.938 386.8Z" fill="white"/>
<path d="M351.191 334.05C351.144 333.852 351.05 333.668 350.917 333.513C350.784 333.359 350.615 333.239 350.426 333.164C350.237 333.088 350.032 333.059 349.829 333.08C349.627 333.1 349.432 333.168 349.261 333.28L349.191 333.33C349.034 333.469 348.916 333.647 348.849 333.846C348.782 334.045 348.767 334.257 348.807 334.463C348.847 334.669 348.939 334.861 349.076 335.021C349.212 335.18 349.388 335.301 349.585 335.373C349.783 335.444 349.995 335.462 350.202 335.426C350.409 335.39 350.603 335.301 350.764 335.168C350.926 335.035 351.051 334.861 351.126 334.665C351.2 334.469 351.223 334.257 351.191 334.05Z" fill="white"/>
<path d="M314.74 371.4C314.692 371.201 314.597 371.018 314.462 370.863C314.328 370.709 314.159 370.589 313.969 370.514C313.779 370.439 313.574 370.41 313.371 370.43C313.167 370.45 312.972 370.519 312.8 370.63L312.74 370.69C312.584 370.83 312.466 371.008 312.399 371.207C312.332 371.406 312.318 371.62 312.359 371.826C312.399 372.032 312.492 372.224 312.63 372.383C312.767 372.542 312.943 372.663 313.141 372.733C313.339 372.803 313.552 372.821 313.759 372.784C313.966 372.747 314.159 372.657 314.321 372.522C314.482 372.388 314.606 372.214 314.679 372.017C314.753 371.82 314.774 371.607 314.74 371.4Z" fill="white"/>
<path d="M370.998 354.26C370.949 354.061 370.854 353.877 370.72 353.723C370.586 353.569 370.417 353.449 370.227 353.374C370.037 353.299 369.832 353.27 369.628 353.29C369.425 353.31 369.229 353.379 369.058 353.49L368.988 353.54C368.831 353.679 368.713 353.857 368.646 354.056C368.579 354.254 368.564 354.467 368.604 354.673C368.644 354.879 368.736 355.071 368.873 355.231C369.009 355.39 369.185 355.511 369.382 355.582C369.58 355.654 369.792 355.672 369.999 355.636C370.206 355.6 370.399 355.511 370.561 355.378C370.723 355.245 370.848 355.071 370.923 354.875C370.997 354.679 371.02 354.467 370.988 354.26H370.998Z" fill="white"/>
<path d="M423.188 309.5C423.139 309.302 423.044 309.118 422.91 308.963C422.776 308.809 422.607 308.69 422.417 308.614C422.227 308.539 422.022 308.51 421.818 308.53C421.615 308.55 421.419 308.619 421.248 308.73L421.178 308.79C421.021 308.93 420.904 309.108 420.837 309.307C420.77 309.507 420.756 309.72 420.796 309.926C420.836 310.132 420.93 310.324 421.067 310.483C421.204 310.642 421.381 310.763 421.579 310.833C421.777 310.904 421.99 310.921 422.196 310.884C422.403 310.847 422.597 310.757 422.758 310.622C422.92 310.488 423.043 310.314 423.117 310.117C423.19 309.92 423.211 309.707 423.178 309.5H423.188Z" fill="white"/>
<path d="M402 275.61C401.952 275.411 401.857 275.227 401.722 275.073C401.588 274.919 401.419 274.799 401.229 274.724C401.039 274.649 400.834 274.62 400.631 274.64C400.427 274.66 400.232 274.729 400.06 274.84L399.99 274.9C399.834 275.04 399.716 275.218 399.649 275.417C399.582 275.616 399.568 275.83 399.609 276.036C399.649 276.242 399.742 276.434 399.88 276.593C400.017 276.752 400.193 276.873 400.391 276.943C400.589 277.013 400.802 277.031 401.009 276.994C401.216 276.957 401.409 276.867 401.571 276.732C401.732 276.598 401.856 276.423 401.929 276.227C402.003 276.03 402.024 275.817 401.99 275.61H402Z" fill="white"/>
<path d="M360.939 279.86C360.891 279.661 360.795 279.477 360.661 279.323C360.527 279.169 360.358 279.049 360.168 278.974C359.978 278.899 359.773 278.87 359.57 278.89C359.366 278.91 359.171 278.979 358.999 279.09L358.929 279.14C358.773 279.279 358.655 279.457 358.587 279.656C358.52 279.855 358.506 280.067 358.545 280.273C358.585 280.479 358.678 280.672 358.814 280.831C358.951 280.99 359.126 281.112 359.324 281.183C359.521 281.254 359.734 281.272 359.94 281.236C360.147 281.2 360.341 281.111 360.503 280.978C360.665 280.845 360.789 280.671 360.864 280.475C360.939 280.279 360.961 280.067 360.929 279.86H360.939Z" fill="white"/>
<path d="M319.049 158.21C311.179 163.21 308.049 173.72 309.529 179.93C310.289 183.06 311.709 186.21 311.089 189.36C310.559 192.09 308.589 194.28 307.089 196.64C304.617 200.613 303.482 205.272 303.849 209.936C304.215 214.601 306.065 219.025 309.127 222.563C312.188 226.101 316.302 228.566 320.865 229.598C325.429 230.631 330.203 230.176 334.489 228.3" fill="#263238"/>
<path d="M314.389 199.2C295.229 157.06 340.809 135.89 365.669 142.91C389.039 149.51 399.009 161.14 402.859 176.77C406.709 192.4 406.519 209.35 400.389 224.24C397.389 231.58 391.929 239.04 384.039 239.96" fill="#263238"/>
<path d="M336.839 302.11C336.509 281.97 336.269 254.32 336.269 254.43C336.269 254.54 318.999 251.56 315.369 229C313.589 217.77 314.159 199.36 315.099 184.31C315.959 170.76 324.929 154.14 338.429 155.57L380.579 166.22C382.558 166.427 384.386 167.372 385.701 168.865C387.017 170.358 387.722 172.291 387.679 174.28L384.939 261.45" fill="#FFBE9D"/>
<path d="M322.641 198.08C322.625 198.829 322.902 199.556 323.414 200.103C323.926 200.651 324.632 200.976 325.381 201.01C325.747 201.044 326.117 201.005 326.467 200.894C326.818 200.783 327.142 200.602 327.422 200.364C327.702 200.125 327.931 199.833 328.096 199.504C328.26 199.175 328.357 198.817 328.381 198.45C328.395 197.7 328.117 196.974 327.606 196.426C327.095 195.877 326.39 195.549 325.641 195.51C325.275 195.477 324.905 195.518 324.555 195.63C324.204 195.742 323.879 195.924 323.6 196.163C323.32 196.402 323.092 196.695 322.927 197.025C322.762 197.354 322.665 197.713 322.641 198.08Z" fill="#263238"/>
<path d="M352.559 198.08C352.545 198.828 352.824 199.551 353.336 200.097C353.847 200.642 354.552 200.966 355.299 201C355.665 201.034 356.034 200.995 356.385 200.884C356.736 200.773 357.06 200.592 357.34 200.354C357.62 200.115 357.849 199.823 358.013 199.494C358.178 199.165 358.275 198.807 358.299 198.44C358.316 197.69 358.038 196.964 357.526 196.417C357.014 195.869 356.308 195.544 355.559 195.51C355.192 195.476 354.822 195.516 354.471 195.627C354.12 195.739 353.795 195.92 353.515 196.16C353.235 196.399 353.006 196.693 352.842 197.023C352.678 197.353 352.582 197.712 352.559 198.08Z" fill="#263238"/>
<path d="M319.518 192.82C319.868 193.21 322.118 191.66 325.228 191.82C328.338 191.98 330.568 193.56 330.928 193.19C331.098 193.03 330.748 192.34 329.778 191.58C328.464 190.598 326.877 190.049 325.238 190.01C323.617 189.953 322.021 190.411 320.678 191.32C319.698 192 319.348 192.64 319.518 192.82Z" fill="#263238"/>
<path d="M349.099 193.56C349.459 193.94 351.649 192.3 354.759 192.3C357.869 192.3 360.169 193.84 360.499 193.46C360.669 193.29 360.299 192.61 359.299 191.89C357.948 190.957 356.34 190.467 354.699 190.49C353.079 190.49 351.502 191.009 350.199 191.97C349.239 192.71 348.919 193.39 349.099 193.56Z" fill="#263238"/>
<path d="M338.42 217.56C338.42 217.38 336.5 217.05 333.36 216.64C332.56 216.56 331.81 216.4 331.68 215.86C331.609 215.037 331.794 214.213 332.21 213.5C332.95 211.58 333.74 209.56 334.56 207.44C337.83 198.82 340.19 191.72 339.84 191.59C339.49 191.46 336.56 198.35 333.3 206.98L331.04 213.08C330.539 214.039 330.394 215.144 330.63 216.2C330.746 216.48 330.924 216.73 331.151 216.931C331.378 217.132 331.648 217.278 331.94 217.36C332.379 217.483 332.833 217.547 333.29 217.55C336.45 217.72 338.41 217.73 338.42 217.56Z" fill="#263238"/>
<path d="M336.27 254.43C346.901 254.592 357.369 251.802 366.51 246.37C366.51 246.37 358.87 262.07 336.27 259.96V254.43Z" fill="#6C74E5"/>
<path d="M348.331 189.13C348.631 189.98 351.751 189.57 355.401 190.02C359.051 190.47 362.011 191.45 362.501 190.69C362.721 190.33 362.201 189.53 361.011 188.69C359.419 187.685 357.619 187.056 355.748 186.85C353.877 186.644 351.983 186.866 350.211 187.5C348.871 188.06 348.191 188.73 348.331 189.13Z" fill="#263238"/>
<path d="M320.239 185C320.789 185.71 322.939 185 325.519 184.94C328.099 184.88 330.289 185.42 330.789 184.68C331.009 184.32 330.669 183.61 329.709 182.94C328.435 182.117 326.935 181.711 325.419 181.78C323.904 181.81 322.434 182.305 321.209 183.2C320.299 183.91 319.999 184.64 320.239 185Z" fill="#263238"/>
<path d="M383.81 204C384.14 203.84 395.9 198.64 396.04 212.16C396.18 225.68 382.57 223.03 382.54 222.64C382.51 222.25 383.81 204 383.81 204Z" fill="#FFBE9D"/>
<path d="M386.619 217.46C386.679 217.46 386.859 217.62 387.259 217.8C387.824 218.025 388.454 218.025 389.019 217.8C390.439 217.26 391.619 214.98 391.659 212.54C391.689 211.382 391.453 210.232 390.969 209.18C390.84 208.758 390.609 208.374 390.297 208.062C389.985 207.75 389.601 207.519 389.179 207.39C388.908 207.32 388.621 207.348 388.369 207.469C388.117 207.589 387.915 207.795 387.799 208.05C387.619 208.43 387.709 208.7 387.639 208.72C387.569 208.74 387.339 208.5 387.449 207.94C387.52 207.605 387.703 207.305 387.969 207.09C388.152 206.947 388.36 206.842 388.583 206.78C388.806 206.718 389.039 206.701 389.269 206.73C389.825 206.834 390.345 207.079 390.779 207.442C391.213 207.804 391.547 208.271 391.749 208.8C392.338 209.964 392.633 211.255 392.609 212.56C392.549 215.28 391.179 217.85 389.229 218.43C388.867 218.539 388.486 218.566 388.112 218.509C387.738 218.452 387.382 218.312 387.069 218.1C386.649 217.79 386.579 217.48 386.619 217.46Z" fill="#6C74E5"/>
<path d="M333.931 148.88C326.411 152.77 323.311 168.15 326.421 176.03C329.531 183.91 337.921 187.75 346.191 189.56C354.461 191.37 362.571 191.56 370.731 189.32C371.291 194.8 374.581 200.43 379.901 201.88C386.951 203.79 394.051 197.34 395.621 190.21C397.191 183.08 394.831 175.74 392.511 168.81" fill="#263238"/>
<path d="M393.578 197.93C393.578 197.93 393.238 198.33 392.528 198.93C391.536 199.77 390.498 200.554 389.419 201.28C387.805 202.393 386.031 203.253 384.158 203.83C381.819 204.568 379.304 204.529 376.988 203.72C374.709 202.801 372.799 201.152 371.558 199.03C370.554 197.335 369.891 195.46 369.608 193.51C369.411 192.213 369.341 190.9 369.398 189.59C369.377 189.11 369.434 188.631 369.568 188.17C369.718 188.17 369.568 190.22 370.148 193.41C370.491 195.264 371.169 197.039 372.148 198.65C373.336 200.605 375.12 202.126 377.238 202.99C379.405 203.738 381.752 203.787 383.949 203.13C385.765 202.604 387.498 201.827 389.098 200.82C391.878 199.08 393.498 197.82 393.578 197.93Z" fill="#263238"/>
<path d="M339.341 226.24C339.739 227.412 340.305 228.52 341.021 229.53C341.381 230.035 341.845 230.459 342.381 230.771C342.917 231.083 343.514 231.277 344.131 231.34C344.791 231.335 345.44 231.168 346.019 230.852C346.598 230.536 347.09 230.082 347.451 229.53C348.149 228.398 348.47 227.075 348.371 225.75C348.321 224.56 347.771 223.14 346.591 223C346.095 222.982 345.603 223.093 345.161 223.32L338.941 225.84" fill="#6C74E5"/>
<path d="M341.82 231.35C341.82 231.16 343.22 231.71 345.14 230.94C346.228 230.519 347.122 229.711 347.65 228.67C347.948 228.035 348.109 227.344 348.122 226.643C348.136 225.942 348.002 225.246 347.73 224.6C347.586 224.27 347.404 223.958 347.19 223.67C346.94 223.41 346.98 223.42 346.72 223.46C346.46 223.5 346.05 223.72 345.72 223.85L344.72 224.27C343.39 224.81 342.18 225.27 341.17 225.66C339.17 226.42 337.84 226.82 337.78 226.66C337.72 226.5 338.9 225.86 340.86 224.92C341.86 224.45 343.01 223.92 344.32 223.31L345.32 222.86C345.69 222.71 345.96 222.55 346.46 222.39C346.758 222.291 347.081 222.291 347.38 222.39C347.653 222.506 347.891 222.693 348.07 222.93C348.737 223.797 349.14 224.839 349.231 225.93C349.321 227.02 349.095 228.114 348.58 229.08C348.248 229.693 347.797 230.234 347.255 230.671C346.713 231.109 346.089 231.435 345.42 231.63C344.55 231.915 343.619 231.953 342.73 231.74C342.09 231.63 341.8 231.42 341.82 231.35Z" fill="#263238"/>
<path d="M399.001 194.73C397.621 194.63 386.451 196.08 387.331 216.83C388.151 236.22 401.751 231.95 406.091 224.65C410.171 217.74 412.551 195.68 399.001 194.73Z" fill="#455A64"/>
<path d="M405.871 197.18C405.84 197.002 405.823 196.821 405.821 196.64C405.821 196.23 405.821 195.71 405.761 195.05C405.761 193.62 405.661 191.62 405.591 189.14C405.491 184.05 405.351 176.96 405.181 168.79L405.431 169.03H399.681L399.941 168.77C399.941 170.31 400.021 171.94 400.071 173.6C400.261 181.38 400.441 188.6 400.591 194.71V194.89H400.421C398.06 195.434 395.963 196.785 394.491 198.71C393.376 200.202 392.571 201.902 392.121 203.71C391.821 204.875 391.617 206.062 391.511 207.26C391.511 207.67 391.461 207.99 391.451 208.2C391.441 208.41 391.451 208.53 391.451 208.53C391.438 208.42 391.438 208.31 391.451 208.2C391.451 207.99 391.451 207.67 391.451 207.25C391.5 206.037 391.667 204.831 391.951 203.65C392.368 201.789 393.161 200.033 394.281 198.49C395.79 196.486 397.951 195.072 400.391 194.49L400.221 194.71C400.051 188.64 399.841 181.39 399.621 173.6C399.571 171.95 399.531 170.32 399.491 168.77V168.5H405.761V168.75C405.851 176.93 405.931 184.01 405.991 189.11C405.991 191.59 405.991 193.59 405.991 195.02C405.991 195.68 405.991 196.2 405.991 196.6C405.978 196.798 405.938 196.993 405.871 197.18Z" fill="#455A64"/>
<path d="M398.998 168.78C398.998 168.78 393.158 155.12 379.248 148.37C373.928 145.72 368.34 143.648 362.578 142.19C362.578 142.19 370.698 140.27 383.828 146.11C389.828 148.77 395.828 152.22 399.828 157.41C402.348 160.7 405.508 167.13 405.498 168.78H398.998Z" fill="#455A64"/>
<path d="M363 334.25C363 334.25 363.08 334.15 363.25 333.98C363.42 333.81 363.68 333.55 364 333.2C364.96 332.185 365.861 331.117 366.7 330C368.035 328.213 369.254 326.343 370.35 324.4C371.65 322.13 373.01 319.45 374.48 316.46C377.43 310.46 380.84 303.24 384.38 294.94C386.14 290.79 387.94 286.38 389.74 281.73L391.08 278.21C391.502 276.978 392.041 275.789 392.69 274.66C393.382 273.489 394.386 272.533 395.59 271.9C396.203 271.563 396.891 271.387 397.59 271.39C397.972 271.416 398.339 271.548 398.65 271.77C398.945 272.009 399.176 272.319 399.32 272.67V272.74V272.82C399.235 273.296 399.051 273.749 398.78 274.15C398.478 274.567 398.033 274.859 397.53 274.97C396.569 275.103 395.591 274.924 394.74 274.46C393.846 274.043 393.118 273.339 392.67 272.46C392.222 271.581 392.082 270.578 392.27 269.61C392.474 268.615 393.059 267.739 393.9 267.17C394.73 266.591 395.73 266.306 396.74 266.36C397.263 266.363 397.777 266.498 398.235 266.751C398.692 267.005 399.079 267.368 399.36 267.81C399.501 268.063 399.567 268.351 399.549 268.64C399.532 268.929 399.431 269.206 399.26 269.44C398.93 269.858 398.49 270.177 397.99 270.36C397.151 270.679 396.233 270.718 395.37 270.473C394.507 270.228 393.746 269.712 393.2 269C392.668 268.274 392.436 267.372 392.55 266.48C392.638 265.61 392.986 264.788 393.55 264.12C394.123 263.445 394.924 263.004 395.8 262.88C396.242 262.822 396.692 262.868 397.114 263.014C397.536 263.159 397.918 263.401 398.23 263.72C398.55 264.064 398.722 264.52 398.71 264.99C398.704 265.224 398.65 265.454 398.55 265.666C398.45 265.878 398.307 266.067 398.13 266.22C397.804 266.514 397.413 266.726 396.989 266.841C396.565 266.956 396.12 266.969 395.69 266.88C395.274 266.771 394.885 266.576 394.549 266.307C394.213 266.038 393.938 265.702 393.74 265.32C393.352 264.603 393.105 263.819 393.01 263.01C392.728 261.438 392.912 259.818 393.54 258.35C393.89 257.601 394.497 257.001 395.25 256.66C396.02 256.375 396.871 256.403 397.62 256.74C398.012 256.882 398.358 257.13 398.617 257.456C398.877 257.783 399.041 258.176 399.09 258.59C399.11 259.013 398.999 259.433 398.771 259.791C398.544 260.149 398.212 260.428 397.82 260.59C397.464 260.772 397.07 260.868 396.67 260.868C396.27 260.868 395.876 260.772 395.52 260.59C394.843 260.199 394.334 259.572 394.09 258.83C393.864 258.126 393.819 257.376 393.96 256.65C394.038 255.942 394.192 255.245 394.42 254.57C394.646 253.876 395.066 253.262 395.63 252.8C396.184 252.355 396.829 252.038 397.52 251.87C397.879 251.767 398.261 251.767 398.62 251.87C398.965 251.989 399.276 252.188 399.53 252.45C399.785 252.7 399.985 252.999 400.12 253.33C400.265 253.686 400.265 254.084 400.12 254.44C399.959 254.769 399.701 255.041 399.381 255.22C399.061 255.398 398.695 255.475 398.33 255.44C397.653 255.43 396.996 255.21 396.45 254.81C395.414 254.046 394.7 252.923 394.45 251.66C394.188 250.413 394.384 249.114 395 248C395.271 247.465 395.657 246.997 396.13 246.63C396.597 246.276 397.142 246.039 397.72 245.94C398.297 245.823 398.898 245.907 399.42 246.18C399.678 246.32 399.898 246.522 400.058 246.768C400.219 247.015 400.316 247.297 400.34 247.59C400.337 248.142 400.151 248.677 399.81 249.111C399.47 249.546 398.995 249.855 398.46 249.99C397.958 250.097 397.437 250.059 396.956 249.882C396.474 249.705 396.053 249.396 395.74 248.99C395.139 248.267 394.789 247.369 394.74 246.43C394.827 244.795 395.164 243.183 395.74 241.65C396.15 240.21 396.52 238.89 396.86 237.71C397.53 235.36 398.05 233.53 398.42 232.27C398.59 231.66 398.73 231.19 398.83 230.86C398.93 230.53 398.99 230.38 398.99 230.38C398.99 230.38 398.99 230.55 398.88 230.87C398.77 231.19 398.67 231.69 398.52 232.3C398.18 233.57 397.68 235.41 397.05 237.76L395.98 241.71C395.64 243.16 394.98 244.71 395.05 246.41C395.123 247.289 395.473 248.123 396.05 248.79C396.326 249.149 396.698 249.423 397.122 249.582C397.546 249.741 398.006 249.778 398.45 249.69C398.899 249.574 399.299 249.318 399.59 248.958C399.882 248.597 400.05 248.153 400.07 247.69C400.049 247.455 399.971 247.229 399.842 247.032C399.713 246.835 399.537 246.673 399.33 246.56C398.878 246.336 398.364 246.269 397.87 246.37C397.346 246.46 396.852 246.676 396.43 247C396.011 247.34 395.67 247.766 395.43 248.25C394.934 249.276 394.804 250.44 395.06 251.55C395.3 252.71 395.963 253.74 396.92 254.44C397.399 254.784 397.97 254.976 398.56 254.99C398.837 255.023 399.118 254.971 399.364 254.841C399.611 254.71 399.812 254.508 399.94 254.26C400.002 253.982 399.985 253.693 399.891 253.425C399.797 253.156 399.631 252.919 399.41 252.74C399.204 252.532 398.955 252.371 398.68 252.27C398.395 252.195 398.095 252.195 397.81 252.27C397.18 252.407 396.595 252.702 396.111 253.127C395.626 253.552 395.258 254.093 395.04 254.7C394.822 255.348 394.678 256.019 394.61 256.7C394.475 257.366 394.516 258.055 394.73 258.7C394.929 259.33 395.357 259.861 395.93 260.19C396.22 260.335 396.54 260.411 396.865 260.411C397.19 260.411 397.51 260.335 397.8 260.19C398.099 260.073 398.355 259.868 398.534 259.602C398.713 259.335 398.806 259.021 398.8 258.7C398.756 258.377 398.623 258.072 398.416 257.82C398.21 257.568 397.938 257.377 397.63 257.27C396.996 256.993 396.281 256.968 395.63 257.2C394.991 257.498 394.478 258.011 394.18 258.65C393.606 260.031 393.443 261.548 393.71 263.02C393.798 263.766 394.025 264.488 394.38 265.15C394.543 265.468 394.77 265.748 395.047 265.974C395.325 266.199 395.646 266.365 395.99 266.46C396.342 266.535 396.706 266.527 397.054 266.435C397.401 266.343 397.722 266.17 397.99 265.93C398.115 265.819 398.217 265.684 398.289 265.533C398.36 265.381 398.401 265.217 398.407 265.05C398.414 264.883 398.386 264.716 398.327 264.559C398.267 264.403 398.176 264.26 398.06 264.14C397.8 263.883 397.485 263.688 397.138 263.572C396.791 263.456 396.422 263.421 396.06 263.47C395.308 263.58 394.624 263.965 394.14 264.55C393.615 265.113 393.295 265.836 393.23 266.603C393.164 267.37 393.358 268.136 393.78 268.78C394.26 269.396 394.925 269.842 395.677 270.055C396.428 270.267 397.228 270.234 397.96 269.96C398.352 269.799 398.696 269.541 398.96 269.21C399.073 269.055 399.138 268.87 399.149 268.679C399.159 268.487 399.115 268.297 399.02 268.13C398.78 267.77 398.454 267.474 398.072 267.27C397.69 267.066 397.263 266.959 396.83 266.96C395.946 266.891 395.066 267.137 394.347 267.655C393.627 268.173 393.115 268.93 392.9 269.79C392.737 270.625 392.855 271.49 393.234 272.252C393.614 273.013 394.235 273.628 395 274C395.743 274.422 396.603 274.59 397.45 274.48C397.831 274.361 398.169 274.131 398.418 273.819C398.668 273.507 398.818 273.128 398.85 272.73V272.88C398.753 272.604 398.577 272.362 398.345 272.184C398.112 272.006 397.832 271.9 397.54 271.88C396.92 271.877 396.31 272.035 395.77 272.34C394.643 272.93 393.704 273.823 393.06 274.92C392.426 276.016 391.9 277.172 391.49 278.37L390.13 281.9C388.33 286.54 386.51 290.9 384.73 295.1C381.17 303.4 377.73 310.64 374.73 316.6C373.24 319.6 371.86 322.25 370.53 324.52C369.409 326.456 368.163 328.317 366.8 330.09C365.686 331.609 364.412 333.003 363 334.25Z" fill="white"/>
<path d="M411.091 185C410.969 183.729 410.663 182.482 410.181 181.3C408.728 178.119 406.18 175.567 403.001 174.11C400.818 173.124 398.472 172.551 396.081 172.42C393.329 172.278 390.57 172.487 387.871 173.04C382.141 174.1 376.121 176.57 369.381 177.59C366.095 178.025 362.767 178.025 359.481 177.59C356.431 177.131 353.444 176.318 350.581 175.17C345.72 173.212 341.3 170.302 337.581 166.61C335.078 164.141 332.96 161.309 331.301 158.21C331.021 157.738 330.773 157.246 330.561 156.74L330.081 155.63C329.961 155.36 329.871 155.13 329.791 154.95C329.753 154.874 329.726 154.793 329.711 154.71C329.764 154.777 329.807 154.851 329.841 154.93L330.171 155.59L330.701 156.67C330.929 157.17 331.189 157.654 331.481 158.12C333.196 161.154 335.338 163.925 337.841 166.35C343.745 172.132 351.333 175.89 359.511 177.08C362.75 177.51 366.032 177.51 369.271 177.08C375.921 176.08 381.951 173.62 387.751 172.58C390.488 172.033 393.284 171.838 396.071 172C398.513 172.148 400.904 172.755 403.121 173.79C406.354 175.304 408.919 177.951 410.331 181.23C410.682 182.122 410.914 183.057 411.021 184.01V184.75C411.057 184.829 411.08 184.914 411.091 185Z" fill="#455A64"/>
<path d="M396 163.45C395.764 163.508 395.523 163.548 395.28 163.57C394.81 163.64 394.11 163.74 393.22 163.9C391.44 164.19 388.89 164.76 385.75 165.54C382.077 166.53 378.338 167.255 374.56 167.71C369.919 168.185 365.236 168.081 360.62 167.4C356.003 166.73 351.481 165.515 347.15 163.78C343.6 162.374 340.199 160.615 337 158.53C335.66 157.62 334.46 156.78 333.44 155.98C332.42 155.18 331.56 154.49 330.9 153.87L329.38 152.44C329.04 152.11 328.86 151.93 328.88 151.91C329.084 152.042 329.275 152.192 329.45 152.36L331.03 153.71C331.71 154.31 332.62 154.95 333.62 155.71C334.62 156.47 335.86 157.3 337.2 158.18C344.329 162.677 352.321 165.63 360.66 166.85C365.24 167.52 369.884 167.634 374.49 167.19C378.246 166.781 381.968 166.113 385.63 165.19C388.78 164.46 391.36 163.94 393.16 163.7C394.06 163.58 394.76 163.51 395.24 163.48C395.492 163.443 395.747 163.433 396 163.45Z" fill="#455A64"/>
<path d="M397.48 230.45C397.346 230.424 397.216 230.384 397.09 230.33C396.742 230.183 396.407 230.006 396.09 229.8C394.881 229.005 393.877 227.936 393.16 226.68C392.134 224.801 391.521 222.725 391.36 220.59C391.13 218.008 391.13 215.411 391.36 212.83C391.577 210.249 392.005 207.691 392.64 205.18C393.095 203.106 393.846 201.109 394.87 199.25C395.608 197.989 396.637 196.923 397.87 196.14C398.185 195.933 398.52 195.758 398.87 195.62C399.12 195.53 399.26 195.49 399.26 195.51C399.26 195.53 398.75 195.74 397.94 196.31C396.81 197.137 395.875 198.202 395.2 199.43C394.238 201.281 393.538 203.256 393.12 205.3C392.513 207.791 392.099 210.325 391.88 212.88C391.671 215.429 391.671 217.991 391.88 220.54C392.008 222.632 392.566 224.674 393.52 226.54C394.18 227.777 395.11 228.85 396.24 229.68C397 230.21 397.51 230.4 397.48 230.45Z" fill="#263238"/>
<path d="M352.502 227.36L342.238 229.374C340.694 229.677 339.687 231.175 339.99 232.72L340.065 233.102C340.368 234.647 341.866 235.653 343.411 235.35L353.675 233.336C355.219 233.033 356.226 231.536 355.923 229.991L355.848 229.608C355.545 228.064 354.047 227.057 352.502 227.36Z" fill="#455A64"/>
<path d="M354.469 228.88L401.919 214C402.482 213.824 403.093 213.877 403.617 214.149C404.141 214.42 404.537 214.888 404.719 215.45C404.81 215.739 404.843 216.043 404.814 216.345C404.785 216.646 404.695 216.939 404.551 217.205C404.406 217.471 404.209 217.705 403.971 217.893C403.734 218.082 403.461 218.22 403.169 218.3L354.649 231.4L354.469 228.88Z" fill="#455A64"/>
<path d="M389.54 222.34C390.048 222.116 390.573 221.932 391.11 221.79L395.45 220.47C397.27 219.91 399.51 219.31 401.87 218.54C402.453 218.322 402.982 217.981 403.42 217.54C403.852 217.1 404.093 216.507 404.09 215.89C404.088 215.587 403.99 215.292 403.81 215.048C403.631 214.804 403.379 214.622 403.09 214.53C402.431 214.362 401.738 214.383 401.09 214.59L386.86 219.17L382.53 220.51C382.034 220.714 381.522 220.878 381 221C381.5 220.756 382.018 220.553 382.55 220.39L386.83 218.89C390.46 217.66 395.44 215.95 401.04 214.16C401.785 213.944 402.575 213.944 403.32 214.16C403.7 214.297 404.03 214.546 404.266 214.875C404.501 215.203 404.632 215.596 404.64 216C404.641 216.748 404.346 217.467 403.82 218C403.294 218.462 402.672 218.803 402 219C399.55 219.77 397.36 220.31 395.51 220.83L391.17 222C390.639 222.164 390.093 222.278 389.54 222.34Z" fill="#263238"/>
<path d="M312.001 186C313.621 191.7 307.831 196.59 305.791 202.16C303.791 207.54 305.491 213.57 307.921 218.77C310.351 223.97 313.551 228.89 314.791 234.48C317.861 248.28 305.381 263.15 307.791 277.08C308.651 282.16 310.701 287.46 312.471 292.29C314.181 296.845 314.181 301.865 312.471 306.42C309.771 314.42 305.191 318.17 301.971 325.95C300.321 329.95 300.451 334.39 300.531 338.69C300.611 342.99 300.591 347.49 298.671 351.35C296.751 355.21 292.371 358.19 288.211 357.07C290.456 359.585 293.467 361.29 296.779 361.921C300.091 362.552 303.518 362.074 306.531 360.56C312.001 357.64 315.061 351.72 317.681 346.1C330.361 318.89 337.071 316.59 336.681 286.57C336.681 284.64 336.301 254.57 336.301 254.57C333.673 253.865 331.153 252.805 328.811 251.42C314.651 241.64 314.131 224.22 314.241 210.71" fill="#263238"/>
<path d="M340.298 277.08V288.41C340.298 288.41 331.588 332.86 328.968 357.55C326.348 382.24 325.918 388.76 325.918 388.76C325.918 388.76 332.168 398.51 345.238 381.95C358.308 365.39 360.638 362.78 365.868 362.49C365.868 362.49 359.478 293.06 359.768 290.49C360.092 288.668 360.892 286.963 362.088 285.55L340.298 277.08Z" fill="#FFBE9D"/>
<path d="M357.441 251.52C357.441 251.52 343.211 270.4 342.051 273C340.891 275.6 340.301 277.06 340.301 277.06L362.091 285.49L383.301 262.25L391.141 241.62L388.811 217.22C388.811 217.22 384.171 216.93 383.301 221C382.767 223.577 382.569 226.212 382.711 228.84L376.211 223.61L365.721 220.42C365.721 220.42 363.251 224.48 367.321 226.52C371.391 228.56 372.551 228.52 372.551 228.52L376.211 234.91L374.611 242.07L367.191 235.07C366.472 234.391 365.539 233.986 364.552 233.924C363.566 233.861 362.589 234.147 361.791 234.73L356.991 238.21L352.501 236.21L343.791 244L340.301 247.19C340.301 247.19 342.631 251.55 347.301 249.52L351.951 247.52L357.441 251.52Z" fill="#FFBE9D"/>
<path d="M340.3 280.91C340.287 280.707 340.287 280.503 340.3 280.3C340.3 279.9 340.35 279.3 340.44 278.53C340.557 277.568 340.741 276.616 340.99 275.68C341.301 274.388 341.814 273.152 342.51 272.02C345.77 267.02 350.9 260.02 357.3 251.41V251.67L351.78 247.61H351.97L349.1 248.88C348.115 249.36 347.091 249.758 346.04 250.07C344.896 250.344 343.692 250.206 342.64 249.68C341.57 249.129 340.681 248.282 340.08 247.24L340 247.1L340.13 246.98C343.87 243.46 348.04 239.91 352.32 236.11L352.45 236L352.59 236.08L356.46 238.37H356.21L360.73 235.37C361.52 234.86 362.23 234.37 363.08 233.85C363.543 233.62 364.06 233.522 364.575 233.566C365.09 233.61 365.583 233.795 366 234.1L374.81 241.55L374.4 241.69C374.88 239.54 375.4 237.21 375.92 234.86V235.04L372.26 228.65L372.49 228.78C371.868 228.695 371.26 228.53 370.68 228.29C370.11 228.08 369.54 227.84 368.97 227.59C368.4 227.34 367.84 227.06 367.28 226.79C366.99 226.65 366.71 226.46 366.43 226.3C366.156 226.105 365.902 225.884 365.67 225.64C365.334 225.284 365.073 224.864 364.901 224.406C364.729 223.947 364.651 223.459 364.67 222.97C364.702 222.014 364.966 221.081 365.44 220.25L365.54 220.08L365.74 220.14L376.22 223.34H376.27L382.77 228.57L382.36 228.79C382.22 226.2 382.405 223.603 382.91 221.06C383.016 220.404 383.26 219.778 383.625 219.223C383.991 218.668 384.469 218.197 385.03 217.84C386.148 217.18 387.433 216.857 388.73 216.91H389V217.13C389.82 225.8 390.59 233.98 391.3 241.53V241.58C388.4 249.18 385.76 256.08 383.42 262.19L367 280.31L362.54 285.14C362.03 285.67 361.64 286.09 361.37 286.38L360.96 286.79C360.96 286.79 361.08 286.63 361.33 286.34L362.46 285.07L366.86 280.18L383.2 262.18V262.23L391 241.59V241.69C390.27 234.14 389.49 225.97 388.65 217.29L388.88 217.52C387.687 217.471 386.506 217.77 385.48 218.38C384.976 218.7 384.547 219.125 384.221 219.625C383.895 220.125 383.68 220.69 383.59 221.28C383.089 223.777 382.907 226.327 383.05 228.87V229.45L382.6 229.09L376 223.83H376.09L365.61 220.64L365.9 220.52C365.478 221.274 365.242 222.117 365.21 222.98C365.192 223.403 365.259 223.825 365.406 224.222C365.554 224.619 365.78 224.982 366.07 225.29C366.277 225.501 366.501 225.695 366.74 225.87C367.01 226.02 367.25 226.18 367.53 226.32C368.09 226.59 368.64 226.87 369.2 227.11C370.254 227.624 371.365 228.01 372.51 228.26H372.67L372.73 228.36L376.39 234.75L376.44 234.84V234.94C375.91 237.29 375.44 239.62 374.91 241.77L374.82 242.19L374.49 241.91L365.71 234.48C365.369 234.226 364.964 234.071 364.541 234.032C364.117 233.993 363.692 234.072 363.31 234.26C362.57 234.7 361.77 235.26 361.01 235.75L356.48 238.75L356.36 238.83L356.23 238.76L352.36 236.46H352.64C348.36 240.24 344.18 243.79 340.43 247.29L340.48 247.03C341.032 247.995 341.852 248.78 342.84 249.29C343.803 249.78 344.91 249.908 345.96 249.65C346.989 249.348 347.993 248.964 348.96 248.5L351.83 247.24H351.94L352.03 247.3L357.54 251.38L357.69 251.49L357.58 251.64C351.15 260.25 345.97 267.19 342.67 272.14C341.975 273.252 341.453 274.462 341.12 275.73C340.865 276.657 340.668 277.599 340.53 278.55C340.42 279.32 340.37 279.92 340.34 280.31C340.31 280.7 340.3 280.91 340.3 280.91Z" fill="#6C74E5"/>
<path d="M367.258 255.89C367.158 255.89 367.538 254.35 367.698 251.89C367.803 250.456 367.57 249.017 367.018 247.69C366.184 246.135 364.995 244.799 363.548 243.79C360.964 241.809 358.269 239.976 355.478 238.3L352.928 236.8C352.6 236.638 352.292 236.44 352.008 236.21C352.36 236.296 352.697 236.434 353.008 236.62C353.648 236.91 354.558 237.37 355.658 237.98C358.52 239.577 361.26 241.381 363.858 243.38C365.371 244.435 366.6 245.847 367.438 247.49C368.012 248.888 368.226 250.408 368.058 251.91C367.972 252.901 367.809 253.884 367.568 254.85C367.514 255.209 367.409 255.559 367.258 255.89Z" fill="#6C74E5"/>
<path d="M382.509 246.83C382.573 245.949 382.697 245.074 382.879 244.21C383.191 242.125 383.342 240.018 383.329 237.91C383.302 235.796 383.115 233.686 382.769 231.6C382.577 230.743 382.44 229.875 382.359 229C382.727 229.806 382.986 230.656 383.129 231.53C384.052 235.726 384.09 240.069 383.239 244.28C383.11 245.159 382.865 246.016 382.509 246.83Z" fill="#6C74E5"/>
<path d="M285.402 172.73L275.002 154.36C281.442 143.899 283.737 131.407 281.435 119.34C279.133 107.273 272.401 96.5029 262.562 89.1472C252.723 81.7915 240.488 78.3819 228.263 79.5887C216.037 80.7955 204.705 86.5313 196.494 95.6687C188.283 104.806 183.787 116.684 183.888 128.969C183.99 141.253 188.683 153.055 197.045 162.055C205.406 171.055 216.832 176.602 229.076 177.606C241.319 178.61 253.496 174.998 263.212 167.48L285.402 172.73Z" fill="white"/>
<path d="M285.402 172.73L263.142 167.63H262.952L263.072 167.47L263.252 167.65C260.133 170.071 256.74 172.115 253.142 173.74C248.858 175.657 244.322 176.95 239.672 177.58C237.095 177.939 234.492 178.07 231.892 177.97C230.562 177.9 229.192 177.86 227.822 177.75L223.672 177.12C211.303 174.672 200.334 167.598 193.002 157.34C188.909 151.673 186.078 145.194 184.702 138.34C183.281 131.103 183.479 123.642 185.282 116.49C187.135 109.015 190.745 102.09 195.812 96.2901L197.812 94.0801C198.472 93.3401 199.262 92.7301 199.972 92.0801C200.681 91.3759 201.425 90.7084 202.202 90.0801L204.562 88.3201C205.338 87.7446 206.154 87.2233 207.002 86.7601L209.492 85.2501L212.102 84.0001C212.951 83.5512 213.83 83.1603 214.732 82.8301C221.72 80.0696 229.237 78.9112 236.732 79.4401C243.823 79.9371 250.719 81.9854 256.932 85.4401C268.1 91.6551 276.45 101.928 280.252 114.13C281.779 119.323 282.501 124.719 282.392 130.13C282.261 134.818 281.453 139.463 279.992 143.92C278.771 147.629 277.116 151.18 275.062 154.5V154.37L285.372 172.8C284.932 172.03 281.592 166.24 274.842 154.49V154.43V154.37C276.863 151.057 278.491 147.52 279.692 143.83C281.117 139.394 281.902 134.778 282.022 130.12C282.109 124.757 281.377 119.412 279.852 114.27C276.054 102.189 267.764 92.0265 256.692 85.8801C250.535 82.4796 243.709 80.4692 236.692 79.9901C229.268 79.4671 221.821 80.6188 214.902 83.3601C214.01 83.687 213.141 84.0745 212.302 84.5201L209.722 85.7701L207.252 87.2701C206.408 87.739 205.602 88.274 204.842 88.8701L202.502 90.6101C201.712 91.1701 201.042 91.9001 200.302 92.5301C199.562 93.1601 198.822 93.8101 198.162 94.5301L196.162 96.7101C191.149 102.455 187.578 109.311 185.742 116.71C183.957 123.789 183.756 131.174 185.152 138.34C186.515 145.116 189.311 151.522 193.352 157.13C200.631 167.273 211.489 174.274 223.732 176.72L227.842 177.35C229.202 177.47 230.562 177.5 231.842 177.58C234.421 177.684 237.004 177.564 239.562 177.22C248.111 176.088 256.208 172.714 263.032 167.44L263.812 166.84L263.212 167.63L263.132 167.42L285.402 172.73Z" fill="#263238"/>
<path d="M222.473 128.63C222.473 129.421 222.238 130.194 221.799 130.852C221.359 131.51 220.734 132.023 220.003 132.325C219.272 132.628 218.468 132.707 217.692 132.553C216.916 132.399 216.204 132.018 215.644 131.458C215.085 130.899 214.704 130.186 214.55 129.41C214.395 128.634 214.474 127.83 214.777 127.099C215.08 126.368 215.593 125.744 216.25 125.304C216.908 124.864 217.682 124.63 218.473 124.63C219.534 124.63 220.551 125.051 221.301 125.801C222.051 126.552 222.473 127.569 222.473 128.63Z" fill="#263238"/>
<path d="M238.434 128.63C238.434 129.421 238.199 130.194 237.759 130.852C237.32 131.51 236.695 132.023 235.964 132.325C235.233 132.628 234.429 132.707 233.653 132.553C232.877 132.399 232.165 132.018 231.605 131.458C231.046 130.899 230.665 130.186 230.51 129.41C230.356 128.634 230.435 127.83 230.738 127.099C231.041 126.368 231.554 125.744 232.211 125.304C232.869 124.864 233.642 124.63 234.434 124.63C235.494 124.63 236.512 125.051 237.262 125.801C238.012 126.552 238.434 127.569 238.434 128.63Z" fill="#263238"/>
<path d="M254.361 126.63C254.759 127.315 254.945 128.102 254.894 128.893C254.844 129.683 254.56 130.441 254.079 131.07C253.598 131.699 252.941 132.171 252.191 132.426C251.441 132.681 250.632 132.708 249.867 132.503C249.102 132.298 248.415 131.871 247.893 131.275C247.372 130.679 247.038 129.942 246.936 129.156C246.834 128.371 246.967 127.573 247.318 126.863C247.67 126.154 248.224 125.564 248.911 125.17C249.828 124.644 250.916 124.502 251.937 124.775C252.959 125.049 253.83 125.716 254.361 126.63Z" fill="#263238"/>
<path d="M482 442.14C482 442.29 380.34 442.4 255 442.4C129.66 442.4 28 442.29 28 442.14C28 441.99 129.63 441.88 255.05 441.88C380.47 441.88 482 442 482 442.14Z" fill="#263238"/>
<path d="M353.551 442.39C355.897 438.819 359.062 435.86 362.783 433.759C366.503 431.658 370.671 430.476 374.941 430.31C389.551 429.81 396.851 442.39 396.851 442.39H353.551Z" fill="#455A64"/>
<path d="M381.551 442C381.358 441.284 381.214 440.556 381.121 439.82C380.335 436.351 378.267 433.307 375.331 431.3C374.684 430.938 374.06 430.537 373.461 430.1C374.216 430.216 374.936 430.496 375.571 430.92C377.165 431.851 378.531 433.125 379.569 434.651C380.607 436.177 381.291 437.916 381.571 439.74C381.728 440.486 381.721 441.257 381.551 442Z" fill="#263238"/>
<path d="M344.509 441.86V441.76C344.486 440.289 343.884 438.886 342.834 437.855C341.784 436.824 340.371 436.247 338.899 436.25H214.559C213.071 436.25 211.644 436.841 210.592 437.893C209.54 438.945 208.949 440.372 208.949 441.86H344.509Z" fill="#455A64"/>
<path d="M106.473 224C106.473 226.62 108.473 382.78 108.473 382.78L224.473 410.69H234.003L227.903 192.69H219.183L106.473 224Z" fill="#263238"/>
<path d="M131.001 376.29L95.0508 442.17H127.911C122.031 441.59 179.911 442.17 179.911 442.17L127.911 428.38L144.181 391.43L142.791 376.29H131.001Z" fill="#263238"/>
<path d="M131.8 388.45L127.91 265.65L163.23 262.27L167.58 393.38L154.97 394.02L131.8 388.45Z" fill="#263238"/>
<path d="M172.52 398.24C172.52 398.24 172.52 398.05 172.52 397.67C172.52 397.29 172.52 396.72 172.52 395.99C172.52 394.49 172.52 392.3 172.52 389.47C172.52 383.76 172.47 375.47 172.44 365.04C172.44 344.17 172.39 314.8 172.35 280.74L172.6 280.99H130.85L131.11 280.73V286.39C131.11 319.61 131.11 350.52 131.06 376.28V376.33C120.24 396.16 111.27 412.62 104.99 424.12C101.85 429.86 99.3803 434.36 97.6903 437.44C96.8503 438.96 96.2003 440.12 95.7603 440.93C95.3203 441.74 95.0703 442.11 95.0703 442.11C95.0703 442.11 95.2803 441.69 95.7003 440.9C96.1203 440.11 96.7603 438.9 97.5703 437.37C99.2403 434.28 101.67 429.76 104.77 424L130.67 376.12V376.23C130.67 350.47 130.67 319.56 130.67 286.34V280.42H172.85V280.67C172.85 314.73 172.78 344.1 172.76 364.97C172.76 375.39 172.7 383.69 172.68 389.4C172.68 392.23 172.68 394.4 172.68 395.92C172.68 396.65 172.68 397.21 172.68 397.6C172.68 397.99 172.52 398.24 172.52 398.24Z" fill="#455A64"/>
<path d="M144.182 391.43C144.312 391.48 139.312 403.05 133.012 417.25C126.712 431.45 121.492 442.93 121.362 442.87C121.232 442.81 126.232 431.25 132.532 417.04C138.832 402.83 144.052 391.37 144.182 391.43Z" fill="#455A64"/>
<path d="M224.421 410.73C224.421 410.73 224.421 410.54 224.421 410.17C224.421 409.8 224.421 409.23 224.421 408.52C224.421 407.05 224.371 404.92 224.341 402.18C224.341 396.68 224.171 388.72 223.981 378.88C223.611 359.2 222.721 332.03 221.631 302.02C220.541 272.01 219.711 244.81 219.431 225.13C219.281 215.29 219.211 207.32 219.241 201.82C219.241 199.08 219.241 196.95 219.241 195.48C219.241 194.77 219.241 194.23 219.241 193.83C219.241 193.43 219.241 193.27 219.241 193.27C219.241 193.27 219.241 193.46 219.241 193.83C219.241 194.2 219.241 194.77 219.241 195.48C219.241 196.95 219.241 199.08 219.321 201.82C219.321 207.32 219.481 215.28 219.681 225.12C220.111 244.8 221.001 272 222.091 302C223.181 332 224.011 359.19 224.291 378.87C224.441 388.71 224.501 396.68 224.481 402.18C224.481 404.92 224.481 407.05 224.481 408.52C224.481 409.23 224.481 409.78 224.481 410.17C224.481 410.56 224.421 410.73 224.421 410.73Z" fill="#455A64"/>
<path d="M166.19 279.83C166.34 279.83 166.45 305.95 166.45 338.16C166.45 370.37 166.34 396.49 166.19 396.49C166.04 396.49 165.93 370.38 165.93 338.16C165.93 305.94 166.05 279.83 166.19 279.83Z" fill="#455A64"/>
<path d="M103.703 431.89C103.513 431.673 103.346 431.439 103.203 431.19C103.033 430.95 102.843 430.66 102.623 430.33C102.358 429.938 102.118 429.531 101.903 429.11C100.436 426.464 99.3682 423.617 98.7326 420.66C97.8102 416.265 97.6008 411.751 98.1126 407.29C98.7384 401.828 100.202 396.495 102.453 391.48C103.643 388.89 105.166 386.466 106.983 384.27C107.396 383.725 107.84 383.204 108.313 382.71C108.773 382.21 109.213 381.71 109.673 381.23C110.673 380.32 111.543 379.39 112.533 378.6C114.357 377.048 116.3 375.64 118.343 374.39C119.343 373.85 120.253 373.28 121.193 372.83C122.133 372.38 123.023 371.9 123.923 371.58C126.702 370.389 129.639 369.608 132.643 369.26C133.454 369.149 134.273 369.099 135.093 369.11C135.379 369.086 135.666 369.086 135.953 369.11C135.671 369.158 135.388 369.188 135.103 369.2C134.289 369.237 133.477 369.321 132.673 369.45C129.704 369.872 126.807 370.7 124.063 371.91C123.173 372.24 122.313 372.74 121.373 373.17C120.433 373.6 119.533 374.17 118.563 374.75C116.551 376.004 114.638 377.412 112.843 378.96C111.843 379.74 110.973 380.67 110.023 381.57C109.573 382.04 109.133 382.57 108.683 383.03C108.223 383.523 107.789 384.041 107.383 384.58C105.595 386.747 104.096 389.137 102.923 391.69C100.694 396.653 99.2339 401.927 98.5926 407.33C98.0618 411.742 98.2305 416.21 99.0926 420.57C99.6969 423.505 100.707 426.342 102.093 429C102.292 429.428 102.519 429.842 102.773 430.24L103.303 431.13C103.453 431.374 103.586 431.628 103.703 431.89Z" fill="#455A64"/>
</svg>
