<svg width="322" height="159" viewBox="0 0 322 159" fill="none" xmlns="http://www.w3.org/2000/svg">
<path d="M61.1693 122.024C60.1183 122.024 59.5928 121.499 59.5928 120.448V101.214C59.5928 100.163 59.0673 99.6377 58.0163 99.6377H3.15306C2.10204 99.6377 1.57653 99.1122 1.57653 98.0612V73.9403C1.57653 73.2046 1.68163 72.6265 1.89183 72.2061C2.10204 71.7857 2.41734 71.3127 2.83775 70.7872L49.976 11.1944C50.8168 10.1434 51.6576 9.5128 52.4984 9.3026C53.3392 9.0924 54.2851 8.9873 55.3362 8.9873H72.205C75.0428 8.9873 77.6178 9.3026 79.93 9.93321C82.2423 10.4587 83.3984 11.3521 83.3984 12.6133V78.3546C83.3984 79.4056 83.9239 79.9311 84.9749 79.9311H91.5963C92.6473 79.9311 93.1729 80.4566 93.1729 81.5076V98.0612C93.1729 99.1122 92.8575 99.6377 92.2269 99.6377H84.9749C83.9239 99.6377 83.3984 100.163 83.3984 101.214V120.448C83.3984 121.499 82.8729 122.024 81.8219 122.024H61.1693ZM59.5928 78.3546V37.0495C59.5928 36.3138 59.4351 35.9459 59.1198 35.9459C58.8045 35.9459 58.4367 36.2612 58.0163 36.8919C57.5959 37.4174 57.228 37.8378 56.9127 38.1531L28.3775 77.0933C28.0622 77.5137 27.7995 77.8816 27.5893 78.1969C27.4842 78.4071 27.4316 78.775 27.4316 79.3005C27.4316 79.6158 27.6418 79.826 28.0622 79.9311C28.4826 79.9311 28.903 79.9311 29.3234 79.9311H58.0163C59.0673 79.9311 59.5928 79.4056 59.5928 78.3546Z" fill="#010136"/>
<path d="M118.094 83.3995V33.2658C118.094 25.3832 120.301 19.3924 124.715 15.2934C129.235 11.0893 135.436 8.9873 143.318 8.9873H178.317C185.99 8.9873 192.138 11.0893 196.763 15.2934C201.387 19.3924 203.699 25.3832 203.699 33.2658V91.9127C203.699 97.4831 203.069 102.213 201.807 106.101C200.651 109.885 198.97 112.986 196.763 115.403C194.555 117.715 191.875 119.397 188.722 120.448C185.569 121.499 182.048 122.024 178.16 122.024H146.471C141.637 122.024 137.433 121.499 133.859 120.448C130.391 119.397 127.448 117.715 125.031 115.403C122.718 112.986 120.984 109.885 119.828 106.101C118.672 102.213 118.094 97.4831 118.094 91.9127V83.3995ZM151.831 102.318H169.804C174.954 102.318 178.37 101.319 180.051 99.3224C181.733 97.2204 182.574 94.0673 182.574 89.8632V40.9908C182.574 39.5194 182.311 38.048 181.786 36.5765C181.365 35.1051 180.629 33.7913 179.578 32.6352C178.527 31.4791 177.214 30.5332 175.637 29.7975C174.061 29.0618 172.116 28.6939 169.804 28.6939H151.831C148.153 28.6939 145.158 29.6398 142.845 31.5317C140.533 33.4235 139.377 36.5765 139.377 40.9908V89.8632C139.377 94.0673 140.27 97.2204 142.057 99.3224C143.949 101.319 147.154 102.318 151.674 102.318H151.831Z" fill="#010136"/>
<path d="M285.056 122.024C284.005 122.024 283.48 121.499 283.48 120.448V101.214C283.48 100.163 282.954 99.6377 281.903 99.6377H227.04C225.989 99.6377 225.463 99.1122 225.463 98.0612V73.9403C225.463 73.2046 225.568 72.6265 225.779 72.2061C225.989 71.7857 226.304 71.3127 226.724 70.7872L273.863 11.1944C274.703 10.1434 275.544 9.5128 276.385 9.3026C277.226 9.0924 278.172 8.9873 279.223 8.9873H296.092C298.929 8.9873 301.504 9.3026 303.817 9.93321C306.129 10.4587 307.285 11.3521 307.285 12.6133V78.3546C307.285 79.4056 307.811 79.9311 308.862 79.9311H315.483C316.534 79.9311 317.06 80.4566 317.06 81.5076V98.0612C317.06 99.1122 316.744 99.6377 316.114 99.6377H308.862C307.811 99.6377 307.285 100.163 307.285 101.214V120.448C307.285 121.499 306.76 122.024 305.709 122.024H285.056ZM283.48 78.3546V37.0495C283.48 36.3138 283.322 35.9459 283.007 35.9459C282.691 35.9459 282.323 36.2612 281.903 36.8919C281.483 37.4174 281.115 37.8378 280.799 38.1531L252.264 77.0933C251.949 77.5137 251.686 77.8816 251.476 78.1969C251.371 78.4071 251.318 78.775 251.318 79.3005C251.318 79.6158 251.529 79.826 251.949 79.9311C252.369 79.9311 252.79 79.9311 253.21 79.9311H281.903C282.954 79.9311 283.48 79.4056 283.48 78.3546Z" fill="#010136"/>
</svg>
