<svg width="721" height="38" viewBox="0 0 721 38" fill="none" xmlns="http://www.w3.org/2000/svg">
<line x1="19.4983" y1="19" x2="307.498" y2="18" stroke="black" stroke-opacity="0.1"/>
<path d="M355.284 28.252C353.959 28.252 352.811 27.9627 351.84 27.384C350.869 26.8053 350.113 25.9933 349.572 24.948C349.049 23.884 348.788 22.6333 348.788 21.196C348.788 20.1133 348.937 19.1427 349.236 18.284C349.535 17.4067 349.973 16.66 350.552 16.044C351.131 15.428 351.812 14.9613 352.596 14.644C353.399 14.308 354.295 14.14 355.284 14.14C356.609 14.14 357.757 14.4293 358.728 15.008C359.699 15.5867 360.445 16.408 360.968 17.472C361.509 18.5173 361.78 19.7587 361.78 21.196C361.78 22.2787 361.631 23.2493 361.332 24.108C361.033 24.9667 360.595 25.7133 360.016 26.348C359.437 26.964 358.747 27.44 357.944 27.776C357.16 28.0933 356.273 28.252 355.284 28.252ZM355.284 26.432C356.124 26.432 356.861 26.2267 357.496 25.816C358.131 25.4053 358.616 24.808 358.952 24.024C359.307 23.24 359.484 22.2973 359.484 21.196C359.484 19.4973 359.101 18.2 358.336 17.304C357.589 16.408 356.572 15.96 355.284 15.96C354.425 15.96 353.679 16.1653 353.044 16.576C352.428 16.968 351.943 17.556 351.588 18.34C351.252 19.1053 351.084 20.0573 351.084 21.196C351.084 22.876 351.467 24.1733 352.232 25.088C352.997 25.984 354.015 26.432 355.284 26.432ZM366.335 28.196C365.961 28.196 365.672 28.0933 365.467 27.888C365.28 27.6827 365.187 27.3933 365.187 27.02V15.344C365.187 14.9707 365.28 14.6907 365.467 14.504C365.653 14.2987 365.924 14.196 366.279 14.196C366.633 14.196 366.904 14.2987 367.091 14.504C367.296 14.6907 367.399 14.9707 367.399 15.344V17.612H367.119C367.417 16.5107 367.987 15.6613 368.827 15.064C369.667 14.4667 370.703 14.1493 371.935 14.112C372.215 14.0933 372.439 14.1587 372.607 14.308C372.775 14.4387 372.868 14.672 372.887 15.008C372.905 15.3253 372.831 15.5773 372.663 15.764C372.495 15.9507 372.233 16.0627 371.879 16.1L371.431 16.156C370.161 16.268 369.181 16.6787 368.491 17.388C367.819 18.0787 367.483 19.0307 367.483 20.244V27.02C367.483 27.3933 367.38 27.6827 367.175 27.888C366.988 28.0933 366.708 28.196 366.335 28.196Z" fill="#1B212D"/>
<line x1="413.498" y1="19" x2="701.498" y2="18" stroke="black" stroke-opacity="0.1"/>
</svg>
