<svg width="36" height="36" viewBox="0 0 36 36" fill="none" xmlns="http://www.w3.org/2000/svg">
<mask id="mask0_545_871" style="mask-type:luminance" maskUnits="userSpaceOnUse" x="0" y="0" width="36" height="36">
<path fill-rule="evenodd" clip-rule="evenodd" d="M35.5814 14.7273H18.4186V21.6818H28.2977C27.3767 26.1 23.5256 28.6364 18.4186 28.6364C12.3907 28.6364 7.53488 23.8909 7.53488 18C7.53488 12.1091 12.3907 7.36364 18.4186 7.36364C21.014 7.36364 23.3581 8.26364 25.2 9.73636L30.5581 4.5C27.293 1.71818 23.107 0 18.4186 0C8.20465 0 0 8.01818 0 18C0 27.9818 8.20465 36 18.4186 36C27.6279 36 36 29.4545 36 18C36 16.9364 35.8326 15.7909 35.5814 14.7273Z" fill="white"/>
</mask>
<g mask="url(#mask0_545_871)">
<path d="M-1.67346 28.6363V7.36353L12.5591 17.9999L-1.67346 28.6363Z" fill="#FBBC05"/>
</g>
<mask id="mask1_545_871" style="mask-type:luminance" maskUnits="userSpaceOnUse" x="0" y="0" width="36" height="36">
<path fill-rule="evenodd" clip-rule="evenodd" d="M35.5814 14.7273H18.4186V21.6818H28.2977C27.3767 26.1 23.5256 28.6364 18.4186 28.6364C12.3907 28.6364 7.53488 23.8909 7.53488 18C7.53488 12.1091 12.3907 7.36364 18.4186 7.36364C21.014 7.36364 23.3581 8.26364 25.2 9.73636L30.5581 4.5C27.293 1.71818 23.107 0 18.4186 0C8.20465 0 0 8.01818 0 18C0 27.9818 8.20465 36 18.4186 36C27.6279 36 36 29.4545 36 18C36 16.9364 35.8326 15.7909 35.5814 14.7273Z" fill="white"/>
</mask>
<g mask="url(#mask1_545_871)">
<path d="M-1.67346 7.36353L12.5591 17.9999L18.4196 13.009L38.5126 9.81807V-1.63647H-1.67346V7.36353Z" fill="#EA4335"/>
</g>
<mask id="mask2_545_871" style="mask-type:luminance" maskUnits="userSpaceOnUse" x="0" y="0" width="36" height="36">
<path fill-rule="evenodd" clip-rule="evenodd" d="M35.5814 14.7273H18.4186V21.6818H28.2977C27.3767 26.1 23.5256 28.6364 18.4186 28.6364C12.3907 28.6364 7.53488 23.8909 7.53488 18C7.53488 12.1091 12.3907 7.36364 18.4186 7.36364C21.014 7.36364 23.3581 8.26364 25.2 9.73636L30.5581 4.5C27.293 1.71818 23.107 0 18.4186 0C8.20465 0 0 8.01818 0 18C0 27.9818 8.20465 36 18.4186 36C27.6279 36 36 29.4545 36 18C36 16.9364 35.8326 15.7909 35.5814 14.7273Z" fill="white"/>
</mask>
<g mask="url(#mask2_545_871)">
<path d="M-1.67346 28.6363L23.4428 9.81807L30.0568 10.6363L38.5126 -1.63647V37.6363H-1.67346V28.6363Z" fill="#34A853"/>
</g>
<mask id="mask3_545_871" style="mask-type:luminance" maskUnits="userSpaceOnUse" x="0" y="0" width="36" height="36">
<path fill-rule="evenodd" clip-rule="evenodd" d="M35.5814 14.7273H18.4186V21.6818H28.2977C27.3767 26.1 23.5256 28.6364 18.4186 28.6364C12.3907 28.6364 7.53488 23.8909 7.53488 18C7.53488 12.1091 12.3907 7.36364 18.4186 7.36364C21.014 7.36364 23.3581 8.26364 25.2 9.73636L30.5581 4.5C27.293 1.71818 23.107 0 18.4186 0C8.20465 0 0 8.01818 0 18C0 27.9818 8.20465 36 18.4186 36C27.6279 36 36 29.4545 36 18C36 16.9364 35.8326 15.7909 35.5814 14.7273Z" fill="white"/>
</mask>
<g mask="url(#mask3_545_871)">
<path d="M38.5097 37.6363L12.5562 17.9999L9.2074 15.5453L38.5097 7.36353V37.6363Z" fill="#4D67FE"/>
</g>
</svg>
