<svg width="1138" height="43" viewBox="0 0 1138 43" fill="none" xmlns="http://www.w3.org/2000/svg">
<path d="M244.395 36.1537H238.541V21.3841H234.553V16.5754H238.541V13.1537C238.541 9.09896 240.304 6.19092 246.143 6.19092C247.378 6.19092 249.316 6.44281 249.316 6.44281V10.9079H247.28C245.205 10.9079 244.395 11.5466 244.395 13.3124V16.5754H249.238L248.807 21.3841H244.395L244.395 36.1537ZM257.828 16.1912C257.742 16.1912 257.654 16.1943 257.568 16.1965C252.139 16.1965 249.656 20.3289 249.656 26.195C249.656 33.5847 252.877 36.5423 257.61 36.5423C260.318 36.5423 262.097 35.3888 263.178 33.2363V36.1558H268.746V16.5775H263.178V19.5883C262.295 17.6512 260.466 16.2141 257.828 16.1912ZM259.243 20.8174C261.523 20.8174 262.892 22.4269 262.892 25.1645L262.897 27.9606C262.897 29.8057 261.767 31.9644 259.243 31.9644C255.364 31.9644 255.468 27.725 255.468 26.3131C255.468 21.5635 257.535 20.8174 259.243 20.8174ZM270.995 26.3676C270.995 23.9885 270.883 16.2039 280.904 16.2039C284.927 16.2039 286.607 17.4984 286.607 17.4984L285.257 21.7363C285.257 21.7363 283.579 20.8014 281.393 20.8014C278.593 20.8014 276.807 22.444 276.807 25.3341L276.81 27.4065C276.81 30.1836 278.534 32.0373 281.399 32.0373C283.39 32.0373 285.226 31.0936 285.226 31.0936L286.572 35.243C286.572 35.243 285.036 36.5457 280.932 36.5457C271.39 36.5457 270.995 29.5614 270.995 26.3676H270.995ZM319.255 16.1965C324.683 16.1965 327.206 20.3289 327.206 26.195C327.206 33.5847 323.984 36.5423 319.252 36.5423C316.544 36.5423 314.542 35.3889 313.461 33.2363V36.1558L307.963 36.1536V6.78621L313.8 6.27095V19.3231C314.643 17.0396 317.412 16.1965 319.255 16.1965H319.255ZM317.618 20.8174C315.338 20.8174 313.8 22.4269 313.8 25.1645L313.795 27.9606C313.791 29.8057 314.86 31.9644 317.618 31.9644C321.498 31.9644 321.394 27.725 321.394 26.3131C321.394 21.5635 319.327 20.8174 317.618 20.8174ZM296.735 16.2127C290.578 16.2127 287.328 19.61 287.328 25.6475V26.7692C287.328 34.6053 291.893 36.6228 297.335 36.6228C302.624 36.6228 305.018 35.1254 305.018 35.1254L303.926 31.138C303.926 31.138 301.11 32.3507 298.034 32.3507C294.846 32.3507 293.475 31.5284 293.124 28.4277H305.485V25.2288C305.485 18.6797 301.837 16.2125 296.735 16.2125L296.735 16.2127ZM296.884 20.2055C299.015 20.2055 300.396 21.5281 300.32 24.5956H293.135C293.259 21.3671 294.749 20.2056 296.884 20.2056V20.2055ZM338.846 16.1858C332.523 16.1858 329.195 19.7918 329.195 26.254C329.195 35.1204 334.932 36.5476 338.857 36.5476C344.601 36.5476 348.423 33.4175 348.423 26.3345C348.423 18.9622 344.126 16.1858 338.846 16.1858ZM338.766 20.8335C341.547 20.8335 342.648 22.9393 342.648 25.3363V27.3972C342.648 30.301 341.107 31.9806 338.756 31.9806C336.557 31.9806 335.012 30.4095 335.012 27.3972V25.3363C335.012 22.1237 336.851 20.8335 338.766 20.8335ZM360.053 16.1858C353.73 16.1858 350.401 19.7918 350.401 26.254C350.401 35.1204 356.139 36.5476 360.063 36.5476C365.808 36.5476 369.63 33.4175 369.63 26.3345C369.63 18.9622 365.332 16.1858 360.053 16.1858ZM359.973 20.8335C362.753 20.8335 363.855 22.9393 363.855 25.3363V27.3972C363.855 30.301 362.313 31.9806 359.963 31.9806C357.764 31.9806 356.219 30.4095 356.219 27.3972V25.3363C356.219 22.1237 358.057 20.8335 359.973 20.8335ZM371.836 36.1537V6.78621L377.69 6.27095V25.9549L383.499 16.5754H389.681L383.622 26.2898L389.915 36.1537H383.714L377.69 26.576V36.1537H371.836Z" fill="#A0A3BD"/>
<path d="M16.2592 0.441895H17.3879C21.3065 0.528107 25.1612 2.12304 27.9297 4.94649C26.9075 6.0026 25.8639 7.01559 24.863 8.07169C23.3084 6.64919 21.4343 5.54998 19.3898 5.16202C16.3657 4.51543 13.1073 5.09737 10.573 6.84317C7.8045 8.67518 5.93041 11.7788 5.52577 15.098C5.07854 18.3741 5.99429 21.8226 8.10265 24.3658C10.1258 26.8444 13.2138 28.3963 16.4083 28.504C19.3898 28.6765 22.4991 27.7497 24.6713 25.6375C26.3751 24.1503 27.163 21.8872 27.4186 19.6888C23.8834 19.6888 20.3481 19.7104 16.8129 19.6888V15.2489H31.6992C32.4659 20.0121 31.3584 25.3788 27.7806 28.7842C25.3954 31.1982 22.0945 32.6207 18.7296 32.9009C15.4712 33.2242 12.1064 32.5991 9.21007 31.0042C5.73874 29.1291 2.97019 25.9608 1.60721 22.2321C0.329422 18.8051 0.308125 14.9256 1.50073 11.4771C2.58685 8.33033 4.67391 5.54998 7.35727 3.6102C9.93415 1.69197 13.0647 0.635872 16.2592 0.441895Z" fill="#A0A3BD"/>
<path d="M101.658 1.56274H106.216V32.3405C104.704 32.3405 103.17 32.3621 101.658 32.319C101.679 22.0813 101.658 11.822 101.658 1.56274Z" fill="#A0A3BD"/>
<path d="M41.8362 12.2316C44.6473 11.6928 47.6927 12.2963 50.014 13.9989C52.1224 15.5076 53.5919 17.8785 54.0391 20.4648C54.6141 23.4607 53.89 26.7367 51.9733 29.1075C49.9076 31.7586 46.5214 33.1811 43.2204 32.9655C40.1963 32.7931 37.2574 31.2628 35.4685 28.7627C33.4453 26.0039 32.9555 22.2106 34.0629 18.9777C35.1703 15.5076 38.3009 12.8566 41.8362 12.2316ZM42.4751 16.3267C41.325 16.6284 40.2602 17.2965 39.4935 18.2449C37.4278 20.745 37.5556 24.8185 39.8343 27.1462C41.1334 28.4825 43.0927 29.1075 44.9029 28.7411C46.5853 28.4394 48.0547 27.2971 48.864 25.7884C50.2696 23.2236 49.865 19.6889 47.714 17.6845C46.3297 16.3913 44.3066 15.8525 42.4751 16.3267Z" fill="#A0A3BD"/>
<path d="M64.4086 12.2314C67.6243 11.6063 71.1383 12.5115 73.5448 14.7962C77.4633 18.3524 77.8893 25.0124 74.5457 29.1075C72.5226 31.6938 69.2429 33.1164 66.0058 32.9655C62.9178 32.8793 59.8724 31.3274 58.0409 28.7626C55.9751 25.9392 55.5279 22.0596 56.6992 18.762C57.8705 15.3997 60.9372 12.8348 64.4086 12.2314ZM65.0475 16.3264C63.8975 16.6282 62.8326 17.2963 62.0659 18.2231C60.0215 20.6802 60.1067 24.6891 62.3002 27.0384C63.5993 28.4393 65.6225 29.129 67.4966 28.7411C69.1577 28.4178 70.6485 27.297 71.4577 25.7883C72.842 23.2019 72.4374 19.6672 70.2651 17.6627C68.8808 16.3696 66.8577 15.8523 65.0475 16.3264Z" fill="#A0A3BD"/>
<path d="M83.5561 13.4815C86.0052 11.9297 89.2636 11.4986 91.9044 12.8349C92.7349 13.2013 93.4164 13.8263 94.0766 14.4514C94.0979 13.8694 94.0766 13.266 94.0979 12.6625C95.5248 12.684 96.9516 12.6625 98.3998 12.684V31.6938C98.3785 34.5604 97.6544 37.5994 95.61 39.69C93.3738 41.9962 89.9451 42.7074 86.8571 42.2333C83.5561 41.7376 80.6811 39.3021 79.4033 36.22C80.6811 35.5949 82.0228 35.0992 83.3431 34.5173C84.0885 36.2846 85.6006 37.7933 87.496 38.1382C89.3914 38.483 91.5849 38.0089 92.8201 36.4139C94.1405 34.7759 94.1405 32.5344 94.0766 30.53C93.097 31.4999 91.9682 32.362 90.6053 32.6853C87.645 33.5258 84.3867 32.4913 82.1079 30.4653C79.8079 28.4393 78.4449 25.3141 78.5727 22.2105C78.6366 18.6973 80.5959 15.3135 83.5561 13.4815ZM87.9645 16.2403C86.6654 16.4558 85.4515 17.1886 84.6209 18.2016C82.6191 20.6156 82.6191 24.4736 84.6422 26.8444C85.7922 28.2453 87.645 29.0212 89.434 28.8273C91.1164 28.6548 92.671 27.5772 93.5016 26.09C94.9072 23.5683 94.6729 20.1414 92.7775 17.943C91.6062 16.5851 89.7321 15.917 87.9645 16.2403Z" fill="#A0A3BD"/>
<path d="M111.686 14.5807C114.242 12.1668 118.181 11.3478 121.461 12.6194C124.57 13.8048 126.551 16.8007 127.552 19.8828C122.931 21.8226 118.331 23.7408 113.709 25.6806C114.348 26.9091 115.328 28.0299 116.648 28.4825C118.501 29.1506 120.716 28.9135 122.27 27.6634C122.888 27.1893 123.378 26.5642 123.846 25.9608C125.018 26.7582 126.189 27.5341 127.36 28.3316C125.699 30.8533 122.909 32.6207 119.906 32.9009C116.584 33.3104 113.049 32.0172 110.898 29.3877C107.363 25.2495 107.704 18.3094 111.686 14.5807ZM113.965 18.568C113.241 19.6241 112.943 20.9173 112.964 22.189C116.052 20.8958 119.14 19.6026 122.228 18.2879C121.717 17.0809 120.481 16.3481 119.225 16.1541C117.202 15.7877 115.093 16.8869 113.965 18.568Z" fill="#A0A3BD"/>
<path d="M764.199 2.01653C762.124 2.25195 759.01 3.22986 757.239 4.20778C752.479 6.79743 749.258 10.8359 747.647 16.2144C747.325 17.2647 746.95 20.126 746.967 21.4661C746.967 22.6432 747.325 25.5227 747.54 26.2108C747.647 26.5368 747.88 27.3155 748.077 27.9131C748.399 28.9272 749.956 32.1145 750.224 32.3318C750.278 32.3862 750.564 32.7483 750.833 33.1649C751.495 34.1609 753.23 35.9356 754.537 36.9498C755.539 37.7285 758.366 39.3764 758.724 39.3945C758.813 39.3945 758.831 38.7064 758.777 37.8009C758.652 35.7907 759.028 33.0562 759.833 30.2673C759.976 29.7965 760.084 29.1808 760.084 28.9091C760.084 28.6375 760.155 28.3477 760.245 28.2572C760.334 28.1485 760.495 27.6234 760.585 27.0801C760.692 26.5368 760.871 25.7038 760.996 25.2329C761.175 24.5266 761.157 24.255 760.907 23.4944C760.549 22.3354 760.531 20.452 760.889 19.5465C761.73 17.3915 762.66 16.5766 764.235 16.5766C766.132 16.5766 767.044 18.0253 766.687 20.452C766.526 21.5567 766.078 23.2952 765.792 23.8385C765.72 24.0015 765.595 24.4542 765.541 24.8345C765.47 25.2329 765.327 25.7943 765.237 26.1022C764.987 26.8084 765.47 28.1848 766.114 28.7099C766.722 29.1989 767.993 29.3438 769.156 29.0721C769.979 28.891 770.319 28.6737 771.178 27.8407C772.198 26.8265 772.967 25.6494 772.967 25.088C772.967 24.925 773.057 24.7077 773.164 24.5991C773.665 24.092 773.934 20.1441 773.558 18.4781C773.146 16.649 771.876 14.8562 770.23 13.8058C768.583 12.7373 765.184 12.4295 763.09 13.1539C761.623 13.6609 760.316 14.5121 759.475 15.5081C758.724 16.3955 757.936 17.8442 757.936 18.3513C757.936 18.5324 757.847 18.7678 757.74 18.8765C757.632 18.9851 757.507 19.6733 757.453 20.4158C757.364 21.5205 757.435 22.0275 757.758 23.1141C757.972 23.8566 758.366 24.7258 758.599 25.0518C759.082 25.7038 759.082 25.9573 758.634 27.6958C758.509 28.1666 758.294 28.6013 758.169 28.6556C757.042 29.0902 754.751 26.3557 753.982 23.6393C753.696 22.607 753.678 18.9308 753.964 17.8442C754.089 17.3915 754.304 16.7758 754.447 16.4498C754.59 16.1419 754.716 15.8341 754.716 15.7616C754.716 15.6892 755.073 15.0735 755.521 14.4034C757.847 10.854 761.623 8.97057 766.4 8.97057C767.492 8.97057 768.619 9.04301 768.923 9.13356C771.393 9.91227 772.055 10.1658 773.021 10.7453C774.9 11.8862 776.26 13.4436 777.62 16.0514C777.709 16.2144 777.835 16.649 777.888 17.0112C777.96 17.3734 778.085 17.7175 778.175 17.7718C778.264 17.8261 778.336 19.0032 778.336 20.3977C778.336 22.9149 778.157 23.929 777.405 25.9935C776.564 28.2572 774.399 30.7563 772.431 31.7342C771.303 32.2775 769.192 32.8751 768.351 32.8751C767.223 32.8751 765.005 31.9334 764.396 31.1728C764.11 30.8287 763.841 30.9555 763.841 31.4445C763.841 31.6256 763.77 31.9334 763.663 32.1145C763.573 32.2775 763.412 32.7846 763.323 33.2373C762.804 35.6278 762.07 37.5655 760.943 39.3764C760.603 39.9378 760.889 40.2638 761.819 40.3906C762.285 40.463 762.911 40.5898 763.197 40.6803C763.913 40.9157 767.796 40.8795 769.102 40.6441C770.283 40.4268 772.198 39.8835 773.057 39.5213C778.461 37.2757 782.559 32.7121 784.33 26.899C785.278 23.8023 785.332 20.1985 784.473 16.5766C784.187 15.3994 784.097 15.1278 783.328 13.3169C782.219 10.6729 779.713 7.57614 777.173 5.67465C774.989 4.04479 772.842 3.1031 769.496 2.28817C768.565 2.07085 765.255 1.88976 764.199 2.01653ZM811.923 8.55406C811.225 8.66271 810.115 9.82172 809.829 10.7272C809.525 11.7232 809.829 12.7917 810.688 13.6247C812.585 15.49 815.877 13.7334 815.466 11.0532C815.215 9.35087 813.676 8.2643 811.923 8.55406ZM792.418 9.62252C792.257 9.80361 792.257 31.6437 792.436 31.8972C792.526 32.0421 793.295 32.0964 794.798 32.0783L797.035 32.0602L797.124 28.384C797.196 25.3959 797.267 24.6715 797.482 24.5447C797.625 24.4542 798.842 24.3636 800.184 24.3636C803.119 24.3636 804.354 24.1463 805.696 23.422C807.449 22.4622 808.469 21.0858 809.024 18.8946C809.364 17.5183 809.364 16.5222 809.006 15.1097C808.684 13.842 808.541 13.5342 807.771 12.5019C806.823 11.2162 805.857 10.5099 804.282 9.94849C803.405 9.65874 802.671 9.60441 797.93 9.55008C794.977 9.51386 792.49 9.55008 792.418 9.62252ZM802.242 14.1318C803.441 14.5121 804.031 15.0554 804.3 16.0333C804.64 17.3191 804.389 18.5143 803.638 19.2387C802.815 20.0174 802.081 20.1985 799.683 20.1985C798.109 20.1985 797.625 20.1441 797.411 19.9087C797.178 19.6914 797.124 19.1662 797.124 17.1017C797.124 13.842 797.106 13.8601 799.594 13.8601C800.667 13.8601 801.705 13.9688 802.242 14.1318ZM833.628 13.0633C833.628 14.3129 833.539 15.49 833.449 15.6892C833.324 15.9246 833.073 16.0333 832.644 16.0333C832.322 16.0333 832.018 16.1057 831.982 16.2144C831.964 16.3049 831.964 16.9388 832.018 17.6088C832.107 18.804 832.125 18.8221 832.662 18.9489C832.966 19.0032 833.306 19.1119 833.413 19.1843C833.574 19.2749 833.628 20.7055 833.628 24.3274C833.628 29.1989 833.646 29.38 834.04 30.1044C834.863 31.6437 836.151 32.187 838.764 32.1145L840.517 32.0602L840.571 30.3036L840.625 28.5288H840.177C839.497 28.5288 838.495 27.9856 838.388 27.5509C838.334 27.3336 838.281 25.414 838.281 23.259C838.281 20.289 838.334 19.293 838.513 19.1481C838.638 19.0395 839.139 18.9308 839.623 18.8946L840.517 18.8403V16.1238L839.533 16.0695C838.996 16.0333 838.495 15.9065 838.424 15.7979C838.352 15.6711 838.281 14.494 838.281 13.172V10.7815H833.628V13.0633ZM900.14 10.8902C900.069 10.9626 900.015 12.1035 900.015 13.4255C900.015 15.9971 899.997 16.0333 899.013 16.0333C898.566 16.0333 898.566 16.0514 898.619 17.4277C898.673 18.804 898.691 18.8403 899.156 18.8946C899.407 18.9308 899.711 19.0576 899.8 19.1662C899.908 19.293 900.015 21.4842 900.069 24.2731C900.122 26.9533 900.212 29.3981 900.283 29.6878C900.498 30.4847 901.607 31.4988 902.663 31.8429C903.844 32.2413 906.85 32.2775 907.155 31.8972C907.298 31.7342 907.351 31.0823 907.316 30.1406L907.262 28.6194L906.636 28.5107C905.956 28.4021 905.186 28.0399 904.989 27.732C904.918 27.6234 904.846 25.6494 904.846 23.3495C904.846 18.6229 904.739 18.9308 906.296 18.9308C907.316 18.9308 907.405 18.7497 907.316 17.1017L907.262 16.1238L906.099 16.0333L904.936 15.9427L904.846 13.4074L904.757 10.8721L902.502 10.8177C901.268 10.7996 900.212 10.8359 900.14 10.8902ZM824.771 15.5986C823.894 15.8341 822.874 16.4317 822.194 17.138C821.371 18.0072 821.156 17.9529 821.067 16.8482L821.013 16.1238H816.539V32.0602L818.794 32.0964C821.013 32.1507 821.067 32.1326 821.174 31.7342C821.228 31.5169 821.281 29.217 821.281 26.6092C821.281 21.448 821.299 21.3031 822.355 20.289C822.82 19.8363 823.071 19.7457 824.073 19.6914L825.236 19.619L825.934 20.3614C826.757 21.2307 826.667 20.3977 826.739 27.895C826.757 29.887 826.775 31.6437 826.793 31.8248C826.828 32.0783 827.115 32.1145 829.119 32.0783L831.391 32.0602V19.3473L830.872 18.3151C829.978 16.5222 828.6 15.6711 826.488 15.5624C825.737 15.5443 824.967 15.5443 824.771 15.5986ZM847.138 15.5986C845.206 16.1238 844.275 16.649 843.076 17.8442C841.466 19.4922 840.732 21.4118 840.732 24.0015C840.75 28.5469 843.559 31.9153 847.711 32.3137C851.254 32.6578 853.992 31.6074 855.745 29.2351C855.996 28.891 856.532 27.7863 856.532 27.5871C856.532 27.5147 855.495 27.4423 854.242 27.4423H851.952L851.415 28.0037C850.788 28.6556 849.912 29.0721 849.106 29.0721C848.301 29.0721 847.067 28.4926 846.494 27.8769C846.064 27.3879 845.438 25.9754 845.438 25.4864C845.438 25.3235 846.744 25.2691 850.95 25.2691C853.974 25.2691 856.532 25.1967 856.658 25.1242C856.926 24.9432 856.676 22.0637 856.282 21.0134C855.477 18.8221 853.956 16.975 852.417 16.323C851.969 16.1419 851.451 15.9065 851.272 15.816C850.896 15.6168 847.711 15.4538 847.138 15.5986ZM850.627 19.5646C851.325 20.0536 851.934 21.2126 851.844 21.8645C851.791 22.2811 851.755 22.2811 848.731 22.3354C845.241 22.3897 845.223 22.3716 845.778 21.0677C846.172 20.1622 846.959 19.3473 847.693 19.1119C848.534 18.8403 849.894 19.0576 850.627 19.5646ZM873.621 15.5986C871.546 16.16 870.096 17.0836 868.969 18.5143C868.521 19.0938 868.164 19.6371 868.164 19.7457C868.164 19.8363 868.038 20.1622 867.877 20.4701C867.716 20.7599 867.484 21.6653 867.358 22.4803C866.732 26.3557 868.45 29.9776 871.671 31.6075L872.905 32.2413H875.5C878.184 32.2413 878.417 32.187 880.063 31.2996C881.262 30.6476 883.23 28.1123 882.926 27.6052C882.855 27.5147 881.835 27.4423 880.636 27.4423H878.435L877.987 27.9674C876.198 30.0138 872.852 28.9635 872.136 26.1203C872.029 25.74 872.029 25.414 872.118 25.3416C872.208 25.2872 874.766 25.251 877.826 25.2691C882.192 25.2691 883.373 25.2329 883.391 25.0518C883.552 22.7881 882.479 19.4379 881.137 17.9891C880.385 17.1742 879.079 16.2687 878.435 16.1057C878.148 16.0333 877.826 15.9065 877.701 15.816C877.451 15.6168 874.176 15.4538 873.621 15.5986ZM876.413 19.13C877.218 19.4198 878.148 20.4339 878.292 21.2126C878.506 22.3897 878.524 22.3897 875.196 22.3354C872.208 22.2811 872.19 22.2811 872.136 21.8645C872.064 21.3575 872.691 20.1079 873.228 19.6371C873.997 18.9851 875.339 18.7678 876.413 19.13ZM889.189 15.5986C885.521 16.486 884.197 17.808 884.179 20.5607C884.179 23.5306 885.646 24.7802 889.994 25.5589C892.983 26.0841 893.841 26.5549 893.806 27.6958C893.788 28.5107 893.233 29.0359 892.124 29.2713C890.728 29.5792 889.636 29.2351 888.76 28.2391L888.062 27.4423H885.897C884.143 27.4423 883.731 27.4966 883.731 27.6958C883.731 28.221 884.447 29.5973 885.038 30.2855C885.592 30.8831 886.022 31.1728 887.704 31.9878C887.865 32.0783 888.742 32.2232 889.618 32.3318C891.247 32.531 894.074 32.3499 894.79 31.9878C894.951 31.9153 895.416 31.6799 895.81 31.4988C896.83 31.0098 897.796 29.9052 898.154 28.8548C898.548 27.6596 898.44 25.9935 897.886 24.8345C897.223 23.4763 895.47 22.4984 892.857 22.0275C889.493 21.4299 889.44 21.4118 888.903 20.8866C888.259 20.2166 888.259 19.9811 888.903 19.2568C889.422 18.6773 889.457 18.6592 890.889 18.6592C892.32 18.6592 892.356 18.6773 892.875 19.2568C893.162 19.5827 893.394 19.963 893.394 20.1079C893.394 20.3252 893.77 20.3796 895.631 20.3796C898.1 20.3796 898.029 20.4339 897.599 19.1481C896.812 16.8663 894.79 15.7073 891.426 15.5805C890.388 15.5443 889.386 15.5443 889.189 15.5986ZM865.39 15.9789C864.603 16.2506 863.511 17.1561 863.171 17.808C862.831 18.46 862.527 18.1883 862.437 17.1017L862.348 16.1238H857.875L857.821 23.7298C857.803 27.9131 857.821 31.5169 857.875 31.7523C857.964 32.1507 858.018 32.1507 860.165 32.1145C861.4 32.0964 862.402 31.9877 862.473 31.8791C862.545 31.7885 862.616 29.8689 862.616 27.6234C862.616 24.0739 862.652 23.4401 862.956 22.6432C863.583 20.9953 864.925 20.0174 866.607 20.0174C867.072 20.0174 867.269 19.9268 867.323 19.6914C867.448 19.1662 867.466 16.7214 867.358 16.1782C867.251 15.7435 867.162 15.6711 866.678 15.6892C866.356 15.7073 865.784 15.8341 865.39 15.9789ZM810.276 16.2506C810.223 16.3774 810.205 19.9449 810.223 24.1826L810.276 31.8791L812.406 31.9696C813.694 32.024 814.625 31.9877 814.768 31.8791C814.965 31.7342 815.018 30.1949 815.018 24.0377C815.036 19.8363 814.983 16.3049 814.929 16.2144C814.75 15.9427 810.366 15.9789 810.276 16.2506Z" fill="#A0A3BD"/>
<path d="M520.773 37.3603L511.399 37.1867C508.363 37.1264 505.32 37.2471 502.345 36.6207C497.818 35.6848 497.497 31.0959 497.162 27.2466C496.699 21.835 496.878 16.3253 497.751 10.959C498.243 7.9475 500.182 6.15118 503.18 5.95494C513.3 5.24547 523.488 5.3285 533.585 5.66059C534.652 5.69078 535.726 5.85682 536.777 6.04551C541.968 6.96632 542.095 12.1666 542.43 16.5442C542.766 20.967 542.624 25.4125 541.983 29.8052C541.468 33.4432 540.484 36.4924 536.33 36.7867C531.124 37.1716 526.038 37.4811 520.818 37.383C520.818 37.3603 520.788 37.3603 520.773 37.3603ZM515.262 28.1523C519.184 25.8729 523.033 23.6313 526.933 21.3671C523.003 19.0877 519.162 16.8461 515.262 14.5818V28.1523Z" fill="#A0A3BD"/>
<path d="M617.622 33.2244C617.444 33.9641 617.287 34.5452 617.13 35.1641H613.461V6.52087H617.742V17.0876C617.966 16.8008 618.077 16.68 618.174 16.5517C618.905 15.5327 619.852 14.8686 621.075 14.6119C623.022 14.227 624.685 15.095 625.274 16.9894C625.655 18.1669 625.901 19.4273 625.93 20.6576C625.99 23.82 625.945 26.975 625.833 30.1374C625.789 31.1035 625.498 32.0923 625.132 32.998C623.932 35.9868 620.009 36.4397 618.062 33.8509C617.943 33.6924 617.831 33.5188 617.622 33.2244ZM617.831 25.3447V30.5827C617.831 31.4356 618.279 31.9564 619.122 32.1526C619.949 32.3489 620.621 32.0243 620.956 31.2469C621.098 30.9224 621.24 30.5827 621.247 30.2431C621.329 27.0429 621.404 23.8427 621.426 20.6349C621.426 20.0387 621.284 19.4198 621.105 18.8386C620.77 17.7895 619.845 17.48 618.935 18.0914C618.249 18.5593 617.831 19.2235 617.831 20.1066V25.3447ZM606.197 15.0195H610.679V35.1792H607.182C607.055 34.4169 606.928 33.632 606.779 32.7112C606.54 33.0659 606.399 33.2923 606.249 33.5188C605.086 35.217 603.438 35.7981 601.491 35.4887C599.828 35.217 598.829 33.9188 598.605 31.7903C598.538 31.1563 598.508 30.5148 598.508 29.8808C598.493 25.1635 598.508 20.4312 598.508 15.7139V15.0044H603.043V15.8271C603.043 20.3859 603.028 24.9371 603.057 29.4959C603.057 30.145 603.125 30.8167 603.236 31.4658C603.363 32.13 603.841 32.3715 604.482 32.3262C605.519 32.2432 606.234 31.4658 606.234 30.4242V15.9101C606.197 15.6158 606.197 15.3441 606.197 15.0195ZM575.337 15.0044H579.841V15.8573C579.841 20.3934 579.827 24.922 579.856 29.443C579.856 30.0921 579.916 30.7639 580.05 31.3979C580.222 32.1451 580.654 32.3866 581.393 32.2885C582.414 32.1451 583.033 31.4281 583.041 30.3789V15.9403V15.0346H587.523V35.1792H584.04C583.913 34.432 583.787 33.6622 583.623 32.6885C583.399 33.0282 583.272 33.2244 583.145 33.4282C581.982 35.1566 580.349 35.7906 578.357 35.4811C576.761 35.2396 575.784 34.0471 575.486 32.0923C575.404 31.4809 575.344 30.8771 575.344 30.2657C575.33 25.3673 575.33 20.4463 575.33 15.5478L575.337 15.0044ZM573.025 25.7673C573.01 26.4466 572.965 27.1259 572.928 27.8052C572.757 29.8431 572.675 32.7338 571.049 34.2207C570.012 35.1566 568.7 35.4962 567.342 35.5415C566.738 35.5566 566.127 35.5566 565.523 35.4736C562.666 35.0358 561.339 33.7603 560.861 30.5827C560.317 26.9146 560.272 23.186 560.921 19.5179C561.592 15.7214 563.904 14.378 567.499 14.627C570.855 14.8686 572.354 17.0951 572.749 20.2651C572.965 22.0841 573.07 23.9257 573.025 25.7673ZM568.461 25.073C568.461 23.7823 568.491 22.4841 568.446 21.1935C568.416 20.4463 568.319 19.6915 568.163 18.9518C567.984 18.0989 567.447 17.6914 566.775 17.7065C566.119 17.7216 565.657 18.1291 565.418 18.9216C565.336 19.216 565.247 19.5179 565.247 19.8123C565.247 21.835 565.232 23.8653 565.217 25.8881C565.202 27.775 564.963 29.7525 565.552 31.5564C565.731 32.1073 566.194 32.4093 566.798 32.4093C567.387 32.4093 567.775 32.1149 567.991 31.5866C568.163 31.179 568.312 30.7337 568.312 30.2959C568.364 28.56 568.461 26.8165 568.461 25.073ZM554.284 21.2765C554.679 19.3217 555.052 17.4121 555.462 15.495C555.977 13.0571 556.551 10.6192 557.058 8.17381C557.185 7.57754 557.423 7.43414 557.983 7.44923C559.183 7.49452 560.407 7.46433 561.689 7.46433C561.272 9.01914 560.861 10.4985 560.459 11.9552C559.183 16.529 557.908 21.118 556.648 25.707C556.551 26.0617 556.506 26.4466 556.506 26.824C556.491 29.3298 556.506 31.8281 556.506 34.3339V35.149H552.128C552.114 34.9226 552.084 34.6962 552.084 34.4698C552.084 33.0508 551.972 31.6243 552.099 30.2204C552.419 26.8467 551.36 23.7446 550.503 20.6048C549.369 16.4536 548.221 12.2873 547.087 8.13607C547.027 7.93983 547.005 7.7285 546.945 7.48697H551.413C552.352 12.0684 553.299 16.6498 554.284 21.2765ZM639.936 26.5372H632.389C632.471 28.0694 632.501 29.5261 632.657 30.9677C632.769 31.9715 633.314 32.4017 634.171 32.4093C635.066 32.4244 635.588 31.9715 635.797 30.9752C635.864 30.6507 635.909 30.3261 635.939 29.994C635.969 29.6997 635.983 29.3827 636.006 28.96C637.281 29.0279 638.527 29.1034 639.757 29.1562C640.473 31.3073 639.183 34.0697 637.013 34.9226C635.305 35.6019 633.552 35.6019 631.807 35.0811C630.517 34.6962 629.555 33.8659 629.122 32.5904C628.72 31.3979 628.339 30.1525 628.257 28.9072C628.034 25.8353 627.951 22.7332 628.414 19.6538C628.496 19.1405 628.638 18.6499 628.794 18.1518C629.421 16.0988 630.785 14.8384 632.896 14.627C634.044 14.5138 635.23 14.5591 636.364 14.7553C638.198 15.0799 639.175 16.4158 639.601 18.1669C639.794 18.9896 639.936 19.8349 639.966 20.6727C639.973 22.5973 639.936 24.5069 639.936 26.5372ZM635.648 23.888C635.648 22.3709 635.663 20.9444 635.633 19.5104C635.633 19.1707 635.506 18.816 635.379 18.4914C635.126 17.8574 634.596 17.6838 633.962 17.6838C633.329 17.6838 632.926 18.0084 632.769 18.5895C632.292 20.333 632.449 22.1143 632.463 23.9031C633.604 23.888 634.641 23.888 635.648 23.888Z" fill="#A0A3BD"/>
<path d="M590.983 11.163H586.546V7.52502H599.791V11.1403H595.383V35.1494H590.991L590.983 11.163Z" fill="#A0A3BD"/>
<path d="M1132.08 8.42746H1126.68V0.855957H1114.82L1109.37 8.42746H1099.68L1096.44 11.6724V8.42746H1088.87V0.855957H1065.11V8.42746H1031.68L1026.22 0.855957H1014.34V26.8154L1029.46 41.9584H1044.59V37.6318L1048.91 41.9584H1078.07V37.6318L1082.39 41.9584H1096.44V37.6318L1100.76 41.9584H1127.76L1137.48 32.2236V13.8357L1132.08 8.42746ZM1032.7 19.2439H1025.14V21.4072H1032.7V30.0603H1020.82L1016.5 25.7338V3.01924H1025.14V10.5908H1032.7V19.2439ZM1065.11 30.0603H1039.19L1034.87 25.7338V10.5908H1043.51V21.4072H1045.67V10.5908H1054.31V21.4072H1056.47V10.5908H1065.11V30.0603ZM1075.91 30.0603H1067.27V10.5908H1075.91V30.0603ZM1075.91 8.42746H1067.27V3.01924H1075.91V8.42746ZM1094.28 19.2439H1086.71V21.4072H1094.28V30.0603H1082.39L1078.07 25.7338V3.01924H1086.71V10.5908H1094.28V19.2439ZM1113.72 19.2439H1105.08V21.4072H1113.72V30.0603H1100.76L1096.44 25.7338V14.9173L1100.76 10.5908H1113.72V19.2439ZM1135.32 30.0603H1126.68V19.2439H1124.52V30.0603H1115.88V3.01924H1124.52V10.5908H1131L1135.32 14.9173V30.0603Z" fill="#A0A3BD"/>
</svg>
