<svg width="334" height="22" viewBox="0 0 334 22" fill="none" xmlns="http://www.w3.org/2000/svg">
<line opacity="0.21" x1="0.412109" y1="10.5" x2="142.5" y2="10.5" stroke="#1B212D"/>
<path opacity="0.3" d="M163.594 17.162C162.706 17.162 161.938 16.976 161.29 16.604C160.654 16.232 160.156 15.704 159.796 15.02C159.436 14.336 159.256 13.532 159.256 12.608C159.256 11.9 159.358 11.27 159.562 10.718C159.766 10.166 160.054 9.692 160.426 9.296C160.81 8.888 161.266 8.582 161.794 8.378C162.334 8.162 162.934 8.054 163.594 8.054C164.47 8.054 165.226 8.24 165.862 8.612C166.51 8.984 167.014 9.512 167.374 10.196C167.734 10.868 167.914 11.672 167.914 12.608C167.914 13.304 167.812 13.934 167.608 14.498C167.404 15.062 167.11 15.542 166.726 15.938C166.354 16.334 165.898 16.64 165.358 16.856C164.83 17.06 164.242 17.162 163.594 17.162ZM163.594 15.758C164.086 15.758 164.518 15.638 164.89 15.398C165.262 15.158 165.55 14.804 165.754 14.336C165.97 13.868 166.078 13.292 166.078 12.608C166.078 11.576 165.85 10.796 165.394 10.268C164.938 9.74 164.338 9.476 163.594 9.476C163.09 9.476 162.652 9.596 162.28 9.836C161.908 10.064 161.614 10.412 161.398 10.88C161.194 11.348 161.092 11.924 161.092 12.608C161.092 13.628 161.32 14.408 161.776 14.948C162.232 15.488 162.838 15.758 163.594 15.758ZM170.874 17.126C170.574 17.126 170.346 17.048 170.19 16.892C170.034 16.724 169.956 16.496 169.956 16.208V9.008C169.956 8.708 170.034 8.48 170.19 8.324C170.346 8.168 170.562 8.09 170.838 8.09C171.126 8.09 171.342 8.168 171.486 8.324C171.642 8.48 171.72 8.708 171.72 9.008V10.322H171.54C171.732 9.602 172.086 9.056 172.602 8.684C173.118 8.312 173.778 8.096 174.582 8.036C174.798 8.024 174.966 8.078 175.086 8.198C175.218 8.318 175.29 8.504 175.302 8.756C175.326 9.008 175.272 9.212 175.14 9.368C175.008 9.512 174.804 9.596 174.528 9.62L174.186 9.656C173.406 9.728 172.812 9.974 172.404 10.394C171.996 10.814 171.792 11.39 171.792 12.122V16.208C171.792 16.496 171.714 16.724 171.558 16.892C171.414 17.048 171.186 17.126 170.874 17.126Z" fill="#1B212D"/>
<line opacity="0.21" x1="191.5" y1="10.5" x2="333.588" y2="10.5" stroke="#1B212D"/>
</svg>
