<svg width="224" height="224" viewBox="0 0 224 224" fill="none" xmlns="http://www.w3.org/2000/svg">
<g clip-path="url(#clip0_2577_2104)">
<path d="M223.086 0.485352H0V223.571H223.086V0.485352Z" fill="white"/>
<path d="M19.8566 14.4287H13.9414V20.3439H19.8566V14.4287Z" fill="#1B212D"/>
<path d="M25.7717 14.4287H19.8566V20.3439H25.7717V14.4287Z" fill="#1B212D"/>
<path d="M31.6869 14.4287H25.7717V20.3439H31.6869V14.4287Z" fill="#1B212D"/>
<path d="M37.602 14.4287H31.6869V20.3439H37.602V14.4287Z" fill="#1B212D"/>
<path d="M43.5172 14.4287H37.602V20.3439H43.5172V14.4287Z" fill="#1B212D"/>
<path d="M49.4323 14.4287H43.5172V20.3439H49.4323V14.4287Z" fill="#1B212D"/>
<path d="M55.3475 14.4287H49.4323V20.3439H55.3475V14.4287Z" fill="#1B212D"/>
<path d="M67.1778 14.4287H61.2626V20.3439H67.1778V14.4287Z" fill="#1B212D"/>
<path d="M73.0929 14.4287H67.1778V20.3439H73.0929V14.4287Z" fill="#1B212D"/>
<path d="M90.8384 14.4287H84.9232V20.3439H90.8384V14.4287Z" fill="#1B212D"/>
<path d="M108.584 14.4287H102.669V20.3439H108.584V14.4287Z" fill="#1B212D"/>
<path d="M114.499 14.4287H108.584V20.3439H114.499V14.4287Z" fill="#1B212D"/>
<path d="M120.414 14.4287H114.499V20.3439H120.414V14.4287Z" fill="#1B212D"/>
<path d="M132.244 14.4287H126.329V20.3439H132.244V14.4287Z" fill="#1B212D"/>
<path d="M138.16 14.4287H132.244V20.3439H138.16V14.4287Z" fill="#1B212D"/>
<path d="M144.075 14.4287H138.16V20.3439H144.075V14.4287Z" fill="#1B212D"/>
<path d="M161.82 14.4287H155.905V20.3439H161.82V14.4287Z" fill="#1B212D"/>
<path d="M173.65 14.4287H167.735V20.3439H173.65V14.4287Z" fill="#1B212D"/>
<path d="M179.566 14.4287H173.65V20.3439H179.566V14.4287Z" fill="#1B212D"/>
<path d="M185.481 14.4287H179.566V20.3439H185.481V14.4287Z" fill="#1B212D"/>
<path d="M191.396 14.4287H185.481V20.3439H191.396V14.4287Z" fill="#1B212D"/>
<path d="M197.311 14.4287H191.396V20.3439H197.311V14.4287Z" fill="#1B212D"/>
<path d="M203.226 14.4287H197.311V20.3439H203.226V14.4287Z" fill="#1B212D"/>
<path d="M209.141 14.4287H203.226V20.3439H209.141V14.4287Z" fill="#1B212D"/>
<path d="M19.8566 20.3439H13.9414V26.259H19.8566V20.3439Z" fill="#1B212D"/>
<path d="M55.3475 20.3439H49.4323V26.259H55.3475V20.3439Z" fill="#1B212D"/>
<path d="M90.8384 20.3439H84.9232V26.259H90.8384V20.3439Z" fill="#1B212D"/>
<path d="M108.584 20.3439H102.669V26.259H108.584V20.3439Z" fill="#1B212D"/>
<path d="M120.414 20.3439H114.499V26.259H120.414V20.3439Z" fill="#1B212D"/>
<path d="M132.244 20.3439H126.329V26.259H132.244V20.3439Z" fill="#1B212D"/>
<path d="M138.16 20.3439H132.244V26.259H138.16V20.3439Z" fill="#1B212D"/>
<path d="M144.075 20.3439H138.16V26.259H144.075V20.3439Z" fill="#1B212D"/>
<path d="M155.905 20.3439H149.99V26.259H155.905V20.3439Z" fill="#1B212D"/>
<path d="M173.65 20.3439H167.735V26.259H173.65V20.3439Z" fill="#1B212D"/>
<path d="M209.141 20.3439H203.226V26.259H209.141V20.3439Z" fill="#1B212D"/>
<path d="M19.8566 26.259H13.9414V32.1742H19.8566V26.259Z" fill="#1B212D"/>
<path d="M31.6869 26.259H25.7717V32.1742H31.6869V26.259Z" fill="#1B212D"/>
<path d="M37.602 26.259H31.6869V32.1742H37.602V26.259Z" fill="#1B212D"/>
<path d="M43.5172 26.259H37.602V32.1742H43.5172V26.259Z" fill="#1B212D"/>
<path d="M55.3475 26.259H49.4323V32.1742H55.3475V26.259Z" fill="#1B212D"/>
<path d="M67.1778 26.259H61.2626V32.1742H67.1778V26.259Z" fill="#1B212D"/>
<path d="M73.0929 26.259H67.1778V32.1742H73.0929V26.259Z" fill="#1B212D"/>
<path d="M84.9232 26.259H79.0081V32.1742H84.9232V26.259Z" fill="#1B212D"/>
<path d="M102.669 26.259H96.7535V32.1742H102.669V26.259Z" fill="#1B212D"/>
<path d="M120.414 26.259H114.499V32.1742H120.414V26.259Z" fill="#1B212D"/>
<path d="M126.329 26.259H120.414V32.1742H126.329L126.329 26.259Z" fill="#1B212D"/>
<path d="M132.244 26.259H126.329L126.329 32.1742H132.244V26.259Z" fill="#1B212D"/>
<path d="M138.16 26.259H132.244V32.1742H138.16V26.259Z" fill="#1B212D"/>
<path d="M144.075 26.259H138.16V32.1742H144.075V26.259Z" fill="#1B212D"/>
<path d="M149.99 26.259H144.075V32.1742H149.99V26.259Z" fill="#1B212D"/>
<path d="M161.82 26.259H155.905V32.1742H161.82V26.259Z" fill="#1B212D"/>
<path d="M173.65 26.259H167.735V32.1742H173.65V26.259Z" fill="#1B212D"/>
<path d="M185.481 26.259H179.566V32.1742H185.481V26.259Z" fill="#1B212D"/>
<path d="M191.396 26.259H185.481V32.1742H191.396V26.259Z" fill="#1B212D"/>
<path d="M197.311 26.259H191.396V32.1742H197.311V26.259Z" fill="#1B212D"/>
<path d="M209.141 26.259H203.226V32.1742H209.141V26.259Z" fill="#1B212D"/>
<path d="M19.8566 32.1742H13.9414V38.0893H19.8566V32.1742Z" fill="#1B212D"/>
<path d="M31.6869 32.1742H25.7717V38.0893H31.6869V32.1742Z" fill="#1B212D"/>
<path d="M37.602 32.1742H31.6869V38.0893H37.602V32.1742Z" fill="#1B212D"/>
<path d="M43.5172 32.1742H37.602V38.0893H43.5172V32.1742Z" fill="#1B212D"/>
<path d="M55.3475 32.1742H49.4323V38.0893H55.3475V32.1742Z" fill="#1B212D"/>
<path d="M67.1778 32.1742H61.2626V38.0893H67.1778V32.1742Z" fill="#1B212D"/>
<path d="M73.0929 32.1742H67.1778V38.0893H73.0929V32.1742Z" fill="#1B212D"/>
<path d="M79.0081 32.1742H73.0929V38.0893H79.0081V32.1742Z" fill="#1B212D"/>
<path d="M96.7535 32.1742H90.8384V38.0893H96.7535V32.1742Z" fill="#1B212D"/>
<path d="M120.414 32.1742H114.499V38.0893H120.414V32.1742Z" fill="#1B212D"/>
<path d="M126.329 32.1742H120.414V38.0893H126.329V32.1742Z" fill="#1B212D"/>
<path d="M144.075 32.1742H138.16V38.0893H144.075V32.1742Z" fill="#1B212D"/>
<path d="M149.99 32.1742H144.075V38.0893H149.99V32.1742Z" fill="#1B212D"/>
<path d="M161.82 32.1742H155.905V38.0893H161.82V32.1742Z" fill="#1B212D"/>
<path d="M173.65 32.1742H167.735V38.0893H173.65V32.1742Z" fill="#1B212D"/>
<path d="M185.481 32.1742H179.566V38.0893H185.481V32.1742Z" fill="#1B212D"/>
<path d="M191.396 32.1742H185.481V38.0893H191.396V32.1742Z" fill="#1B212D"/>
<path d="M197.311 32.1742H191.396V38.0893H197.311V32.1742Z" fill="#1B212D"/>
<path d="M209.141 32.1742H203.226V38.0893H209.141V32.1742Z" fill="#1B212D"/>
<path d="M19.8566 38.0893H13.9414V44.0045H19.8566V38.0893Z" fill="#1B212D"/>
<path d="M31.6869 38.0893H25.7717V44.0045H31.6869V38.0893Z" fill="#1B212D"/>
<path d="M37.602 38.0893H31.6869V44.0045H37.602V38.0893Z" fill="#1B212D"/>
<path d="M43.5172 38.0893H37.602V44.0045H43.5172V38.0893Z" fill="#1B212D"/>
<path d="M55.3475 38.0893H49.4323V44.0045H55.3475V38.0893Z" fill="#1B212D"/>
<path d="M79.0081 38.0893H73.0929V44.0045H79.0081V38.0893Z" fill="#1B212D"/>
<path d="M84.9232 38.0893H79.0081V44.0045H84.9232V38.0893Z" fill="#1B212D"/>
<path d="M96.7535 38.0893H90.8384V44.0045H96.7535V38.0893Z" fill="#1B212D"/>
<path d="M102.669 38.0893H96.7535V44.0045H102.669V38.0893Z" fill="#1B212D"/>
<path d="M114.499 38.0893H108.584V44.0045H114.499V38.0893Z" fill="#1B212D"/>
<path d="M132.244 38.0893H126.329L126.329 44.0045H132.244V38.0893Z" fill="#1B212D"/>
<path d="M138.16 38.0893H132.244V44.0045H138.16V38.0893Z" fill="#1B212D"/>
<path d="M173.65 38.0893H167.735V44.0045H173.65V38.0893Z" fill="#1B212D"/>
<path d="M185.481 38.0893H179.566V44.0045H185.481V38.0893Z" fill="#1B212D"/>
<path d="M191.396 38.0893H185.481V44.0045H191.396V38.0893Z" fill="#1B212D"/>
<path d="M197.311 38.0893H191.396V44.0045H197.311V38.0893Z" fill="#1B212D"/>
<path d="M209.141 38.0893H203.226V44.0045H209.141V38.0893Z" fill="#1B212D"/>
<path d="M19.8566 44.0045H13.9414V49.9196H19.8566V44.0045Z" fill="#1B212D"/>
<path d="M55.3475 44.0045H49.4323V49.9196H55.3475V44.0045Z" fill="#1B212D"/>
<path d="M67.1778 44.0045H61.2626V49.9196H67.1778V44.0045Z" fill="#1B212D"/>
<path d="M73.0929 44.0045H67.1778V49.9196H73.0929V44.0045Z" fill="#1B212D"/>
<path d="M79.0081 44.0045H73.0929V49.9196H79.0081V44.0045Z" fill="#1B212D"/>
<path d="M84.9232 44.0045H79.0081V49.9196H84.9232V44.0045Z" fill="#1B212D"/>
<path d="M96.7535 44.0045H90.8384V49.9196H96.7535V44.0045Z" fill="#1B212D"/>
<path d="M114.499 44.0045H108.584V49.9196H114.499V44.0045Z" fill="#1B212D"/>
<path d="M126.329 44.0045H120.414V49.9196H126.329L126.329 44.0045Z" fill="#1B212D"/>
<path d="M138.16 44.0045H132.244V49.9196H138.16V44.0045Z" fill="#1B212D"/>
<path d="M149.99 44.0045H144.075V49.9196H149.99V44.0045Z" fill="#1B212D"/>
<path d="M161.82 44.0045H155.905V49.9196H161.82V44.0045Z" fill="#1B212D"/>
<path d="M173.65 44.0045H167.735V49.9196H173.65V44.0045Z" fill="#1B212D"/>
<path d="M209.141 44.0045H203.226V49.9196H209.141V44.0045Z" fill="#1B212D"/>
<path d="M19.8566 49.9196H13.9414V55.8348H19.8566V49.9196Z" fill="#1B212D"/>
<path d="M25.7717 49.9196H19.8566V55.8348H25.7717V49.9196Z" fill="#1B212D"/>
<path d="M31.6869 49.9196H25.7717V55.8348H31.6869V49.9196Z" fill="#1B212D"/>
<path d="M37.602 49.9196H31.6869V55.8348H37.602V49.9196Z" fill="#1B212D"/>
<path d="M43.5172 49.9196H37.602V55.8348H43.5172V49.9196Z" fill="#1B212D"/>
<path d="M49.4323 49.9196H43.5172V55.8348H49.4323V49.9196Z" fill="#1B212D"/>
<path d="M55.3475 49.9196H49.4323V55.8348H55.3475V49.9196Z" fill="#1B212D"/>
<path d="M67.1778 49.9196H61.2626V55.8348H67.1778V49.9196Z" fill="#1B212D"/>
<path d="M79.0081 49.9196H73.0929V55.8348H79.0081V49.9196Z" fill="#1B212D"/>
<path d="M90.8384 49.9196H84.9232V55.8348H90.8384V49.9196Z" fill="#1B212D"/>
<path d="M102.669 49.9196H96.7535V55.8348H102.669V49.9196Z" fill="#1B212D"/>
<path d="M114.499 49.9196H108.584V55.8348H114.499V49.9196Z" fill="#1B212D"/>
<path d="M126.329 49.9196H120.414V55.8348H126.329V49.9196Z" fill="#1B212D"/>
<path d="M138.16 49.9196H132.244V55.8348H138.16V49.9196Z" fill="#1B212D"/>
<path d="M149.99 49.9196H144.075V55.8348H149.99V49.9196Z" fill="#1B212D"/>
<path d="M161.82 49.9196H155.905V55.8348H161.82V49.9196Z" fill="#1B212D"/>
<path d="M173.65 49.9196H167.735V55.8348H173.65V49.9196Z" fill="#1B212D"/>
<path d="M179.566 49.9196H173.65V55.8348H179.566V49.9196Z" fill="#1B212D"/>
<path d="M185.481 49.9196H179.566V55.8348H185.481V49.9196Z" fill="#1B212D"/>
<path d="M191.396 49.9196H185.481V55.8348H191.396V49.9196Z" fill="#1B212D"/>
<path d="M197.311 49.9196H191.396V55.8348H197.311V49.9196Z" fill="#1B212D"/>
<path d="M203.226 49.9196H197.311V55.8348H203.226V49.9196Z" fill="#1B212D"/>
<path d="M209.141 49.9196H203.226V55.8348H209.141V49.9196Z" fill="#1B212D"/>
<path d="M67.1778 55.8348H61.2626V61.7499H67.1778V55.8348Z" fill="#1B212D"/>
<path d="M73.0929 55.8348H67.1778V61.7499H73.0929V55.8348Z" fill="#1B212D"/>
<path d="M79.0081 55.8348H73.0929V61.7499H79.0081V55.8348Z" fill="#1B212D"/>
<path d="M90.8384 55.8348H84.9232V61.7499H90.8384V55.8348Z" fill="#1B212D"/>
<path d="M96.7535 55.8348H90.8384V61.7499H96.7535V55.8348Z" fill="#1B212D"/>
<path d="M102.669 55.8348H96.7535V61.7499H102.669V55.8348Z" fill="#1B212D"/>
<path d="M108.584 55.8348H102.669V61.7499H108.584V55.8348Z" fill="#1B212D"/>
<path d="M114.499 55.8348H108.584V61.7499H114.499V55.8348Z" fill="#1B212D"/>
<path d="M120.414 55.8348H114.499V61.7499H120.414V55.8348Z" fill="#1B212D"/>
<path d="M138.16 55.8348H132.244V61.7499H138.16V55.8348Z" fill="#1B212D"/>
<path d="M144.075 55.8348H138.16V61.7499H144.075V55.8348Z" fill="#1B212D"/>
<path d="M155.905 55.8348H149.99V61.7499H155.905V55.8348Z" fill="#1B212D"/>
<path d="M161.82 55.8348H155.905V61.7499H161.82V55.8348Z" fill="#1B212D"/>
<path d="M19.8566 61.7499H13.9414V67.6651H19.8566V61.7499Z" fill="#1B212D"/>
<path d="M25.7717 61.7499H19.8566V67.6651H25.7717V61.7499Z" fill="#1B212D"/>
<path d="M37.602 61.7499H31.6869V67.6651H37.602V61.7499Z" fill="#1B212D"/>
<path d="M55.3475 61.7499H49.4323V67.6651H55.3475V61.7499Z" fill="#1B212D"/>
<path d="M61.2626 61.7499H55.3475V67.6651H61.2626V61.7499Z" fill="#1B212D"/>
<path d="M79.0081 61.7499H73.0929V67.6651H79.0081V61.7499Z" fill="#1B212D"/>
<path d="M84.9232 61.7499H79.0081V67.6651H84.9232V61.7499Z" fill="#1B212D"/>
<path d="M96.7535 61.7499H90.8384V67.6651H96.7535V61.7499Z" fill="#1B212D"/>
<path d="M108.584 61.7499H102.669V67.6651H108.584V61.7499Z" fill="#1B212D"/>
<path d="M114.499 61.7499H108.584V67.6651H114.499V61.7499Z" fill="#1B212D"/>
<path d="M126.329 61.7499H120.414V67.6651H126.329V61.7499Z" fill="#1B212D"/>
<path d="M132.244 61.7499H126.329V67.6651H132.244V61.7499Z" fill="#1B212D"/>
<path d="M138.16 61.7499H132.244V67.6651H138.16V61.7499Z" fill="#1B212D"/>
<path d="M155.905 61.7499H149.99V67.6651H155.905V61.7499Z" fill="#1B212D"/>
<path d="M167.735 61.7499H161.82V67.6651H167.735V61.7499Z" fill="#1B212D"/>
<path d="M173.65 61.7499H167.735V67.6651H173.65V61.7499Z" fill="#1B212D"/>
<path d="M179.566 61.7499H173.65V67.6651H179.566V61.7499Z" fill="#1B212D"/>
<path d="M191.396 61.7499H185.481V67.6651H191.396V61.7499Z" fill="#1B212D"/>
<path d="M197.311 61.7499H191.396V67.6651H197.311V61.7499Z" fill="#1B212D"/>
<path d="M209.141 61.7499H203.226V67.6651H209.141V61.7499Z" fill="#1B212D"/>
<path d="M19.8566 67.6651H13.9414V73.5802H19.8566V67.6651Z" fill="#1B212D"/>
<path d="M25.7717 67.6651H19.8566V73.5802H25.7717V67.6651Z" fill="#1B212D"/>
<path d="M37.602 67.6651H31.6869V73.5802H37.602V67.6651Z" fill="#1B212D"/>
<path d="M43.5172 67.6651H37.602V73.5802H43.5172V67.6651Z" fill="#1B212D"/>
<path d="M73.0929 67.6651H67.1778V73.5802H73.0929V67.6651Z" fill="#1B212D"/>
<path d="M79.0081 67.6651H73.0929V73.5802H79.0081V67.6651Z" fill="#1B212D"/>
<path d="M90.8384 67.6651H84.9232V73.5802H90.8384V67.6651Z" fill="#1B212D"/>
<path d="M96.7535 67.6651H90.8384V73.5802H96.7535V67.6651Z" fill="#1B212D"/>
<path d="M114.499 67.6651H108.584V73.5802H114.499V67.6651Z" fill="#1B212D"/>
<path d="M120.414 67.6651H114.499V73.5802H120.414V67.6651Z" fill="#1B212D"/>
<path d="M126.329 67.6651H120.414V73.5802H126.329V67.6651Z" fill="#1B212D"/>
<path d="M149.99 67.6651H144.075V73.5802H149.99V67.6651Z" fill="#1B212D"/>
<path d="M161.82 67.6651H155.905V73.5802H161.82V67.6651Z" fill="#1B212D"/>
<path d="M185.481 67.6651H179.566V73.5802H185.481V67.6651Z" fill="#1B212D"/>
<path d="M209.141 67.6651H203.226V73.5802H209.141V67.6651Z" fill="#1B212D"/>
<path d="M31.6869 73.5802H25.7717V79.4954H31.6869V73.5802Z" fill="#1B212D"/>
<path d="M43.5172 73.5802H37.602V79.4954H43.5172V73.5802Z" fill="#1B212D"/>
<path d="M55.3475 73.5802H49.4323V79.4954H55.3475V73.5802Z" fill="#1B212D"/>
<path d="M102.669 73.5802H96.7535V79.4954H102.669V73.5802Z" fill="#1B212D"/>
<path d="M108.584 73.5802H102.669V79.4954H108.584V73.5802Z" fill="#1B212D"/>
<path d="M114.499 73.5802H108.584V79.4954H114.499V73.5802Z" fill="#1B212D"/>
<path d="M144.075 73.5802H138.16V79.4954H144.075V73.5802Z" fill="#1B212D"/>
<path d="M155.905 73.5802H149.99V79.4954H155.905V73.5802Z" fill="#1B212D"/>
<path d="M167.735 73.5802H161.82V79.4954H167.735V73.5802Z" fill="#1B212D"/>
<path d="M191.396 73.5802H185.481V79.4954H191.396V73.5802Z" fill="#1B212D"/>
<path d="M197.311 73.5802H191.396V79.4954H197.311V73.5802Z" fill="#1B212D"/>
<path d="M203.226 73.5802H197.311V79.4954H203.226V73.5802Z" fill="#1B212D"/>
<path d="M209.141 73.5802H203.226V79.4954H209.141V73.5802Z" fill="#1B212D"/>
<path d="M19.8566 79.4954H13.9414V85.4105H19.8566V79.4954Z" fill="#1B212D"/>
<path d="M31.6869 79.4954H25.7717V85.4105H31.6869V79.4954Z" fill="#1B212D"/>
<path d="M37.602 79.4954H31.6869V85.4105H37.602V79.4954Z" fill="#1B212D"/>
<path d="M61.2626 79.4954H55.3475V85.4105H61.2626V79.4954Z" fill="#1B212D"/>
<path d="M67.1778 79.4954H61.2626V85.4105H67.1778V79.4954Z" fill="#1B212D"/>
<path d="M84.9232 79.4954H79.0081V85.4105H84.9232V79.4954Z" fill="#1B212D"/>
<path d="M90.8384 79.4954H84.9232V85.4105H90.8384V79.4954Z" fill="#1B212D"/>
<path d="M102.669 79.4954H96.7535V85.4105H102.669V79.4954Z" fill="#1B212D"/>
<path d="M108.584 79.4954H102.669V85.4105H108.584V79.4954Z" fill="#1B212D"/>
<path d="M120.414 79.4954H114.499V85.4105H120.414V79.4954Z" fill="#1B212D"/>
<path d="M126.329 79.4954H120.414V85.4105H126.329V79.4954Z" fill="#1B212D"/>
<path d="M132.244 79.4954H126.329V85.4105H132.244V79.4954Z" fill="#1B212D"/>
<path d="M144.075 79.4954H138.16V85.4105H144.075V79.4954Z" fill="#1B212D"/>
<path d="M149.99 79.4954H144.075V85.4105H149.99V79.4954Z" fill="#1B212D"/>
<path d="M155.905 79.4954H149.99V85.4105H155.905V79.4954Z" fill="#1B212D"/>
<path d="M161.82 79.4954H155.905V85.4105H161.82V79.4954Z" fill="#1B212D"/>
<path d="M179.566 79.4954H173.65V85.4105H179.566V79.4954Z" fill="#1B212D"/>
<path d="M185.481 79.4954H179.566V85.4105H185.481V79.4954Z" fill="#1B212D"/>
<path d="M191.396 79.4954H185.481V85.4105H191.396V79.4954Z" fill="#1B212D"/>
<path d="M203.226 79.4954H197.311V85.4105H203.226V79.4954Z" fill="#1B212D"/>
<path d="M25.7717 85.4105H19.8566V91.3257H25.7717V85.4105Z" fill="#1B212D"/>
<path d="M31.6869 85.4105H25.7717V91.3257H31.6869V85.4105Z" fill="#1B212D"/>
<path d="M43.5172 85.4105H37.602V91.3257H43.5172V85.4105Z" fill="#1B212D"/>
<path d="M49.4323 85.4105H43.5172V91.3257H49.4323V85.4105Z" fill="#1B212D"/>
<path d="M55.3475 85.4105H49.4323V91.3257H55.3475V85.4105Z" fill="#1B212D"/>
<path d="M61.2626 85.4105H55.3475V91.3257H61.2626V85.4105Z" fill="#1B212D"/>
<path d="M67.1778 85.4105H61.2626V91.3257H67.1778V85.4105Z" fill="#1B212D"/>
<path d="M73.0929 85.4105H67.1778V91.3257H73.0929V85.4105Z" fill="#1B212D"/>
<path d="M79.0081 85.4105H73.0929V91.3257H79.0081V85.4105Z" fill="#1B212D"/>
<path d="M84.9232 85.4105H79.0081V91.3257H84.9232V85.4105Z" fill="#1B212D"/>
<path d="M90.8384 85.4105H84.9232V91.3257H90.8384V85.4105Z" fill="#1B212D"/>
<path d="M102.669 85.4105H96.7535V91.3257H102.669V85.4105Z" fill="#1B212D"/>
<path d="M120.414 85.4105H114.499V91.3257H120.414V85.4105Z" fill="#1B212D"/>
<path d="M132.244 85.4105H126.329L126.329 91.3257H132.244V85.4105Z" fill="#1B212D"/>
<path d="M149.99 85.4105H144.075V91.3257H149.99V85.4105Z" fill="#1B212D"/>
<path d="M173.65 85.4105H167.735V91.3257H173.65V85.4105Z" fill="#1B212D"/>
<path d="M197.311 85.4105H191.396V91.3257H197.311V85.4105Z" fill="#1B212D"/>
<path d="M203.226 85.4105H197.311V91.3257H203.226V85.4105Z" fill="#1B212D"/>
<path d="M19.8566 91.3257H13.9414V97.2408H19.8566V91.3257Z" fill="#1B212D"/>
<path d="M25.7717 91.3257H19.8566V97.2408H25.7717V91.3257Z" fill="#1B212D"/>
<path d="M43.5172 91.3257H37.602V97.2408H43.5172V91.3257Z" fill="#1B212D"/>
<path d="M49.4323 91.3257H43.5172V97.2408H49.4323V91.3257Z" fill="#1B212D"/>
<path d="M84.9232 91.3257H79.0081V97.2408H84.9232V91.3257Z" fill="#1B212D"/>
<path d="M96.7535 91.3257H90.8384V97.2408H96.7535V91.3257Z" fill="#1B212D"/>
<path d="M102.669 91.3257H96.7535V97.2408H102.669V91.3257Z" fill="#1B212D"/>
<path d="M108.584 91.3257H102.669V97.2408H108.584V91.3257Z" fill="#1B212D"/>
<path d="M126.329 91.3257H120.414V97.2408H126.329L126.329 91.3257Z" fill="#1B212D"/>
<path d="M132.244 91.3257H126.329L126.329 97.2408H132.244V91.3257Z" fill="#1B212D"/>
<path d="M144.075 91.3257H138.16V97.2408H144.075V91.3257Z" fill="#1B212D"/>
<path d="M155.905 91.3257H149.99V97.2408H155.905V91.3257Z" fill="#1B212D"/>
<path d="M167.735 91.3257H161.82V97.2408H167.735V91.3257Z" fill="#1B212D"/>
<path d="M197.311 91.3257H191.396V97.2408H197.311V91.3257Z" fill="#1B212D"/>
<path d="M203.226 91.3257H197.311V97.2408H203.226V91.3257Z" fill="#1B212D"/>
<path d="M209.141 91.3257H203.226V97.2408H209.141V91.3257Z" fill="#1B212D"/>
<path d="M37.602 97.2408H31.6869V103.156H37.602V97.2408Z" fill="#1B212D"/>
<path d="M43.5172 97.2408H37.602V103.156H43.5172V97.2408Z" fill="#1B212D"/>
<path d="M55.3475 97.2408H49.4323V103.156H55.3475V97.2408Z" fill="#1B212D"/>
<path d="M67.1778 97.2408H61.2626V103.156H67.1778V97.2408Z" fill="#1B212D"/>
<path d="M73.0929 97.2408H67.1778V103.156H73.0929V97.2408Z" fill="#1B212D"/>
<path d="M79.0081 97.2408H73.0929V103.156H79.0081V97.2408Z" fill="#1B212D"/>
<path d="M84.9232 97.2408H79.0081V103.156H84.9232V97.2408Z" fill="#1B212D"/>
<path d="M108.584 97.2408H102.669V103.156H108.584V97.2408Z" fill="#1B212D"/>
<path d="M114.499 97.2408H108.584V103.156H114.499V97.2408Z" fill="#1B212D"/>
<path d="M120.414 97.2408H114.499V103.156H120.414V97.2408Z" fill="#1B212D"/>
<path d="M149.99 97.2408H144.075V103.156H149.99V97.2408Z" fill="#1B212D"/>
<path d="M155.905 97.2408H149.99V103.156H155.905V97.2408Z" fill="#1B212D"/>
<path d="M161.82 97.2408H155.905V103.156H161.82V97.2408Z" fill="#1B212D"/>
<path d="M173.65 97.2408H167.735V103.156H173.65V97.2408Z" fill="#1B212D"/>
<path d="M185.481 97.2408H179.566V103.156H185.481V97.2408Z" fill="#1B212D"/>
<path d="M191.396 97.2408H185.481V103.156H191.396V97.2408Z" fill="#1B212D"/>
<path d="M203.226 97.2408H197.311V103.156H203.226V97.2408Z" fill="#1B212D"/>
<path d="M37.602 103.156H31.6869V109.071H37.602V103.156Z" fill="#1B212D"/>
<path d="M90.8384 103.156H84.9232V109.071H90.8384V103.156Z" fill="#1B212D"/>
<path d="M102.669 103.156H96.7535V109.071H102.669V103.156Z" fill="#1B212D"/>
<path d="M114.499 103.156H108.584V109.071H114.499V103.156Z" fill="#1B212D"/>
<path d="M120.414 103.156H114.499V109.071H120.414V103.156Z" fill="#1B212D"/>
<path d="M126.329 103.156H120.414V109.071H126.329V103.156Z" fill="#1B212D"/>
<path d="M132.244 103.156H126.329V109.071H132.244V103.156Z" fill="#1B212D"/>
<path d="M144.075 103.156H138.16V109.071H144.075V103.156Z" fill="#1B212D"/>
<path d="M161.82 103.156H155.905V109.071H161.82V103.156Z" fill="#1B212D"/>
<path d="M167.735 103.156H161.82V109.071H167.735V103.156Z" fill="#1B212D"/>
<path d="M179.566 103.156H173.65V109.071H179.566V103.156Z" fill="#1B212D"/>
<path d="M185.481 103.156H179.566V109.071H185.481V103.156Z" fill="#1B212D"/>
<path d="M203.226 103.156H197.311V109.071H203.226V103.156Z" fill="#1B212D"/>
<path d="M209.141 103.156H203.226V109.071H209.141V103.156Z" fill="#1B212D"/>
<path d="M19.8566 109.071H13.9414V114.986H19.8566V109.071Z" fill="#1B212D"/>
<path d="M31.6869 109.071H25.7717V114.986H31.6869V109.071Z" fill="#1B212D"/>
<path d="M37.602 109.071H31.6869V114.986H37.602V109.071Z" fill="#1B212D"/>
<path d="M55.3475 109.071H49.4323V114.986H55.3475V109.071Z" fill="#1B212D"/>
<path d="M67.1778 109.071H61.2626V114.986H67.1778V109.071Z" fill="#1B212D"/>
<path d="M79.0081 109.071H73.0929V114.986H79.0081V109.071Z" fill="#1B212D"/>
<path d="M96.7535 109.071H90.8384V114.986H96.7535V109.071Z" fill="#1B212D"/>
<path d="M102.669 109.071H96.7535V114.986H102.669V109.071Z" fill="#1B212D"/>
<path d="M108.584 109.071H102.669V114.986H108.584V109.071Z" fill="#1B212D"/>
<path d="M132.244 109.071H126.329L126.329 114.986H132.244V109.071Z" fill="#1B212D"/>
<path d="M149.99 109.071H144.075V114.986H149.99V109.071Z" fill="#1B212D"/>
<path d="M155.905 109.071H149.99V114.986H155.905V109.071Z" fill="#1B212D"/>
<path d="M167.735 109.071H161.82V114.986H167.735V109.071Z" fill="#1B212D"/>
<path d="M203.226 109.071H197.311V114.986H203.226V109.071Z" fill="#1B212D"/>
<path d="M209.141 109.071H203.226V114.986H209.141V109.071Z" fill="#1B212D"/>
<path d="M19.8566 114.986H13.9414V120.901H19.8566V114.986Z" fill="#1B212D"/>
<path d="M31.6869 114.986H25.7717V120.901H31.6869V114.986Z" fill="#1B212D"/>
<path d="M49.4323 114.986H43.5172V120.901H49.4323V114.986Z" fill="#1B212D"/>
<path d="M61.2626 114.986H55.3475V120.901H61.2626V114.986Z" fill="#1B212D"/>
<path d="M67.1778 114.986H61.2626V120.901H67.1778V114.986Z" fill="#1B212D"/>
<path d="M79.0081 114.986H73.0929V120.901H79.0081V114.986Z" fill="#1B212D"/>
<path d="M96.7535 114.986H90.8384V120.901H96.7535V114.986Z" fill="#1B212D"/>
<path d="M102.669 114.986H96.7535V120.901H102.669V114.986Z" fill="#1B212D"/>
<path d="M120.414 114.986H114.499V120.901H120.414V114.986Z" fill="#1B212D"/>
<path d="M126.329 114.986H120.414V120.901H126.329L126.329 114.986Z" fill="#1B212D"/>
<path d="M149.99 114.986H144.075V120.901H149.99V114.986Z" fill="#1B212D"/>
<path d="M161.82 114.986H155.905V120.901H161.82V114.986Z" fill="#1B212D"/>
<path d="M167.735 114.986H161.82V120.901H167.735V114.986Z" fill="#1B212D"/>
<path d="M185.481 114.986H179.566V120.901H185.481V114.986Z" fill="#1B212D"/>
<path d="M191.396 114.986H185.481V120.901H191.396V114.986Z" fill="#1B212D"/>
<path d="M203.226 114.986H197.311V120.901H203.226V114.986Z" fill="#1B212D"/>
<path d="M209.141 114.986H203.226V120.901H209.141V114.986Z" fill="#1B212D"/>
<path d="M19.8566 120.901H13.9414V126.817H19.8566V120.901Z" fill="#1B212D"/>
<path d="M25.7717 120.901H19.8566V126.817H25.7717V120.901Z" fill="#1B212D"/>
<path d="M49.4323 120.901H43.5172V126.817H49.4323V120.901Z" fill="#1B212D"/>
<path d="M55.3475 120.901H49.4323V126.817H55.3475V120.901Z" fill="#1B212D"/>
<path d="M61.2626 120.901H55.3475V126.817H61.2626V120.901Z" fill="#1B212D"/>
<path d="M67.1778 120.901H61.2626V126.817H67.1778V120.901Z" fill="#1B212D"/>
<path d="M84.9232 120.901H79.0081V126.817H84.9232V120.901Z" fill="#1B212D"/>
<path d="M90.8384 120.901H84.9232V126.817H90.8384V120.901Z" fill="#1B212D"/>
<path d="M96.7535 120.901H90.8384V126.817H96.7535V120.901Z" fill="#1B212D"/>
<path d="M108.584 120.901H102.669V126.817H108.584V120.901Z" fill="#1B212D"/>
<path d="M138.16 120.901H132.244V126.817H138.16V120.901Z" fill="#1B212D"/>
<path d="M144.075 120.901H138.16V126.817H144.075V120.901Z" fill="#1B212D"/>
<path d="M191.396 120.901H185.481V126.817H191.396V120.901Z" fill="#1B212D"/>
<path d="M209.141 120.901H203.226V126.817H209.141V120.901Z" fill="#1B212D"/>
<path d="M19.8566 126.817H13.9414V132.732H19.8566V126.817Z" fill="#1B212D"/>
<path d="M49.4323 126.817H43.5172V132.732H49.4323V126.817Z" fill="#1B212D"/>
<path d="M67.1778 126.817H61.2626V132.732H67.1778V126.817Z" fill="#1B212D"/>
<path d="M73.0929 126.817L67.1778 126.817V132.732H73.0929V126.817Z" fill="#1B212D"/>
<path d="M84.9232 126.817H79.0081V132.732H84.9232V126.817Z" fill="#1B212D"/>
<path d="M108.584 126.817H102.669V132.732H108.584V126.817Z" fill="#1B212D"/>
<path d="M114.499 126.817L108.584 126.817V132.732H114.499V126.817Z" fill="#1B212D"/>
<path d="M132.244 126.817L126.329 126.817V132.732H132.244V126.817Z" fill="#1B212D"/>
<path d="M155.905 126.817H149.99V132.732H155.905V126.817Z" fill="#1B212D"/>
<path d="M167.735 126.817H161.82V132.732H167.735V126.817Z" fill="#1B212D"/>
<path d="M173.65 126.817H167.735V132.732H173.65V126.817Z" fill="#1B212D"/>
<path d="M179.566 126.817H173.65V132.732H179.566V126.817Z" fill="#1B212D"/>
<path d="M185.481 126.817L179.566 126.817V132.732H185.481V126.817Z" fill="#1B212D"/>
<path d="M203.226 126.817L197.311 126.817V132.732H203.226V126.817Z" fill="#1B212D"/>
<path d="M209.141 126.817H203.226V132.732H209.141V126.817Z" fill="#1B212D"/>
<path d="M19.8566 132.732H13.9414V138.647H19.8566V132.732Z" fill="#1B212D"/>
<path d="M25.7717 132.732H19.8566V138.647H25.7717V132.732Z" fill="#1B212D"/>
<path d="M31.6869 132.732H25.7717V138.647H31.6869V132.732Z" fill="#1B212D"/>
<path d="M37.602 132.732H31.6869V138.647H37.602V132.732Z" fill="#1B212D"/>
<path d="M43.5172 132.732H37.602V138.647H43.5172V132.732Z" fill="#1B212D"/>
<path d="M49.4323 132.732H43.5172V138.647H49.4323V132.732Z" fill="#1B212D"/>
<path d="M55.3475 132.732H49.4323V138.647H55.3475V132.732Z" fill="#1B212D"/>
<path d="M61.2626 132.732H55.3475V138.647H61.2626V132.732Z" fill="#1B212D"/>
<path d="M73.0929 132.732H67.1778V138.647H73.0929V132.732Z" fill="#1B212D"/>
<path d="M79.0081 132.732H73.0929V138.647H79.0081V132.732Z" fill="#1B212D"/>
<path d="M108.584 132.732H102.669V138.647H108.584V132.732Z" fill="#1B212D"/>
<path d="M114.499 132.732H108.584V138.647H114.499V132.732Z" fill="#1B212D"/>
<path d="M155.905 132.732H149.99V138.647H155.905V132.732Z" fill="#1B212D"/>
<path d="M173.65 132.732H167.735V138.647H173.65V132.732Z" fill="#1B212D"/>
<path d="M179.566 132.732H173.65V138.647H179.566V132.732Z" fill="#1B212D"/>
<path d="M185.481 132.732H179.566V138.647H185.481V132.732Z" fill="#1B212D"/>
<path d="M191.396 132.732H185.481V138.647H191.396V132.732Z" fill="#1B212D"/>
<path d="M203.226 132.732H197.311V138.647H203.226V132.732Z" fill="#1B212D"/>
<path d="M43.5172 138.647H37.602V144.562H43.5172V138.647Z" fill="#1B212D"/>
<path d="M67.1778 138.647H61.2626V144.562H67.1778V138.647Z" fill="#1B212D"/>
<path d="M79.0081 138.647H73.0929V144.562H79.0081V138.647Z" fill="#1B212D"/>
<path d="M108.584 138.647H102.669V144.562H108.584V138.647Z" fill="#1B212D"/>
<path d="M114.499 138.647H108.584V144.562H114.499V138.647Z" fill="#1B212D"/>
<path d="M120.414 138.647H114.499V144.562H120.414V138.647Z" fill="#1B212D"/>
<path d="M138.16 138.647H132.244V144.562H138.16V138.647Z" fill="#1B212D"/>
<path d="M144.075 138.647H138.16V144.562H144.075V138.647Z" fill="#1B212D"/>
<path d="M179.566 138.647H173.65V144.562H179.566V138.647Z" fill="#1B212D"/>
<path d="M185.481 138.647H179.566V144.562H185.481V138.647Z" fill="#1B212D"/>
<path d="M191.396 138.647H185.481V144.562H191.396V138.647Z" fill="#1B212D"/>
<path d="M197.311 138.647H191.396V144.562H197.311V138.647Z" fill="#1B212D"/>
<path d="M209.141 138.647H203.226V144.562H209.141V138.647Z" fill="#1B212D"/>
<path d="M25.7717 144.562H19.8566V150.477H25.7717V144.562Z" fill="#1B212D"/>
<path d="M37.602 144.562H31.6869V150.477H37.602V144.562Z" fill="#1B212D"/>
<path d="M55.3475 144.562H49.4323V150.477H55.3475V144.562Z" fill="#1B212D"/>
<path d="M61.2626 144.562H55.3475V150.477H61.2626V144.562Z" fill="#1B212D"/>
<path d="M79.0081 144.562H73.0929V150.477H79.0081V144.562Z" fill="#1B212D"/>
<path d="M90.8384 144.562H84.9232V150.477H90.8384V144.562Z" fill="#1B212D"/>
<path d="M102.669 144.562H96.7535V150.477H102.669V144.562Z" fill="#1B212D"/>
<path d="M108.584 144.562H102.669V150.477H108.584V144.562Z" fill="#1B212D"/>
<path d="M114.499 144.562H108.584V150.477H114.499V144.562Z" fill="#1B212D"/>
<path d="M126.329 144.562H120.414V150.477H126.329V144.562Z" fill="#1B212D"/>
<path d="M144.075 144.562H138.16V150.477H144.075V144.562Z" fill="#1B212D"/>
<path d="M149.99 144.562H144.075V150.477H149.99V144.562Z" fill="#1B212D"/>
<path d="M155.905 144.562H149.99V150.477H155.905V144.562Z" fill="#1B212D"/>
<path d="M161.82 144.562H155.905V150.477H161.82V144.562Z" fill="#1B212D"/>
<path d="M185.481 144.562H179.566V150.477H185.481V144.562Z" fill="#1B212D"/>
<path d="M203.226 144.562H197.311V150.477H203.226V144.562Z" fill="#1B212D"/>
<path d="M19.8566 150.477H13.9414V156.392H19.8566V150.477Z" fill="#1B212D"/>
<path d="M25.7717 150.477H19.8566V156.392H25.7717V150.477Z" fill="#1B212D"/>
<path d="M31.6869 150.477H25.7717V156.392H31.6869V150.477Z" fill="#1B212D"/>
<path d="M61.2626 150.477H55.3475V156.392H61.2626V150.477Z" fill="#1B212D"/>
<path d="M73.0929 150.477H67.1778V156.392H73.0929V150.477Z" fill="#1B212D"/>
<path d="M79.0081 150.477H73.0929V156.392H79.0081V150.477Z" fill="#1B212D"/>
<path d="M90.8384 150.477H84.9232V156.392H90.8384V150.477Z" fill="#1B212D"/>
<path d="M108.584 150.477H102.669V156.392H108.584V150.477Z" fill="#1B212D"/>
<path d="M120.414 150.477H114.499V156.392H120.414V150.477Z" fill="#1B212D"/>
<path d="M144.075 150.477H138.16V156.392H144.075V150.477Z" fill="#1B212D"/>
<path d="M149.99 150.477H144.075V156.392H149.99V150.477Z" fill="#1B212D"/>
<path d="M167.735 150.477H161.82V156.392H167.735V150.477Z" fill="#1B212D"/>
<path d="M173.65 150.477H167.735V156.392H173.65V150.477Z" fill="#1B212D"/>
<path d="M179.566 150.477H173.65V156.392H179.566V150.477Z" fill="#1B212D"/>
<path d="M185.481 150.477H179.566V156.392H185.481V150.477Z" fill="#1B212D"/>
<path d="M197.311 150.477H191.396V156.392H197.311V150.477Z" fill="#1B212D"/>
<path d="M203.226 150.477H197.311V156.392H203.226V150.477Z" fill="#1B212D"/>
<path d="M209.141 150.477H203.226V156.392H209.141V150.477Z" fill="#1B212D"/>
<path d="M37.602 156.392H31.6869V162.307H37.602V156.392Z" fill="#1B212D"/>
<path d="M43.5172 156.392H37.602V162.307H43.5172V156.392Z" fill="#1B212D"/>
<path d="M55.3475 156.392H49.4323V162.307H55.3475V156.392Z" fill="#1B212D"/>
<path d="M67.1778 156.392H61.2626V162.307H67.1778V156.392Z" fill="#1B212D"/>
<path d="M79.0081 156.392H73.0929V162.307H79.0081V156.392Z" fill="#1B212D"/>
<path d="M90.8384 156.392H84.9232V162.307H90.8384V156.392Z" fill="#1B212D"/>
<path d="M108.584 156.392H102.669V162.307H108.584V156.392Z" fill="#1B212D"/>
<path d="M120.414 156.392H114.499V162.307H120.414V156.392Z" fill="#1B212D"/>
<path d="M126.329 156.392H120.414V162.307H126.329V156.392Z" fill="#1B212D"/>
<path d="M132.244 156.392H126.329V162.307H132.244V156.392Z" fill="#1B212D"/>
<path d="M155.905 156.392H149.99V162.307H155.905V156.392Z" fill="#1B212D"/>
<path d="M161.82 156.392H155.905V162.307H161.82V156.392Z" fill="#1B212D"/>
<path d="M167.735 156.392H161.82V162.307H167.735V156.392Z" fill="#1B212D"/>
<path d="M173.65 156.392H167.735V162.307H173.65V156.392Z" fill="#1B212D"/>
<path d="M179.566 156.392H173.65V162.307H179.566V156.392Z" fill="#1B212D"/>
<path d="M185.481 156.392H179.566V162.307H185.481V156.392Z" fill="#1B212D"/>
<path d="M191.396 156.392H185.481V162.307H191.396V156.392Z" fill="#1B212D"/>
<path d="M203.226 156.392H197.311V162.307H203.226V156.392Z" fill="#1B212D"/>
<path d="M96.7535 162.307H90.8384V168.223H96.7535V162.307Z" fill="#1B212D"/>
<path d="M102.669 162.307H96.7535V168.223H102.669V162.307Z" fill="#1B212D"/>
<path d="M108.584 162.307H102.669V168.223H108.584V162.307Z" fill="#1B212D"/>
<path d="M114.499 162.307H108.584V168.223H114.499V162.307Z" fill="#1B212D"/>
<path d="M120.414 162.307H114.499V168.223H120.414V162.307Z" fill="#1B212D"/>
<path d="M138.16 162.307H132.244V168.223H138.16V162.307Z" fill="#1B212D"/>
<path d="M149.99 162.307H144.075V168.223H149.99V162.307Z" fill="#1B212D"/>
<path d="M161.82 162.307H155.905V168.223H161.82V162.307Z" fill="#1B212D"/>
<path d="M185.481 162.307H179.566V168.223H185.481V162.307Z" fill="#1B212D"/>
<path d="M209.141 162.307H203.226V168.223H209.141V162.307Z" fill="#1B212D"/>
<path d="M19.8566 168.223H13.9414V174.138H19.8566V168.223Z" fill="#1B212D"/>
<path d="M25.7717 168.223H19.8566V174.138H25.7717V168.223Z" fill="#1B212D"/>
<path d="M31.6869 168.223H25.7717V174.138H31.6869V168.223Z" fill="#1B212D"/>
<path d="M37.602 168.223H31.6869V174.138H37.602V168.223Z" fill="#1B212D"/>
<path d="M43.5172 168.223H37.602V174.138H43.5172V168.223Z" fill="#1B212D"/>
<path d="M49.4323 168.223H43.5172V174.138H49.4323V168.223Z" fill="#1B212D"/>
<path d="M55.3475 168.223H49.4323V174.138H55.3475V168.223Z" fill="#1B212D"/>
<path d="M67.1778 168.223H61.2626V174.138H67.1778V168.223Z" fill="#1B212D"/>
<path d="M73.0929 168.223H67.1778V174.138H73.0929V168.223Z" fill="#1B212D"/>
<path d="M108.584 168.223H102.669V174.138H108.584V168.223Z" fill="#1B212D"/>
<path d="M114.499 168.223H108.584V174.138H114.499V168.223Z" fill="#1B212D"/>
<path d="M120.414 168.223H114.499V174.138H120.414V168.223Z" fill="#1B212D"/>
<path d="M126.329 168.223H120.414V174.138H126.329V168.223Z" fill="#1B212D"/>
<path d="M144.075 168.223H138.16V174.138H144.075V168.223Z" fill="#1B212D"/>
<path d="M155.905 168.223H149.99V174.138H155.905V168.223Z" fill="#1B212D"/>
<path d="M161.82 168.223H155.905V174.138H161.82V168.223Z" fill="#1B212D"/>
<path d="M173.65 168.223H167.735V174.138H173.65V168.223Z" fill="#1B212D"/>
<path d="M185.481 168.223H179.566V174.138H185.481V168.223Z" fill="#1B212D"/>
<path d="M197.311 168.223H191.396V174.138H197.311V168.223Z" fill="#1B212D"/>
<path d="M203.226 168.223H197.311V174.138H203.226V168.223Z" fill="#1B212D"/>
<path d="M19.8566 174.138H13.9414V180.053H19.8566V174.138Z" fill="#1B212D"/>
<path d="M55.3475 174.138H49.4323V180.053H55.3475V174.138Z" fill="#1B212D"/>
<path d="M96.7535 174.138H90.8384V180.053H96.7535V174.138Z" fill="#1B212D"/>
<path d="M126.329 174.138H120.414V180.053H126.329V174.138Z" fill="#1B212D"/>
<path d="M132.244 174.138H126.329V180.053H132.244V174.138Z" fill="#1B212D"/>
<path d="M138.16 174.138H132.244V180.053H138.16V174.138Z" fill="#1B212D"/>
<path d="M161.82 174.138H155.905V180.053H161.82V174.138Z" fill="#1B212D"/>
<path d="M185.481 174.138H179.566V180.053H185.481V174.138Z" fill="#1B212D"/>
<path d="M191.396 174.138H185.481V180.053H191.396V174.138Z" fill="#1B212D"/>
<path d="M203.226 174.138H197.311V180.053H203.226V174.138Z" fill="#1B212D"/>
<path d="M209.141 174.138H203.226V180.053H209.141V174.138Z" fill="#1B212D"/>
<path d="M19.8566 180.053H13.9414V185.968H19.8566V180.053Z" fill="#1B212D"/>
<path d="M31.6869 180.053H25.7717V185.968H31.6869V180.053Z" fill="#1B212D"/>
<path d="M37.602 180.053H31.6869V185.968H37.602V180.053Z" fill="#1B212D"/>
<path d="M43.5172 180.053H37.602V185.968H43.5172V180.053Z" fill="#1B212D"/>
<path d="M55.3475 180.053H49.4323V185.968H55.3475V180.053Z" fill="#1B212D"/>
<path d="M84.9232 180.053H79.0081V185.968H84.9232V180.053Z" fill="#1B212D"/>
<path d="M90.8384 180.053H84.9232V185.968H90.8384V180.053Z" fill="#1B212D"/>
<path d="M102.669 180.053H96.7535V185.968H102.669V180.053Z" fill="#1B212D"/>
<path d="M114.499 180.053H108.584V185.968H114.499V180.053Z" fill="#1B212D"/>
<path d="M120.414 180.053H114.499V185.968H120.414V180.053Z" fill="#1B212D"/>
<path d="M149.99 180.053H144.075V185.968H149.99V180.053Z" fill="#1B212D"/>
<path d="M155.905 180.053H149.99V185.968H155.905V180.053Z" fill="#1B212D"/>
<path d="M161.82 180.053H155.905V185.968H161.82V180.053Z" fill="#1B212D"/>
<path d="M167.735 180.053H161.82V185.968H167.735V180.053Z" fill="#1B212D"/>
<path d="M173.65 180.053H167.735V185.968H173.65V180.053Z" fill="#1B212D"/>
<path d="M179.566 180.053H173.65V185.968H179.566V180.053Z" fill="#1B212D"/>
<path d="M185.481 180.053H179.566V185.968H185.481V180.053Z" fill="#1B212D"/>
<path d="M209.141 180.053H203.226V185.968H209.141V180.053Z" fill="#1B212D"/>
<path d="M19.8566 185.968H13.9414V191.883H19.8566V185.968Z" fill="#1B212D"/>
<path d="M31.6869 185.968H25.7717V191.883H31.6869V185.968Z" fill="#1B212D"/>
<path d="M37.602 185.968H31.6869V191.883H37.602V185.968Z" fill="#1B212D"/>
<path d="M43.5172 185.968H37.602V191.883H43.5172V185.968Z" fill="#1B212D"/>
<path d="M55.3475 185.968H49.4323V191.883H55.3475V185.968Z" fill="#1B212D"/>
<path d="M67.1778 185.968H61.2626V191.883H67.1778V185.968Z" fill="#1B212D"/>
<path d="M84.9232 185.968H79.0081V191.883H84.9232V185.968Z" fill="#1B212D"/>
<path d="M96.7535 185.968H90.8384V191.883H96.7535V185.968Z" fill="#1B212D"/>
<path d="M108.584 185.968H102.669V191.883H108.584V185.968Z" fill="#1B212D"/>
<path d="M126.329 185.968H120.414V191.883H126.329V185.968Z" fill="#1B212D"/>
<path d="M149.99 185.968H144.075V191.883H149.99V185.968Z" fill="#1B212D"/>
<path d="M155.905 185.968H149.99V191.883H155.905V185.968Z" fill="#1B212D"/>
<path d="M167.735 185.968H161.82V191.883H167.735V185.968Z" fill="#1B212D"/>
<path d="M173.65 185.968H167.735V191.883H173.65V185.968Z" fill="#1B212D"/>
<path d="M179.566 185.968H173.65V191.883H179.566V185.968Z" fill="#1B212D"/>
<path d="M185.481 185.968H179.566V191.883H185.481V185.968Z" fill="#1B212D"/>
<path d="M197.311 185.968H191.396V191.883H197.311V185.968Z" fill="#1B212D"/>
<path d="M209.141 185.968H203.226V191.883H209.141V185.968Z" fill="#1B212D"/>
<path d="M19.8566 191.883H13.9414V197.798H19.8566V191.883Z" fill="#1B212D"/>
<path d="M31.6869 191.883H25.7717V197.798H31.6869V191.883Z" fill="#1B212D"/>
<path d="M37.602 191.883H31.6869V197.798H37.602V191.883Z" fill="#1B212D"/>
<path d="M43.5172 191.883H37.602V197.798H43.5172V191.883Z" fill="#1B212D"/>
<path d="M55.3475 191.883H49.4323V197.798H55.3475V191.883Z" fill="#1B212D"/>
<path d="M108.584 191.883H102.669V197.798H108.584V191.883Z" fill="#1B212D"/>
<path d="M114.499 191.883H108.584V197.798H114.499V191.883Z" fill="#1B212D"/>
<path d="M138.16 191.883H132.244V197.798H138.16V191.883Z" fill="#1B212D"/>
<path d="M144.075 191.883H138.16V197.798H144.075V191.883Z" fill="#1B212D"/>
<path d="M167.735 191.883H161.82V197.798H167.735V191.883Z" fill="#1B212D"/>
<path d="M173.65 191.883H167.735V197.798H173.65V191.883Z" fill="#1B212D"/>
<path d="M179.566 191.883H173.65V197.798H179.566V191.883Z" fill="#1B212D"/>
<path d="M185.481 191.883H179.566V197.798H185.481V191.883Z" fill="#1B212D"/>
<path d="M197.311 191.883H191.396V197.798H197.311V191.883Z" fill="#1B212D"/>
<path d="M209.141 191.883H203.226V197.798H209.141V191.883Z" fill="#1B212D"/>
<path d="M19.8566 197.798H13.9414V203.714H19.8566V197.798Z" fill="#1B212D"/>
<path d="M55.3475 197.798H49.4323V203.714H55.3475V197.798Z" fill="#1B212D"/>
<path d="M67.1778 197.798H61.2626V203.714H67.1778V197.798Z" fill="#1B212D"/>
<path d="M114.499 197.798H108.584V203.714H114.499V197.798Z" fill="#1B212D"/>
<path d="M120.414 197.798H114.499V203.714H120.414V197.798Z" fill="#1B212D"/>
<path d="M126.329 197.798H120.414V203.714H126.329V197.798Z" fill="#1B212D"/>
<path d="M138.16 197.798H132.244V203.714H138.16V197.798Z" fill="#1B212D"/>
<path d="M144.075 197.798H138.16V203.714H144.075V197.798Z" fill="#1B212D"/>
<path d="M149.99 197.798H144.075V203.714H149.99V197.798Z" fill="#1B212D"/>
<path d="M155.905 197.798H149.99V203.714H155.905V197.798Z" fill="#1B212D"/>
<path d="M173.65 197.798H167.735V203.714H173.65V197.798Z" fill="#1B212D"/>
<path d="M179.566 197.798H173.65V203.714H179.566V197.798Z" fill="#1B212D"/>
<path d="M19.8566 203.714H13.9414V209.629H19.8566V203.714Z" fill="#1B212D"/>
<path d="M25.7717 203.714H19.8566V209.629H25.7717V203.714Z" fill="#1B212D"/>
<path d="M31.6869 203.714H25.7717V209.629H31.6869V203.714Z" fill="#1B212D"/>
<path d="M37.602 203.714H31.6869V209.629H37.602V203.714Z" fill="#1B212D"/>
<path d="M43.5172 203.714H37.602V209.629H43.5172V203.714Z" fill="#1B212D"/>
<path d="M49.4323 203.714H43.5172V209.629H49.4323V203.714Z" fill="#1B212D"/>
<path d="M55.3475 203.714H49.4323V209.629H55.3475V203.714Z" fill="#1B212D"/>
<path d="M67.1778 203.714H61.2626V209.629H67.1778V203.714Z" fill="#1B212D"/>
<path d="M73.0929 203.714H67.1778V209.629H73.0929V203.714Z" fill="#1B212D"/>
<path d="M79.0081 203.714H73.0929V209.629H79.0081V203.714Z" fill="#1B212D"/>
<path d="M114.499 203.714H108.584V209.629H114.499V203.714Z" fill="#1B212D"/>
<path d="M120.414 203.714H114.499V209.629H120.414V203.714Z" fill="#1B212D"/>
<path d="M132.244 203.714H126.329L126.329 209.629H132.244V203.714Z" fill="#1B212D"/>
<path d="M144.075 203.714H138.16V209.629H144.075V203.714Z" fill="#1B212D"/>
<path d="M149.99 203.714H144.075V209.629H149.99V203.714Z" fill="#1B212D"/>
<path d="M155.905 203.714H149.99V209.629H155.905V203.714Z" fill="#1B212D"/>
<path d="M179.566 203.714H173.65V209.629H179.566V203.714Z" fill="#1B212D"/>
<path d="M185.481 203.714H179.566V209.629H185.481V203.714Z" fill="#1B212D"/>
<path d="M191.396 203.714H185.481V209.629H191.396V203.714Z" fill="#1B212D"/>
<path d="M203.226 203.714H197.311V209.629H203.226V203.714Z" fill="#1B212D"/>
</g>
<rect x="0.871429" y="1.35678" width="221.343" height="221.343" rx="16.5571" stroke="#010136" stroke-width="1.74286"/>
<defs>
<clipPath id="clip0_2577_2104">
<rect y="0.485352" width="223.086" height="223.086" rx="17.4286" fill="white"/>
</clipPath>
</defs>
</svg>
