<svg width="166" height="149" viewBox="0 0 166 149" fill="none" xmlns="http://www.w3.org/2000/svg">
<rect width="166" height="149" fill="white"/>
<path d="M10.624 10.6055H16.4141V15.717H10.624V10.6055ZM16.4141 10.6055H22.2042V15.717H16.4141V10.6055ZM22.2042 10.6055H27.9943V15.717H22.2042V10.6055ZM27.9943 10.6055H33.7843V15.717H27.9943V10.6055ZM33.7843 10.6055H39.5744V15.717H33.7843V10.6055ZM39.5744 10.6055H45.3645V15.717H39.5744V10.6055ZM45.3645 10.6055H51.1546V15.717H45.3645V10.6055ZM74.3149 10.6055H80.105V15.717H74.3149V10.6055ZM91.6851 10.6055H97.4752V15.717H91.6851V10.6055ZM97.4752 10.6055H103.265V15.717H97.4752V10.6055ZM103.265 10.6055H109.055V15.717H103.265V10.6055ZM114.845 10.6055H120.636V15.717H114.845V10.6055ZM120.636 10.6055H126.426V15.717H120.636V10.6055ZM126.426 10.6055H132.216V15.717H126.426V10.6055ZM132.216 10.6055H138.006V15.717H132.216V10.6055ZM138.006 10.6055H143.796V15.717H138.006V10.6055ZM143.796 10.6055H149.586V15.717H143.796V10.6055ZM149.586 10.6055H155.376V15.717H149.586V10.6055ZM10.624 15.717H16.4141V20.8286H10.624V15.717ZM45.3645 15.717H51.1546V20.8286H45.3645V15.717ZM62.7347 15.717H68.5248V20.8286H62.7347V15.717ZM85.8951 15.717H91.6851V20.8286H85.8951V15.717ZM91.6851 15.717H97.4752V20.8286H91.6851V15.717ZM103.265 15.717H109.055V20.8286H103.265V15.717ZM114.845 15.717H120.636V20.8286H114.845V15.717ZM149.586 15.717H155.376V20.8286H149.586V15.717ZM10.624 20.8286H16.4141V25.9402H10.624V20.8286ZM22.2042 20.8286H27.9943V25.9402H22.2042V20.8286ZM27.9943 20.8286H33.7843V25.9402H27.9943V20.8286ZM33.7843 20.8286H39.5744V25.9402H33.7843V20.8286ZM45.3645 20.8286H51.1546V25.9402H45.3645V20.8286ZM62.7347 20.8286H68.5248V25.9402H62.7347V20.8286ZM68.5248 20.8286H74.3149V25.9402H68.5248V20.8286ZM80.105 20.8286H85.8951V25.9402H80.105V20.8286ZM91.6851 20.8286H97.4752V25.9402H91.6851V20.8286ZM97.4752 20.8286H103.265V25.9402H97.4752V20.8286ZM114.845 20.8286H120.636V25.9402H114.845V20.8286ZM126.426 20.8286H132.216V25.9402H126.426V20.8286ZM132.216 20.8286H138.006V25.9402H132.216V20.8286ZM138.006 20.8286H143.796V25.9402H138.006V20.8286ZM149.586 20.8286H155.376V25.9402H149.586V20.8286ZM10.624 25.9402H16.4141V31.0518H10.624V25.9402ZM22.2042 25.9402H27.9943V31.0518H22.2042V25.9402ZM27.9943 25.9402H33.7843V31.0518H27.9943V25.9402ZM33.7843 25.9402H39.5744V31.0518H33.7843V25.9402ZM45.3645 25.9402H51.1546V31.0518H45.3645V25.9402ZM56.9447 25.9402H62.7347V31.0518H56.9447V25.9402ZM62.7347 25.9402H68.5248V31.0518H62.7347V25.9402ZM80.105 25.9402H85.8951V31.0518H80.105V25.9402ZM91.6851 25.9402H97.4752V31.0518H91.6851V25.9402ZM97.4752 25.9402H103.265V31.0518H97.4752V25.9402ZM114.845 25.9402H120.636V31.0518H114.845V25.9402ZM126.426 25.9402H132.216V31.0518H126.426V25.9402ZM132.216 25.9402H138.006V31.0518H132.216V25.9402ZM138.006 25.9402H143.796V31.0518H138.006V25.9402ZM149.586 25.9402H155.376V31.0518H149.586V25.9402ZM10.624 31.0518H16.4141V36.1633H10.624V31.0518ZM22.2042 31.0518H27.9943V36.1633H22.2042V31.0518ZM27.9943 31.0518H33.7843V36.1633H27.9943V31.0518ZM33.7843 31.0518H39.5744V36.1633H33.7843V31.0518ZM45.3645 31.0518H51.1546V36.1633H45.3645V31.0518ZM68.5248 31.0518H74.3149V36.1633H68.5248V31.0518ZM74.3149 31.0518H80.105V36.1633H74.3149V31.0518ZM80.105 31.0518H85.8951V36.1633H80.105V31.0518ZM85.8951 31.0518H91.6851V36.1633H85.8951V31.0518ZM91.6851 31.0518H97.4752V36.1633H91.6851V31.0518ZM114.845 31.0518H120.636V36.1633H114.845V31.0518ZM126.426 31.0518H132.216V36.1633H126.426V31.0518ZM132.216 31.0518H138.006V36.1633H132.216V31.0518ZM138.006 31.0518H143.796V36.1633H138.006V31.0518ZM149.586 31.0518H155.376V36.1633H149.586V31.0518ZM10.624 36.1633H16.4141V41.2749H10.624V36.1633ZM45.3645 36.1633H51.1546V41.2749H45.3645V36.1633ZM56.9447 36.1633H62.7347V41.2749H56.9447V36.1633ZM74.3149 36.1633H80.105V41.2749H74.3149V36.1633ZM103.265 36.1633H109.055V41.2749H103.265V36.1633ZM114.845 36.1633H120.636V41.2749H114.845V36.1633ZM149.586 36.1633H155.376V41.2749H149.586V36.1633ZM10.624 41.2749H16.4141V46.3865H10.624V41.2749ZM16.4141 41.2749H22.2042V46.3865H16.4141V41.2749ZM22.2042 41.2749H27.9943V46.3865H22.2042V41.2749ZM27.9943 41.2749H33.7843V46.3865H27.9943V41.2749ZM33.7843 41.2749H39.5744V46.3865H33.7843V41.2749ZM39.5744 41.2749H45.3645V46.3865H39.5744V41.2749ZM45.3645 41.2749H51.1546V46.3865H45.3645V41.2749ZM56.9447 41.2749H62.7347V46.3865H56.9447V41.2749ZM68.5248 41.2749H74.3149V46.3865H68.5248V41.2749ZM80.105 41.2749H85.8951V46.3865H80.105V41.2749ZM91.6851 41.2749H97.4752V46.3865H91.6851V41.2749ZM103.265 41.2749H109.055V46.3865H103.265V41.2749ZM114.845 41.2749H120.636V46.3865H114.845V41.2749ZM120.636 41.2749H126.426V46.3865H120.636V41.2749ZM126.426 41.2749H132.216V46.3865H126.426V41.2749ZM132.216 41.2749H138.006V46.3865H132.216V41.2749ZM138.006 41.2749H143.796V46.3865H138.006V41.2749ZM143.796 41.2749H149.586V46.3865H143.796V41.2749ZM149.586 41.2749H155.376V46.3865H149.586V41.2749ZM56.9447 46.3865H62.7347V51.4981H56.9447V46.3865ZM62.7347 46.3865H68.5248V51.4981H62.7347V46.3865ZM68.5248 46.3865H74.3149V51.4981H68.5248V46.3865ZM91.6851 46.3865H97.4752V51.4981H91.6851V46.3865ZM97.4752 46.3865H103.265V51.4981H97.4752V46.3865ZM103.265 46.3865H109.055V51.4981H103.265V46.3865ZM16.4141 51.4981H22.2042V56.6096H16.4141V51.4981ZM22.2042 51.4981H27.9943V56.6096H22.2042V51.4981ZM45.3645 51.4981H51.1546V56.6096H45.3645V51.4981ZM85.8951 51.4981H91.6851V56.6096H85.8951V51.4981ZM91.6851 51.4981H97.4752V56.6096H91.6851V51.4981ZM103.265 51.4981H109.055V56.6096H103.265V51.4981ZM114.845 51.4981H120.636V56.6096H114.845V51.4981ZM120.636 51.4981H126.426V56.6096H120.636V51.4981ZM132.216 51.4981H138.006V56.6096H132.216V51.4981ZM16.4141 56.6096H22.2042V61.7212H16.4141V56.6096ZM22.2042 56.6096H27.9943V61.7212H22.2042V56.6096ZM33.7843 56.6096H39.5744V61.7212H33.7843V56.6096ZM51.1546 56.6096H56.9447V61.7212H51.1546V56.6096ZM68.5248 56.6096H74.3149V61.7212H68.5248V56.6096ZM74.3149 56.6096H80.105V61.7212H74.3149V56.6096ZM80.105 56.6096H85.8951V61.7212H80.105V56.6096ZM85.8951 56.6096H91.6851V61.7212H85.8951V56.6096ZM91.6851 56.6096H97.4752V61.7212H91.6851V56.6096ZM97.4752 56.6096H103.265V61.7212H97.4752V56.6096ZM103.265 56.6096H109.055V61.7212H103.265V56.6096ZM114.845 56.6096H120.636V61.7212H114.845V56.6096ZM120.636 56.6096H126.426V61.7212H120.636V56.6096ZM132.216 56.6096H138.006V61.7212H132.216V56.6096ZM143.796 56.6096H149.586V61.7212H143.796V56.6096ZM149.586 56.6096H155.376V61.7212H149.586V56.6096ZM45.3645 61.7212H51.1546V66.8328H45.3645V61.7212ZM74.3149 61.7212H80.105V66.8328H74.3149V61.7212ZM97.4752 61.7212H103.265V66.8328H97.4752V61.7212ZM109.055 61.7212H114.845V66.8328H109.055V61.7212ZM120.636 61.7212H126.426V66.8328H120.636V61.7212ZM132.216 61.7212H138.006V66.8328H132.216V61.7212ZM138.006 61.7212H143.796V66.8328H138.006V61.7212ZM149.586 61.7212H155.376V66.8328H149.586V61.7212ZM10.624 66.8328H16.4141V71.9444H10.624V66.8328ZM16.4141 66.8328H22.2042V71.9444H16.4141V66.8328ZM33.7843 66.8328H39.5744V71.9444H33.7843V66.8328ZM51.1546 66.8328H56.9447V71.9444H51.1546V66.8328ZM62.7347 66.8328H68.5248V71.9444H62.7347V66.8328ZM68.5248 66.8328H74.3149V71.9444H68.5248V66.8328ZM85.8951 66.8328H91.6851V71.9444H85.8951V66.8328ZM97.4752 66.8328H103.265V71.9444H97.4752V66.8328ZM109.055 66.8328H114.845V71.9444H109.055V66.8328ZM120.636 66.8328H126.426V71.9444H120.636V66.8328ZM132.216 66.8328H138.006V71.9444H132.216V66.8328ZM10.624 71.9444H16.4141V77.0559H10.624V71.9444ZM16.4141 71.9444H22.2042V77.0559H16.4141V71.9444ZM27.9943 71.9444H33.7843V77.0559H27.9943V71.9444ZM45.3645 71.9444H51.1546V77.0559H45.3645V71.9444ZM51.1546 71.9444H56.9447V77.0559H51.1546V71.9444ZM56.9447 71.9444H62.7347V77.0559H56.9447V71.9444ZM62.7347 71.9444H68.5248V77.0559H62.7347V71.9444ZM68.5248 71.9444H74.3149V77.0559H68.5248V71.9444ZM85.8951 71.9444H91.6851V77.0559H85.8951V71.9444ZM97.4752 71.9444H103.265V77.0559H97.4752V71.9444ZM103.265 71.9444H109.055V77.0559H103.265V71.9444ZM114.845 71.9444H120.636V77.0559H114.845V71.9444ZM120.636 71.9444H126.426V77.0559H120.636V71.9444ZM149.586 71.9444H155.376V77.0559H149.586V71.9444ZM22.2042 77.0559H27.9943V82.1675H22.2042V77.0559ZM27.9943 77.0559H33.7843V82.1675H27.9943V77.0559ZM33.7843 77.0559H39.5744V82.1675H33.7843V77.0559ZM68.5248 77.0559H74.3149V82.1675H68.5248V77.0559ZM74.3149 77.0559H80.105V82.1675H74.3149V77.0559ZM80.105 77.0559H85.8951V82.1675H80.105V77.0559ZM97.4752 77.0559H103.265V82.1675H97.4752V77.0559ZM103.265 77.0559H109.055V82.1675H103.265V77.0559ZM114.845 77.0559H120.636V82.1675H114.845V77.0559ZM120.636 77.0559H126.426V82.1675H120.636V77.0559ZM143.796 77.0559H149.586V82.1675H143.796V77.0559ZM149.586 77.0559H155.376V82.1675H149.586V77.0559ZM10.624 82.1675H16.4141V87.2791H10.624V82.1675ZM16.4141 82.1675H22.2042V87.2791H16.4141V82.1675ZM27.9943 82.1675H33.7843V87.2791H27.9943V82.1675ZM39.5744 82.1675H45.3645V87.2791H39.5744V82.1675ZM45.3645 82.1675H51.1546V87.2791H45.3645V82.1675ZM56.9447 82.1675H62.7347V87.2791H56.9447V82.1675ZM62.7347 82.1675H68.5248V87.2791H62.7347V82.1675ZM68.5248 82.1675H74.3149V87.2791H68.5248V82.1675ZM80.105 82.1675H85.8951V87.2791H80.105V82.1675ZM97.4752 82.1675H103.265V87.2791H97.4752V82.1675ZM103.265 82.1675H109.055V87.2791H103.265V82.1675ZM114.845 82.1675H120.636V87.2791H114.845V82.1675ZM132.216 82.1675H138.006V87.2791H132.216V82.1675ZM138.006 82.1675H143.796V87.2791H138.006V82.1675ZM149.586 82.1675H155.376V87.2791H149.586V82.1675ZM22.2042 87.2791H27.9943V92.3907H22.2042V87.2791ZM27.9943 87.2791H33.7843V92.3907H27.9943V87.2791ZM33.7843 87.2791H39.5744V92.3907H33.7843V87.2791ZM51.1546 87.2791H56.9447V92.3907H51.1546V87.2791ZM68.5248 87.2791H74.3149V92.3907H68.5248V87.2791ZM91.6851 87.2791H97.4752V92.3907H91.6851V87.2791ZM97.4752 87.2791H103.265V92.3907H97.4752V87.2791ZM103.265 87.2791H109.055V92.3907H103.265V87.2791ZM109.055 87.2791H114.845V92.3907H109.055V87.2791ZM114.845 87.2791H120.636V92.3907H114.845V87.2791ZM120.636 87.2791H126.426V92.3907H120.636V87.2791ZM126.426 87.2791H132.216V92.3907H126.426V87.2791ZM132.216 87.2791H138.006V92.3907H132.216V87.2791ZM10.624 92.3907H16.4141V97.5022H10.624V92.3907ZM16.4141 92.3907H22.2042V97.5022H16.4141V92.3907ZM22.2042 92.3907H27.9943V97.5022H22.2042V92.3907ZM33.7843 92.3907H39.5744V97.5022H33.7843V92.3907ZM45.3645 92.3907H51.1546V97.5022H45.3645V92.3907ZM56.9447 92.3907H62.7347V97.5022H56.9447V92.3907ZM74.3149 92.3907H80.105V97.5022H74.3149V92.3907ZM103.265 92.3907H109.055V97.5022H103.265V92.3907ZM109.055 92.3907H114.845V97.5022H109.055V92.3907ZM114.845 92.3907H120.636V97.5022H114.845V92.3907ZM120.636 92.3907H126.426V97.5022H120.636V92.3907ZM126.426 92.3907H132.216V97.5022H126.426V92.3907ZM143.796 92.3907H149.586V97.5022H143.796V92.3907ZM56.9447 97.5022H62.7347V102.614H56.9447V97.5022ZM62.7347 97.5022H68.5248V102.614H62.7347V97.5022ZM68.5248 97.5022H74.3149V102.614H68.5248V97.5022ZM74.3149 97.5022H80.105V102.614H74.3149V97.5022ZM85.8951 97.5022H91.6851V102.614H85.8951V97.5022ZM91.6851 97.5022H97.4752V102.614H91.6851V97.5022ZM103.265 97.5022H109.055V102.614H103.265V97.5022ZM126.426 97.5022H132.216V102.614H126.426V97.5022ZM149.586 97.5022H155.376V102.614H149.586V97.5022ZM10.624 102.614H16.4141V107.725H10.624V102.614ZM16.4141 102.614H22.2042V107.725H16.4141V102.614ZM22.2042 102.614H27.9943V107.725H22.2042V102.614ZM27.9943 102.614H33.7843V107.725H27.9943V102.614ZM33.7843 102.614H39.5744V107.725H33.7843V102.614ZM39.5744 102.614H45.3645V107.725H39.5744V102.614ZM45.3645 102.614H51.1546V107.725H45.3645V102.614ZM68.5248 102.614H74.3149V107.725H68.5248V102.614ZM74.3149 102.614H80.105V107.725H74.3149V102.614ZM91.6851 102.614H97.4752V107.725H91.6851V102.614ZM103.265 102.614H109.055V107.725H103.265V102.614ZM114.845 102.614H120.636V107.725H114.845V102.614ZM126.426 102.614H132.216V107.725H126.426V102.614ZM149.586 102.614H155.376V107.725H149.586V102.614ZM10.624 107.725H16.4141V112.837H10.624V107.725ZM45.3645 107.725H51.1546V112.837H45.3645V107.725ZM62.7347 107.725H68.5248V112.837H62.7347V107.725ZM68.5248 107.725H74.3149V112.837H68.5248V107.725ZM80.105 107.725H85.8951V112.837H80.105V107.725ZM85.8951 107.725H91.6851V112.837H85.8951V107.725ZM103.265 107.725H109.055V112.837H103.265V107.725ZM126.426 107.725H132.216V112.837H126.426V107.725ZM143.796 107.725H149.586V112.837H143.796V107.725ZM10.624 112.837H16.4141V117.949H10.624V112.837ZM22.2042 112.837H27.9943V117.949H22.2042V112.837ZM27.9943 112.837H33.7843V117.949H27.9943V112.837ZM33.7843 112.837H39.5744V117.949H33.7843V112.837ZM45.3645 112.837H51.1546V117.949H45.3645V112.837ZM62.7347 112.837H68.5248V117.949H62.7347V112.837ZM68.5248 112.837H74.3149V117.949H68.5248V112.837ZM91.6851 112.837H97.4752V117.949H91.6851V112.837ZM97.4752 112.837H103.265V117.949H97.4752V112.837ZM103.265 112.837H109.055V117.949H103.265V112.837ZM109.055 112.837H114.845V117.949H109.055V112.837ZM114.845 112.837H120.636V117.949H114.845V112.837ZM120.636 112.837H126.426V117.949H120.636V112.837ZM126.426 112.837H132.216V117.949H126.426V112.837ZM143.796 112.837H149.586V117.949H143.796V112.837ZM149.586 112.837H155.376V117.949H149.586V112.837ZM10.624 117.949H16.4141V123.06H10.624V117.949ZM22.2042 117.949H27.9943V123.06H22.2042V117.949ZM27.9943 117.949H33.7843V123.06H27.9943V117.949ZM33.7843 117.949H39.5744V123.06H33.7843V117.949ZM45.3645 117.949H51.1546V123.06H45.3645V117.949ZM62.7347 117.949H68.5248V123.06H62.7347V117.949ZM68.5248 117.949H74.3149V123.06H68.5248V117.949ZM74.3149 117.949H80.105V123.06H74.3149V117.949ZM80.105 117.949H85.8951V123.06H80.105V117.949ZM97.4752 117.949H103.265V123.06H97.4752V117.949ZM109.055 117.949H114.845V123.06H109.055V117.949ZM126.426 117.949H132.216V123.06H126.426V117.949ZM138.006 117.949H143.796V123.06H138.006V117.949ZM143.796 117.949H149.586V123.06H143.796V117.949ZM10.624 123.06H16.4141V128.172H10.624V123.06ZM22.2042 123.06H27.9943V128.172H22.2042V123.06ZM27.9943 123.06H33.7843V128.172H27.9943V123.06ZM33.7843 123.06H39.5744V128.172H33.7843V123.06ZM45.3645 123.06H51.1546V128.172H45.3645V123.06ZM56.9447 123.06H62.7347V128.172H56.9447V123.06ZM85.8951 123.06H91.6851V128.172H85.8951V123.06ZM91.6851 123.06H97.4752V128.172H91.6851V123.06ZM97.4752 123.06H103.265V128.172H97.4752V123.06ZM103.265 123.06H109.055V128.172H103.265V123.06ZM109.055 123.06H114.845V128.172H109.055V123.06ZM120.636 123.06H126.426V128.172H120.636V123.06ZM126.426 123.06H132.216V128.172H126.426V123.06ZM132.216 123.06H138.006V128.172H132.216V123.06ZM143.796 123.06H149.586V128.172H143.796V123.06ZM149.586 123.06H155.376V128.172H149.586V123.06ZM10.624 128.172H16.4141V133.283H10.624V128.172ZM45.3645 128.172H51.1546V133.283H45.3645V128.172ZM56.9447 128.172H62.7347V133.283H56.9447V128.172ZM62.7347 128.172H68.5248V133.283H62.7347V128.172ZM68.5248 128.172H74.3149V133.283H68.5248V128.172ZM85.8951 128.172H91.6851V133.283H85.8951V128.172ZM103.265 128.172H109.055V133.283H103.265V128.172ZM109.055 128.172H114.845V133.283H109.055V128.172ZM114.845 128.172H120.636V133.283H114.845V128.172ZM120.636 128.172H126.426V133.283H120.636V128.172ZM126.426 128.172H132.216V133.283H126.426V128.172ZM10.624 133.283H16.4141V138.395H10.624V133.283ZM16.4141 133.283H22.2042V138.395H16.4141V133.283ZM22.2042 133.283H27.9943V138.395H22.2042V133.283ZM27.9943 133.283H33.7843V138.395H27.9943V133.283ZM33.7843 133.283H39.5744V138.395H33.7843V133.283ZM39.5744 133.283H45.3645V138.395H39.5744V133.283ZM45.3645 133.283H51.1546V138.395H45.3645V133.283ZM68.5248 133.283H74.3149V138.395H68.5248V133.283ZM80.105 133.283H85.8951V138.395H80.105V133.283ZM103.265 133.283H109.055V138.395H103.265V133.283ZM114.845 133.283H120.636V138.395H114.845V133.283ZM132.216 133.283H138.006V138.395H132.216V133.283ZM149.586 133.283H155.376V138.395H149.586V133.283Z" fill="#1B212D"/>
</svg>
