<svg width="702" height="800" viewBox="0 0 702 800" fill="none" xmlns="http://www.w3.org/2000/svg">
<g clip-path="url(#clip0_2410_5069)">
<path d="M701.676 611.835H0V612.235H701.676V611.835Z" fill="#EBEBEB"/>
<path d="M631.365 627.07H503.801V627.47H631.365V627.07Z" fill="#EBEBEB"/>
<path d="M464.82 622.736H429.891V623.136H464.82V622.736Z" fill="#EBEBEB"/>
<path d="M544.655 641.936H490.5V642.336H544.655V641.936Z" fill="#EBEBEB"/>
<path d="M105.389 639.243H73.6172V639.643H105.389V639.243Z" fill="#EBEBEB"/>
<path d="M155.619 639.243H117.883V639.643H155.619V639.243Z" fill="#EBEBEB"/>
<path d="M315.96 632.494H250.227V632.894H315.96V632.494Z" fill="#EBEBEB"/>
<path d="M332.593 540.477H61.6202C59.4974 540.473 57.4628 539.508 55.9631 537.796C54.4634 536.083 53.6211 533.761 53.6211 531.341V97.0531C53.6396 94.6467 54.49 92.3458 55.9878 90.6502C57.4855 88.9546 59.5095 88.0012 61.6202 87.9971H332.593C334.719 87.9971 336.757 88.9596 338.26 90.6729C339.762 92.3863 340.607 94.7101 340.607 97.1331V531.341C340.607 533.764 339.762 536.088 338.26 537.801C336.757 539.515 334.719 540.477 332.593 540.477ZM61.6202 88.3171C59.5905 88.3213 57.6451 89.2436 56.2112 90.8814C54.7773 92.5193 53.9719 94.7389 53.9719 97.0531V531.341C53.9719 533.655 54.7773 535.875 56.2112 537.513C57.6451 539.151 59.5905 540.073 61.6202 540.077H332.593C334.625 540.073 336.571 539.151 338.007 537.514C339.444 535.876 340.252 533.657 340.256 531.341V97.0531C340.252 94.7374 339.444 92.5179 338.007 90.8805C336.571 89.2431 334.625 88.3213 332.593 88.3171H61.6202Z" fill="#EBEBEB"/>
<path d="M636.157 540.477H365.169C363.045 540.473 361.009 539.509 359.507 537.797C358.005 536.084 357.16 533.763 357.156 531.341V97.0531C357.178 94.6453 358.032 92.3444 359.532 90.6492C361.032 88.954 363.057 88.0011 365.169 87.9971H636.157C638.265 88.0054 640.285 88.9607 641.78 90.6558C643.275 92.351 644.123 94.6495 644.142 97.0531V531.341C644.142 533.759 643.301 536.078 641.805 537.79C640.308 539.502 638.277 540.469 636.157 540.477ZM365.169 88.3171C363.138 88.3213 361.192 89.2431 359.755 90.8805C358.319 92.5179 357.511 94.7374 357.507 97.0531V531.341C357.511 533.657 358.319 535.876 359.755 537.514C361.192 539.151 363.138 540.073 365.169 540.077H636.157C638.188 540.073 640.134 539.151 641.571 537.514C643.007 535.876 643.815 533.657 643.819 531.341V97.0531C643.815 94.7374 643.007 92.5179 641.571 90.8805C640.134 89.2431 638.188 88.3213 636.157 88.3171H365.169Z" fill="#EBEBEB"/>
<path d="M598.109 602.751H624.422V436.319H598.109V602.751Z" fill="#F0F0F0"/>
<path d="M329.537 611.835H619.371V602.731H329.537V611.835Z" fill="#F0F0F0"/>
<path d="M598.106 436.298H324.48V602.73H598.106V436.298Z" fill="#F5F5F5"/>
<path d="M600.846 436.298H627.734V428.362H600.846V436.298Z" fill="#F0F0F0"/>
<path d="M600.846 428.364H321.172V436.3H600.846V428.364Z" fill="#FAFAFA"/>
<path d="M588.666 496.362H334V452.97H588.666V496.362ZM335.712 494.394H586.912V455.034H335.712V494.394Z" fill="#E0E0E0"/>
<path d="M588.666 586.078H334V508.398H588.666V586.078ZM335.712 583.998H586.912V510.398H335.712V583.998Z" fill="#E0E0E0"/>
<path d="M370.585 460.429H552.01C553.297 460.429 554.34 459.24 554.34 457.773V456.621C554.34 455.154 553.297 453.965 552.01 453.965H370.585C369.298 453.965 368.255 455.154 368.255 456.621V457.773C368.255 459.24 369.298 460.429 370.585 460.429Z" fill="#E0E0E0"/>
<path d="M370.585 515.866H552.01C553.297 515.866 554.34 514.677 554.34 513.21V512.058C554.34 510.591 553.297 509.402 552.01 509.402H370.585C369.298 509.402 368.255 510.591 368.255 512.058V513.21C368.255 514.677 369.298 515.866 370.585 515.866Z" fill="#E0E0E0"/>
<path d="M80.1304 611.835H91.0625L91.0625 399.995H80.1304L80.1304 611.835Z" fill="#E6E6E6"/>
<path d="M76.693 611.835H84.2852L84.2852 399.995H76.693L76.693 611.835Z" fill="#F0F0F0"/>
<path d="M204.399 399.998H74.3359V415.31H204.399V399.998Z" fill="#F0F0F0"/>
<path d="M209.298 611.835H220.23L220.23 415.323H209.298L209.298 611.835Z" fill="#E6E6E6"/>
<path d="M205.857 611.835H213.449L213.449 415.323H205.857L205.857 611.835Z" fill="#F0F0F0"/>
<path d="M278.494 611.835H289.426V415.323H278.494V611.835Z" fill="#E6E6E6"/>
<path d="M275.029 611.835H282.621V415.323H275.029V611.835Z" fill="#F0F0F0"/>
<path d="M149.33 611.835H160.262L160.262 415.323H149.33L149.33 611.835Z" fill="#E6E6E6"/>
<path d="M145.881 611.835H153.473L153.473 415.323H145.881L145.881 611.835Z" fill="#F0F0F0"/>
<path d="M204.411 415.311H289.426V399.999H204.411V415.311Z" fill="#E6E6E6"/>
<path d="M193.382 281.549H88.2852L97.5894 188.797H184.078L193.382 281.549Z" fill="#EBEBEB"/>
<path d="M146.555 281.55H135.117V399.998H146.555V281.55Z" fill="#F5F5F5"/>
<path d="M164.191 399.996H117.516C117.516 398.494 118.039 397.053 118.971 395.991C119.902 394.928 121.166 394.332 122.483 394.332H159.181C159.837 394.325 160.488 394.467 161.095 394.749C161.703 395.031 162.255 395.447 162.721 395.974C163.187 396.5 163.557 397.127 163.809 397.817C164.061 398.507 164.191 399.248 164.191 399.996Z" fill="#F0F0F0"/>
<path d="M146.555 291.806L135.117 285.582V281.55H146.555V291.806Z" fill="#E0E0E0"/>
<path d="M190 399.661H239.356L245.46 323.229H196.105L190 399.661Z" fill="#E6E6E6"/>
<path d="M187.445 399.661H236.801L242.906 323.229H193.55L187.445 399.661Z" fill="#F0F0F0"/>
<path d="M230.047 391.199L234.805 331.695H200.296L195.539 391.199H230.047Z" fill="white"/>
<path d="M596.131 344.846H495.946L476.453 423.998H576.638L596.131 344.846Z" fill="#E6E6E6"/>
<path d="M576.638 423.997L576.245 428.365H476.031L476.438 423.997H576.638Z" fill="#E6E6E6"/>
<path d="M593.055 344.846H492.856L473.363 423.998H573.563L593.055 344.846Z" fill="#F0F0F0"/>
<path d="M572.432 418.829L588.557 350.285C588.781 349.309 588.346 348.461 587.616 348.461H495.5C495.132 348.511 494.786 348.693 494.514 348.98C494.242 349.268 494.056 349.646 493.985 350.061L477.874 418.557C477.636 419.533 478.071 420.381 478.8 420.381H570.917C571.281 420.34 571.624 420.167 571.897 419.888C572.169 419.609 572.357 419.238 572.432 418.829Z" fill="white"/>
<path d="M547.449 423.997L547.042 428.365H436.711L437.118 423.997H547.449Z" fill="#F0F0F0"/>
<path d="M616.885 138.301H373.797V309.357H616.885V138.301Z" fill="#F0F0F0"/>
<path d="M609.979 146.172H380.699V301.5H609.979V146.172Z" fill="white"/>
<path d="M616.887 309.373H619.371V138.317H616.887V309.373Z" fill="#E6E6E6"/>
<path d="M350.838 684.096C501.112 684.096 622.934 675.987 622.934 665.984C622.934 655.981 501.112 647.872 350.838 647.872C200.564 647.872 78.7422 655.981 78.7422 665.984C78.7422 675.987 200.564 684.096 350.838 684.096Z" fill="#F5F5F5"/>
<path d="M295.306 112.001C301.855 105.355 310.336 101.003 320.749 98.9445C331.162 96.8858 342.169 98.1925 353.77 102.865C365.334 107.537 375.91 115.974 385.5 128.177C394.416 139.526 400.441 151.414 403.575 163.84C406.701 175.332 406.988 187.584 404.403 199.248C401.947 210.061 396.719 219.793 389.387 227.2C384.169 232.778 377.803 236.767 370.877 238.8C364.692 240.557 358.308 241.226 351.946 240.784C345.836 240.336 335.237 239.147 320.146 237.216C316.613 236.778 313.062 236.554 309.508 236.544C307.075 236.526 304.648 236.843 302.281 237.488C300.403 238.034 298.579 238.796 296.836 239.76C295.152 240.704 292.303 242.448 288.262 245.024C279.954 250.816 272.731 249.803 266.594 241.984C265.069 240.136 263.881 237.961 263.098 235.585C262.315 233.21 261.953 230.681 262.033 228.144C262.192 222.992 264.568 218.07 269.162 213.376C278.519 203.154 291.051 197.584 304.007 197.888C311.383 198.169 318.741 198.874 326.054 200C333.828 201.072 339.568 201.744 343.273 201.968C346.951 202.208 350.64 201.858 354.233 200.928C357.817 200.023 361.131 198.065 363.846 195.248C366.503 192.619 368.631 189.366 370.084 185.713C371.537 182.06 372.281 178.092 372.266 174.08C372.379 165.547 369.572 157.616 363.846 150.288C357.082 141.68 350.201 137.291 343.203 137.12C336.205 136.95 327.874 139.243 318.209 144C308.376 149.259 300.541 148.192 294.703 140.8C293.042 138.77 291.77 136.366 290.971 133.743C290.171 131.121 289.86 128.336 290.058 125.569C290.1 123.023 290.586 120.513 291.487 118.183C292.388 115.854 293.686 113.752 295.306 112.001ZM227.468 284.304C223.801 279.762 221.754 273.822 221.729 267.648C221.645 261.334 224.035 255.686 228.9 250.704C230.902 248.593 233.266 246.978 235.844 245.962C238.421 244.946 241.155 244.55 243.874 244.8C246.627 244.99 249.318 245.811 251.787 247.213C254.256 248.615 256.452 250.57 258.244 252.96C260.086 255.234 261.509 257.907 262.428 260.82C263.346 263.733 263.742 266.827 263.591 269.918C263.441 273.009 262.747 276.034 261.551 278.813C260.355 281.592 258.682 284.069 256.63 286.096C251.831 290.992 246.685 293.083 241.193 292.368C235.888 291.759 230.982 288.877 227.468 284.304Z" fill="#7279ED" fill-opacity="0.46"/>
<g opacity="0.5">
<path d="M420.798 219.285C422.769 213.947 426.036 209.361 430.215 206.069C435.126 202.08 440.86 199.61 446.858 198.901C453.846 198.044 460.91 199.222 467.389 202.325C473.51 204.906 479.037 209.037 483.556 214.405C487.472 219.05 490.191 224.835 491.415 231.125C492.543 237.004 492.103 243.133 490.152 248.725C488.828 252.826 486.617 256.48 483.724 259.349C481.134 261.887 478.219 263.959 475.08 265.493C472.067 266.954 466.739 269.29 459.096 272.501C457.308 273.248 455.56 274.114 453.861 275.093C452.692 275.747 451.598 276.564 450.605 277.525C449.816 278.295 449.101 279.158 448.472 280.101C447.869 281.013 446.872 282.629 445.483 284.901C442.676 289.957 439.004 291.45 434.467 289.381C433.346 288.913 432.319 288.197 431.442 287.274C430.565 286.352 429.857 285.24 429.358 284.005C428.858 282.559 428.627 281.009 428.68 279.456C428.733 277.902 429.069 276.378 429.667 274.981C431.994 267.525 436.818 261.426 443.083 258.021C446.669 256.116 450.336 254.418 454.071 252.933C458.015 251.333 460.906 250.069 462.73 249.173C464.54 248.277 466.231 247.098 467.754 245.669C469.279 244.249 470.454 242.402 471.164 240.309C471.883 238.323 472.216 236.184 472.141 234.038C472.066 231.892 471.584 229.79 470.729 227.877C468.851 223.665 465.618 220.443 461.706 218.885C456.654 216.613 452.444 216.394 449.076 218.229C444.986 220.71 441.407 224.158 438.578 228.341C434.967 233.557 430.982 235.157 426.622 233.141C425.399 232.619 424.285 231.814 423.35 230.775C422.415 229.737 421.68 228.488 421.191 227.109C420.674 225.899 420.373 224.585 420.305 223.242C420.238 221.899 420.405 220.553 420.798 219.285ZM424.629 320.405C421.917 319.233 419.686 316.951 418.37 314.005C417.696 312.455 417.332 310.755 417.303 309.026C417.274 307.297 417.581 305.582 418.202 304.005C418.708 302.44 419.494 301.012 420.512 299.814C421.529 298.615 422.755 297.672 424.11 297.045C425.47 296.383 426.933 296.042 428.411 296.042C429.89 296.042 431.353 296.383 432.712 297.045C434.073 297.629 435.318 298.519 436.371 299.661C437.425 300.804 438.267 302.177 438.846 303.697C439.426 305.218 439.732 306.855 439.747 308.513C439.761 310.171 439.483 311.816 438.929 313.349C438.444 314.991 437.647 316.492 436.594 317.742C435.541 318.992 434.259 319.961 432.839 320.581C430.181 321.706 427.248 321.643 424.629 320.405Z" fill="#F796FF"/>
</g>
<g opacity="0.1">
<path d="M515.183 209.858C513.914 207.581 513.238 204.94 513.233 202.242C513.186 199.045 513.873 195.89 515.225 193.09C516.787 189.828 519.052 187.075 521.807 185.09C524.292 183.095 527.143 181.771 530.143 181.218C532.742 180.738 535.408 181.081 537.848 182.21C540.132 183.265 542.088 185.076 543.461 187.41C544.492 189.072 545.138 191.004 545.341 193.026C545.502 194.826 545.426 196.643 545.117 198.418C544.808 200.135 544.181 203.079 543.236 207.25C543.023 208.231 542.855 209.225 542.731 210.226C542.568 211.458 542.654 212.717 542.984 213.906C543.138 214.418 543.419 215.282 543.84 216.498C544.096 216.996 544.263 217.547 544.331 218.12C544.399 218.692 544.367 219.274 544.236 219.832C544.106 220.39 543.879 220.913 543.57 221.37C543.262 221.828 542.876 222.211 542.436 222.498C541.523 223.229 540.392 223.517 539.293 223.298C538.673 223.138 538.089 222.833 537.579 222.4C537.069 221.967 536.644 221.417 536.332 220.786C535.344 219.19 534.647 217.383 534.283 215.474C533.992 213.819 533.959 212.118 534.185 210.45C534.488 208.38 534.886 206.329 535.378 204.306C535.883 202.146 536.22 200.562 536.402 199.506C536.578 198.452 536.63 197.376 536.556 196.306C536.476 195.262 536.162 194.259 535.644 193.394C535.165 192.557 534.534 191.848 533.793 191.315C533.052 190.783 532.218 190.438 531.35 190.306C529.421 190.006 527.466 190.581 525.905 191.906C525.019 192.467 524.245 193.232 523.631 194.152C523.017 195.071 522.578 196.126 522.34 197.25C522.097 199.695 522.312 202.171 522.972 204.514C523.772 207.474 523.253 209.634 521.442 211.026C520.945 211.421 520.382 211.695 519.788 211.829C519.194 211.964 518.582 211.958 517.99 211.81C517.431 211.716 516.895 211.495 516.413 211.159C515.931 210.824 515.512 210.381 515.183 209.858ZM550.197 234.914C549.084 235.781 547.731 236.152 546.394 235.954C545.688 235.839 545.014 235.546 544.421 235.094C543.829 234.643 543.333 234.045 542.97 233.346C542.578 232.712 542.305 231.992 542.17 231.232C542.035 230.472 542.039 229.688 542.184 228.93C542.32 228.16 542.59 227.43 542.978 226.781C543.366 226.132 543.864 225.579 544.443 225.154C544.999 224.712 545.628 224.404 546.291 224.247C546.954 224.09 547.639 224.089 548.302 224.242C548.97 224.382 549.604 224.678 550.167 225.11C550.729 225.542 551.208 226.102 551.572 226.754C551.995 227.401 552.289 228.146 552.432 228.937C552.575 229.728 552.564 230.545 552.4 231.33C552.085 232.797 551.299 234.076 550.197 234.914Z" fill="#F796FF"/>
</g>
<path d="M260.727 655.389L250.117 652.253L256.446 624.589L267.056 627.725L260.727 655.389Z" fill="#FFC3BD"/>
<path d="M250.006 649.051L261.85 653.323C261.948 653.35 262.041 653.401 262.122 653.47C262.203 653.539 262.272 653.627 262.323 653.727C262.374 653.827 262.407 653.937 262.419 654.052C262.432 654.167 262.425 654.283 262.397 654.395L259.899 664.875C259.724 665.425 259.369 665.876 258.909 666.136C258.449 666.395 257.919 666.442 257.429 666.267C253.332 664.667 251.437 663.739 246.203 661.851C242.989 660.699 235.242 658.091 230.766 656.491C226.289 654.891 227.959 650.091 229.91 650.395C238.919 651.467 244.154 650.603 247.901 649.115C248.577 648.829 249.317 648.807 250.006 649.051Z" fill="#263238"/>
<path opacity="0.2" d="M267.057 627.74L256.447 624.604L253.191 638.86L263.801 641.996L267.057 627.74Z" fill="#1B212D"/>
<path d="M293.79 344.844C293.79 344.844 274.367 450.076 269.203 484.524C263.589 522.252 251.254 630.268 251.254 630.268L269.287 637.74C269.287 637.74 297.508 523.196 301.789 486.924C310.756 451.468 333.476 344.844 333.476 344.844H293.79Z" fill="#7279ED"/>
<path opacity="0.3" d="M318.726 379.201C312.425 396.449 310.137 427.857 311.232 446.641C316.228 424.465 321.771 399.137 326.065 379.297C324.676 373.841 322.767 368.113 318.726 379.201Z" fill="#1B212D"/>
<path d="M268.924 640.173L249.586 633.805L250.316 624.477L273.331 631.853L268.924 640.173Z" fill="#263238"/>
<path d="M245.656 649.724C246.613 650.037 247.596 650.235 248.589 650.316C248.639 650.326 248.69 650.317 248.736 650.291C248.781 650.265 248.818 650.224 248.841 650.172C248.868 650.127 248.882 650.074 248.882 650.02C248.882 649.966 248.868 649.913 248.841 649.868C248.575 649.484 246.259 646.172 244.814 646.268C244.648 646.275 244.486 646.33 244.343 646.428C244.201 646.526 244.083 646.664 244 646.828C243.857 647.058 243.77 647.328 243.748 647.609C243.726 647.89 243.769 648.172 243.874 648.428C244.308 649.094 244.943 649.555 245.656 649.724ZM248.042 649.724C246.021 649.452 244.659 648.892 244.323 648.124C244.257 647.958 244.233 647.775 244.253 647.594C244.273 647.414 244.336 647.243 244.435 647.1C244.474 647.019 244.531 646.95 244.599 646.899C244.668 646.849 244.747 646.819 244.828 646.812C245.586 646.78 247.073 648.396 248.042 649.692V649.724Z" fill="#7178ED"/>
<path d="M248.534 650.315H248.66C248.702 650.308 248.741 650.29 248.775 650.262C248.809 650.234 248.837 650.197 248.857 650.155C248.857 650.011 250.148 646.763 249.418 645.259C249.318 645.067 249.184 644.901 249.025 644.771C248.865 644.642 248.684 644.552 248.492 644.507C248.281 644.438 248.056 644.449 247.851 644.538C247.646 644.628 247.472 644.791 247.355 645.003C246.724 646.187 247.58 649.163 248.422 650.219C248.449 650.264 248.488 650.298 248.534 650.315ZM248.534 645.099C248.631 645.133 248.72 645.188 248.797 645.262C248.875 645.337 248.938 645.428 248.983 645.531C249.237 646.853 249.093 648.233 248.576 649.451C247.916 648.267 247.411 646.059 247.832 645.291C247.832 645.147 248.043 644.987 248.408 645.067L248.534 645.099Z" fill="#7178ED"/>
<path d="M308.823 254.713C307.883 257.305 306.985 259.609 306.016 261.977C305.048 264.345 304.01 266.665 302.957 268.985C300.824 273.609 298.579 278.169 296.109 282.617C291.194 291.863 285.251 300.344 278.426 307.849L278.174 308.137C277.816 308.505 277.42 308.822 276.995 309.081C275.826 309.8 274.542 310.241 273.22 310.377C272.463 310.439 271.703 310.439 270.947 310.377C269.814 310.294 268.689 310.118 267.579 309.849C265.586 309.369 263.818 308.777 262.077 308.153C258.625 306.905 255.412 305.385 252.254 303.849C249.096 302.313 245.981 300.649 242.922 298.841C239.862 297.033 236.859 295.225 233.884 293.177C233.194 292.697 232.677 291.952 232.426 291.076C232.175 290.2 232.206 289.251 232.514 288.399C232.821 287.546 233.386 286.847 234.105 286.427C234.824 286.007 235.652 285.893 236.438 286.105C242.95 287.897 249.447 289.897 255.847 291.673C259.032 292.585 262.218 293.385 265.277 294.057C266.719 294.39 268.176 294.631 269.642 294.777C270.193 294.814 270.746 294.814 271.297 294.777C271.508 294.777 271.592 294.777 271.536 294.777C271.037 294.793 270.552 294.965 270.133 295.273L268.729 296.505C271.445 293.079 273.962 289.456 276.265 285.657C278.623 281.769 280.854 277.657 283.001 273.529C285.149 269.401 287.211 265.065 289.162 260.729C291.113 256.393 293.049 251.929 294.776 247.753L294.86 247.545C295.688 245.424 297.221 243.764 299.123 242.931C301.024 242.099 303.138 242.161 304.999 243.105C306.86 244.05 308.316 245.798 309.046 247.966C309.776 250.134 309.721 252.544 308.893 254.665L308.823 254.713Z" fill="#FFC3BD"/>
<path d="M306.659 237.787C297.621 238.075 291.418 249.259 285.496 263.195C290.036 272.142 296.541 279.586 304.371 284.795C304.371 284.795 328.116 237.099 306.659 237.787Z" fill="#E0E0E0"/>
<path d="M233.432 293.243L225.293 290.875L231.636 281.579C231.636 281.579 238.653 282.843 241.319 289.579L238.428 291.931C237.727 292.546 236.918 292.981 236.056 293.208C235.194 293.434 234.299 293.446 233.432 293.243Z" fill="#FFC3BD"/>
<path d="M223.314 281.373L224.886 279.773C225.529 279.13 226.35 278.767 227.204 278.747C228.059 278.726 228.893 279.05 229.559 279.661L231.636 281.565L225.293 290.861L222.696 286.253C222.267 285.491 222.092 284.578 222.206 283.681C222.319 282.784 222.713 281.965 223.314 281.373Z" fill="#FFC3BD"/>
<path d="M355.69 653.949H344.59L341.938 625.757H353.038L355.69 653.949Z" fill="#FFC3BD"/>
<path d="M343.624 652.54H356.1C356.306 652.527 356.508 652.607 356.663 652.763C356.818 652.919 356.913 653.138 356.928 653.372L357.531 664.188C357.52 664.77 357.31 665.323 356.945 665.73C356.58 666.137 356.091 666.365 355.58 666.364C351.244 666.268 349.167 665.996 343.68 665.996C340.312 665.996 331.05 666.38 326.349 666.38C321.647 666.38 321.816 661.324 323.795 660.876C332.65 658.812 338.572 655.98 341.715 653.292C342.262 652.809 342.932 652.545 343.624 652.54Z" fill="#263238"/>
<path opacity="0.2" d="M353.038 625.757H341.938L343.313 640.301H354.413L353.038 625.757Z" fill="#1B212D"/>
<path d="M315.488 344.846C315.488 344.846 317.944 450.638 319.698 485.502C321.663 523.678 338.293 636.782 338.293 636.782H358.641C358.641 636.782 354.179 522.238 350.811 484.782C352.214 443.758 353.14 344.814 353.14 344.814L315.488 344.846Z" fill="#7279ED"/>
<path d="M359.455 636.779H336.384L335.289 628.315L360.072 628.795L359.455 636.779Z" fill="#263238"/>
<path d="M339.694 654.654C340.691 654.629 341.684 654.485 342.655 654.222C342.702 654.212 342.746 654.185 342.778 654.145C342.811 654.104 342.832 654.053 342.837 653.998C342.85 653.945 342.848 653.887 342.83 653.835C342.813 653.783 342.78 653.739 342.739 653.71C342.388 653.454 339.244 651.086 337.883 651.678C337.731 651.742 337.596 651.849 337.491 651.989C337.385 652.129 337.313 652.297 337.28 652.478C337.192 652.752 337.175 653.049 337.233 653.333C337.29 653.617 337.419 653.876 337.603 654.078C338.217 654.548 338.959 654.753 339.694 654.654ZM341.939 653.822C339.946 654.254 338.487 654.174 337.967 653.614C337.86 653.48 337.787 653.316 337.755 653.139C337.723 652.961 337.733 652.777 337.785 652.606C337.798 652.518 337.831 652.435 337.88 652.365C337.929 652.295 337.993 652.24 338.066 652.206C338.795 651.886 340.648 652.91 341.939 653.822Z" fill="#7178ED"/>
<path d="M342.586 654.234H342.712C342.75 654.208 342.782 654.173 342.806 654.132C342.83 654.09 342.846 654.043 342.853 653.994C342.853 653.85 343.105 650.346 341.983 649.194C341.839 649.037 341.665 648.921 341.475 648.854C341.285 648.787 341.084 648.772 340.888 648.81C340.671 648.813 340.461 648.898 340.291 649.051C340.121 649.205 340 649.418 339.948 649.658C339.695 650.986 341.351 653.53 342.46 654.25L342.586 654.234ZM341.014 649.29C341.118 649.286 341.222 649.307 341.318 649.351C341.415 649.395 341.502 649.461 341.576 649.546C342.19 650.708 342.447 652.07 342.305 653.418C341.337 652.522 340.228 650.586 340.397 649.722C340.397 649.546 340.523 649.354 340.902 649.306L341.014 649.29Z" fill="#7178ED"/>
<path d="M298.462 245.932C299.061 243.861 300.138 242.011 301.58 240.578C303.022 239.145 304.776 238.181 306.658 237.788C309.4 237.059 312.179 236.525 314.98 236.188C323.393 235.659 331.826 235.659 340.24 236.188C344.647 236.412 349.137 237.004 352.716 237.58H352.842C353.762 237.702 354.65 238.036 355.452 238.562C356.255 239.088 356.955 239.794 357.51 240.638C358.066 241.483 358.465 242.447 358.683 243.473C358.901 244.498 358.933 245.564 358.778 246.604C355.977 262.909 354.144 279.41 353.291 295.996C352.421 320.092 353.6 339.004 353.179 344.812H293.789C290.183 286.044 294.842 259.324 298.462 245.932Z" fill="#E0E0E0"/>
<path d="M344.266 200.33C345.302 201.183 346.126 202.328 346.657 203.653C347.189 204.978 347.409 206.438 347.298 207.889C347.186 209.34 346.746 210.734 346.02 211.933C345.294 213.132 344.308 214.096 343.157 214.73C345.557 219.258 339.172 227.258 332.744 222.234C326.317 217.21 335.397 196.058 344.266 200.33Z" fill="#263238"/>
<path d="M317.688 195.468C316.806 195.498 315.933 195.266 315.153 194.795C314.374 194.325 313.715 193.631 313.241 192.783C312.767 191.934 312.494 190.96 312.45 189.956C312.405 188.951 312.59 187.951 312.987 187.052C309.998 185.724 310.531 178.284 315.92 177.964C321.309 177.644 324.088 193.596 317.688 195.468Z" fill="#263238"/>
<path d="M315.932 242.474C315.53 242.053 315.232 241.521 315.065 240.929C314.898 240.338 314.869 239.706 314.981 239.098C315.093 238.49 315.341 237.925 315.703 237.459C316.064 236.993 316.525 236.643 317.041 236.442C322.458 234.17 323.44 229.69 323.005 224.81C322.881 223.438 322.684 222.075 322.416 220.73L331.608 212.362L338.372 206.218C336.688 214.218 334.807 228.154 338.372 235.21C338.771 235.948 338.926 236.825 338.807 237.682C338.689 238.539 338.305 239.319 337.726 239.882C335.397 242.234 330.625 245.274 322.766 244.794C319.16 244.586 317.153 243.642 315.932 242.474Z" fill="#FFC3BD"/>
<path d="M295.416 246.221C296.085 243.918 297.265 241.85 298.841 240.219C300.417 238.587 302.336 237.447 304.411 236.91C307.075 236.427 309.759 236.107 312.452 235.949C312.734 235.903 313.02 235.938 313.287 236.05C313.554 236.162 313.792 236.347 313.98 236.59C314.167 236.833 314.299 237.125 314.364 237.441C314.428 237.756 314.422 238.085 314.347 238.397C309.646 258.301 302.938 298.126 305.015 347.454C305.024 347.761 304.979 348.067 304.881 348.353C304.783 348.639 304.635 348.9 304.446 349.118C304.257 349.337 304.03 349.509 303.781 349.625C303.531 349.74 303.263 349.796 302.994 349.789H291.206C290.694 349.799 290.199 349.586 289.821 349.194C289.443 348.801 289.21 348.259 289.171 347.678C285.62 287.406 291.893 257.373 295.416 246.221Z" fill="#263238"/>
<path d="M352.396 236.38C348.622 235.764 344.824 235.369 341.015 235.196C340.325 235.139 339.64 235.361 339.08 235.824C338.521 236.286 338.122 236.959 337.955 237.724C333.591 259.644 329.704 308.348 329.535 347.532C329.541 347.831 329.598 348.125 329.703 348.398C329.808 348.671 329.959 348.918 330.148 349.125C330.337 349.331 330.56 349.494 330.804 349.602C331.048 349.71 331.308 349.763 331.57 349.756H352.62C353.142 349.769 353.647 349.549 354.027 349.142C354.408 348.735 354.633 348.175 354.655 347.58C354.795 339.692 353.841 321.212 354.655 298.268C355.433 281.919 357.234 265.653 360.044 249.596C360.774 245.1 356.564 237.052 352.396 236.38Z" fill="#263238"/>
<path d="M359.79 243.339C364.294 251.083 368.392 258.843 372.265 266.987C374.174 271.067 376.054 275.211 377.752 279.563C378.594 281.739 379.422 283.963 380.194 286.315C381.045 288.86 381.702 291.483 382.159 294.155C382.505 296.103 382.581 298.101 382.384 300.075C382.154 301.673 381.792 303.243 381.303 304.763C380.502 307.242 379.521 309.639 378.37 311.931C376.304 316.088 374.003 320.085 371.479 323.899C366.625 331.285 361.316 338.268 355.594 344.795C354.932 345.551 354.051 346.003 353.116 346.066C352.182 346.129 351.259 345.798 350.525 345.136C349.79 344.475 349.295 343.528 349.132 342.477C348.97 341.426 349.151 340.344 349.643 339.435V339.339C353.727 331.835 357.853 324.187 361.586 316.603C363.438 312.827 365.206 308.987 366.624 305.275C368.041 301.563 369.08 297.499 368.35 297.387C367.902 295.685 367.359 294.018 366.722 292.395C366.02 290.571 365.22 288.683 364.378 286.811C362.666 283.051 360.828 279.227 358.905 275.467C355.06 267.915 350.962 260.299 346.907 252.923V252.827C345.803 250.88 345.424 248.512 345.851 246.245C346.279 243.978 347.479 241.998 349.187 240.739C350.896 239.481 352.972 239.048 354.961 239.536C356.949 240.023 358.686 241.392 359.79 243.339Z" fill="#FFC3BD"/>
<path d="M351.061 236.173C360.099 235.981 364.884 244.701 370.807 258.573C364.099 272.733 351.3 278.861 351.3 278.861C351.3 278.861 333.295 236.525 351.061 236.173Z" fill="#E0E0E0"/>
<path d="M346.429 339.021L341.223 340.909L350.864 349.261C350.864 349.261 358.751 344.589 356.281 340.349L354.681 339.533C352.077 338.223 349.143 338.041 346.429 339.021Z" fill="#FFC3BD"/>
<path d="M338.303 348.239L344.155 354.943C344.344 355.153 344.569 355.316 344.817 355.422C345.064 355.528 345.328 355.574 345.592 355.557C345.856 355.541 346.114 355.462 346.35 355.326C346.585 355.19 346.794 354.999 346.961 354.767L350.849 349.263L341.208 340.911L338.205 345.599C337.928 345.973 337.784 346.452 337.802 346.94C337.821 347.429 337.999 347.893 338.303 348.239Z" fill="#FFC3BD"/>
<path opacity="0.2" d="M322.414 220.794C322.682 222.139 322.879 223.502 323.003 224.874C326.484 225.882 331.424 221.338 331.887 217.482C331.946 215.79 331.852 214.096 331.606 212.426L322.414 220.794Z" fill="#1B212D"/>
<path d="M344.145 194.86C341.773 206.668 340.931 213.708 334.56 218.972C332.476 220.71 330.025 221.787 327.457 222.094C324.888 222.4 322.295 221.925 319.94 220.717C317.586 219.509 315.554 217.611 314.052 215.216C312.55 212.821 311.632 210.015 311.391 207.084C310.577 196.012 314.59 178.556 325.929 175.452C337.268 172.348 346.516 183.036 344.145 194.86Z" fill="#FFC3BD"/>
<path d="M339.342 205.196C336.339 205.372 333.139 193.292 339.763 187.467C338.711 188.123 335.834 186.924 336.339 184.668C334.388 185.596 325.856 185.196 327.919 181.244C323.583 182.524 314.124 180.38 313.114 175.66C312.103 170.94 316.987 170.779 317.745 171.403C315.598 167.979 315.64 162.956 321.337 161.132C327.035 159.308 335.623 168.7 335.623 168.7C334.725 166.22 337.883 164.22 341.153 166.348C344.422 168.476 345.952 174.524 345.952 174.524C345.952 172.7 353.586 175.148 349.966 182.796C353.713 184.396 355.425 186.668 355.186 190.62C354.948 194.572 352.576 194.796 352.576 194.796C353.078 196.218 353.147 197.792 352.774 199.265C352.4 200.738 351.604 202.026 350.513 202.924C346.626 206.492 343.23 202.3 339.342 205.196Z" fill="#263238"/>
<path d="M345.291 206.104C343.971 208.306 342.022 209.918 339.776 210.664C336.885 211.544 335.902 208.6 337.081 205.528C338.148 202.76 340.926 198.952 343.649 199.432C346.371 199.912 346.919 203.352 345.291 206.104Z" fill="#FFC3BD"/>
<path d="M326.983 194.378C326.842 195.338 326.253 196.058 325.678 195.978C325.102 195.898 324.737 195.034 324.878 194.058C325.018 193.082 325.607 192.458 326.183 192.458C326.758 192.458 327.053 193.402 326.983 194.378Z" fill="#263238"/>
<path d="M316.707 192.25C316.567 193.226 315.991 193.946 315.416 193.85C314.841 193.754 314.476 192.906 314.616 191.93C314.756 190.954 315.332 190.33 315.907 190.33C316.482 190.33 316.847 191.29 316.707 192.25Z" fill="#263238"/>
<path d="M320.759 194.429C319.264 197.245 317.437 199.813 315.328 202.061C315.874 202.646 316.523 203.092 317.232 203.368C317.942 203.644 318.694 203.744 319.44 203.661L320.759 194.429Z" fill="#ED847E"/>
<path d="M321.27 208.43C322.29 208.562 323.324 208.46 324.309 208.13C325.295 207.8 326.213 207.25 327.009 206.51C327.056 206.454 327.082 206.38 327.082 206.302C327.082 206.225 327.056 206.151 327.009 206.094C326.958 206.045 326.894 206.018 326.827 206.018C326.76 206.018 326.695 206.045 326.644 206.094C325.769 206.887 324.747 207.442 323.655 207.72C322.564 207.997 321.431 207.988 320.343 207.694C320.31 207.685 320.276 207.683 320.242 207.69C320.208 207.696 320.176 207.71 320.147 207.731C320.118 207.752 320.093 207.779 320.074 207.812C320.055 207.844 320.041 207.88 320.035 207.918C320.026 207.955 320.025 207.994 320.031 208.031C320.036 208.069 320.049 208.105 320.067 208.136C320.086 208.168 320.11 208.195 320.138 208.215C320.166 208.235 320.198 208.249 320.231 208.254C320.573 208.342 320.92 208.401 321.27 208.43Z" fill="#263238"/>
<path d="M327.403 187.722C327.318 187.748 327.241 187.797 327.178 187.866C327.129 187.918 327.09 187.981 327.064 188.052C327.037 188.122 327.023 188.197 327.023 188.274C327.023 188.35 327.037 188.426 327.064 188.496C327.09 188.566 327.129 188.629 327.178 188.682C327.725 189.379 328.411 189.914 329.178 190.243C329.945 190.572 330.771 190.684 331.585 190.57C331.652 190.562 331.717 190.539 331.776 190.501C331.836 190.463 331.887 190.412 331.928 190.35C331.969 190.289 331.998 190.218 332.014 190.143C332.03 190.068 332.032 189.99 332.02 189.914C332.008 189.837 331.983 189.764 331.946 189.698C331.909 189.632 331.862 189.576 331.805 189.531C331.749 189.486 331.686 189.455 331.619 189.438C331.553 189.422 331.484 189.42 331.416 189.434C330.773 189.499 330.125 189.387 329.527 189.109C328.929 188.831 328.398 188.393 327.978 187.834C327.9 187.757 327.806 187.706 327.704 187.686C327.603 187.666 327.498 187.679 327.403 187.722Z" fill="#263238"/>
<path d="M313.804 184.829C313.881 184.868 313.965 184.888 314.05 184.888C314.134 184.888 314.218 184.868 314.295 184.829C314.894 184.488 315.552 184.301 316.221 184.282C316.89 184.263 317.555 184.411 318.169 184.717C318.288 184.794 318.43 184.816 318.563 184.777C318.697 184.738 318.812 184.642 318.884 184.509C318.945 184.37 318.958 184.21 318.919 184.061C318.879 183.912 318.792 183.786 318.674 183.709C317.916 183.294 317.086 183.079 316.246 183.079C315.406 183.079 314.576 183.294 313.818 183.709C313.757 183.739 313.702 183.784 313.656 183.84C313.611 183.897 313.577 183.963 313.556 184.036C313.535 184.108 313.527 184.185 313.534 184.261C313.54 184.337 313.561 184.41 313.594 184.477C313.625 184.619 313.7 184.743 313.804 184.829Z" fill="#263238"/>
</g>
<defs>
<clipPath id="clip0_2410_5069">
<rect width="701.676" height="800" fill="white"/>
</clipPath>
</defs>
</svg>
