<svg width="364" height="363" viewBox="0 0 364 363" fill="none" xmlns="http://www.w3.org/2000/svg">
<g filter="url(#filter0_d_3017_7255)">
<path d="M152.126 338.216L157.612 336.299L342.867 157.128L333.837 147.792C333.837 147.792 325.349 150.538 322.077 147.309C318.723 143.998 321.705 135.247 321.705 135.247L311.547 124.745C311.547 124.745 304.005 127.748 300.633 125.137C296.718 122.105 299.696 112.492 299.696 112.492L291.231 103.739C291.231 103.739 267.846 111.786 258.811 102.911C249.531 93.7952 258.219 69.6059 258.219 69.6059L250.318 61.4372C250.318 61.4372 241.649 64.5095 238.267 61.2359C234.766 57.8485 238.062 48.765 238.062 48.765L228.31 38.6814C228.31 38.6814 218.899 41.6515 215.694 37.8967C212.688 34.3749 216.09 26.0467 216.09 26.0467L207.43 17.0927L23.0507 195.417L23.9163 195.144L20.9222 202.557L21.7687 203.432L29.5595 200.979L26.5654 208.392L27.4119 209.267L35.2026 206.814L32.2086 214.227L33.0551 215.102L40.8458 212.649L37.8518 220.062L38.6982 220.937L46.489 218.484L43.4949 225.896L44.3414 226.772L52.1322 224.318L49.4203 232.023L50.2667 232.898L57.7753 230.153L55.0634 237.858L55.9099 238.733L63.4185 235.988L60.7066 243.693L61.5531 244.568L69.3438 242.115L66.3498 249.527L67.1963 250.403L74.987 247.949L71.993 255.362L72.8394 256.237L80.6302 253.784L77.6361 261.197L78.4826 262.072L86.2734 259.619L83.2793 267.032L84.1258 267.907L91.9165 265.454L88.9225 272.867L89.769 273.742L97.5597 271.289L94.5657 278.701L95.4121 279.577L103.203 277.123L100.209 284.536L101.055 285.411L108.846 282.958L105.852 290.371L106.698 291.246L114.489 288.793L111.495 296.206L112.342 297.081L120.132 294.628L117.421 302.332L118.267 303.207L125.776 300.463L123.064 308.167L123.91 309.042L131.419 306.297L128.707 314.002L129.553 314.877L137.062 312.132L134.35 319.837L135.197 320.712L142.705 317.967L139.993 325.671L140.84 326.547L148.348 323.802L145.636 331.506L146.483 332.381L153.991 329.637L151.28 337.341L152.126 338.216Z" fill="#737DFE" fill-opacity="0.25" shape-rendering="crispEdges"/>
<path d="M152.126 338.216L157.612 336.299L342.867 157.128L333.837 147.792C333.837 147.792 325.349 150.538 322.077 147.309C318.723 143.998 321.705 135.247 321.705 135.247L311.547 124.745C311.547 124.745 304.005 127.748 300.633 125.137C296.718 122.105 299.696 112.492 299.696 112.492L291.231 103.739C291.231 103.739 267.846 111.786 258.811 102.911C249.531 93.7952 258.219 69.6059 258.219 69.6059L250.318 61.4372C250.318 61.4372 241.649 64.5095 238.267 61.2359C234.766 57.8485 238.062 48.765 238.062 48.765L228.31 38.6814C228.31 38.6814 218.899 41.6515 215.694 37.8967C212.688 34.3749 216.09 26.0467 216.09 26.0467L207.43 17.0927L23.0507 195.417L23.9163 195.144L20.9222 202.557L21.7687 203.432L29.5595 200.979L26.5654 208.392L27.4119 209.267L35.2026 206.814L32.2086 214.227L33.0551 215.102L40.8458 212.649L37.8518 220.062L38.6982 220.937L46.489 218.484L43.4949 225.896L44.3414 226.772L52.1322 224.318L49.4203 232.023L50.2667 232.898L57.7753 230.153L55.0634 237.858L55.9099 238.733L63.4185 235.988L60.7066 243.693L61.5531 244.568L69.3438 242.115L66.3498 249.527L67.1963 250.403L74.987 247.949L71.993 255.362L72.8394 256.237L80.6302 253.784L77.6361 261.197L78.4826 262.072L86.2734 259.619L83.2793 267.032L84.1258 267.907L91.9165 265.454L88.9225 272.867L89.769 273.742L97.5597 271.289L94.5657 278.701L95.4121 279.577L103.203 277.123L100.209 284.536L101.055 285.411L108.846 282.958L105.852 290.371L106.698 291.246L114.489 288.793L111.495 296.206L112.342 297.081L120.132 294.628L117.421 302.332L118.267 303.207L125.776 300.463L123.064 308.167L123.91 309.042L131.419 306.297L128.707 314.002L129.553 314.877L137.062 312.132L134.35 319.837L135.197 320.712L142.705 317.967L139.993 325.671L140.84 326.547L148.348 323.802L145.636 331.506L146.483 332.381L153.991 329.637L151.28 337.341L152.126 338.216Z" stroke="#D0D0D0" stroke-width="0.811728" shape-rendering="crispEdges"/>
</g>
<defs>
<filter id="filter0_d_3017_7255" x="0.447266" y="0.518799" width="362.992" height="362.166" filterUnits="userSpaceOnUse" color-interpolation-filters="sRGB">
<feFlood flood-opacity="0" result="BackgroundImageFix"/>
<feColorMatrix in="SourceAlpha" type="matrix" values="0 0 0 0 0 0 0 0 0 0 0 0 0 0 0 0 0 0 127 0" result="hardAlpha"/>
<feOffset dy="4"/>
<feGaussianBlur stdDeviation="10"/>
<feComposite in2="hardAlpha" operator="out"/>
<feColorMatrix type="matrix" values="0 0 0 0 0 0 0 0 0 0 0 0 0 0 0 0 0 0 0.15 0"/>
<feBlend mode="normal" in2="BackgroundImageFix" result="effect1_dropShadow_3017_7255"/>
<feBlend mode="normal" in="SourceGraphic" in2="effect1_dropShadow_3017_7255" result="shape"/>
</filter>
</defs>
</svg>
