<svg width="147" height="157" viewBox="0 0 147 157" fill="none" xmlns="http://www.w3.org/2000/svg">
<g filter="url(#filter0_d_3255_2741)">
<path d="M133.971 62.6985L133.34 64.6547L71.5488 131.642L68.1676 128.524C68.1676 128.524 69.0656 125.498 67.8948 124.367C66.6945 123.207 63.6241 124.333 63.6241 124.333L59.8202 120.824C59.8202 120.824 60.8174 118.131 59.8645 116.96C58.758 115.599 55.3824 116.73 55.3824 116.73L52.2125 113.806C52.2125 113.806 54.8574 105.468 51.639 102.343C48.3334 99.1337 39.85 102.403 39.85 102.403L36.8914 99.6739C36.8914 99.6739 37.9035 96.582 36.716 95.4117C35.4872 94.2008 32.3018 95.4403 32.3018 95.4403L28.6498 92.0716C28.6498 92.0716 29.6192 88.718 28.263 87.6145C26.9909 86.5795 24.0737 87.8505 24.0737 87.8505L20.8307 84.8591L82.3295 18.1879L82.2406 18.4963L84.8374 17.3772L85.1544 17.6696L84.3538 20.4456L86.9507 19.3265L87.2677 19.6189L86.4671 22.3949L89.0639 21.2758L89.3809 21.5682L88.5803 24.3442L91.1772 23.2251L91.4942 23.5175L90.6936 26.2935L93.2904 25.1744L93.6074 25.4668L92.8069 28.2429L95.5094 27.2212L95.8264 27.5136L94.9201 30.1922L97.6226 29.1705L97.9396 29.4629L97.0334 32.1415L99.7359 31.1198L100.053 31.4122L99.2523 34.1882L101.849 33.0691L102.166 33.3615L101.366 36.1375L103.962 35.0184L104.279 35.3108L103.479 38.0868L106.076 36.9677L106.393 37.2601L105.592 40.0361L108.189 38.917L108.506 39.2094L107.705 41.9854L110.302 40.8663L110.619 41.1587L109.819 43.9347L112.415 42.8156L112.732 43.108L111.932 45.8841L114.529 44.7649L114.846 45.0573L114.045 47.8334L116.642 46.7142L116.959 47.0066L116.158 49.7827L118.755 48.6635L119.072 48.9559L118.272 51.732L120.974 50.7103L121.291 51.0027L120.385 53.6813L123.087 52.6596L123.404 52.952L122.498 55.6306L125.201 54.6089L125.518 54.9013L124.611 57.5799L127.314 56.5582L127.631 56.8506L126.725 59.5292L129.427 58.5075L129.744 58.7999L128.838 61.4785L131.54 60.4568L131.857 60.7492L130.951 63.4278L133.654 62.4061L133.971 62.6985Z" fill="#737DFE" fill-opacity="0.25" shape-rendering="crispEdges"/>
<path d="M133.971 62.6985L133.34 64.6547L71.5488 131.642L68.1676 128.524C68.1676 128.524 69.0656 125.498 67.8948 124.367C66.6945 123.207 63.6241 124.333 63.6241 124.333L59.8202 120.824C59.8202 120.824 60.8174 118.131 59.8645 116.96C58.758 115.599 55.3824 116.73 55.3824 116.73L52.2125 113.806C52.2125 113.806 54.8574 105.468 51.639 102.343C48.3334 99.1337 39.85 102.403 39.85 102.403L36.8914 99.6739C36.8914 99.6739 37.9035 96.582 36.716 95.4117C35.4872 94.2008 32.3018 95.4403 32.3018 95.4403L28.6498 92.0716C28.6498 92.0716 29.6192 88.718 28.263 87.6145C26.9909 86.5795 24.0737 87.8505 24.0737 87.8505L20.8307 84.8591L82.3295 18.1879L82.2406 18.4963L84.8374 17.3772L85.1544 17.6696L84.3538 20.4456L86.9507 19.3265L87.2677 19.6189L86.4671 22.3949L89.0639 21.2758L89.3809 21.5682L88.5803 24.3442L91.1772 23.2251L91.4942 23.5175L90.6936 26.2935L93.2904 25.1744L93.6074 25.4668L92.8069 28.2429L95.5094 27.2212L95.8264 27.5136L94.9201 30.1922L97.6226 29.1705L97.9396 29.4629L97.0334 32.1415L99.7359 31.1198L100.053 31.4122L99.2523 34.1882L101.849 33.0691L102.166 33.3615L101.366 36.1375L103.962 35.0184L104.279 35.3108L103.479 38.0868L106.076 36.9677L106.393 37.2601L105.592 40.0361L108.189 38.917L108.506 39.2094L107.705 41.9854L110.302 40.8663L110.619 41.1587L109.819 43.9347L112.415 42.8156L112.732 43.108L111.932 45.8841L114.529 44.7649L114.846 45.0573L114.045 47.8334L116.642 46.7142L116.959 47.0066L116.158 49.7827L118.755 48.6635L119.072 48.9559L118.272 51.732L120.974 50.7103L121.291 51.0027L120.385 53.6813L123.087 52.6596L123.404 52.952L122.498 55.6306L125.201 54.6089L125.518 54.9013L124.611 57.5799L127.314 56.5582L127.631 56.8506L126.725 59.5292L129.427 58.5075L129.744 58.7999L128.838 61.4785L131.54 60.4568L131.857 60.7492L130.951 63.4278L133.654 62.4061L133.971 62.6985Z" stroke="#D0D0D0" stroke-width="0.811728" shape-rendering="crispEdges"/>
</g>
<defs>
<filter id="filter0_d_3255_2741" x="0.257324" y="0.900146" width="154.179" height="155.316" filterUnits="userSpaceOnUse" color-interpolation-filters="sRGB">
<feFlood flood-opacity="0" result="BackgroundImageFix"/>
<feColorMatrix in="SourceAlpha" type="matrix" values="0 0 0 0 0 0 0 0 0 0 0 0 0 0 0 0 0 0 127 0" result="hardAlpha"/>
<feOffset dy="4"/>
<feGaussianBlur stdDeviation="10"/>
<feComposite in2="hardAlpha" operator="out"/>
<feColorMatrix type="matrix" values="0 0 0 0 0 0 0 0 0 0 0 0 0 0 0 0 0 0 0.15 0"/>
<feBlend mode="normal" in2="BackgroundImageFix" result="effect1_dropShadow_3255_2741"/>
<feBlend mode="normal" in="SourceGraphic" in2="effect1_dropShadow_3255_2741" result="shape"/>
</filter>
</defs>
</svg>
