<svg width="227" height="188" viewBox="0 0 227 188" fill="none" xmlns="http://www.w3.org/2000/svg">
<g filter="url(#filter0_d_2673_4052)">
<path d="M185.854 -162.491L180.673 -159.858L21.0002 42.4433L31.1949 50.4898C31.1949 50.4898 39.2411 46.6353 42.9143 49.3986C46.6801 52.2317 44.8941 61.3023 44.8941 61.3023L56.3632 70.3547C56.3632 70.3547 63.4362 66.3718 67.1268 68.5091C71.4118 70.9907 69.7438 80.9157 69.7438 80.9157L79.3013 88.4593C79.3013 88.4593 101.403 77.362 111.542 84.9514C121.956 92.7467 116.576 117.879 116.576 117.879L125.496 124.92C125.496 124.92 133.678 120.718 137.467 123.51C141.388 126.4 139.334 135.842 139.334 135.842L150.346 144.534C150.346 144.534 159.276 140.333 162.954 143.627C166.403 146.716 164.143 155.424 164.143 155.424L173.921 163.141L332.84 -38.2049L332.019 -37.8192L333.996 -45.5653L333.04 -46.3197L325.647 -42.8482L327.624 -50.5944L326.669 -51.3488L319.275 -47.8773L321.253 -55.6235L320.297 -56.3778L312.903 -52.9064L314.881 -60.6526L313.925 -61.4069L306.532 -57.9355L308.509 -65.6816L307.553 -66.436L300.16 -62.9645L301.819 -70.9622L300.863 -71.7165L293.788 -67.9936L295.447 -75.9912L294.491 -76.7456L287.417 -73.0227L289.075 -81.0203L288.12 -81.7747L280.726 -78.3032L282.704 -86.0494L281.748 -86.8038L274.355 -83.3323L276.332 -91.0785L275.376 -91.8328L267.983 -88.3614L269.96 -96.1076L269.005 -96.8619L261.611 -93.3905L263.589 -101.137L262.633 -101.891L255.239 -98.4195L257.217 -106.166L256.261 -106.92L248.868 -103.449L250.845 -111.195L249.889 -111.949L242.496 -108.478L244.473 -116.224L243.518 -116.978L236.124 -113.507L238.102 -121.253L237.146 -122.007L229.753 -118.536L231.73 -126.282L230.774 -127.036L223.381 -123.565L225.04 -131.563L224.084 -132.317L217.009 -128.594L218.668 -136.592L217.712 -137.346L210.637 -133.623L212.296 -141.621L211.341 -142.375L204.266 -138.652L205.925 -146.65L204.969 -147.404L197.894 -143.681L199.553 -151.679L198.597 -152.433L191.522 -148.71L193.181 -156.708L192.225 -157.462L185.151 -153.739L186.81 -161.737L185.854 -162.491Z" fill="#737DFE" fill-opacity="0.25" shape-rendering="crispEdges"/>
<path d="M185.854 -162.491L180.673 -159.858L21.0002 42.4433L31.1949 50.4898C31.1949 50.4898 39.2411 46.6353 42.9143 49.3986C46.6801 52.2317 44.8941 61.3023 44.8941 61.3023L56.3632 70.3547C56.3632 70.3547 63.4362 66.3718 67.1268 68.5091C71.4118 70.9907 69.7438 80.9157 69.7438 80.9157L79.3013 88.4593C79.3013 88.4593 101.403 77.362 111.542 84.9514C121.956 92.7467 116.576 117.879 116.576 117.879L125.496 124.92C125.496 124.92 133.678 120.718 137.467 123.51C141.388 126.4 139.334 135.842 139.334 135.842L150.346 144.534C150.346 144.534 159.276 140.333 162.954 143.627C166.403 146.716 164.143 155.424 164.143 155.424L173.921 163.141L332.84 -38.2049L332.019 -37.8192L333.996 -45.5653L333.04 -46.3197L325.647 -42.8482L327.624 -50.5944L326.669 -51.3488L319.275 -47.8773L321.253 -55.6235L320.297 -56.3778L312.903 -52.9064L314.881 -60.6526L313.925 -61.4069L306.532 -57.9355L308.509 -65.6816L307.553 -66.436L300.16 -62.9645L301.819 -70.9622L300.863 -71.7165L293.788 -67.9936L295.447 -75.9912L294.491 -76.7456L287.417 -73.0227L289.075 -81.0203L288.12 -81.7747L280.726 -78.3032L282.704 -86.0494L281.748 -86.8038L274.355 -83.3323L276.332 -91.0785L275.376 -91.8328L267.983 -88.3614L269.96 -96.1076L269.005 -96.8619L261.611 -93.3905L263.589 -101.137L262.633 -101.891L255.239 -98.4195L257.217 -106.166L256.261 -106.92L248.868 -103.449L250.845 -111.195L249.889 -111.949L242.496 -108.478L244.473 -116.224L243.518 -116.978L236.124 -113.507L238.102 -121.253L237.146 -122.007L229.753 -118.536L231.73 -126.282L230.774 -127.036L223.381 -123.565L225.04 -131.563L224.084 -132.317L217.009 -128.594L218.668 -136.592L217.712 -137.346L210.637 -133.623L212.296 -141.621L211.341 -142.375L204.266 -138.652L205.925 -146.65L204.969 -147.404L197.894 -143.681L199.553 -151.679L198.597 -152.433L191.522 -148.71L193.181 -156.708L192.225 -157.462L185.151 -153.739L186.81 -161.737L185.854 -162.491Z" stroke="#D0D0D0" stroke-width="0.811728" shape-rendering="crispEdges"/>
</g>
<defs>
<filter id="filter0_d_2673_4052" x="0.430115" y="-178.971" width="354.024" height="366.682" filterUnits="userSpaceOnUse" color-interpolation-filters="sRGB">
<feFlood flood-opacity="0" result="BackgroundImageFix"/>
<feColorMatrix in="SourceAlpha" type="matrix" values="0 0 0 0 0 0 0 0 0 0 0 0 0 0 0 0 0 0 127 0" result="hardAlpha"/>
<feOffset dy="4"/>
<feGaussianBlur stdDeviation="10"/>
<feComposite in2="hardAlpha" operator="out"/>
<feColorMatrix type="matrix" values="0 0 0 0 0 0 0 0 0 0 0 0 0 0 0 0 0 0 0.15 0"/>
<feBlend mode="normal" in2="BackgroundImageFix" result="effect1_dropShadow_2673_4052"/>
<feBlend mode="normal" in="SourceGraphic" in2="effect1_dropShadow_2673_4052" result="shape"/>
</filter>
</defs>
</svg>
