<svg width="138" height="364" viewBox="0 0 138 364" fill="none" xmlns="http://www.w3.org/2000/svg">
<g filter="url(#filter0_d_2673_4055)">
<path d="M-68.2388 16.6997L-62.8122 18.7782L117.081 203.332L107.781 212.397C107.781 212.397 99.3764 209.402 96.0114 212.534C92.5614 215.744 95.2833 224.579 95.2833 224.579L84.8205 234.778C84.8205 234.778 77.3708 231.554 73.9231 234.064C69.9202 236.979 72.6138 246.676 72.6138 246.676L63.8947 255.175C63.8947 255.175 40.7568 246.442 31.4639 255.047C21.9191 263.886 29.8904 288.321 29.8904 288.321L21.7526 296.253C21.7526 296.253 13.1776 292.926 9.70004 296.099C6.10157 299.381 9.1284 308.558 9.1284 308.558L-0.916958 318.35C-0.916958 318.35 -10.2368 315.104 -13.5508 318.762C-16.6593 322.194 -13.5039 330.619 -13.5039 330.619L-22.424 339.314L-201.467 155.632L-200.61 155.93L-203.384 148.433L-202.512 147.583L-194.797 150.264L-197.572 142.767L-196.7 141.917L-188.985 144.598L-191.759 137.101L-190.887 136.251L-183.172 138.933L-185.946 131.435L-185.074 130.585L-177.359 133.267L-180.133 125.769L-179.262 124.919L-171.546 127.601L-174.03 119.82L-173.158 118.97L-165.734 121.935L-168.217 114.154L-167.345 113.304L-159.921 116.269L-162.405 108.488L-161.533 107.638L-153.818 110.32L-156.592 102.822L-155.72 101.972L-148.005 104.654L-150.779 97.1559L-149.907 96.306L-142.192 98.9878L-144.967 91.4899L-144.095 90.6401L-136.38 93.3218L-139.154 85.824L-138.282 84.9741L-130.567 87.6559L-133.341 80.1581L-132.469 79.3082L-124.754 81.99L-127.528 74.4922L-126.657 73.6423L-118.941 76.324L-121.716 68.8262L-120.844 67.9763L-113.129 70.6581L-115.903 63.1603L-115.031 62.3104L-107.316 64.9922L-110.09 57.4944L-109.218 56.6445L-101.503 59.3263L-103.987 51.5452L-103.115 50.6953L-95.6907 53.6603L-98.1743 45.8792L-97.3024 45.0293L-89.878 47.9944L-92.3616 40.2133L-91.4897 39.3634L-84.0653 42.3285L-86.5489 34.5474L-85.677 33.6975L-78.2525 36.6626L-80.7362 28.8815L-79.8643 28.0316L-72.4398 30.9966L-74.9235 23.2155L-74.0516 22.3656L-66.6271 25.3307L-69.1107 17.5496L-68.2388 16.6997Z" fill="#737DFE" fill-opacity="0.25" shape-rendering="crispEdges"/>
<path d="M-68.2388 16.6997L-62.8122 18.7782L117.081 203.332L107.781 212.397C107.781 212.397 99.3764 209.402 96.0114 212.534C92.5614 215.744 95.2833 224.579 95.2833 224.579L84.8205 234.778C84.8205 234.778 77.3708 231.554 73.9231 234.064C69.9202 236.979 72.6138 246.676 72.6138 246.676L63.8947 255.175C63.8947 255.175 40.7568 246.442 31.4639 255.047C21.9191 263.886 29.8904 288.321 29.8904 288.321L21.7526 296.253C21.7526 296.253 13.1776 292.926 9.70004 296.099C6.10157 299.381 9.1284 308.558 9.1284 308.558L-0.916958 318.35C-0.916958 318.35 -10.2368 315.104 -13.5508 318.762C-16.6593 322.194 -13.5039 330.619 -13.5039 330.619L-22.424 339.314L-201.467 155.632L-200.61 155.93L-203.384 148.433L-202.512 147.583L-194.797 150.264L-197.572 142.767L-196.7 141.917L-188.985 144.598L-191.759 137.101L-190.887 136.251L-183.172 138.933L-185.946 131.435L-185.074 130.585L-177.359 133.267L-180.133 125.769L-179.262 124.919L-171.546 127.601L-174.03 119.82L-173.158 118.97L-165.734 121.935L-168.217 114.154L-167.345 113.304L-159.921 116.269L-162.405 108.488L-161.533 107.638L-153.818 110.32L-156.592 102.822L-155.72 101.972L-148.005 104.654L-150.779 97.1559L-149.907 96.306L-142.192 98.9878L-144.967 91.4899L-144.095 90.6401L-136.38 93.3218L-139.154 85.824L-138.282 84.9741L-130.567 87.6559L-133.341 80.1581L-132.469 79.3082L-124.754 81.99L-127.528 74.4922L-126.657 73.6423L-118.941 76.324L-121.716 68.8262L-120.844 67.9763L-113.129 70.6581L-115.903 63.1603L-115.031 62.3104L-107.316 64.9922L-110.09 57.4944L-109.218 56.6445L-101.503 59.3263L-103.987 51.5452L-103.115 50.6953L-95.6907 53.6603L-98.1743 45.8792L-97.3024 45.0293L-89.878 47.9944L-92.3616 40.2133L-91.4897 39.3634L-84.0653 42.3285L-86.5489 34.5474L-85.677 33.6975L-78.2525 36.6626L-80.7362 28.8815L-79.8643 28.0316L-72.4398 30.9966L-74.9235 23.2155L-74.0516 22.3656L-66.6271 25.3307L-69.1107 17.5496L-68.2388 16.6997Z" stroke="#D0D0D0" stroke-width="0.811728" shape-rendering="crispEdges"/>
</g>
<defs>
<filter id="filter0_d_2673_4055" x="-223.856" y="0.227783" width="361.511" height="363.66" filterUnits="userSpaceOnUse" color-interpolation-filters="sRGB">
<feFlood flood-opacity="0" result="BackgroundImageFix"/>
<feColorMatrix in="SourceAlpha" type="matrix" values="0 0 0 0 0 0 0 0 0 0 0 0 0 0 0 0 0 0 127 0" result="hardAlpha"/>
<feOffset dy="4"/>
<feGaussianBlur stdDeviation="10"/>
<feComposite in2="hardAlpha" operator="out"/>
<feColorMatrix type="matrix" values="0 0 0 0 0 0 0 0 0 0 0 0 0 0 0 0 0 0 0.15 0"/>
<feBlend mode="normal" in2="BackgroundImageFix" result="effect1_dropShadow_2673_4055"/>
<feBlend mode="normal" in="SourceGraphic" in2="effect1_dropShadow_2673_4055" result="shape"/>
</filter>
</defs>
</svg>
