<svg width="156" height="340" viewBox="0 0 156 340" fill="none" xmlns="http://www.w3.org/2000/svg">
<g filter="url(#filter0_d_2673_4054)">
<path d="M249.95 17.2135L244.163 17.7426L20.9675 146.605L27.4613 157.852C27.4613 157.852 36.3627 157.248 38.7526 161.175C41.2029 165.2 36.1874 172.966 36.1874 172.966L43.4929 185.62C43.4929 185.62 51.5377 184.537 54.1755 187.888C57.2381 191.779 52.0161 200.382 52.0161 200.382L58.104 210.927C58.104 210.927 82.7431 208.795 89.3545 219.598C96.1453 230.693 81.8471 252.051 81.8471 252.051L87.5292 261.893C87.5292 261.893 96.685 261.016 99.172 265.012C101.746 269.148 96.3439 277.16 96.3439 277.16L103.358 289.309C103.358 289.309 113.209 288.711 115.407 293.132C117.468 297.278 112.147 304.531 112.147 304.531L118.375 315.319L340.516 187.066L339.61 187.12L344.313 180.656L343.704 179.601L335.551 180.091L340.254 173.626L339.646 172.571L331.493 173.061L336.196 166.596L335.587 165.542L327.434 166.031L332.137 159.566L331.528 158.512L323.375 159.001L328.079 152.537L327.47 151.482L319.317 151.972L323.817 145.155L323.208 144.101L315.258 144.942L319.758 138.126L319.15 137.071L311.199 137.912L315.7 131.096L315.091 130.041L306.938 130.531L311.641 124.066L311.032 123.012L302.879 123.501L307.582 117.036L306.974 115.982L298.82 116.471L303.524 110.006L302.915 108.952L294.762 109.441L299.465 102.977L298.856 101.922L290.703 102.412L295.407 95.9469L294.798 94.8925L286.645 95.3818L291.348 88.9171L290.739 87.8627L282.586 88.3521L287.289 81.8874L286.68 80.8329L278.527 81.3223L283.231 74.8576L282.622 73.8031L274.469 74.2925L279.172 67.8278L278.563 66.7734L270.41 67.2627L274.91 60.4466L274.302 59.3921L266.351 60.233L270.852 53.4168L270.243 52.3623L262.293 53.2032L266.793 46.387L266.184 45.3326L258.234 46.1734L262.734 39.3572L262.126 38.3028L254.175 39.1437L258.676 32.3275L258.067 31.273L250.117 32.1139L254.617 25.2977L254.008 24.2432L246.058 25.0841L250.559 18.2679L249.95 17.2135Z" fill="#737DFE" fill-opacity="0.25" shape-rendering="crispEdges"/>
<path d="M249.95 17.2135L244.163 17.7426L20.9675 146.605L27.4613 157.852C27.4613 157.852 36.3627 157.248 38.7526 161.175C41.2029 165.2 36.1874 172.966 36.1874 172.966L43.4929 185.62C43.4929 185.62 51.5377 184.537 54.1755 187.888C57.2381 191.779 52.0161 200.382 52.0161 200.382L58.104 210.927C58.104 210.927 82.7431 208.795 89.3545 219.598C96.1453 230.693 81.8471 252.051 81.8471 252.051L87.5292 261.893C87.5292 261.893 96.685 261.016 99.172 265.012C101.746 269.148 96.3439 277.16 96.3439 277.16L103.358 289.309C103.358 289.309 113.209 288.711 115.407 293.132C117.468 297.278 112.147 304.531 112.147 304.531L118.375 315.319L340.516 187.066L339.61 187.12L344.313 180.656L343.704 179.601L335.551 180.091L340.254 173.626L339.646 172.571L331.493 173.061L336.196 166.596L335.587 165.542L327.434 166.031L332.137 159.566L331.528 158.512L323.375 159.001L328.079 152.537L327.47 151.482L319.317 151.972L323.817 145.155L323.208 144.101L315.258 144.942L319.758 138.126L319.15 137.071L311.199 137.912L315.7 131.096L315.091 130.041L306.938 130.531L311.641 124.066L311.032 123.012L302.879 123.501L307.582 117.036L306.974 115.982L298.82 116.471L303.524 110.006L302.915 108.952L294.762 109.441L299.465 102.977L298.856 101.922L290.703 102.412L295.407 95.9469L294.798 94.8925L286.645 95.3818L291.348 88.9171L290.739 87.8627L282.586 88.3521L287.289 81.8874L286.68 80.8329L278.527 81.3223L283.231 74.8576L282.622 73.8031L274.469 74.2925L279.172 67.8278L278.563 66.7734L270.41 67.2627L274.91 60.4466L274.302 59.3921L266.351 60.233L270.852 53.4168L270.243 52.3623L262.293 53.2032L266.793 46.387L266.184 45.3326L258.234 46.1734L262.734 39.3572L262.126 38.3028L254.175 39.1437L258.676 32.3275L258.067 31.273L250.117 32.1139L254.617 25.2977L254.008 24.2432L246.058 25.0841L250.559 18.2679L249.95 17.2135Z" stroke="#D0D0D0" stroke-width="0.811728" shape-rendering="crispEdges"/>
</g>
<defs>
<filter id="filter0_d_2673_4054" x="0.413025" y="0.785645" width="364.383" height="339.088" filterUnits="userSpaceOnUse" color-interpolation-filters="sRGB">
<feFlood flood-opacity="0" result="BackgroundImageFix"/>
<feColorMatrix in="SourceAlpha" type="matrix" values="0 0 0 0 0 0 0 0 0 0 0 0 0 0 0 0 0 0 127 0" result="hardAlpha"/>
<feOffset dy="4"/>
<feGaussianBlur stdDeviation="10"/>
<feComposite in2="hardAlpha" operator="out"/>
<feColorMatrix type="matrix" values="0 0 0 0 0 0 0 0 0 0 0 0 0 0 0 0 0 0 0.15 0"/>
<feBlend mode="normal" in2="BackgroundImageFix" result="effect1_dropShadow_2673_4054"/>
<feBlend mode="normal" in="SourceGraphic" in2="effect1_dropShadow_2673_4054" result="shape"/>
</filter>
</defs>
</svg>
