<svg width="353" height="368" viewBox="0 0 353 368" fill="none" xmlns="http://www.w3.org/2000/svg">
<g filter="url(#filter0_d_3017_7259)">
<path d="M171.004 342.629L176.136 339.903L332.131 134.752L321.793 126.891C321.793 126.891 313.817 130.89 310.095 128.193C306.278 125.429 307.9 116.327 307.9 116.327L296.27 107.483C296.27 107.483 289.27 111.593 285.541 109.523C281.212 107.119 282.701 97.1656 282.701 97.1656L273.009 89.7957C273.009 89.7957 251.111 101.29 240.836 93.8851C230.283 86.2791 235.209 61.0533 235.209 61.0533L226.163 54.1748C226.163 54.1748 218.059 58.5242 214.22 55.8004C210.247 52.982 212.13 43.5041 212.13 43.5041L200.963 35.0132C200.963 35.0132 192.11 39.3738 188.374 36.1475C184.869 33.1213 186.972 24.374 186.972 24.374L177.056 16.8342L21.7978 221.016L22.6122 220.616L20.7748 228.397L21.7441 229.133L29.0736 225.529L27.2363 233.31L28.2055 234.047L35.5351 230.442L33.6978 238.223L34.667 238.96L41.9965 235.356L40.1592 243.136L41.1284 243.873L48.458 240.269L46.6207 248.049L47.5899 248.786L54.9195 245.182L53.4052 253.208L54.3744 253.945L61.3809 250.095L59.8667 258.122L60.8359 258.859L67.8424 255.009L66.3281 263.035L67.2974 263.772L74.6269 260.167L72.7896 267.948L73.7588 268.685L81.0884 265.081L79.2511 272.861L80.2203 273.598L87.5498 269.994L85.7125 277.774L86.6817 278.511L94.0113 274.907L92.174 282.688L93.1432 283.425L100.473 279.82L98.6354 287.601L99.6047 288.338L106.934 284.734L105.097 292.514L106.066 293.251L113.396 289.647L111.558 297.427L112.528 298.164L119.857 294.56L118.02 302.341L118.989 303.078L126.319 299.473L124.481 307.254L125.451 307.991L132.78 304.386L131.266 312.413L132.235 313.15L139.242 309.3L137.727 317.326L138.696 318.063L145.703 314.213L144.189 322.239L145.158 322.976L152.164 319.126L150.65 327.152L151.619 327.889L158.626 324.039L157.112 332.066L158.081 332.803L165.087 328.953L163.573 336.979L164.542 337.716L171.549 333.866L170.035 341.892L171.004 342.629Z" fill="#737DFE" fill-opacity="0.25" shape-rendering="crispEdges"/>
<path d="M171.004 342.629L176.136 339.903L332.131 134.752L321.793 126.891C321.793 126.891 313.817 130.89 310.095 128.193C306.278 125.429 307.9 116.327 307.9 116.327L296.27 107.483C296.27 107.483 289.27 111.593 285.541 109.523C281.212 107.119 282.701 97.1656 282.701 97.1656L273.009 89.7957C273.009 89.7957 251.111 101.29 240.836 93.8851C230.283 86.2791 235.209 61.0533 235.209 61.0533L226.163 54.1748C226.163 54.1748 218.059 58.5242 214.22 55.8004C210.247 52.982 212.13 43.5041 212.13 43.5041L200.963 35.0132C200.963 35.0132 192.11 39.3738 188.374 36.1475C184.869 33.1213 186.972 24.374 186.972 24.374L177.056 16.8342L21.7978 221.016L22.6122 220.616L20.7748 228.397L21.7441 229.133L29.0736 225.529L27.2363 233.31L28.2055 234.047L35.5351 230.442L33.6978 238.223L34.667 238.96L41.9965 235.356L40.1592 243.136L41.1284 243.873L48.458 240.269L46.6207 248.049L47.5899 248.786L54.9195 245.182L53.4052 253.208L54.3744 253.945L61.3809 250.095L59.8667 258.122L60.8359 258.859L67.8424 255.009L66.3281 263.035L67.2974 263.772L74.6269 260.167L72.7896 267.948L73.7588 268.685L81.0884 265.081L79.2511 272.861L80.2203 273.598L87.5498 269.994L85.7125 277.774L86.6817 278.511L94.0113 274.907L92.174 282.688L93.1432 283.425L100.473 279.82L98.6354 287.601L99.6047 288.338L106.934 284.734L105.097 292.514L106.066 293.251L113.396 289.647L111.558 297.427L112.528 298.164L119.857 294.56L118.02 302.341L118.989 303.078L126.319 299.473L124.481 307.254L125.451 307.991L132.78 304.386L131.266 312.413L132.235 313.15L139.242 309.3L137.727 317.326L138.696 318.063L145.703 314.213L144.189 322.239L145.158 322.976L152.164 319.126L150.65 327.152L151.619 327.889L158.626 324.039L157.112 332.066L158.081 332.803L165.087 328.953L163.573 336.979L164.542 337.716L171.549 333.866L170.035 341.892L171.004 342.629Z" stroke="#D0D0D0" stroke-width="0.811728" shape-rendering="crispEdges"/>
</g>
<defs>
<filter id="filter0_d_3017_7259" x="0.318359" y="0.265503" width="352.381" height="366.844" filterUnits="userSpaceOnUse" color-interpolation-filters="sRGB">
<feFlood flood-opacity="0" result="BackgroundImageFix"/>
<feColorMatrix in="SourceAlpha" type="matrix" values="0 0 0 0 0 0 0 0 0 0 0 0 0 0 0 0 0 0 127 0" result="hardAlpha"/>
<feOffset dy="4"/>
<feGaussianBlur stdDeviation="10"/>
<feComposite in2="hardAlpha" operator="out"/>
<feColorMatrix type="matrix" values="0 0 0 0 0 0 0 0 0 0 0 0 0 0 0 0 0 0 0.15 0"/>
<feBlend mode="normal" in2="BackgroundImageFix" result="effect1_dropShadow_3017_7259"/>
<feBlend mode="normal" in="SourceGraphic" in2="effect1_dropShadow_3017_7259" result="shape"/>
</filter>
</defs>
</svg>
