<svg width="368" height="350" viewBox="0 0 368 350" fill="none" xmlns="http://www.w3.org/2000/svg">
<g filter="url(#filter0_d_3017_7257)">
<path d="M346.82 171.34L343.93 166.299L133.855 17L126.332 27.5864C126.332 27.5864 130.586 35.4287 128.011 39.2361C125.371 43.1397 116.222 41.812 116.222 41.812L107.757 53.7217C107.757 53.7217 112.091 60.5855 110.142 64.3789C107.879 68.7833 97.8825 67.6164 97.8825 67.6164L90.829 77.5412C90.829 77.5412 103.024 99.0567 95.9537 109.565C88.6919 120.358 63.3204 116.248 63.3204 116.248L56.7372 125.511C56.7372 125.511 61.3456 133.471 58.7471 137.396C56.0582 141.457 46.5245 139.881 46.5245 139.881L38.3981 151.315C38.3981 151.315 43.0419 160.024 39.9378 163.862C37.0262 167.462 28.2156 165.643 28.2156 165.643L20.9995 175.797L230.082 324.39L229.655 323.589L237.491 325.175L238.196 324.182L234.358 316.973L242.193 318.558L242.899 317.566L239.06 310.356L246.896 311.941L247.601 310.949L243.762 303.739L251.598 305.325L252.303 304.332L248.465 297.123L256.3 298.708L257.006 297.716L253.167 290.506L261.238 291.761L261.943 290.769L257.869 283.89L265.94 285.145L266.645 284.152L262.572 277.273L270.642 278.528L271.348 277.536L267.509 270.326L275.345 271.911L276.05 270.919L272.211 263.709L280.047 265.295L280.752 264.302L276.914 257.093L284.749 258.678L285.455 257.686L281.616 250.476L289.452 252.062L290.157 251.069L286.318 243.86L294.154 245.445L294.859 244.453L291.021 237.243L298.856 238.829L299.562 237.836L295.723 230.627L303.559 232.212L304.264 231.22L300.425 224.01L308.261 225.596L308.966 224.603L305.128 217.394L312.963 218.979L313.669 217.987L309.83 210.777L317.901 212.032L318.606 211.039L314.532 204.161L322.603 205.415L323.308 204.423L319.235 197.544L327.305 198.799L328.011 197.806L323.937 190.928L332.008 192.182L332.713 191.19L328.639 184.311L336.71 185.566L337.415 184.573L333.342 177.695L341.412 178.949L342.118 177.957L338.044 171.078L346.115 172.333L346.82 171.34Z" fill="#737DFE" fill-opacity="0.25" shape-rendering="crispEdges"/>
<path d="M346.82 171.34L343.93 166.299L133.855 17L126.332 27.5864C126.332 27.5864 130.586 35.4287 128.011 39.2361C125.371 43.1397 116.222 41.812 116.222 41.812L107.757 53.7217C107.757 53.7217 112.091 60.5855 110.142 64.3789C107.879 68.7833 97.8825 67.6164 97.8825 67.6164L90.829 77.5412C90.829 77.5412 103.024 99.0567 95.9537 109.565C88.6919 120.358 63.3204 116.248 63.3204 116.248L56.7372 125.511C56.7372 125.511 61.3456 133.471 58.7471 137.396C56.0582 141.457 46.5245 139.881 46.5245 139.881L38.3981 151.315C38.3981 151.315 43.0419 160.024 39.9378 163.862C37.0262 167.462 28.2156 165.643 28.2156 165.643L20.9995 175.797L230.082 324.39L229.655 323.589L237.491 325.175L238.196 324.182L234.358 316.973L242.193 318.558L242.899 317.566L239.06 310.356L246.896 311.941L247.601 310.949L243.762 303.739L251.598 305.325L252.303 304.332L248.465 297.123L256.3 298.708L257.006 297.716L253.167 290.506L261.238 291.761L261.943 290.769L257.869 283.89L265.94 285.145L266.645 284.152L262.572 277.273L270.642 278.528L271.348 277.536L267.509 270.326L275.345 271.911L276.05 270.919L272.211 263.709L280.047 265.295L280.752 264.302L276.914 257.093L284.749 258.678L285.455 257.686L281.616 250.476L289.452 252.062L290.157 251.069L286.318 243.86L294.154 245.445L294.859 244.453L291.021 237.243L298.856 238.829L299.562 237.836L295.723 230.627L303.559 232.212L304.264 231.22L300.425 224.01L308.261 225.596L308.966 224.603L305.128 217.394L312.963 218.979L313.669 217.987L309.83 210.777L317.901 212.032L318.606 211.039L314.532 204.161L322.603 205.415L323.308 204.423L319.235 197.544L327.305 198.799L328.011 197.806L323.937 190.928L332.008 192.182L332.713 191.19L328.639 184.311L336.71 185.566L337.415 184.573L333.342 177.695L341.412 178.949L342.118 177.957L338.044 171.078L346.115 172.333L346.82 171.34Z" stroke="#D0D0D0" stroke-width="0.811728" shape-rendering="crispEdges"/>
</g>
<defs>
<filter id="filter0_d_3017_7257" x="0.433594" y="0.434036" width="366.867" height="349.191" filterUnits="userSpaceOnUse" color-interpolation-filters="sRGB">
<feFlood flood-opacity="0" result="BackgroundImageFix"/>
<feColorMatrix in="SourceAlpha" type="matrix" values="0 0 0 0 0 0 0 0 0 0 0 0 0 0 0 0 0 0 127 0" result="hardAlpha"/>
<feOffset dy="4"/>
<feGaussianBlur stdDeviation="10"/>
<feComposite in2="hardAlpha" operator="out"/>
<feColorMatrix type="matrix" values="0 0 0 0 0 0 0 0 0 0 0 0 0 0 0 0 0 0 0.15 0"/>
<feBlend mode="normal" in2="BackgroundImageFix" result="effect1_dropShadow_3017_7257"/>
<feBlend mode="normal" in="SourceGraphic" in2="effect1_dropShadow_3017_7257" result="shape"/>
</filter>
</defs>
</svg>
