<svg width="326" height="367" viewBox="0 0 326 367" fill="none" xmlns="http://www.w3.org/2000/svg">
<g filter="url(#filter0_d_3017_7261)">
<path d="M162.562 342.113L167.441 338.957L305.261 121.179L294.286 114.234C294.286 114.234 286.684 118.902 282.744 116.535C278.704 114.108 279.539 104.901 279.539 104.901L267.193 97.0876C267.193 97.0876 260.571 101.783 256.679 100.04C252.159 98.0165 252.789 87.972 252.789 87.972L242.5 81.4608C242.5 81.4608 221.669 94.7915 210.797 88.2951C199.63 81.6225 202.374 56.0672 202.374 56.0672L192.771 49.99C192.771 49.99 185.07 55.0187 181.011 52.6343C176.811 50.167 177.874 40.5626 177.874 40.5626L166.02 33.061C166.02 33.061 157.574 38.165 153.575 35.2711C149.823 32.5567 151.168 23.6614 151.168 23.6614L140.642 17L3.47263 233.749L4.24967 233.28L3.08661 241.19L4.11548 241.841L11.1088 237.621L9.94576 245.53L10.9746 246.181L17.968 241.962L16.8049 249.871L17.8338 250.522L24.8271 246.302L23.664 254.212L24.6929 254.863L31.6862 250.643L30.5232 258.553L31.5521 259.204L38.5454 254.984L37.7253 263.111L38.7542 263.762L45.4045 259.325L44.5844 267.451L45.6133 268.102L52.2637 263.666L51.4436 271.792L52.4724 272.443L59.4658 268.223L58.3027 276.133L59.3316 276.784L66.3249 272.564L65.1618 280.474L66.1907 281.125L73.184 276.905L72.021 284.815L73.0499 285.466L80.0432 281.246L78.8801 289.155L79.909 289.806L86.9023 285.587L85.7393 293.496L86.7681 294.147L93.7615 289.927L92.5984 297.837L93.6273 298.488L100.621 294.268L99.4576 302.178L100.486 302.829L107.48 298.609L106.317 306.518L107.346 307.17L114.339 302.95L113.176 310.859L114.205 311.51L121.198 307.291L120.378 315.417L121.407 316.068L128.057 311.631L127.237 319.758L128.266 320.409L134.916 315.972L134.096 324.099L135.125 324.75L141.775 320.313L140.955 328.439L141.984 329.091L148.635 324.654L147.815 332.78L148.843 333.431L155.494 328.994L154.674 337.121L155.703 337.772L162.353 333.335L161.533 341.462L162.562 342.113Z" fill="#737DFE" fill-opacity="0.25" shape-rendering="crispEdges"/>
<path d="M162.562 342.113L167.441 338.957L305.261 121.179L294.286 114.234C294.286 114.234 286.684 118.902 282.744 116.535C278.704 114.108 279.539 104.901 279.539 104.901L267.193 97.0876C267.193 97.0876 260.571 101.783 256.679 100.04C252.159 98.0165 252.789 87.972 252.789 87.972L242.5 81.4608C242.5 81.4608 221.669 94.7915 210.797 88.2951C199.63 81.6225 202.374 56.0672 202.374 56.0672L192.771 49.99C192.771 49.99 185.07 55.0187 181.011 52.6343C176.811 50.167 177.874 40.5626 177.874 40.5626L166.02 33.061C166.02 33.061 157.574 38.165 153.575 35.2711C149.823 32.5567 151.168 23.6614 151.168 23.6614L140.642 17L3.47263 233.749L4.24967 233.28L3.08661 241.19L4.11548 241.841L11.1088 237.621L9.94576 245.53L10.9746 246.181L17.968 241.962L16.8049 249.871L17.8338 250.522L24.8271 246.302L23.664 254.212L24.6929 254.863L31.6862 250.643L30.5232 258.553L31.5521 259.204L38.5454 254.984L37.7253 263.111L38.7542 263.762L45.4045 259.325L44.5844 267.451L45.6133 268.102L52.2637 263.666L51.4436 271.792L52.4724 272.443L59.4658 268.223L58.3027 276.133L59.3316 276.784L66.3249 272.564L65.1618 280.474L66.1907 281.125L73.184 276.905L72.021 284.815L73.0499 285.466L80.0432 281.246L78.8801 289.155L79.909 289.806L86.9023 285.587L85.7393 293.496L86.7681 294.147L93.7615 289.927L92.5984 297.837L93.6273 298.488L100.621 294.268L99.4576 302.178L100.486 302.829L107.48 298.609L106.317 306.518L107.346 307.17L114.339 302.95L113.176 310.859L114.205 311.51L121.198 307.291L120.378 315.417L121.407 316.068L128.057 311.631L127.237 319.758L128.266 320.409L134.916 315.972L134.096 324.099L135.125 324.75L141.775 320.313L140.955 328.439L141.984 329.091L148.635 324.654L147.815 332.78L148.843 333.431L155.494 328.994L154.674 337.121L155.703 337.772L162.353 333.335L161.533 341.462L162.562 342.113Z" stroke="#D0D0D0" stroke-width="0.811728" shape-rendering="crispEdges"/>
</g>
<defs>
<filter id="filter0_d_3017_7261" x="-17.3535" y="0.440063" width="343.174" height="366.155" filterUnits="userSpaceOnUse" color-interpolation-filters="sRGB">
<feFlood flood-opacity="0" result="BackgroundImageFix"/>
<feColorMatrix in="SourceAlpha" type="matrix" values="0 0 0 0 0 0 0 0 0 0 0 0 0 0 0 0 0 0 127 0" result="hardAlpha"/>
<feOffset dy="4"/>
<feGaussianBlur stdDeviation="10"/>
<feComposite in2="hardAlpha" operator="out"/>
<feColorMatrix type="matrix" values="0 0 0 0 0 0 0 0 0 0 0 0 0 0 0 0 0 0 0.15 0"/>
<feBlend mode="normal" in2="BackgroundImageFix" result="effect1_dropShadow_3017_7261"/>
<feBlend mode="normal" in="SourceGraphic" in2="effect1_dropShadow_3017_7261" result="shape"/>
</filter>
</defs>
</svg>
