<svg width="362" height="331" viewBox="0 0 362 331" fill="none" xmlns="http://www.w3.org/2000/svg">
<g filter="url(#filter0_d_3017_7260)">
<path d="M103.962 305.753L109.771 305.607L340.999 191.787L335.264 180.134C335.264 180.134 326.342 180.148 324.217 176.072C322.038 171.893 327.556 164.476 327.556 164.476L321.103 151.367C321.103 151.367 313.005 151.916 310.594 148.398C307.795 144.313 313.575 136.073 313.575 136.073L308.198 125.149C308.198 125.149 283.472 125.647 277.589 114.431C271.547 102.911 287.226 82.545 287.226 82.545L282.207 72.3491C282.207 72.3491 273.013 72.6186 270.796 68.4663C268.502 64.1697 274.421 56.5322 274.421 56.5322L268.226 43.9463C268.226 43.9463 258.357 43.8911 256.456 39.3352C254.674 35.0619 260.463 28.1761 260.463 28.1761L254.962 17L24.8262 130.283L25.7337 130.288L20.6132 136.428L21.1509 137.52L29.3186 137.571L24.1981 143.711L24.7358 144.803L32.9035 144.854L27.783 150.994L28.3207 152.086L36.4884 152.137L31.3679 158.276L31.9056 159.369L40.0733 159.42L34.9528 165.559L35.4905 166.652L43.6582 166.702L38.7169 173.206L39.2547 174.298L47.2431 173.985L42.3018 180.489L42.8396 181.581L50.828 181.268L45.8867 187.772L46.4245 188.864L54.5922 188.915L49.4716 195.054L50.0094 196.147L58.1771 196.198L53.0565 202.337L53.5943 203.43L61.762 203.48L56.6414 209.62L57.1792 210.712L65.3469 210.763L60.2263 216.903L60.7641 217.995L68.9318 218.046L63.8112 224.185L64.349 225.278L72.5167 225.329L67.3961 231.468L67.9339 232.561L76.1016 232.611L70.981 238.751L71.5188 239.843L79.6865 239.894L74.5659 246.034L75.1037 247.126L83.2714 247.177L78.1509 253.317L78.6886 254.409L86.8563 254.46L81.915 260.963L82.4527 262.056L90.4412 261.743L85.4999 268.246L86.0376 269.339L94.0261 269.025L89.0848 275.529L89.6225 276.621L97.611 276.308L92.6697 282.812L93.2074 283.904L101.196 283.591L96.2546 290.095L96.7923 291.187L104.781 290.874L99.8395 297.377L100.377 298.47L108.366 298.156L103.424 304.66L103.962 305.753Z" fill="#737DFE" fill-opacity="0.25" shape-rendering="crispEdges"/>
<path d="M103.962 305.753L109.771 305.607L340.999 191.787L335.264 180.134C335.264 180.134 326.342 180.148 324.217 176.072C322.038 171.893 327.556 164.476 327.556 164.476L321.103 151.367C321.103 151.367 313.005 151.916 310.594 148.398C307.795 144.313 313.575 136.073 313.575 136.073L308.198 125.149C308.198 125.149 283.472 125.647 277.589 114.431C271.547 102.911 287.226 82.545 287.226 82.545L282.207 72.3491C282.207 72.3491 273.013 72.6186 270.796 68.4663C268.502 64.1697 274.421 56.5322 274.421 56.5322L268.226 43.9463C268.226 43.9463 258.357 43.8911 256.456 39.3352C254.674 35.0619 260.463 28.1761 260.463 28.1761L254.962 17L24.8262 130.283L25.7337 130.288L20.6132 136.428L21.1509 137.52L29.3186 137.571L24.1981 143.711L24.7358 144.803L32.9035 144.854L27.783 150.994L28.3207 152.086L36.4884 152.137L31.3679 158.276L31.9056 159.369L40.0733 159.42L34.9528 165.559L35.4905 166.652L43.6582 166.702L38.7169 173.206L39.2547 174.298L47.2431 173.985L42.3018 180.489L42.8396 181.581L50.828 181.268L45.8867 187.772L46.4245 188.864L54.5922 188.915L49.4716 195.054L50.0094 196.147L58.1771 196.198L53.0565 202.337L53.5943 203.43L61.762 203.48L56.6414 209.62L57.1792 210.712L65.3469 210.763L60.2263 216.903L60.7641 217.995L68.9318 218.046L63.8112 224.185L64.349 225.278L72.5167 225.329L67.3961 231.468L67.9339 232.561L76.1016 232.611L70.981 238.751L71.5188 239.843L79.6865 239.894L74.5659 246.034L75.1037 247.126L83.2714 247.177L78.1509 253.317L78.6886 254.409L86.8563 254.46L81.915 260.963L82.4527 262.056L90.4412 261.743L85.4999 268.246L86.0376 269.339L94.0261 269.025L89.0848 275.529L89.6225 276.621L97.611 276.308L92.6697 282.812L93.2074 283.904L101.196 283.591L96.2546 290.095L96.7923 291.187L104.781 290.874L99.8395 297.377L100.377 298.47L108.366 298.156L103.424 304.66L103.962 305.753Z" stroke="#D0D0D0" stroke-width="0.811728" shape-rendering="crispEdges"/>
</g>
<defs>
<filter id="filter0_d_3017_7260" x="0.132812" y="0.456665" width="361.41" height="329.708" filterUnits="userSpaceOnUse" color-interpolation-filters="sRGB">
<feFlood flood-opacity="0" result="BackgroundImageFix"/>
<feColorMatrix in="SourceAlpha" type="matrix" values="0 0 0 0 0 0 0 0 0 0 0 0 0 0 0 0 0 0 127 0" result="hardAlpha"/>
<feOffset dy="4"/>
<feGaussianBlur stdDeviation="10"/>
<feComposite in2="hardAlpha" operator="out"/>
<feColorMatrix type="matrix" values="0 0 0 0 0 0 0 0 0 0 0 0 0 0 0 0 0 0 0.15 0"/>
<feBlend mode="normal" in2="BackgroundImageFix" result="effect1_dropShadow_3017_7260"/>
<feBlend mode="normal" in="SourceGraphic" in2="effect1_dropShadow_3017_7260" result="shape"/>
</filter>
</defs>
</svg>
