<svg width="182" height="208" viewBox="0 0 182 208" fill="none" xmlns="http://www.w3.org/2000/svg">
<g filter="url(#filter0_d_2673_4053)">
<path d="M-159.232 209.664L-157.373 204.159L19.8086 17L29.2403 25.9289C29.2403 25.9289 26.5855 34.4465 29.8492 37.6832C33.1954 41.0015 41.914 37.927 41.914 37.927L52.5246 47.9719C52.5246 47.9719 49.6025 55.545 52.2493 58.8891C55.3224 62.7718 64.9035 59.691 64.9035 59.691L73.7457 68.0617C73.7457 68.0617 65.949 91.5317 74.9203 100.472C84.1349 109.654 108.23 100.708 108.23 100.708L116.483 108.52C116.483 108.52 113.503 117.222 116.813 120.57C120.237 124.033 129.285 120.64 129.285 120.64L139.472 130.284C139.472 130.284 136.603 139.727 140.392 142.892C143.945 145.86 152.237 142.369 152.237 142.369L161.283 150.932L-15.0615 337.207L-14.7982 336.338L-22.1785 339.411L-23.0627 338.574L-20.6929 330.758L-28.0733 333.831L-28.9575 332.994L-26.5877 325.177L-33.968 328.25L-34.8522 327.413L-32.4824 319.597L-39.8628 322.67L-40.747 321.833L-38.3772 314.016L-45.7575 317.089L-46.6418 316.252L-44.2719 308.436L-51.947 311.23L-52.8313 310.393L-50.1667 302.855L-57.8418 305.649L-58.726 304.812L-56.0614 297.275L-63.7365 300.069L-64.6208 299.232L-62.2509 291.415L-69.6313 294.488L-70.5155 293.651L-68.1457 285.835L-75.5261 288.908L-76.4103 288.071L-74.0405 280.254L-81.4208 283.327L-82.305 282.49L-79.9352 274.673L-87.3156 277.747L-88.1998 276.909L-85.83 269.093L-93.2103 272.166L-94.0945 271.329L-91.7247 263.512L-99.1051 266.586L-99.9893 265.748L-97.6195 257.932L-105 261.005L-105.884 260.168L-103.514 252.351L-110.895 255.425L-111.779 254.587L-109.409 246.771L-116.789 249.844L-117.674 249.007L-115.304 241.19L-122.979 243.984L-123.863 243.147L-121.198 235.61L-128.874 238.404L-129.758 237.567L-127.093 230.029L-134.768 232.823L-135.653 231.986L-132.988 224.449L-140.663 227.243L-141.547 226.406L-138.883 218.868L-146.558 221.662L-147.442 220.825L-144.778 213.288L-152.453 216.082L-153.337 215.245L-150.672 207.707L-158.347 210.501L-159.232 209.664Z" fill="#737DFE" fill-opacity="0.25" shape-rendering="crispEdges"/>
<path d="M-159.232 209.664L-157.373 204.159L19.8086 17L29.2403 25.9289C29.2403 25.9289 26.5855 34.4465 29.8492 37.6832C33.1954 41.0015 41.914 37.927 41.914 37.927L52.5246 47.9719C52.5246 47.9719 49.6025 55.545 52.2493 58.8891C55.3224 62.7718 64.9035 59.691 64.9035 59.691L73.7457 68.0617C73.7457 68.0617 65.949 91.5317 74.9203 100.472C84.1349 109.654 108.23 100.708 108.23 100.708L116.483 108.52C116.483 108.52 113.503 117.222 116.813 120.57C120.237 124.033 129.285 120.64 129.285 120.64L139.472 130.284C139.472 130.284 136.603 139.727 140.392 142.892C143.945 145.86 152.237 142.369 152.237 142.369L161.283 150.932L-15.0615 337.207L-14.7982 336.338L-22.1785 339.411L-23.0627 338.574L-20.6929 330.758L-28.0733 333.831L-28.9575 332.994L-26.5877 325.177L-33.968 328.25L-34.8522 327.413L-32.4824 319.597L-39.8628 322.67L-40.747 321.833L-38.3772 314.016L-45.7575 317.089L-46.6418 316.252L-44.2719 308.436L-51.947 311.23L-52.8313 310.393L-50.1667 302.855L-57.8418 305.649L-58.726 304.812L-56.0614 297.275L-63.7365 300.069L-64.6208 299.232L-62.2509 291.415L-69.6313 294.488L-70.5155 293.651L-68.1457 285.835L-75.5261 288.908L-76.4103 288.071L-74.0405 280.254L-81.4208 283.327L-82.305 282.49L-79.9352 274.673L-87.3156 277.747L-88.1998 276.909L-85.83 269.093L-93.2103 272.166L-94.0945 271.329L-91.7247 263.512L-99.1051 266.586L-99.9893 265.748L-97.6195 257.932L-105 261.005L-105.884 260.168L-103.514 252.351L-110.895 255.425L-111.779 254.587L-109.409 246.771L-116.789 249.844L-117.674 249.007L-115.304 241.19L-122.979 243.984L-123.863 243.147L-121.198 235.61L-128.874 238.404L-129.758 237.567L-127.093 230.029L-134.768 232.823L-135.653 231.986L-132.988 224.449L-140.663 227.243L-141.547 226.406L-138.883 218.868L-146.558 221.662L-147.442 220.825L-144.778 213.288L-152.453 216.082L-153.337 215.245L-150.672 207.707L-158.347 210.501L-159.232 209.664Z" stroke="#D0D0D0" stroke-width="0.811728" shape-rendering="crispEdges"/>
</g>
<defs>
<filter id="filter0_d_2673_4053" x="-179.699" y="0.42627" width="361.556" height="363.461" filterUnits="userSpaceOnUse" color-interpolation-filters="sRGB">
<feFlood flood-opacity="0" result="BackgroundImageFix"/>
<feColorMatrix in="SourceAlpha" type="matrix" values="0 0 0 0 0 0 0 0 0 0 0 0 0 0 0 0 0 0 127 0" result="hardAlpha"/>
<feOffset dy="4"/>
<feGaussianBlur stdDeviation="10"/>
<feComposite in2="hardAlpha" operator="out"/>
<feColorMatrix type="matrix" values="0 0 0 0 0 0 0 0 0 0 0 0 0 0 0 0 0 0 0.15 0"/>
<feBlend mode="normal" in2="BackgroundImageFix" result="effect1_dropShadow_2673_4053"/>
<feBlend mode="normal" in="SourceGraphic" in2="effect1_dropShadow_2673_4053" result="shape"/>
</filter>
</defs>
</svg>
