<svg width="155" height="156" viewBox="0 0 155 156" fill="none" xmlns="http://www.w3.org/2000/svg">
<g filter="url(#filter0_d_3255_2746)">
<path d="M133.756 62.5004L133.125 64.4504L71.5004 131.258L68.1337 128.153C68.1337 128.153 69.031 125.137 67.8653 124.011C66.6701 122.856 63.6097 123.98 63.6097 123.98L59.8222 120.486C59.8222 120.486 60.818 117.802 59.8694 116.635C58.7679 115.28 55.4034 116.41 55.4034 116.41L52.2471 113.499C52.2471 113.499 54.8893 105.187 51.6848 102.075C48.3935 98.8794 39.9376 102.144 39.9376 102.144L36.9917 99.4269C36.9917 99.4269 38.0027 96.3448 36.8203 95.1795C35.5969 93.9737 32.4218 95.2115 32.4218 95.2115L28.7854 91.8572C28.7854 91.8572 29.7541 88.5143 28.4036 87.4157C27.1368 86.3853 24.229 87.6543 24.229 87.6543L20.9999 84.6757L82.3337 18.1834L82.2448 18.4908L84.8334 17.3734L85.149 17.6646L84.349 20.4318L86.9375 19.3144L87.2532 19.6055L86.4532 22.3727L89.0417 21.2553L89.3574 21.5465L88.5574 24.3136L91.1459 23.1963L91.4616 23.4874L90.6616 26.2546L93.2501 25.1372L93.5657 25.4283L92.7658 28.1955L95.4595 27.1752L95.7751 27.4663L94.87 30.1365L97.5637 29.1161L97.8793 29.4073L96.9742 32.0774L99.6679 31.0571L99.9835 31.3482L99.1836 34.1154L101.772 32.998L102.088 33.2892L101.288 36.0564L103.876 34.939L104.192 35.2301L103.392 37.9973L105.98 36.8799L106.296 37.171L105.496 39.9382L108.085 38.8209L108.4 39.112L107.6 41.8792L110.189 40.7618L110.504 41.0529L109.705 43.8201L112.293 42.7027L112.609 42.9939L111.809 45.7611L114.397 44.6437L114.713 44.9348L113.913 47.702L116.501 46.5846L116.817 46.8758L116.017 49.643L118.606 48.5256L118.921 48.8167L118.121 51.5839L120.815 50.5636L121.131 50.8547L120.225 53.5248L122.919 52.5045L123.235 52.7956L122.33 55.4658L125.023 54.4454L125.339 54.7366L124.434 57.4067L127.128 56.3864L127.443 56.6775L126.538 59.3477L129.232 58.3273L129.547 58.6185L128.642 61.2886L131.336 60.2683L131.652 60.5594L130.746 63.2296L133.44 62.2092L133.756 62.5004Z" fill="#737DFE" fill-opacity="0.25" shape-rendering="crispEdges"/>
<path d="M133.756 62.5004L133.125 64.4504L71.5004 131.258L68.1337 128.153C68.1337 128.153 69.031 125.137 67.8653 124.011C66.6701 122.856 63.6097 123.98 63.6097 123.98L59.8222 120.486C59.8222 120.486 60.818 117.802 59.8694 116.635C58.7679 115.28 55.4034 116.41 55.4034 116.41L52.2471 113.499C52.2471 113.499 54.8893 105.187 51.6848 102.075C48.3935 98.8794 39.9376 102.144 39.9376 102.144L36.9917 99.4269C36.9917 99.4269 38.0027 96.3448 36.8203 95.1795C35.5969 93.9737 32.4218 95.2115 32.4218 95.2115L28.7854 91.8572C28.7854 91.8572 29.7541 88.5143 28.4036 87.4157C27.1368 86.3853 24.229 87.6543 24.229 87.6543L20.9999 84.6757L82.3337 18.1834L82.2448 18.4908L84.8334 17.3734L85.149 17.6646L84.349 20.4318L86.9375 19.3144L87.2532 19.6055L86.4532 22.3727L89.0417 21.2553L89.3574 21.5465L88.5574 24.3136L91.1459 23.1963L91.4616 23.4874L90.6616 26.2546L93.2501 25.1372L93.5657 25.4283L92.7658 28.1955L95.4595 27.1752L95.7751 27.4663L94.87 30.1365L97.5637 29.1161L97.8793 29.4073L96.9742 32.0774L99.6679 31.0571L99.9835 31.3482L99.1836 34.1154L101.772 32.998L102.088 33.2892L101.288 36.0564L103.876 34.939L104.192 35.2301L103.392 37.9973L105.98 36.8799L106.296 37.171L105.496 39.9382L108.085 38.8209L108.4 39.112L107.6 41.8792L110.189 40.7618L110.504 41.0529L109.705 43.8201L112.293 42.7027L112.609 42.9939L111.809 45.7611L114.397 44.6437L114.713 44.9348L113.913 47.702L116.501 46.5846L116.817 46.8758L116.017 49.643L118.606 48.5256L118.921 48.8167L118.121 51.5839L120.815 50.5636L121.131 50.8547L120.225 53.5248L122.919 52.5045L123.235 52.7956L122.33 55.4658L125.023 54.4454L125.339 54.7366L124.434 57.4067L127.128 56.3864L127.443 56.6775L126.538 59.3477L129.232 58.3273L129.547 58.6185L128.642 61.2886L131.336 60.2683L131.652 60.5594L130.746 63.2296L133.44 62.2092L133.756 62.5004Z" stroke="#D0D0D0" stroke-width="0.811728" shape-rendering="crispEdges"/>
</g>
<defs>
<filter id="filter0_d_3255_2746" x="0.426514" y="0.89624" width="153.795" height="154.936" filterUnits="userSpaceOnUse" color-interpolation-filters="sRGB">
<feFlood flood-opacity="0" result="BackgroundImageFix"/>
<feColorMatrix in="SourceAlpha" type="matrix" values="0 0 0 0 0 0 0 0 0 0 0 0 0 0 0 0 0 0 127 0" result="hardAlpha"/>
<feOffset dy="4"/>
<feGaussianBlur stdDeviation="10"/>
<feComposite in2="hardAlpha" operator="out"/>
<feColorMatrix type="matrix" values="0 0 0 0 0 0 0 0 0 0 0 0 0 0 0 0 0 0 0.15 0"/>
<feBlend mode="normal" in2="BackgroundImageFix" result="effect1_dropShadow_3255_2746"/>
<feBlend mode="normal" in="SourceGraphic" in2="effect1_dropShadow_3255_2746" result="shape"/>
</filter>
</defs>
</svg>
