<svg width="40" height="40" viewBox="0 0 40 40" fill="none" xmlns="http://www.w3.org/2000/svg">
<path d="M16.4912 11.0703H21.8679M16.4912 17.2151H26.4765M16.4912 23.3599H26.4765" stroke="#888888" stroke-width="2" stroke-linecap="round" stroke-linejoin="round"/>
<path fill-rule="evenodd" clip-rule="evenodd" d="M34.7891 24.6844C34.9245 23.3535 34.9244 21.6868 34.9244 19.5834L34.9245 15.2461C34.9248 13.6362 34.925 12.598 34.6449 11.6154C34.4914 11.0767 34.2763 10.5575 34.004 10.068C33.5072 9.17521 32.773 8.44123 31.6344 7.30311L31.3948 7.06354C30.2567 5.92496 29.5227 5.19069 28.6299 4.69395C28.1404 4.42162 27.6212 4.20655 27.0825 4.053C26.0999 3.77292 25.0617 3.77313 23.4518 3.77346L21.4827 3.77348V3.77681C20.0458 3.78543 18.8364 3.8163 17.8158 3.92688C16.3638 4.0842 15.158 4.41382 14.1212 5.16708C13.5017 5.61715 12.957 6.16192 12.5069 6.7814C12.0272 7.44163 11.7193 8.1704 11.5183 8.98765L10.2588 9.32513C6.36613 10.3682 4.05604 14.3694 5.09908 18.2621L8.47867 30.8749C9.52171 34.7675 13.5229 37.0776 17.4156 36.0346L26.3187 33.649C28.0191 33.1934 29.4175 32.1733 30.3664 30.8445C30.833 30.6818 31.2694 30.4707 31.6814 30.1954C32.4782 29.663 33.1623 28.9789 33.6947 28.1822C34.36 27.1864 34.6504 26.048 34.7891 24.6844ZM23.4702 6.07783L23.2824 6.07779C20.9756 6.07781 19.3335 6.08024 18.064 6.21778C16.808 6.35385 16.0541 6.611 15.4756 7.0313C15.0518 7.33925 14.679 7.71198 14.3711 8.13583C13.9508 8.71432 13.6937 9.46823 13.5576 10.7242C13.4192 12.0017 13.4176 13.6565 13.4176 15.9863V19.5196C13.4176 21.7011 13.419 23.2505 13.5411 24.4512C13.6613 25.6326 13.8888 26.3479 14.259 26.9019C14.6233 27.4471 15.0913 27.9152 15.6365 28.2794C16.1905 28.6496 16.9059 28.8771 18.0873 28.9973C19.2879 29.1194 20.8373 29.1208 23.0189 29.1208C25.2004 29.1208 26.7498 29.1194 27.9505 28.9973C29.1319 28.8771 29.8472 28.6496 30.4012 28.2794C30.9464 27.9152 31.4145 27.4471 31.7787 26.9019C32.1489 26.3479 32.3764 25.6326 32.4966 24.4512C32.6187 23.2505 32.6201 21.7011 32.6201 19.5196V15.6791C32.6201 14.9223 32.6177 14.4707 32.5742 14.1469C32.5542 13.9986 32.5307 13.9243 32.517 13.8909C32.5138 13.8831 32.5113 13.878 32.5097 13.875L32.5076 13.8713L32.5039 13.8692C32.5009 13.8676 32.4958 13.8652 32.4881 13.862C32.4546 13.8482 32.3803 13.8247 32.232 13.8048C31.9083 13.7612 31.4566 13.7588 30.6999 13.7588L29.0949 13.7588C28.43 13.7589 27.8204 13.759 27.3245 13.6923C26.7784 13.6189 26.2012 13.4461 25.7265 12.9714C25.2518 12.4967 25.079 11.9195 25.0056 11.3734C24.939 10.8775 24.939 10.2679 24.9391 9.60299L24.9391 7.6908C24.9391 7.0891 24.9375 6.73038 24.9091 6.46835C24.8924 6.31421 24.8712 6.25106 24.8633 6.23276C24.8409 6.20264 24.8143 6.17597 24.7841 6.15359C24.7658 6.1457 24.7027 6.12446 24.5486 6.10776C24.3082 6.08171 23.9864 6.07823 23.4702 6.07783ZM25.7665 31.4112C24.9612 31.4252 24.0701 31.4251 23.0827 31.4251H22.955C20.8516 31.4252 19.185 31.4252 17.8541 31.2898C16.4905 31.1511 15.3521 30.8607 14.3563 30.1954C13.5595 29.663 12.8754 28.9789 12.343 28.1822C11.6777 27.1864 11.3874 26.048 11.2486 24.6844C11.1133 23.3535 11.1133 21.6868 11.1133 19.5835V15.918C11.1133 14.1649 11.1133 12.6959 11.1862 11.4622L10.8552 11.5509C8.1918 12.2646 6.61121 15.0022 7.32487 17.6657L10.7045 30.2785C11.4181 32.9419 14.1558 34.5225 16.8192 33.8088L25.7223 31.4232C25.7371 31.4192 25.7518 31.4152 25.7665 31.4112ZM31.9903 11.1884C32.0439 11.2847 32.0942 11.3826 32.1413 11.4821C31.7308 11.4544 31.2651 11.4544 30.7686 11.4545L29.1637 11.4545C28.4069 11.4545 27.9553 11.4521 27.6316 11.4085C27.4832 11.3886 27.4089 11.3651 27.3755 11.3513C27.3677 11.3481 27.3626 11.3457 27.3597 11.3441L27.3559 11.342L27.3538 11.3383C27.3523 11.3353 27.3498 11.3302 27.3466 11.3224C27.3328 11.289 27.3093 11.2147 27.2894 11.0664C27.2459 10.7426 27.2434 10.291 27.2434 9.53425L27.2434 7.63658C27.2435 7.24972 27.2435 6.8861 27.2265 6.56173C27.3223 6.6073 27.4167 6.65593 27.5096 6.70758C28.0865 7.02857 28.586 7.51355 29.8852 8.81274C31.1844 10.1119 31.6693 10.6114 31.9903 11.1884Z" fill="#888888"/>
</svg>
