<svg width="20" height="21" viewBox="0 0 20 21" fill="none" xmlns="http://www.w3.org/2000/svg">
<path d="M10.0006 6.49423C7.78378 6.49423 5.99472 8.2833 5.99472 10.5001C5.99472 12.7169 7.78378 14.506 10.0006 14.506C12.2174 14.506 14.0064 12.7169 14.0064 10.5001C14.0064 8.2833 12.2174 6.49423 10.0006 6.49423ZM10.0006 13.1036C8.56699 13.1036 7.39707 11.9337 7.39707 10.5001C7.39707 9.0665 8.56699 7.89658 10.0006 7.89658C11.4342 7.89658 12.6041 9.0665 12.6041 10.5001C12.6041 11.9337 11.4342 13.1036 10.0006 13.1036ZM14.1705 5.39658C13.6529 5.39658 13.235 5.81455 13.235 6.33212C13.235 6.8497 13.6529 7.26767 14.1705 7.26767C14.6881 7.26767 15.1061 6.85166 15.1061 6.33212C15.1062 6.20922 15.0821 6.0875 15.0351 5.97392C14.9882 5.86035 14.9193 5.75715 14.8324 5.67025C14.7455 5.58334 14.6423 5.51444 14.5287 5.46748C14.4151 5.42052 14.2934 5.39642 14.1705 5.39658ZM17.8092 10.5001C17.8092 9.42197 17.8189 8.35361 17.7584 7.27744C17.6978 6.02744 17.4127 4.91806 16.4986 4.004C15.5826 3.08798 14.4752 2.80478 13.2252 2.74423C12.1471 2.68369 11.0787 2.69345 10.0025 2.69345C8.92441 2.69345 7.85605 2.68369 6.77988 2.74423C5.52988 2.80478 4.4205 3.08994 3.50644 4.004C2.59042 4.92001 2.30722 6.02744 2.24667 7.27744C2.18613 8.35556 2.19589 9.42392 2.19589 10.5001C2.19589 11.5763 2.18613 12.6466 2.24667 13.7227C2.30722 14.9727 2.59238 16.0821 3.50644 16.9962C4.42246 17.9122 5.52988 18.1954 6.77988 18.256C7.858 18.3165 8.92636 18.3067 10.0025 18.3067C11.0807 18.3067 12.149 18.3165 13.2252 18.256C14.4752 18.1954 15.5846 17.9102 16.4986 16.9962C17.4146 16.0802 17.6978 14.9727 17.7584 13.7227C17.8209 12.6466 17.8092 11.5782 17.8092 10.5001ZM16.0904 15.1056C15.9478 15.461 15.776 15.7267 15.5006 16.0001C15.2252 16.2755 14.9615 16.4474 14.606 16.5899C13.5787 16.9981 11.1393 16.9063 10.0006 16.9063C8.86191 16.9063 6.4205 16.9981 5.39316 16.5919C5.03769 16.4493 4.77207 16.2774 4.49863 16.002C4.22324 15.7267 4.05136 15.463 3.90878 15.1075C3.50253 14.0782 3.59433 11.6388 3.59433 10.5001C3.59433 9.36142 3.50253 6.92001 3.90878 5.89267C4.05136 5.5372 4.22324 5.27158 4.49863 4.99814C4.77402 4.7247 5.03769 4.55087 5.39316 4.4083C6.4205 4.00205 8.86191 4.09384 10.0006 4.09384C11.1393 4.09384 13.5807 4.00205 14.608 4.4083C14.9635 4.55087 15.2291 4.72275 15.5025 4.99814C15.7779 5.27353 15.9498 5.5372 16.0924 5.89267C16.4986 6.92001 16.4068 9.36142 16.4068 10.5001C16.4068 11.6388 16.4986 14.0782 16.0904 15.1056Z" fill="black"/>
</svg>
