<svg width="59" height="58" viewBox="0 0 59 58" fill="none" xmlns="http://www.w3.org/2000/svg">
<path d="M29.0572 17.3815C22.6284 17.3815 17.4402 22.5698 17.4402 28.9985C17.4402 35.4272 22.6284 40.6155 29.0572 40.6155C35.4859 40.6155 40.6741 35.4272 40.6741 28.9985C40.6741 22.5698 35.4859 17.3815 29.0572 17.3815ZM29.0572 36.5487C24.8997 36.5487 21.507 33.1559 21.507 28.9985C21.507 24.8411 24.8997 21.4483 29.0572 21.4483C33.2146 21.4483 36.6074 24.8411 36.6074 28.9985C36.6074 33.1559 33.2146 36.5487 29.0572 36.5487ZM41.1499 14.1983C39.649 14.1983 38.4368 15.4104 38.4368 16.9114C38.4368 18.4124 39.649 19.6245 41.1499 19.6245C42.6509 19.6245 43.863 18.418 43.863 16.9114C43.8635 16.555 43.7936 16.202 43.6574 15.8726C43.5212 15.5432 43.3214 15.244 43.0694 14.9919C42.8173 14.7399 42.5181 14.5401 42.1887 14.4039C41.8593 14.2677 41.5063 14.1978 41.1499 14.1983ZM51.7021 28.9985C51.7021 25.8719 51.7304 22.7737 51.5548 19.6528C51.3792 16.0278 50.5523 12.8106 47.9015 10.1598C45.245 7.50337 42.0335 6.68208 38.4085 6.50649C35.282 6.33091 32.1837 6.35923 29.0628 6.35923C25.9363 6.35923 22.838 6.33091 19.7171 6.50649C16.0921 6.68208 12.8749 7.50903 10.2241 10.1598C7.5677 12.8163 6.74641 16.0278 6.57083 19.6528C6.39524 22.7793 6.42356 25.8776 6.42356 28.9985C6.42356 32.1194 6.39524 35.2233 6.57083 38.3442C6.74641 41.9692 7.57336 45.1864 10.2241 47.8372C12.8806 50.4936 16.0921 51.3149 19.7171 51.4905C22.8437 51.6661 25.9419 51.6377 29.0628 51.6377C32.1894 51.6377 35.2876 51.6661 38.4085 51.4905C42.0335 51.3149 45.2507 50.4879 47.9015 47.8372C50.5579 45.1807 51.3792 41.9692 51.5548 38.3442C51.7361 35.2233 51.7021 32.125 51.7021 28.9985ZM46.7177 42.3543C46.3042 43.3852 45.8058 44.1555 45.0072 44.9485C44.2085 45.7471 43.4439 46.2456 42.413 46.659C39.4337 47.8428 32.3593 47.5766 29.0572 47.5766C25.755 47.5766 18.6749 47.8428 15.6956 46.6647C14.6648 46.2512 13.8945 45.7528 13.1015 44.9542C12.3029 44.1555 11.8044 43.3909 11.3909 42.36C10.2128 39.375 10.479 32.3006 10.479 28.9985C10.479 25.6963 10.2128 18.6163 11.3909 15.637C11.8044 14.6061 12.3029 13.8358 13.1015 13.0428C13.9001 12.2499 14.6648 11.7458 15.6956 11.3323C18.6749 10.1542 25.755 10.4204 29.0572 10.4204C32.3593 10.4204 39.4394 10.1542 42.4187 11.3323C43.4495 11.7458 44.2199 12.2442 45.0128 13.0428C45.8115 13.8415 46.3099 14.6061 46.7234 15.637C47.9015 18.6163 47.6353 25.6963 47.6353 28.9985C47.6353 32.3006 47.9015 39.375 46.7177 42.3543Z" fill="white"/>
</svg>
