<svg width="8" height="8" viewBox="0 0 8 8" fill="none" xmlns="http://www.w3.org/2000/svg">
<path d="M7.42383 0.493462L1.56161 0.52843C1.51675 0.528848 1.47334 0.545138 1.43901 0.5753L0.659828 1.25975C0.594677 1.31699 0.635894 1.42428 0.722321 1.42323L6.1567 1.3913L1.00444 5.91721C0.965701 5.95124 0.961848 6.01077 0.995877 6.04951L1.45991 6.57777C1.49394 6.61651 1.55348 6.62036 1.59222 6.58633L6.7436 2.0612L6.01146 7.44612C6.00006 7.53257 6.10037 7.5864 6.16552 7.52917L6.97111 6.82151C6.98784 6.80681 6.99915 6.78596 7.00142 6.76368L7.79815 0.919589C7.80535 0.866311 7.80103 0.812109 7.78549 0.760642C7.76995 0.709175 7.74355 0.661641 7.70807 0.62125C7.67258 0.580859 7.62885 0.54855 7.57982 0.526505C7.53078 0.504461 7.47759 0.493193 7.42383 0.493462Z" fill="#888888"/>
</svg>
