<svg width="24" height="25" viewBox="0 0 24 25" fill="none" xmlns="http://www.w3.org/2000/svg">
<path fill-rule="evenodd" clip-rule="evenodd" d="M5 1.62207C4.27065 1.62207 3.57118 1.9118 3.05546 2.42753C2.53973 2.94325 2.25 3.64272 2.25 4.37207C2.25 5.10142 2.53973 5.80089 3.05546 6.31661C3.57118 6.83234 4.27065 7.12207 5 7.12207C5.72935 7.12207 6.42882 6.83234 6.94454 6.31661C7.46027 5.80089 7.75 5.10142 7.75 4.37207C7.75 3.64272 7.46027 2.94325 6.94454 2.42753C6.42882 1.9118 5.72935 1.62207 5 1.62207ZM3.75 4.37207C3.75 4.04055 3.8817 3.72261 4.11612 3.48819C4.35054 3.25377 4.66848 3.12207 5 3.12207C5.33152 3.12207 5.64946 3.25377 5.88388 3.48819C6.1183 3.72261 6.25 4.04055 6.25 4.37207C6.25 4.70359 6.1183 5.02153 5.88388 5.25595C5.64946 5.49037 5.33152 5.62207 5 5.62207C4.66848 5.62207 4.35054 5.49037 4.11612 5.25595C3.8817 5.02153 3.75 4.70359 3.75 4.37207ZM2.25 8.37207C2.25 8.17316 2.32902 7.98239 2.46967 7.84174C2.61032 7.70109 2.80109 7.62207 3 7.62207H7C7.19891 7.62207 7.38968 7.70109 7.53033 7.84174C7.67098 7.98239 7.75 8.17316 7.75 8.37207V21.3721C7.75 21.571 7.67098 21.7617 7.53033 21.9024C7.38968 22.0431 7.19891 22.1221 7 22.1221H3C2.80109 22.1221 2.61032 22.0431 2.46967 21.9024C2.32902 21.7617 2.25 21.571 2.25 21.3721V8.37207ZM3.75 9.12207V20.6221H6.25V9.12207H3.75ZM9.25 8.37207C9.25 8.17316 9.32902 7.98239 9.46967 7.84174C9.61032 7.70109 9.80109 7.62207 10 7.62207H14C14.1989 7.62207 14.3897 7.70109 14.5303 7.84174C14.671 7.98239 14.75 8.17316 14.75 8.37207V8.80607L15.185 8.61907C15.9351 8.29867 16.7307 8.0979 17.543 8.02407C20.318 7.77207 22.75 9.95207 22.75 12.7521V21.3721C22.75 21.571 22.671 21.7617 22.5303 21.9024C22.3897 22.0431 22.1989 22.1221 22 22.1221H18C17.8011 22.1221 17.6103 22.0431 17.4697 21.9024C17.329 21.7617 17.25 21.571 17.25 21.3721V14.3721C17.25 14.0405 17.1183 13.7226 16.8839 13.4882C16.6495 13.2538 16.3315 13.1221 16 13.1221C15.6685 13.1221 15.3505 13.2538 15.1161 13.4882C14.8817 13.7226 14.75 14.0405 14.75 14.3721V21.3721C14.75 21.571 14.671 21.7617 14.5303 21.9024C14.3897 22.0431 14.1989 22.1221 14 22.1221H10C9.80109 22.1221 9.61032 22.0431 9.46967 21.9024C9.32902 21.7617 9.25 21.571 9.25 21.3721V8.37207ZM10.75 9.12207V20.6221H13.25V14.3721C13.25 13.6427 13.5397 12.9433 14.0555 12.4275C14.5712 11.9118 15.2707 11.6221 16 11.6221C16.7293 11.6221 17.4288 11.9118 17.9445 12.4275C18.4603 12.9433 18.75 13.6427 18.75 14.3721V20.6221H21.25V12.7521C21.25 10.8481 19.589 9.34407 17.68 9.51807C17.0241 9.57757 16.3817 9.73954 15.776 9.99807L14.296 10.6331C14.1818 10.6821 14.0573 10.702 13.9336 10.691C13.8098 10.68 13.6907 10.6384 13.587 10.57C13.4833 10.5016 13.3982 10.4085 13.3394 10.2991C13.2806 10.1896 13.2499 10.0673 13.25 9.94307V9.12207H10.75Z" fill="white"/>
</svg>
