<svg width="25" height="24" viewBox="0 0 25 24" fill="none" xmlns="http://www.w3.org/2000/svg">
<path d="M8.77918 10.5298C8.71051 10.6035 8.62771 10.6626 8.53571 10.7036C8.44372 10.7446 8.3444 10.7666 8.2437 10.7684C8.143 10.7702 8.04297 10.7517 7.94958 10.714C7.85619 10.6762 7.77136 10.6201 7.70014 10.5489C7.62892 10.4776 7.57278 10.3928 7.53505 10.2994C7.49733 10.206 7.47881 10.106 7.48059 10.0053C7.48236 9.9046 7.5044 9.80529 7.5454 9.71329C7.58639 9.62129 7.64549 9.53849 7.71918 9.46983L11.7192 5.46983C11.8598 5.32938 12.0504 5.25049 12.2492 5.25049C12.4479 5.25049 12.6386 5.32938 12.7792 5.46983L16.7792 9.46983C16.8529 9.53849 16.912 9.62129 16.953 9.71329C16.9939 9.80529 17.016 9.9046 17.0178 10.0053C17.0195 10.106 17.001 10.206 16.9633 10.2994C16.9256 10.3928 16.8694 10.4776 16.7982 10.5489C16.727 10.6201 16.6422 10.6762 16.5488 10.714C16.4554 10.7517 16.3554 10.7702 16.2547 10.7684C16.154 10.7666 16.0546 10.7446 15.9626 10.7036C15.8706 10.6626 15.7878 10.6035 15.7192 10.5298L12.9992 7.80983V17.4998C12.9992 17.6987 12.9202 17.8895 12.7795 18.0302C12.6389 18.1708 12.4481 18.2498 12.2492 18.2498C12.0503 18.2498 11.8595 18.1708 11.7188 18.0302C11.5782 17.8895 11.4992 17.6987 11.4992 17.4998V7.80983L8.77918 10.5298Z" fill="#009311"/>
</svg>
