<svg width="25" height="24" viewBox="0 0 25 24" fill="none" xmlns="http://www.w3.org/2000/svg">
<path d="M15.7208 13.4702C15.7895 13.3965 15.8723 13.3374 15.9643 13.2964C16.0563 13.2554 16.1556 13.2334 16.2563 13.2316C16.357 13.2298 16.457 13.2483 16.5504 13.286C16.6438 13.3238 16.7286 13.3799 16.7999 13.4511C16.8711 13.5224 16.9272 13.6072 16.9649 13.7006C17.0027 13.794 17.0212 13.894 17.0194 13.9947C17.0176 14.0954 16.9956 14.1947 16.9546 14.2867C16.9136 14.3787 16.8545 14.4615 16.7808 14.5302L12.7808 18.5302C12.6402 18.6706 12.4496 18.7495 12.2508 18.7495C12.0521 18.7495 11.8614 18.6706 11.7208 18.5302L7.72082 14.5302C7.64714 14.4615 7.58803 14.3787 7.54704 14.2867C7.50605 14.1947 7.48401 14.0954 7.48223 13.9947C7.48046 13.894 7.49898 13.794 7.5367 13.7006C7.57442 13.6072 7.63057 13.5224 7.70179 13.4511C7.773 13.3799 7.85784 13.3238 7.95123 13.286C8.04461 13.2483 8.14464 13.2298 8.24535 13.2316C8.34605 13.2334 8.44536 13.2554 8.53736 13.2964C8.62936 13.3374 8.71216 13.3965 8.78082 13.4702L11.5008 16.1902V6.50017C11.5008 6.30126 11.5798 6.11049 11.7205 5.96984C11.8611 5.82919 12.0519 5.75017 12.2508 5.75017C12.4497 5.75017 12.6405 5.82919 12.7812 5.96984C12.9218 6.11049 13.0008 6.30126 13.0008 6.50017V16.1902L15.7208 13.4702Z" fill="#FF0000" fill-opacity="0.7"/>
</svg>
