<svg width="48" height="48" viewBox="0 0 48 48" fill="none" xmlns="http://www.w3.org/2000/svg">
<g clip-path="url(#clip0_385_38570)">
<path d="M40.5029 7.31192C38.3459 5.13397 35.7768 3.40735 32.9454 2.23278C30.114 1.05822 27.0771 0.459226 24.0118 0.470744C11.1676 0.470744 0.7 10.9354 0.688235 23.7825C0.688235 27.8972 1.76471 31.9002 3.79706 35.4443L0.5 47.5296L12.8647 44.2884C16.2838 46.1538 20.1169 47.1298 24.0118 47.1266H24.0235C36.8706 47.1266 47.3353 36.6619 47.3471 23.8031C47.3497 20.7386 46.746 17.7038 45.5709 14.8735C44.3958 12.0432 42.6754 9.47338 40.5029 7.31192ZM24.0118 43.1796C20.5388 43.1768 17.1301 42.2424 14.1412 40.4737L13.4353 40.0502L6.1 41.9737L8.05882 34.8178L7.6 34.0796C5.65826 30.9923 4.63131 27.4179 4.63824 23.7707C4.63824 13.106 13.3353 4.40604 24.0235 4.40604C26.5698 4.40147 29.0918 4.90096 31.4442 5.87572C33.7965 6.85047 35.9326 8.28121 37.7294 10.0854C39.5321 11.8829 40.9612 14.0194 41.9344 16.3717C42.9076 18.724 43.4057 21.2457 43.4 23.7913C43.3882 34.4943 34.6912 43.1796 24.0118 43.1796ZM34.6441 28.6678C34.0647 28.3766 31.2029 26.9678 30.6647 26.7678C30.1294 26.5766 29.7382 26.4766 29.3559 27.059C28.9647 27.6384 27.8471 28.959 27.5118 29.3384C27.1765 29.7296 26.8294 29.7737 26.2471 29.4854C25.6676 29.1913 23.7882 28.5796 21.5647 26.5884C19.8294 25.0443 18.6676 23.1325 18.3206 22.5531C17.9853 21.9707 18.2882 21.659 18.5794 21.3678C18.8353 21.109 19.1588 20.6854 19.45 20.3502C19.7441 20.0149 19.8412 19.7678 20.0324 19.3796C20.2235 18.9854 20.1324 18.6502 19.9882 18.359C19.8412 18.0678 18.6794 15.1943 18.1882 14.0354C17.7176 12.8913 17.2382 13.0502 16.8794 13.0354C16.5441 13.0149 16.1529 13.0149 15.7618 13.0149C15.4664 13.0224 15.1758 13.0908 14.908 13.2158C14.6403 13.3408 14.4013 13.5197 14.2059 13.7413C13.6706 14.3237 12.1735 15.7325 12.1735 18.606C12.1735 21.4796 14.2618 24.2413 14.5559 24.6325C14.8441 25.0237 18.6559 30.9031 24.5059 33.4325C25.8882 34.0354 26.9765 34.3913 27.8265 34.6619C29.2235 35.109 30.4853 35.0413 31.4912 34.8972C32.6088 34.7266 34.9353 33.4855 35.4265 32.1237C35.9088 30.759 35.9088 29.5943 35.7618 29.3502C35.6176 29.1031 35.2265 28.959 34.6441 28.6678Z" fill="white"/>
</g>
<defs>
<clipPath id="clip0_385_38570">
<rect x="0.5" y="0.470703" width="47.0588" height="47.0588" rx="10" fill="white"/>
</clipPath>
</defs>
</svg>
