<svg width="24" height="24" viewBox="0 0 24 24" fill="none" xmlns="http://www.w3.org/2000/svg">
<path d="M1 22H23" stroke="#888888" stroke-width="1.5" stroke-miterlimit="10" stroke-linecap="round" stroke-linejoin="round"/>
<path d="M19.7812 22.01V17.55" stroke="#888888" stroke-width="1.5" stroke-miterlimit="10" stroke-linecap="round" stroke-linejoin="round"/>
<path d="M19.8016 10.89C18.5816 10.89 17.6016 11.87 17.6016 13.09V15.36C17.6016 16.58 18.5816 17.56 19.8016 17.56C21.0216 17.56 22.0016 16.58 22.0016 15.36V13.09C22.0016 11.87 21.0216 10.89 19.8016 10.89Z" stroke="#888888" stroke-width="1.5" stroke-miterlimit="10" stroke-linecap="round" stroke-linejoin="round"/>
<path d="M2.10156 22V6.03003C2.10156 4.02003 3.10161 3.01001 5.09161 3.01001H11.3216C13.3116 3.01001 14.3016 4.02003 14.3016 6.03003V22" stroke="#888888" stroke-width="1.5" stroke-miterlimit="10" stroke-linecap="round" stroke-linejoin="round"/>
<path d="M5.80078 8.25H10.7508" stroke="#888888" stroke-width="1.5" stroke-miterlimit="10" stroke-linecap="round" stroke-linejoin="round"/>
<path d="M5.80078 12H10.7508" stroke="#888888" stroke-width="1.5" stroke-miterlimit="10" stroke-linecap="round" stroke-linejoin="round"/>
<path d="M8.25 22V18.25" stroke="#888888" stroke-width="1.5" stroke-miterlimit="10" stroke-linecap="round" stroke-linejoin="round"/>
</svg>
