<svg width="49" height="49" viewBox="0 0 49 49" fill="none" xmlns="http://www.w3.org/2000/svg">
<path fill-rule="evenodd" clip-rule="evenodd" d="M11.8486 13.9054C11.8486 7.41833 17.0921 0.416626 25.5629 0.416626C34.0338 0.416626 39.2772 7.41833 39.2772 13.9054C39.2772 23.5187 32.1583 29.4693 25.5629 29.4693C18.9675 29.4693 11.8486 23.5187 11.8486 13.9054ZM14.1835 14.999C14.6795 22.6813 20.3138 27.3941 25.5629 27.3941C30.8121 27.3941 36.4452 22.6824 36.9435 15.0021C33.5435 14.5829 30.3664 13.262 27.8166 11.191C24.6669 13.758 20.6498 15.1619 16.3869 15.1619C15.6589 15.1619 14.9252 15.0965 14.1835 14.999Z" fill="white"/>
<path opacity="0.5" d="M46.1032 34.7526L34.2198 28.2061C31.4347 30.4138 28.1055 31.6278 24.877 31.6278C21.6484 31.6278 18.3192 30.4138 15.5341 28.2061L3.65067 34.7526C1.93981 35.6949 0.876953 37.4189 0.876953 39.251V47.3673C0.876953 47.9476 1.38895 48.4166 2.01981 48.4166H23.7341V37.9236C23.7341 37.3434 24.245 36.8743 24.877 36.8743C25.509 36.8743 26.0198 37.3434 26.0198 37.9236V48.4166H47.7341C48.365 48.4166 48.877 47.9476 48.877 47.3673V39.251C48.877 37.4189 47.8141 35.6949 46.1032 34.7526Z" fill="white"/>
</svg>
