<svg width="32" height="32" viewBox="0 0 32 32" fill="none" xmlns="http://www.w3.org/2000/svg">
<path d="M10.668 2.66699V6.66699" stroke="#888888" stroke-width="1.5" stroke-miterlimit="10" stroke-linecap="round" stroke-linejoin="round"/>
<path d="M21.332 2.66699V6.66699" stroke="#888888" stroke-width="1.5" stroke-miterlimit="10" stroke-linecap="round" stroke-linejoin="round"/>
<path d="M21.3333 4.66699C25.7733 4.90699 28 6.60033 28 12.867V21.107C28 26.6003 26.6667 29.347 20 29.347H12C5.33333 29.347 4 26.6003 4 21.107V12.867C4 6.60033 6.22667 4.92033 10.6667 4.66699H21.3333Z" stroke="#888888" stroke-width="1.5" stroke-miterlimit="10" stroke-linecap="round" stroke-linejoin="round"/>
<path d="M27.6654 23.4668H4.33203" stroke="#888888" stroke-width="1.5" stroke-miterlimit="10" stroke-linecap="round" stroke-linejoin="round"/>
<path d="M16.0013 11C14.3613 11 12.9746 11.8933 12.9746 13.6267C12.9746 14.4533 13.3613 15.08 13.948 15.48C13.1346 15.96 12.668 16.7333 12.668 17.64C12.668 19.2933 13.9346 20.32 16.0013 20.32C18.0546 20.32 19.3346 19.2933 19.3346 17.64C19.3346 16.7333 18.868 15.9467 18.0413 15.48C18.6413 15.0667 19.0146 14.4533 19.0146 13.6267C19.0146 11.8933 17.6413 11 16.0013 11ZM16.0013 14.7867C15.308 14.7867 14.8013 14.3733 14.8013 13.72C14.8013 13.0533 15.308 12.6667 16.0013 12.6667C16.6946 12.6667 17.2013 13.0533 17.2013 13.72C17.2013 14.3733 16.6946 14.7867 16.0013 14.7867ZM16.0013 18.6667C15.1213 18.6667 14.4813 18.2267 14.4813 17.4267C14.4813 16.6267 15.1213 16.2 16.0013 16.2C16.8813 16.2 17.5213 16.64 17.5213 17.4267C17.5213 18.2267 16.8813 18.6667 16.0013 18.6667Z" fill="#888888"/>
</svg>
