<svg width="24" height="24" viewBox="0 0 24 24" fill="none" xmlns="http://www.w3.org/2000/svg">
<g clip-path="url(#clip0_269_34147)">
<path d="M10 11.333H12V12.6663H10V11.333Z" fill="#6C6C6C"/>
<path d="M17.632 9.44637C16.4497 7.51157 14.8367 5.87578 12.9187 4.66637C12.0326 4.1048 11.0226 3.76867 9.9767 3.68732C8.93082 3.60598 7.88094 3.78189 6.9187 4.19971C6.07703 4.59671 5.34466 5.19262 4.78482 5.93598C4.22497 6.67934 3.85449 7.5478 3.70536 8.46637C3.65203 8.77971 3.61203 9.07971 3.57203 9.37304C2.94786 9.47421 2.37995 9.79388 1.96965 10.275C1.55935 10.7561 1.33337 11.3674 1.33203 11.9997V16.0864C1.33203 16.44 1.47251 16.7791 1.72256 17.0292C1.9726 17.2792 2.31174 17.4197 2.66536 17.4197V11.9997C2.66536 11.6461 2.80584 11.3069 3.05589 11.0569C3.30594 10.8068 3.64508 10.6664 3.9987 10.6664H16.4854C17.7702 10.6681 19.002 11.1793 19.9105 12.0879C20.8191 12.9964 21.3303 14.2282 21.332 15.513V15.9997H19.9987C19.7171 15.3131 19.1926 14.7542 18.5253 14.4297C17.8579 14.1051 17.0945 14.0377 16.3805 14.2401C15.6666 14.4426 15.0522 14.9009 14.6546 15.5274C14.257 16.154 14.104 16.905 14.2248 17.6372C14.3456 18.3694 14.7318 19.0315 15.3096 19.4971C15.8874 19.9627 16.6165 20.1993 17.3576 20.1617C18.0987 20.1241 18.8 19.8149 19.3278 19.2932C19.8555 18.7714 20.1726 18.0737 20.2187 17.333H21.332C21.6857 17.333 22.0248 17.1926 22.2748 16.9425C22.5249 16.6925 22.6654 16.3533 22.6654 15.9997V15.513C22.6627 14.0743 22.1587 12.6815 21.24 11.5743C20.3214 10.467 19.0455 9.71458 17.632 9.44637ZM7.33203 9.33304H4.6187C4.6187 9.12637 4.6787 8.91304 4.7187 8.66637C4.83388 7.93401 5.13446 7.24328 5.59187 6.65985C6.04928 6.07642 6.64832 5.61967 7.33203 5.33304V9.33304ZM8.66536 9.33304V5.05304C9.91 4.89141 11.1723 5.16459 12.2387 5.82637C13.6945 6.73316 14.951 7.92616 15.932 9.33304H8.66536ZM17.1987 18.9197C16.8691 18.9197 16.5468 18.822 16.2727 18.6388C15.9987 18.4557 15.785 18.1954 15.6589 17.8908C15.5328 17.5863 15.4997 17.2512 15.5641 16.9279C15.6284 16.6046 15.7871 16.3076 16.0202 16.0745C16.2533 15.8414 16.5502 15.6827 16.8735 15.6184C17.1968 15.5541 17.532 15.5871 17.8365 15.7132C18.141 15.8394 18.4013 16.053 18.5845 16.3271C18.7676 16.6012 18.8654 16.9234 18.8654 17.253C18.8654 17.6951 18.6898 18.119 18.3772 18.4315C18.0646 18.7441 17.6407 18.9197 17.1987 18.9197Z" fill="#6C6C6C"/>
<path d="M9.447 16.0001C9.16543 15.3135 8.64094 14.7546 7.97358 14.4301C7.30623 14.1056 6.54275 14.0381 5.82883 14.2406C5.1149 14.443 4.50052 14.9013 4.10291 15.5279C3.7053 16.1544 3.5523 16.9055 3.67311 17.6376C3.79392 18.3698 4.18008 19.0319 4.7579 19.4975C5.33572 19.9631 6.06475 20.1997 6.80588 20.1621C7.54701 20.1245 8.24834 19.8153 8.77606 19.2936C9.30378 18.7719 9.62093 18.0741 9.667 17.3335H13.2003V17.1668C13.1871 16.7735 13.2321 16.3803 13.3337 16.0001H9.447ZM6.667 18.9201C6.33736 18.9201 6.01513 18.8224 5.74105 18.6392C5.46696 18.4561 5.25334 18.1958 5.1272 17.8913C5.00105 17.5867 4.96804 17.2516 5.03235 16.9283C5.09666 16.605 5.2554 16.308 5.48848 16.0749C5.72157 15.8419 6.01854 15.6831 6.34185 15.6188C6.66515 15.5545 7.00026 15.5875 7.3048 15.7137C7.60935 15.8398 7.86964 16.0534 8.05278 16.3275C8.23591 16.6016 8.33366 16.9238 8.33366 17.2535C8.33366 17.6955 8.15807 18.1194 7.84551 18.432C7.53295 18.7445 7.10902 18.9201 6.667 18.9201Z" fill="#6C6C6C"/>
</g>
<defs>
<clipPath id="clip0_269_34147">
<rect width="24" height="24" fill="white"/>
</clipPath>
</defs>
</svg>
