<svg width="48" height="47" viewBox="0 0 48 47" fill="none" xmlns="http://www.w3.org/2000/svg">
<g clip-path="url(#clip0_15_100)">
<path d="M38 9.79154H34V5.87488H14V9.79154H10C7.8 9.79154 6 11.554 6 13.7082V15.6665C6 20.6603 9.84 24.7336 14.78 25.3407C15.4125 26.8082 16.4004 28.1029 17.6583 29.1128C18.9163 30.1227 20.4064 30.8176 22 31.1374V37.2082H14V41.1249H34V37.2082H26V31.1374C27.5936 30.8176 29.0837 30.1227 30.3417 29.1128C31.5996 28.1029 32.5875 26.8082 33.22 25.3407C38.16 24.7336 42 20.6603 42 15.6665V13.7082C42 11.554 40.2 9.79154 38 9.79154ZM10 15.6665V13.7082H14V21.189C11.68 20.3665 10 18.2124 10 15.6665ZM24 27.4165C20.7 27.4165 18 24.7728 18 21.5415V9.79154H30V21.5415C30 24.7728 27.3 27.4165 24 27.4165ZM38 15.6665C38 18.2124 36.32 20.3665 34 21.189V13.7082H38V15.6665Z" fill="white"/>
</g>
<defs>
<clipPath id="clip0_15_100">
<rect width="48" height="47" fill="white"/>
</clipPath>
</defs>
</svg>
