<svg width="49" height="48" viewBox="0 0 49 48" fill="none" xmlns="http://www.w3.org/2000/svg">
<path opacity="0.5" d="M46.2034 22.5874C44.1997 32.1268 34.5153 39.3858 22.8972 39.3858C21.25 39.3858 19.6058 39.2286 17.9844 38.9304C21.968 42.5825 28.1355 44.4247 34.5091 43.4266L43.0398 47.8862C43.185 47.9616 43.3427 47.9993 43.5003 47.9993C43.6888 47.9993 43.8763 47.9454 44.0421 47.8388C44.345 47.6429 44.5304 47.2962 44.5304 46.9226V38.7086C47.1913 36.1848 48.651 33.0021 48.651 29.6957C48.651 27.1676 47.7888 24.7257 46.2034 22.5874Z" fill="white"/>
<path d="M22.6514 -0.000732422C10.5199 -0.000732422 0.651367 8.21554 0.651367 18.3151C0.651367 22.197 2.09813 25.8979 4.84184 29.0461V39.8632C4.84184 40.237 5.03041 40.5829 5.33841 40.78C5.50708 40.8867 5.69775 40.9406 5.88946 40.9406C6.04975 40.9406 6.21003 40.9029 6.35775 40.8275L16.132 35.8014C18.2639 36.3519 20.4545 36.631 22.6514 36.631C34.7828 36.631 44.6514 28.4147 44.6514 18.3151C44.6514 8.21554 34.7828 -0.000732422 22.6514 -0.000732422Z" fill="white"/>
</svg>
