<svg width="57" height="57" viewBox="0 0 57 57" fill="none" xmlns="http://www.w3.org/2000/svg">
<path d="M28.5 3.5625C14.7287 3.5625 3.5625 14.7287 3.5625 28.5C3.5625 42.2713 14.7287 53.4375 28.5 53.4375C42.2713 53.4375 53.4375 42.2713 53.4375 28.5C53.4375 14.7287 42.2713 3.5625 28.5 3.5625ZM39.271 20.3563L27.5481 36.6103C27.3843 36.8389 27.1683 37.0253 26.9181 37.1538C26.6678 37.2824 26.3906 37.3494 26.1092 37.3494C25.8279 37.3494 25.5506 37.2824 25.3004 37.1538C25.0502 37.0253 24.8342 36.8389 24.6703 36.6103L17.729 26.9915C17.5175 26.6965 17.729 26.2846 18.0908 26.2846H20.7015C21.2692 26.2846 21.8092 26.5573 22.1432 27.0249L26.1064 32.5245L34.8568 20.3897C35.1908 19.9277 35.7252 19.6494 36.2985 19.6494H38.9092C39.271 19.6494 39.4825 20.0613 39.271 20.3563Z" fill="#4D67FE"/>
</svg>
