<svg width="24" height="25" viewBox="0 0 24 25" fill="none" xmlns="http://www.w3.org/2000/svg">
<g clip-path="url(#clip0_269_35105)">
<path d="M10 11.8333H12V13.1666H10V11.8333Z" fill="#6C6C6C"/>
<path d="M17.633 9.94662C16.4507 8.01182 14.8377 6.37603 12.9197 5.16662C12.0336 4.60504 11.0235 4.26891 9.97767 4.18757C8.9318 4.10622 7.88191 4.28213 6.91967 4.69995C6.07801 5.09695 5.34564 5.69286 4.78579 6.43622C4.22595 7.17958 3.85547 8.04805 3.70634 8.96662C3.65301 9.27995 3.61301 9.57995 3.57301 9.87328C2.94884 9.97445 2.38093 10.2941 1.97063 10.7752C1.56033 11.2564 1.33435 11.8676 1.33301 12.4999V16.5866C1.33301 16.9402 1.47348 17.2794 1.72353 17.5294C1.97358 17.7795 2.31272 17.9199 2.66634 17.9199V12.4999C2.66634 12.1463 2.80682 11.8072 3.05687 11.5571C3.30691 11.3071 3.64605 11.1666 3.99967 11.1666H16.4863C17.7712 11.1684 19.003 11.6796 19.9115 12.5881C20.82 13.4967 21.3312 14.7284 21.333 16.0133V16.4999H19.9997C19.7181 15.8134 19.1936 15.2545 18.5263 14.9299C17.8589 14.6054 17.0954 14.5379 16.3815 14.7404C15.6676 14.9429 15.0532 15.4011 14.6556 16.0277C14.258 16.6542 14.105 17.4053 14.2258 18.1375C14.3466 18.8696 14.7328 19.5317 15.3106 19.9973C15.8884 20.463 16.6174 20.6995 17.3586 20.6619C18.0997 20.6243 18.801 20.3151 19.3287 19.7934C19.8565 19.2717 20.1736 18.5739 20.2197 17.8333H21.333C21.6866 17.8333 22.0258 17.6928 22.2758 17.4428C22.5259 17.1927 22.6663 16.8536 22.6663 16.4999V16.0133C22.6637 14.5746 22.1596 13.1818 21.241 12.0745C20.3223 10.9673 19.0465 10.2148 17.633 9.94662ZM7.33301 9.83328H4.61967C4.61967 9.62662 4.67967 9.41328 4.71967 9.16662C4.83486 8.43426 5.13544 7.74353 5.59285 7.16009C6.05026 6.57666 6.6493 6.11992 7.33301 5.83328V9.83328ZM8.66634 9.83328V5.55328C9.91098 5.39166 11.1732 5.66483 12.2397 6.32662C13.6955 7.2334 14.952 8.4264 15.933 9.83328H8.66634ZM17.1997 19.4199C16.87 19.4199 16.5478 19.3222 16.2737 19.1391C15.9996 18.9559 15.786 18.6956 15.6599 18.3911C15.5337 18.0865 15.5007 17.7514 15.565 17.4281C15.6293 17.1048 15.7881 16.8079 16.0212 16.5748C16.2543 16.3417 16.5512 16.1829 16.8745 16.1186C17.1978 16.0543 17.5329 16.0873 17.8375 16.2135C18.142 16.3396 18.4023 16.5532 18.5855 16.8273C18.7686 17.1014 18.8663 17.4236 18.8663 17.7533C18.8663 18.1953 18.6907 18.6192 18.3782 18.9318C18.0656 19.2444 17.6417 19.4199 17.1997 19.4199Z" fill="#6C6C6C"/>
<path d="M9.447 16.4999C9.16543 15.8133 8.64094 15.2544 7.97358 14.9299C7.30623 14.6053 6.54275 14.5378 5.82883 14.7403C5.1149 14.9428 4.50052 15.401 4.10291 16.0276C3.7053 16.6542 3.5523 17.4052 3.67311 18.1374C3.79392 18.8696 4.18008 19.5316 4.7579 19.9973C5.33572 20.4629 6.06475 20.6995 6.80588 20.6619C7.54701 20.6242 8.24834 20.3151 8.77606 19.7934C9.30378 19.2716 9.62093 18.5739 9.667 17.8332H13.2003V17.6665C13.1871 17.2732 13.2321 16.8801 13.3337 16.4999H9.447ZM6.667 19.4199C6.33736 19.4199 6.01513 19.3221 5.74105 19.139C5.46696 18.9559 5.25334 18.6956 5.1272 18.391C5.00105 18.0865 4.96804 17.7514 5.03235 17.4281C5.09666 17.1048 5.2554 16.8078 5.48848 16.5747C5.72157 16.3416 6.01854 16.1829 6.34185 16.1186C6.66515 16.0543 7.00026 16.0873 7.3048 16.2134C7.60935 16.3396 7.86964 16.5532 8.05278 16.8273C8.23591 17.1013 8.33366 17.4236 8.33366 17.7532C8.33366 18.1952 8.15807 18.6192 7.84551 18.9317C7.53295 19.2443 7.10902 19.4199 6.667 19.4199Z" fill="#6C6C6C"/>
</g>
<defs>
<clipPath id="clip0_269_35105">
<rect width="24" height="24" fill="white" transform="translate(0 0.5)"/>
</clipPath>
</defs>
</svg>
