<svg width="107" height="108" viewBox="0 0 107 108" fill="none" xmlns="http://www.w3.org/2000/svg">
<rect opacity="0.1" y="0.944214" width="106.476" height="106.476" rx="15.8133" fill="#888888"/>
<g clip-path="url(#clip0_6_879)">
<path d="M68 41.7915H64V37.8749H44V41.7915H40C37.8 41.7915 36 43.554 36 45.7082V47.6665C36 52.6603 39.84 56.7336 44.78 57.3407C45.4125 58.8082 46.4004 60.1029 47.6583 61.1128C48.9163 62.1227 50.4064 62.8176 52 63.1374V69.2082H44V73.1249H64V69.2082H56V63.1374C57.5936 62.8176 59.0837 62.1227 60.3417 61.1128C61.5996 60.1029 62.5875 58.8082 63.22 57.3407C68.16 56.7336 72 52.6603 72 47.6665V45.7082C72 43.554 70.2 41.7915 68 41.7915ZM40 47.6665V45.7082H44V53.189C41.68 52.3665 40 50.2124 40 47.6665ZM54 59.4165C50.7 59.4165 48 56.7728 48 53.5415V41.7915H60V53.5415C60 56.7728 57.3 59.4165 54 59.4165ZM68 47.6665C68 50.2124 66.32 52.3665 64 53.189V45.7082H68V47.6665Z" fill="white"/>
</g>
<defs>
<clipPath id="clip0_6_879">
<rect width="48" height="47" fill="white" transform="translate(30 31.9999)"/>
</clipPath>
</defs>
</svg>
