<svg width="16" height="17" viewBox="0 0 16 17" fill="none" xmlns="http://www.w3.org/2000/svg">
<path d="M7.33203 1.83338H5.9987C2.66536 1.83338 1.33203 3.16671 1.33203 6.50005V10.5C1.33203 13.8334 2.66536 15.1667 5.9987 15.1667H9.9987C13.332 15.1667 14.6654 13.8334 14.6654 10.5V9.16671M9.9387 3.26671C10.3854 4.86005 11.632 6.10671 13.232 6.56005M10.692 2.51338L5.4387 7.76671C5.2387 7.96671 5.0387 8.36005 4.9987 8.64671L4.71203 10.6534C4.60536 11.38 5.1187 11.8867 5.84537 11.7867L7.85203 11.5C8.13203 11.46 8.52537 11.26 8.73203 11.06L13.9854 5.80671C14.892 4.90005 15.3187 3.84671 13.9854 2.51338C12.652 1.18005 11.5987 1.60671 10.692 2.51338Z" stroke="#888888" stroke-width="1.5" stroke-miterlimit="10" stroke-linecap="round" stroke-linejoin="round"/>
</svg>
