<svg width="35" height="35" viewBox="0 0 35 35" fill="none" xmlns="http://www.w3.org/2000/svg">
<path fill-rule="evenodd" clip-rule="evenodd" d="M17.5735 7.10471C11.8322 7.10471 7.17795 11.759 7.17795 17.5003C7.17795 23.2416 11.8322 27.8958 17.5735 27.8958C23.3148 27.8958 27.969 23.2416 27.969 17.5003C27.969 11.759 23.3148 7.10471 17.5735 7.10471ZM5.49219 17.5003C5.49219 10.8279 10.9012 5.41895 17.5735 5.41895C24.2458 5.41895 29.6548 10.8279 29.6548 17.5003C29.6548 24.1726 24.2458 29.5816 17.5735 29.5816C10.9012 29.5816 5.49219 24.1726 5.49219 17.5003ZM13.5248 21.4937C13.802 21.1197 14.3299 21.0413 14.7039 21.3185C15.5224 21.9252 16.5105 22.2766 17.5735 22.2766C18.6365 22.2766 19.6246 21.9252 20.4431 21.3185C20.8171 21.0413 21.345 21.1197 21.6222 21.4937C21.8994 21.8677 21.8209 22.3956 21.4469 22.6728C20.3541 23.4828 19.0176 23.9623 17.5735 23.9623C16.1294 23.9623 14.7929 23.4828 13.7 22.6728C13.3261 22.3956 13.2476 21.8677 13.5248 21.4937Z" fill="#888888"/>
<path d="M22.0689 15.8145C22.0689 16.7455 21.5657 17.5003 20.945 17.5003C20.3243 17.5003 19.8212 16.7455 19.8212 15.8145C19.8212 14.8835 20.3243 14.1287 20.945 14.1287C21.5657 14.1287 22.0689 14.8835 22.0689 15.8145Z" fill="#888888"/>
<path d="M15.3258 15.8145C15.3258 16.7455 14.8226 17.5003 14.202 17.5003C13.5813 17.5003 13.0781 16.7455 13.0781 15.8145C13.0781 14.8835 13.5813 14.1287 14.202 14.1287C14.8226 14.1287 15.3258 14.8835 15.3258 15.8145Z" fill="#888888"/>
</svg>
