<svg width="24" height="25" viewBox="0 0 24 25" fill="none" xmlns="http://www.w3.org/2000/svg">
<path d="M18.04 14.05C17.62 14.46 17.38 15.05 17.44 15.68C17.53 16.76 18.52 17.55 19.6 17.55H21.5V18.74C21.5 20.81 19.81 22.5 17.74 22.5H6.26C4.19 22.5 2.5 20.81 2.5 18.74V12.01C2.5 9.94001 4.19 8.25 6.26 8.25H17.74C19.81 8.25 21.5 9.94001 21.5 12.01V13.45H19.48C18.92 13.45 18.41 13.67 18.04 14.05Z" stroke="white" stroke-width="1.5" stroke-linecap="round" stroke-linejoin="round"/>
<path d="M2.5 12.9103V8.34035C2.5 7.15035 3.23 6.0903 4.34 5.6703L12.28 2.6703C13.52 2.2003 14.85 3.12033 14.85 4.45033V8.25032" stroke="white" stroke-width="1.5" stroke-linecap="round" stroke-linejoin="round"/>
<path d="M22.5588 14.4702V16.5302C22.5588 17.0802 22.1188 17.5302 21.5588 17.5502H19.5988C18.5188 17.5502 17.5288 16.7602 17.4388 15.6802C17.3788 15.0502 17.6188 14.4602 18.0388 14.0502C18.4088 13.6702 18.9188 13.4502 19.4788 13.4502H21.5588C22.1188 13.4702 22.5588 13.9202 22.5588 14.4702Z" stroke="white" stroke-width="1.5" stroke-linecap="round" stroke-linejoin="round"/>
<path d="M7 12.5H14" stroke="white" stroke-width="1.5" stroke-linecap="round" stroke-linejoin="round"/>
</svg>
