<svg width="40" height="40" viewBox="0 0 40 40" fill="none" xmlns="http://www.w3.org/2000/svg">
<path d="M16.4912 11.0689H21.8679M16.4912 17.2137H26.4765M16.4912 23.3585H26.4765" stroke="#888888" stroke-width="2" stroke-linecap="round" stroke-linejoin="round"/>
<path fill-rule="evenodd" clip-rule="evenodd" d="M34.7891 24.6831C34.9245 23.3522 34.9244 21.6856 34.9244 19.5822L34.9245 15.2449C34.9248 13.635 34.925 12.5968 34.6449 11.6142C34.4914 11.0755 34.2763 10.5563 34.004 10.0668C33.5072 9.17398 32.773 8.44001 31.6344 7.30189L31.3948 7.06232C30.2567 5.92374 29.5227 5.18947 28.6299 4.69273C28.1404 4.42039 27.6212 4.20533 27.0825 4.05178C26.0999 3.7717 25.0617 3.77191 23.4518 3.77224L21.4827 3.77226V3.77559C20.0458 3.78421 18.8364 3.81508 17.8158 3.92566C16.3638 4.08297 15.158 4.4126 14.1212 5.16586C13.5017 5.61593 12.957 6.1607 12.5069 6.78018C12.0272 7.4404 11.7193 8.16918 11.5183 8.98643L10.2588 9.32391C6.36613 10.367 4.05604 14.3682 5.09908 18.2608L8.47867 30.8736C9.52171 34.7663 13.5229 37.0764 17.4156 36.0334L26.3187 33.6478C28.0191 33.1922 29.4175 32.1721 30.3664 30.8432C30.833 30.6805 31.2694 30.4694 31.6814 30.1942C32.4782 29.6618 33.1623 28.9777 33.6947 28.1809C34.36 27.1851 34.6504 26.0467 34.7891 24.6831ZM23.4702 6.07661L23.2824 6.07657C20.9756 6.07659 19.3335 6.07901 18.064 6.21656C16.808 6.35263 16.0541 6.60978 15.4756 7.03008C15.0518 7.33803 14.679 7.71076 14.3711 8.13461C13.9508 8.7131 13.6937 9.46701 13.5576 10.723C13.4192 12.0005 13.4176 13.6553 13.4176 15.9851V19.5183C13.4176 21.6999 13.419 23.2493 13.5411 24.4499C13.6613 25.6313 13.8888 26.3467 14.259 26.9007C14.6233 27.4459 15.0913 27.9139 15.6365 28.2782C16.1905 28.6484 16.9059 28.8759 18.0873 28.9961C19.2879 29.1182 20.8373 29.1196 23.0189 29.1196C25.2004 29.1196 26.7498 29.1182 27.9505 28.9961C29.1319 28.8759 29.8472 28.6484 30.4012 28.2782C30.9464 27.9139 31.4145 27.4459 31.7787 26.9007C32.1489 26.3467 32.3764 25.6313 32.4966 24.4499C32.6187 23.2493 32.6201 21.6999 32.6201 19.5183V15.6778C32.6201 14.9211 32.6177 14.4694 32.5742 14.1457C32.5542 13.9974 32.5307 13.9231 32.517 13.8896C32.5138 13.8819 32.5113 13.8768 32.5097 13.8738L32.5076 13.8701L32.5039 13.868C32.5009 13.8664 32.4958 13.8639 32.4881 13.8608C32.4546 13.847 32.3803 13.8235 32.232 13.8036C31.9083 13.76 31.4566 13.7576 30.6999 13.7576L29.0949 13.7576C28.43 13.7577 27.8204 13.7577 27.3245 13.6911C26.7784 13.6176 26.2012 13.4449 25.7265 12.9702C25.2518 12.4955 25.079 11.9183 25.0056 11.3722C24.939 10.8763 24.939 10.2667 24.9391 9.60177L24.9391 7.68958C24.9391 7.08788 24.9375 6.72915 24.9091 6.46713C24.8924 6.31299 24.8712 6.24984 24.8633 6.23154C24.8409 6.20142 24.8143 6.17475 24.7841 6.15237C24.7658 6.14448 24.7027 6.12324 24.5486 6.10654C24.3082 6.08049 23.9864 6.07701 23.4702 6.07661ZM25.7665 31.4099C24.9612 31.4239 24.0701 31.4239 23.0827 31.4239H22.955C20.8516 31.4239 19.185 31.4239 17.8541 31.2886C16.4905 31.1498 15.3521 30.8595 14.3563 30.1942C13.5595 29.6618 12.8754 28.9777 12.343 28.1809C11.6777 27.1851 11.3874 26.0467 11.2486 24.6831C11.1133 23.3522 11.1133 21.6856 11.1133 19.5822V15.9167C11.1133 14.1636 11.1133 12.6947 11.1862 11.461L10.8552 11.5497C8.1918 12.2634 6.61121 15.001 7.32487 17.6644L10.7045 30.2772C11.4181 32.9406 14.1558 34.5212 16.8192 33.8076L25.7223 31.422C25.7371 31.418 25.7518 31.414 25.7665 31.4099ZM31.9903 11.1871C32.0439 11.2834 32.0942 11.3814 32.1413 11.4809C31.7308 11.4532 31.2651 11.4532 30.7686 11.4533L29.1637 11.4533C28.4069 11.4533 27.9553 11.4508 27.6316 11.4073C27.4832 11.3874 27.4089 11.3639 27.3755 11.3501C27.3677 11.3469 27.3626 11.3444 27.3597 11.3429L27.3559 11.3408L27.3538 11.337C27.3523 11.3341 27.3498 11.329 27.3466 11.3212C27.3328 11.2878 27.3093 11.2135 27.2894 11.0651C27.2459 10.7414 27.2434 10.2898 27.2434 9.53302L27.2434 7.63536C27.2435 7.2485 27.2435 6.88488 27.2265 6.56051C27.3223 6.60608 27.4167 6.65471 27.5096 6.70636C28.0865 7.02735 28.586 7.51233 29.8852 8.81151C31.1844 10.1107 31.6693 10.6102 31.9903 11.1871Z" fill="#888888"/>
</svg>
