<svg width="31" height="32" viewBox="0 0 31 32" fill="none" xmlns="http://www.w3.org/2000/svg">
<path d="M15.2688 28.1311C15.2688 28.4816 15.5531 28.7675 15.9031 28.7502C22.6156 28.4195 27.9565 22.8692 27.9565 16.0707C27.9565 9.05931 22.276 3.37549 15.2688 3.37549C8.26155 3.37549 2.58105 9.05931 2.58105 16.0707C2.58105 21.9423 6.56487 26.8829 11.9755 28.334C12.3629 28.4379 12.7313 28.1367 12.7313 27.7354V18.6097H11.4625C10.7617 18.6097 10.1937 18.0413 10.1937 17.3402C10.1937 16.639 10.7618 16.0707 11.4625 16.0707H12.7313V13.5316C12.7313 11.4282 14.4353 9.72308 16.5376 9.72308H17.8064C18.5071 9.72308 19.0751 10.2915 19.0751 10.9926C19.0751 11.6937 18.5071 12.2621 17.8064 12.2621H16.5376C15.8368 12.2621 15.2688 12.8305 15.2688 13.5316V16.0707H17.8064C18.5071 16.0707 19.0751 16.639 19.0751 17.3402C19.0751 18.0413 18.5071 18.6097 17.8064 18.6097H15.2688V28.1311Z" fill="#FFF8F8"/>
</svg>
