<svg width="27" height="26" viewBox="0 0 27 26" fill="none" xmlns="http://www.w3.org/2000/svg">
<mask id="mask0_91_4725" style="mask-type:luminance" maskUnits="userSpaceOnUse" x="0" y="0" width="27" height="26">
<path fill-rule="evenodd" clip-rule="evenodd" d="M25.8392 10.4441H13.7416V15.3462H20.7051C20.056 18.4605 17.3414 20.2483 13.7416 20.2483C9.49268 20.2483 6.06994 16.9033 6.06994 12.751C6.06994 8.59863 9.49268 5.25367 13.7416 5.25367C15.571 5.25367 17.2234 5.88806 18.5216 6.92615L22.2985 3.23517C19.997 1.27434 17.0463 0.0632324 13.7416 0.0632324C6.54204 0.0632324 0.758789 5.71505 0.758789 12.751C0.758789 19.7869 6.54204 25.4387 13.7416 25.4387C20.233 25.4387 26.1343 20.825 26.1343 12.751C26.1343 12.0013 26.0163 11.1938 25.8392 10.4441Z" fill="white"/>
</mask>
<g mask="url(#mask0_91_4725)">
<path d="M-0.420898 20.2482V5.2536L9.61127 12.7509L-0.420898 20.2482Z" fill="#FBBC05"/>
</g>
<mask id="mask1_91_4725" style="mask-type:luminance" maskUnits="userSpaceOnUse" x="0" y="0" width="27" height="26">
<path fill-rule="evenodd" clip-rule="evenodd" d="M25.8392 10.4441H13.7416V15.3462H20.7051C20.056 18.4605 17.3414 20.2483 13.7416 20.2483C9.49268 20.2483 6.06994 16.9033 6.06994 12.751C6.06994 8.59863 9.49268 5.25367 13.7416 5.25367C15.571 5.25367 17.2234 5.88806 18.5216 6.92615L22.2985 3.23517C19.997 1.27434 17.0463 0.0632324 13.7416 0.0632324C6.54204 0.0632324 0.758789 5.71505 0.758789 12.751C0.758789 19.7869 6.54204 25.4387 13.7416 25.4387C20.233 25.4387 26.1343 20.825 26.1343 12.751C26.1343 12.0013 26.0163 11.1938 25.8392 10.4441Z" fill="white"/>
</mask>
<g mask="url(#mask1_91_4725)">
<path d="M-0.420898 5.2536L9.61127 12.7509L13.7422 9.23294L27.9052 6.98375V-1.09027H-0.420898V5.2536Z" fill="#EA4335"/>
</g>
<mask id="mask2_91_4725" style="mask-type:luminance" maskUnits="userSpaceOnUse" x="0" y="0" width="27" height="26">
<path fill-rule="evenodd" clip-rule="evenodd" d="M25.8392 10.4441H13.7416V15.3462H20.7051C20.056 18.4605 17.3414 20.2483 13.7416 20.2483C9.49268 20.2483 6.06994 16.9033 6.06994 12.751C6.06994 8.59863 9.49268 5.25367 13.7416 5.25367C15.571 5.25367 17.2234 5.88806 18.5216 6.92615L22.2985 3.23517C19.997 1.27434 17.0463 0.0632324 13.7416 0.0632324C6.54204 0.0632324 0.758789 5.71505 0.758789 12.751C0.758789 19.7869 6.54204 25.4387 13.7416 25.4387C20.233 25.4387 26.1343 20.825 26.1343 12.751C26.1343 12.0013 26.0163 11.1938 25.8392 10.4441Z" fill="white"/>
</mask>
<g mask="url(#mask2_91_4725)">
<path d="M-0.420898 20.2482L17.2829 6.98375L21.9449 7.56047L27.9052 -1.09027V26.5921H-0.420898V20.2482Z" fill="#34A853"/>
</g>
<mask id="mask3_91_4725" style="mask-type:luminance" maskUnits="userSpaceOnUse" x="0" y="0" width="27" height="26">
<path fill-rule="evenodd" clip-rule="evenodd" d="M25.8392 10.4441H13.7416V15.3462H20.7051C20.056 18.4605 17.3414 20.2483 13.7416 20.2483C9.49268 20.2483 6.06994 16.9033 6.06994 12.751C6.06994 8.59863 9.49268 5.25367 13.7416 5.25367C15.571 5.25367 17.2234 5.88806 18.5216 6.92615L22.2985 3.23517C19.997 1.27434 17.0463 0.0632324 13.7416 0.0632324C6.54204 0.0632324 0.758789 5.71505 0.758789 12.751C0.758789 19.7869 6.54204 25.4387 13.7416 25.4387C20.233 25.4387 26.1343 20.825 26.1343 12.751C26.1343 12.0013 26.0163 11.1938 25.8392 10.4441Z" fill="white"/>
</mask>
<g mask="url(#mask3_91_4725)">
<path d="M27.9035 26.5921L9.60953 12.7509L7.24902 11.0208L27.9035 5.2536V26.5921Z" fill="#4D67FE"/>
</g>
</svg>
