<svg width="24" height="25" viewBox="0 0 24 25" fill="none" xmlns="http://www.w3.org/2000/svg">
<path fill-rule="evenodd" clip-rule="evenodd" d="M0 2.18604C0 1.6556 0.180612 1.14689 0.502103 0.771822C0.823593 0.396749 1.25963 0.186035 1.71429 0.186035H22.2857C22.7404 0.186035 23.1764 0.396749 23.4979 0.771822C23.8194 1.14689 24 1.6556 24 2.18604C24 2.71647 23.8194 3.22518 23.4979 3.60025C23.1764 3.97532 22.7404 4.18604 22.2857 4.18604H1.71429C1.25963 4.18604 0.823593 3.97532 0.502103 3.60025C0.180612 3.22518 0 2.71647 0 2.18604ZM0 12.186C0 11.6556 0.180612 11.1469 0.502103 10.7718C0.823593 10.3967 1.25963 10.186 1.71429 10.186H22.2857C22.7404 10.186 23.1764 10.3967 23.4979 10.7718C23.8194 11.1469 24 11.6556 24 12.186C24 12.7165 23.8194 13.2252 23.4979 13.6002C23.1764 13.9753 22.7404 14.186 22.2857 14.186H1.71429C1.25963 14.186 0.823593 13.9753 0.502103 13.6002C0.180612 13.2252 0 12.7165 0 12.186ZM0 22.186C0 21.6556 0.180612 21.1469 0.502103 20.7718C0.823593 20.3967 1.25963 20.186 1.71429 20.186H12C12.4547 20.186 12.8907 20.3967 13.2122 20.7718C13.5337 21.1469 13.7143 21.6556 13.7143 22.186C13.7143 22.7165 13.5337 23.2252 13.2122 23.6002C12.8907 23.9753 12.4547 24.186 12 24.186H1.71429C1.25963 24.186 0.823593 23.9753 0.502103 23.6002C0.180612 23.2252 0 22.7165 0 22.186Z" fill="black"/>
</svg>
