<svg width="24" height="25" viewBox="0 0 24 25" fill="none" xmlns="http://www.w3.org/2000/svg">
<path fill-rule="evenodd" clip-rule="evenodd" d="M0 2.1875C0 1.65707 0.180612 1.14836 0.502103 0.773287C0.823593 0.398214 1.25963 0.1875 1.71429 0.1875H22.2857C22.7404 0.1875 23.1764 0.398214 23.4979 0.773287C23.8194 1.14836 24 1.65707 24 2.1875C24 2.71793 23.8194 3.22664 23.4979 3.60171C23.1764 3.97679 22.7404 4.1875 22.2857 4.1875H1.71429C1.25963 4.1875 0.823593 3.97679 0.502103 3.60171C0.180612 3.22664 0 2.71793 0 2.1875ZM0 12.1875C0 11.6571 0.180612 11.1484 0.502103 10.7733C0.823593 10.3982 1.25963 10.1875 1.71429 10.1875H22.2857C22.7404 10.1875 23.1764 10.3982 23.4979 10.7733C23.8194 11.1484 24 11.6571 24 12.1875C24 12.7179 23.8194 13.2266 23.4979 13.6017C23.1764 13.9768 22.7404 14.1875 22.2857 14.1875H1.71429C1.25963 14.1875 0.823593 13.9768 0.502103 13.6017C0.180612 13.2266 0 12.7179 0 12.1875ZM0 22.1875C0 21.6571 0.180612 21.1484 0.502103 20.7733C0.823593 20.3982 1.25963 20.1875 1.71429 20.1875H12C12.4547 20.1875 12.8907 20.3982 13.2122 20.7733C13.5337 21.1484 13.7143 21.6571 13.7143 22.1875C13.7143 22.7179 13.5337 23.2266 13.2122 23.6017C12.8907 23.9768 12.4547 24.1875 12 24.1875H1.71429C1.25963 24.1875 0.823593 23.9768 0.502103 23.6017C0.180612 23.2266 0 22.7179 0 22.1875Z" fill="white"/>
</svg>
