<svg width="25" height="24" viewBox="0 0 25 24" fill="none" xmlns="http://www.w3.org/2000/svg">
<path d="M16.5508 13H18.5508M17.5508 9H7.55078C5.68078 9 4.74678 9 4.05078 9.442C3.59478 9.732 3.21578 10.148 2.95278 10.65C2.55078 11.416 2.55078 12.444 2.55078 14.5C2.55078 16.556 2.55078 17.584 2.95278 18.35C3.21578 18.852 3.59478 19.268 4.05078 19.558C4.74678 20 5.68078 20 7.55078 20C8.16378 20 8.47078 20 8.76078 19.953C9.54973 19.8204 10.2778 19.4454 10.8438 18.88C11.0628 18.665 11.2588 18.406 11.6518 17.887L11.9858 17.447C12.1838 17.184 12.2838 17.053 12.4058 17.001C12.5057 16.959 12.6173 16.9537 12.7208 16.986C12.8458 17.025 12.9558 17.146 13.1748 17.386L14.1368 18.444C14.3748 18.707 14.4938 18.838 14.6188 18.954C15.2568 19.55 16.0488 19.911 16.8828 19.985C17.0448 20 17.2128 20 17.5508 20C19.4208 20 20.3548 20 21.0508 19.558C21.5068 19.268 21.8858 18.852 22.1488 18.35C22.5508 17.584 22.5508 16.556 22.5508 14.5C22.5508 12.444 22.5508 11.416 22.1488 10.65C21.8945 10.1584 21.516 9.74191 21.0508 9.442C20.3548 9 19.4208 9 17.5508 9Z" stroke="#4D67FE" stroke-width="1.5" stroke-linecap="round" stroke-linejoin="round"/>
<path d="M22.5508 15V12.452C22.5508 11.472 22.5508 10.982 22.4738 10.509C22.4351 10.2761 22.3826 10.0457 22.3168 9.819C22.1838 9.364 21.9778 8.944 21.5658 8.104C20.7388 6.419 20.3258 5.577 19.7228 5.011C19.4353 4.73981 19.1082 4.51389 18.7528 4.341C18.0458 4 17.2428 4 15.6348 4H9.46678C7.85978 4 7.05678 4 6.34978 4.34C5.9943 4.5132 5.66723 4.73945 5.37978 5.011C4.77778 5.577 4.36378 6.419 3.53678 8.104C3.12478 8.944 2.91878 9.364 2.78578 9.819C2.71992 10.0457 2.66749 10.2761 2.62878 10.509C2.55078 10.982 2.55078 11.472 2.55078 12.452V15" stroke="#4D67FE" stroke-width="1.5" stroke-linecap="round" stroke-linejoin="round"/>
</svg>
