<svg width="24" height="25" viewBox="0 0 24 25" fill="none" xmlns="http://www.w3.org/2000/svg">
<path d="M1.5 12.3721C1.5 7.89407 1.5 5.65407 2.891 4.26307C4.282 2.87207 6.521 2.87207 11 2.87207C15.478 2.87207 17.718 2.87207 19.109 4.26307C20.5 5.65407 20.5 7.89307 20.5 12.3721C20.5 16.8501 20.5 19.0901 19.109 20.4811C17.718 21.8721 15.479 21.8721 11 21.8721C6.522 21.8721 4.282 21.8721 2.891 20.4811C1.5 19.0901 1.5 16.8511 1.5 12.3721Z" stroke="white" stroke-width="1.5" stroke-linecap="round" stroke-linejoin="round"/>
<path d="M17.508 6.87207H17.498M16.5 12.3721C16.5 13.5655 16.0259 14.7101 15.182 15.5541C14.3381 16.398 13.1935 16.8721 12 16.8721C10.8065 16.8721 9.66193 16.398 8.81802 15.5541C7.97411 14.7101 7.5 13.5655 7.5 12.3721C7.5 11.1786 7.97411 10.034 8.81802 9.19009C9.66193 8.34618 10.8065 7.87207 12 7.87207C13.1935 7.87207 14.3381 8.34618 15.182 9.19009C16.0259 10.034 16.5 11.1786 16.5 12.3721Z" stroke="white" stroke-width="1.5" stroke-linecap="round" stroke-linejoin="round"/>
</svg>
