<svg width="48" height="48" viewBox="0 0 48 48" fill="none" xmlns="http://www.w3.org/2000/svg">
<path d="M24 33.9998C22.9391 33.9998 21.9217 33.5783 21.1716 32.8282C20.4214 32.078 20 31.0606 20 29.9998C20 27.7798 21.78 25.9998 24 25.9998C25.0609 25.9998 26.0783 26.4212 26.8284 27.1713C27.5786 27.9215 28 28.9389 28 29.9998C28 31.0606 27.5786 32.078 26.8284 32.8282C26.0783 33.5783 25.0609 33.9998 24 33.9998ZM36 39.9998V19.9998H12V39.9998H36ZM36 15.9998C37.0609 15.9998 38.0783 16.4212 38.8284 17.1713C39.5786 17.9215 40 18.9389 40 19.9998V39.9998C40 41.0606 39.5786 42.078 38.8284 42.8282C38.0783 43.5783 37.0609 43.9998 36 43.9998H12C10.9391 43.9998 9.92172 43.5783 9.17157 42.8282C8.42143 42.078 8 41.0606 8 39.9998V19.9998C8 17.7798 9.78 15.9998 12 15.9998H14V11.9998C14 9.34759 15.0536 6.80405 16.9289 4.92869C18.8043 3.05332 21.3478 1.99976 24 1.99976C25.3132 1.99976 26.6136 2.25841 27.8268 2.76096C29.0401 3.26351 30.1425 4.0001 31.0711 4.92869C31.9997 5.85727 32.7362 6.95967 33.2388 8.17292C33.7413 9.38618 34 10.6865 34 11.9998V15.9998H36ZM24 5.99976C22.4087 5.99976 20.8826 6.6319 19.7574 7.75712C18.6321 8.88233 18 10.4085 18 11.9998V15.9998H30V11.9998C30 10.4085 29.3679 8.88233 28.2426 7.75712C27.1174 6.6319 25.5913 5.99976 24 5.99976Z" fill="white"/>
</svg>
