<svg width="16" height="16" viewBox="0 0 16 16" fill="none" xmlns="http://www.w3.org/2000/svg">
<path d="M14.1693 7.99997H5.9326M3.02527 7.99997H1.83594M3.02527 7.99997C3.02527 7.61452 3.17839 7.24486 3.45094 6.97231C3.7235 6.69975 4.09316 6.54663 4.4786 6.54663C4.86405 6.54663 5.23371 6.69975 5.50627 6.97231C5.77882 7.24486 5.93194 7.61452 5.93194 7.99997C5.93194 8.38542 5.77882 8.75508 5.50627 9.02763C5.23371 9.30018 4.86405 9.4533 4.4786 9.4533C4.09316 9.4533 3.7235 9.30018 3.45094 9.02763C3.17839 8.75508 3.02527 8.38542 3.02527 7.99997ZM14.1693 12.4046H10.3373M10.3373 12.4046C10.3373 12.7902 10.1838 13.1603 9.91117 13.4329C9.63855 13.7055 9.26881 13.8586 8.88327 13.8586C8.49782 13.8586 8.12816 13.7048 7.85561 13.4323C7.58306 13.1597 7.42994 12.7901 7.42994 12.4046M10.3373 12.4046C10.3373 12.0191 10.1838 11.6497 9.91117 11.3771C9.63855 11.1045 9.26881 10.9513 8.88327 10.9513C8.49782 10.9513 8.12816 11.1044 7.85561 11.377C7.58306 11.6495 7.42994 12.0192 7.42994 12.4046M7.42994 12.4046H1.83594M14.1693 3.5953H12.0993M9.19194 3.5953H1.83594M9.19194 3.5953C9.19194 3.20985 9.34506 2.84019 9.61761 2.56764C9.89016 2.29509 10.2598 2.14197 10.6453 2.14197C10.8361 2.14197 11.0251 2.17956 11.2014 2.2526C11.3778 2.32563 11.538 2.43268 11.6729 2.56764C11.8079 2.70259 11.9149 2.86281 11.988 3.03913C12.061 3.21546 12.0986 3.40445 12.0986 3.5953C12.0986 3.78616 12.061 3.97514 11.988 4.15147C11.9149 4.32779 11.8079 4.48801 11.6729 4.62296C11.538 4.75792 11.3778 4.86497 11.2014 4.93801C11.0251 5.01104 10.8361 5.04863 10.6453 5.04863C10.2598 5.04863 9.89016 4.89552 9.61761 4.62296C9.34506 4.35041 9.19194 3.98075 9.19194 3.5953Z" stroke="#6C6C6C" stroke-width="1.5" stroke-miterlimit="10" stroke-linecap="round"/>
</svg>
