<svg width="32" height="32" viewBox="0 0 32 32" fill="none" xmlns="http://www.w3.org/2000/svg">
<path d="M1.33203 22.934C1.33203 22.1785 1.5267 21.4842 1.91603 20.8514C2.30536 20.2185 2.82181 19.7349 3.46536 19.4007C4.84314 18.7118 6.24314 18.1954 7.66536 17.8514C9.08759 17.5074 10.532 17.3349 11.9987 17.334C13.4654 17.3331 14.9098 17.5056 16.332 17.8514C17.7543 18.1971 19.1543 18.7136 20.532 19.4007C21.1765 19.734 21.6934 20.2176 22.0827 20.8514C22.472 21.4851 22.6663 22.1794 22.6654 22.934V24.0007C22.6654 24.734 22.4045 25.362 21.8827 25.8847C21.3609 26.4074 20.7329 26.6682 19.9987 26.6673H3.9987C3.26536 26.6673 2.63781 26.4065 2.11603 25.8847C1.59425 25.3629 1.33292 24.7349 1.33203 24.0007V22.934ZM24.5987 26.6673C24.8431 26.2673 25.0267 25.8398 25.1494 25.3847C25.272 24.9296 25.3329 24.4682 25.332 24.0007V22.6674C25.332 21.6896 25.06 20.7505 24.516 19.85C23.972 18.9496 23.1996 18.1776 22.1987 17.534C23.332 17.6674 24.3987 17.8954 25.3987 18.218C26.3987 18.5407 27.332 18.9349 28.1987 19.4007C28.9987 19.8451 29.6098 20.3394 30.032 20.8834C30.4543 21.4274 30.6654 22.022 30.6654 22.6674V24.0007C30.6654 24.734 30.4045 25.362 29.8827 25.8847C29.3609 26.4074 28.7329 26.6682 27.9987 26.6673H24.5987ZM11.9987 16.0007C10.532 16.0007 9.27648 15.4785 8.23203 14.434C7.18759 13.3896 6.66536 12.134 6.66536 10.6674C6.66536 9.20069 7.18759 7.94513 8.23203 6.90069C9.27648 5.85624 10.532 5.33402 11.9987 5.33402C13.4654 5.33402 14.7209 5.85624 15.7654 6.90069C16.8098 7.94513 17.332 9.20069 17.332 10.6674C17.332 12.134 16.8098 13.3896 15.7654 14.434C14.7209 15.4785 13.4654 16.0007 11.9987 16.0007ZM25.332 10.6674C25.332 12.134 24.8098 13.3896 23.7654 14.434C22.7209 15.4785 21.4654 16.0007 19.9987 16.0007C19.7543 16.0007 19.4431 15.9731 19.0654 15.918C18.6876 15.8629 18.3765 15.8016 18.132 15.734C18.732 15.0229 19.1934 14.234 19.516 13.3674C19.8387 12.5007 19.9996 11.6007 19.9987 10.6674C19.9978 9.73402 19.8369 8.83402 19.516 7.96735C19.1951 7.10069 18.7338 6.3118 18.132 5.60068C18.4431 5.48957 18.7543 5.41713 19.0654 5.38335C19.3765 5.34957 19.6876 5.33313 19.9987 5.33402C21.4654 5.33402 22.7209 5.85624 23.7654 6.90069C24.8098 7.94513 25.332 9.20069 25.332 10.6674Z" fill="#888888"/>
</svg>
