<svg width="51" height="50" viewBox="0 0 51 50" fill="none" xmlns="http://www.w3.org/2000/svg">
<path d="M41.7266 37.5H37.5599V19.2709L25.0599 27.0834L12.5599 19.2709V37.5H8.39323V12.5H10.8932L25.0599 21.3542L39.2266 12.5H41.7266M41.7266 8.33337H8.39323C6.08073 8.33337 4.22656 10.1875 4.22656 12.5V37.5C4.22656 38.6051 4.66555 39.6649 5.44695 40.4463C6.22835 41.2277 7.28816 41.6667 8.39323 41.6667H41.7266C42.8316 41.6667 43.8914 41.2277 44.6728 40.4463C45.4542 39.6649 45.8932 38.6051 45.8932 37.5V12.5C45.8932 11.395 45.4542 10.3352 44.6728 9.55376C43.8914 8.77236 42.8316 8.33337 41.7266 8.33337Z" fill="white"/>
</svg>
