<svg width="107" height="107" viewBox="0 0 107 107" fill="none" xmlns="http://www.w3.org/2000/svg">
<rect opacity="0.1" width="106.476" height="106.476" rx="15.8133" fill="#888888"/>
<path opacity="0.5" d="M75.2034 53.5874C73.1997 63.1268 63.5153 70.3858 51.8972 70.3858C50.25 70.3858 48.6058 70.2286 46.9844 69.9304C50.968 73.5825 57.1355 75.4247 63.5091 74.4266L72.0398 78.8862C72.185 78.9616 72.3427 78.9993 72.5003 78.9993C72.6888 78.9993 72.8763 78.9454 73.0421 78.8388C73.345 78.6429 73.5304 78.2962 73.5304 77.9226V69.7086C76.1913 67.1848 77.651 64.0021 77.651 60.6957C77.651 58.1676 76.7888 55.7257 75.2034 53.5874Z" fill="white"/>
<path d="M51.6514 30.9993C39.5199 30.9993 29.6514 39.2155 29.6514 49.3151C29.6514 53.197 31.0981 56.8979 33.8418 60.0461V70.8632C33.8418 71.237 34.0304 71.5829 34.3384 71.78C34.5071 71.8867 34.6977 71.9406 34.8895 71.9406C35.0497 71.9406 35.21 71.9029 35.3577 71.8275L45.132 66.8014C47.2639 67.3519 49.4545 67.631 51.6514 67.631C63.7828 67.631 73.6514 59.4147 73.6514 49.3151C73.6514 39.2155 63.7828 30.9993 51.6514 30.9993Z" fill="white"/>
</svg>
