<svg width="20" height="21" viewBox="0 0 20 21" fill="none" xmlns="http://www.w3.org/2000/svg">
<path d="M7.08073 16.3333H6.66406C3.33073 16.3333 1.66406 15.5 1.66406 11.3333V7.16666C1.66406 3.83332 3.33073 2.16666 6.66406 2.16666H13.3307C16.6641 2.16666 18.3307 3.83332 18.3307 7.16666V11.3333C18.3307 14.6667 16.6641 16.3333 13.3307 16.3333H12.9141C12.6557 16.3333 12.4057 16.4583 12.2474 16.6667L10.9974 18.3333C10.4474 19.0667 9.5474 19.0667 8.9974 18.3333L7.7474 16.6667C7.61406 16.4833 7.30573 16.3333 7.08073 16.3333Z" stroke="#888888" stroke-width="1.5" stroke-miterlimit="10" stroke-linecap="round" stroke-linejoin="round"/>
<path d="M5.83594 7.16666H14.1693" stroke="#888888" stroke-width="1.5" stroke-linecap="round" stroke-linejoin="round"/>
<path d="M5.83594 11.3333H10.8359" stroke="#888888" stroke-width="1.5" stroke-linecap="round" stroke-linejoin="round"/>
</svg>
