<svg width="73" height="65" viewBox="0 0 73 65" fill="none" xmlns="http://www.w3.org/2000/svg">
<path d="M8.37335 42.1021C4.66757 31.5797 2.81419 26.3171 4.93373 21.8979C7.05327 17.4786 12.3121 15.6234 22.8345 11.9177L33.9959 7.98686C44.5183 4.28108 49.7809 2.4277 54.2001 4.54724C58.6193 6.66678 60.4745 11.9256 64.1803 22.448C67.886 32.9704 69.7394 38.233 67.6199 42.6522C65.5003 47.0714 60.2415 48.9266 49.7191 52.6324L38.5577 56.5632C28.0353 60.269 22.7728 62.1224 18.3535 60.0028C13.9343 57.8833 12.0791 52.6245 8.37335 42.1021Z" stroke="white" stroke-width="5.91667"/>
<path d="M15.6016 27.0098L23.3948 29.9107C30.0242 32.3747 33.3375 33.6072 36.3678 32.54C39.3981 31.4728 41.2107 28.4351 44.8292 22.3588L49.0857 15.2173" stroke="white" stroke-width="5.91667" stroke-linecap="round"/>
</svg>
