<svg width="25" height="24" viewBox="0 0 25 24" fill="none" xmlns="http://www.w3.org/2000/svg">
<path d="M10 13.7533C10 14.7233 10.75 15.5033 11.67 15.5033H13.55C14.35 15.5033 15 14.8233 15 13.9733C15 13.0633 14.6 12.7333 14.01 12.5233L11 11.4733C10.41 11.2633 10.01 10.9433 10.01 10.0233C10.01 9.18328 10.66 8.49329 11.46 8.49329H13.34C14.26 8.49329 15.01 9.27329 15.01 10.2433" stroke="#888888" stroke-width="1.5" stroke-linecap="round" stroke-linejoin="round"/>
<path d="M12.5 7.5033V16.5033" stroke="#888888" stroke-width="1.5" stroke-linecap="round" stroke-linejoin="round"/>
<path d="M22.5 12.0033C22.5 17.5233 18.02 22.0033 12.5 22.0033C6.98 22.0033 2.5 17.5233 2.5 12.0033C2.5 6.4833 6.98 2.0033 12.5 2.0033" stroke="#888888" stroke-width="1.5" stroke-linecap="round" stroke-linejoin="round"/>
<path d="M22.5 6.0033V2.0033H18.5" stroke="#888888" stroke-width="1.5" stroke-linecap="round" stroke-linejoin="round"/>
<path d="M17.5 7.0033L22.5 2.0033" stroke="#888888" stroke-width="1.5" stroke-linecap="round" stroke-linejoin="round"/>
</svg>
