<svg width="32" height="32" viewBox="0 0 32 32" fill="none" xmlns="http://www.w3.org/2000/svg">
<path d="M24.0004 9.54669C23.9204 9.53336 23.8271 9.53336 23.7471 9.54669C21.9071 9.48003 20.4404 7.97336 20.4404 6.10669C20.4404 4.20002 21.9738 2.66669 23.8804 2.66669C25.7871 2.66669 27.3204 4.21336 27.3204 6.10669C27.3071 7.97336 25.8404 9.48003 24.0004 9.54669Z" stroke="#888888" stroke-width="1.5" stroke-linecap="round" stroke-linejoin="round"/>
<path d="M22.6269 19.2534C24.4536 19.5601 26.4669 19.2401 27.8803 18.2934C29.7603 17.0401 29.7603 14.9867 27.8803 13.7334C26.4536 12.7867 24.4136 12.4667 22.5869 12.7867" stroke="#888888" stroke-width="1.5" stroke-linecap="round" stroke-linejoin="round"/>
<path d="M7.95965 9.54669C8.03965 9.53336 8.13298 9.53336 8.21298 9.54669C10.053 9.48003 11.5196 7.97336 11.5196 6.10669C11.5196 4.20002 9.98632 2.66669 8.07965 2.66669C6.17298 2.66669 4.63965 4.21336 4.63965 6.10669C4.65298 7.97336 6.11965 9.48003 7.95965 9.54669Z" stroke="#888888" stroke-width="1.5" stroke-linecap="round" stroke-linejoin="round"/>
<path d="M9.33325 19.2534C7.50659 19.5601 5.49326 19.2401 4.07992 18.2934C2.19992 17.0401 2.19992 14.9867 4.07992 13.7334C5.50659 12.7867 7.54659 12.4667 9.37325 12.7867" stroke="#888888" stroke-width="1.5" stroke-linecap="round" stroke-linejoin="round"/>
<path d="M16.0004 19.5067C15.9204 19.4933 15.8271 19.4933 15.7471 19.5067C13.9071 19.44 12.4404 17.9333 12.4404 16.0667C12.4404 14.16 13.9738 12.6266 15.8804 12.6266C17.7871 12.6266 19.3204 14.1733 19.3204 16.0667C19.3071 17.9333 17.8404 19.4533 16.0004 19.5067Z" stroke="#888888" stroke-width="1.5" stroke-linecap="round" stroke-linejoin="round"/>
<path d="M12.12 23.7067C10.24 24.96 10.24 27.0133 12.12 28.2667C14.2533 29.6933 17.7466 29.6933 19.88 28.2667C21.76 27.0133 21.76 24.96 19.88 23.7067C17.76 22.2933 14.2533 22.2933 12.12 23.7067Z" stroke="#888888" stroke-width="1.5" stroke-linecap="round" stroke-linejoin="round"/>
</svg>
