<svg width="34" height="35" viewBox="0 0 34 35" fill="none" xmlns="http://www.w3.org/2000/svg">
<path fill-rule="evenodd" clip-rule="evenodd" d="M13.3558 7.79319C16.6629 4.62753 22.0103 4.62753 25.3174 7.79319C28.6454 10.9788 28.6454 16.1595 25.3174 19.345L16.385 27.8953C14.0361 30.1437 10.2424 30.1437 7.89354 27.8953C5.52385 25.6269 5.52385 21.9334 7.89354 19.6651L16.6974 11.2379C18.088 9.90672 20.3281 9.90672 21.7188 11.2379C23.1302 12.5889 23.1302 14.7953 21.7188 16.1464L12.8507 24.6351C12.5144 24.957 11.9808 24.9453 11.6589 24.6091C11.337 24.2728 11.3487 23.7392 11.685 23.4173L20.5531 14.9286C21.2711 14.2413 21.2711 13.1429 20.5531 12.4557C19.8143 11.7485 18.6019 11.7485 17.8631 12.4557L9.05922 20.8828C7.38298 22.4874 7.38298 25.0729 9.05922 26.6775C10.7563 28.3019 13.5223 28.3019 15.2194 26.6775L24.1517 18.1273C26.7862 15.6055 26.7862 11.5328 24.1517 9.01097C21.4964 6.46929 17.1767 6.46929 14.5215 9.01097L7.32416 15.9004C6.98788 16.2222 6.45432 16.2106 6.13243 15.8743C5.81054 15.538 5.8222 15.0045 6.15848 14.6826L13.3558 7.79319Z" fill="#888888"/>
</svg>
