<svg width="107" height="107" viewBox="0 0 107 107" fill="none" xmlns="http://www.w3.org/2000/svg">
<rect opacity="0.1" x="0.358398" y="0.239624" width="105.997" height="105.997" rx="20.1261" fill="#888888"/>
<path fill-rule="evenodd" clip-rule="evenodd" d="M40.8486 41.9054C40.8486 35.4183 46.0921 28.4166 54.5629 28.4166C63.0338 28.4166 68.2772 35.4183 68.2772 41.9054C68.2772 51.5187 61.1583 57.4693 54.5629 57.4693C47.9675 57.4693 40.8486 51.5187 40.8486 41.9054ZM43.1835 42.999C43.6795 50.6813 49.3138 55.3941 54.5629 55.3941C59.8121 55.3941 65.4452 50.6824 65.9435 43.0021C62.5435 42.5829 59.3664 41.262 56.8166 39.191C53.6669 41.758 49.6498 43.1619 45.3869 43.1619C44.6589 43.1619 43.9252 43.0965 43.1835 42.999Z" fill="white"/>
<path opacity="0.5" d="M75.1032 62.7526L63.2198 56.2061C60.4347 58.4138 57.1055 59.6278 53.877 59.6278C50.6484 59.6278 47.3192 58.4138 44.5341 56.2061L32.6507 62.7526C30.9398 63.6949 29.877 65.4189 29.877 67.251V75.3673C29.877 75.9476 30.389 76.4166 31.0198 76.4166H52.7341V65.9236C52.7341 65.3434 53.245 64.8743 53.877 64.8743C54.509 64.8743 55.0198 65.3434 55.0198 65.9236V76.4166H76.7341C77.365 76.4166 77.877 75.9476 77.877 75.3673V67.251C77.877 65.4189 76.8141 63.6949 75.1032 62.7526Z" fill="white"/>
</svg>
