<svg width="33" height="40" viewBox="0 0 33 40" fill="none" xmlns="http://www.w3.org/2000/svg">
<path d="M29.0403 19.9219C29.0403 20.4065 28.8842 20.8713 28.6064 21.214C28.3286 21.5566 27.9518 21.7492 27.5589 21.7492H18.1768V33.3221C18.1768 33.8067 18.0208 34.2715 17.7429 34.6142C17.4651 34.9569 17.0883 35.1494 16.6954 35.1494C16.3026 35.1494 15.9258 34.9569 15.6479 34.6142C15.3701 34.2715 15.2141 33.8067 15.2141 33.3221V21.7492H5.83197C5.43908 21.7492 5.06229 21.5566 4.78447 21.214C4.50666 20.8713 4.35059 20.4065 4.35059 19.9219C4.35059 19.4372 4.50666 18.9724 4.78447 18.6298C5.06229 18.2871 5.43908 18.0946 5.83197 18.0946H15.2141V6.52164C15.2141 6.03701 15.3701 5.57223 15.6479 5.22954C15.9258 4.88685 16.3026 4.69434 16.6954 4.69434C17.0883 4.69434 17.4651 4.88685 17.7429 5.22954C18.0208 5.57223 18.1768 6.03701 18.1768 6.52164V18.0946H27.5589C27.9518 18.0946 28.3286 18.2871 28.6064 18.6298C28.8842 18.9724 29.0403 19.4372 29.0403 19.9219Z" fill="#8F8F8F"/>
</svg>
