<svg width="24" height="24" viewBox="0 0 24 24" fill="none" xmlns="http://www.w3.org/2000/svg">
<g clip-path="url(#clip0_236_30666)">
<path fill-rule="evenodd" clip-rule="evenodd" d="M3.04286 0.130859C2.27003 0.130859 1.52886 0.437864 0.982385 0.984337C0.435912 1.53081 0.128906 2.27198 0.128906 3.04481V5.48717C0.128906 6.19727 0.70454 6.77289 1.41462 6.77289C2.12471 6.77289 2.70033 6.19727 2.70033 5.48717V3.04481C2.70033 2.95397 2.73641 2.86685 2.80067 2.80262C2.8649 2.73837 2.95202 2.70228 3.04286 2.70228H5.48522C6.19531 2.70228 6.77093 2.12666 6.77093 1.41657C6.77093 0.706493 6.19531 0.130859 5.48522 0.130859H3.04286ZM6.84821 4.7069C5.66474 4.7069 4.70536 5.6663 4.70536 6.84976V10.4034C4.70536 11.5869 5.66474 12.5463 6.84821 12.5463H10.4019C11.5853 12.5463 12.5447 11.5869 12.5447 10.4034V6.84976C12.5447 5.66628 11.5853 4.7069 10.4019 4.7069H6.84821ZM7.27679 9.97483V7.27833H9.97329V9.97483H7.27679ZM17.2255 1.4167C17.2255 0.706625 17.8012 0.13099 18.5113 0.13099H20.9536C21.7264 0.13099 22.4677 0.437996 23.0142 0.984468C23.5605 1.53094 23.8675 2.27212 23.8675 3.04495V5.48731C23.8675 6.19739 23.2919 6.77303 22.5818 6.77303C21.8718 6.77303 21.2961 6.19739 21.2961 5.48731V3.04495C21.2961 2.95409 21.2601 2.86697 21.1958 2.80274C21.1315 2.73851 21.0445 2.70242 20.9536 2.70242H18.5113C17.8012 2.70242 17.2255 2.12678 17.2255 1.4167ZM2.70043 18.5133C2.70043 17.8032 2.12481 17.2275 1.41472 17.2275C0.704645 17.2275 0.129011 17.8032 0.129011 18.5133V20.9556C0.129011 21.7284 0.436016 22.4697 0.982489 23.0162C1.52896 23.5625 2.27013 23.8695 3.04296 23.8695H5.48532C6.19541 23.8695 6.77104 23.2939 6.77104 22.5838C6.77104 21.8738 6.19541 21.2981 5.48532 21.2981H3.04296C2.95212 21.2981 2.865 21.2621 2.80077 21.1978C2.73653 21.1335 2.70043 21.0465 2.70043 20.9556V18.5133ZM22.5818 17.2275C23.2919 17.2275 23.8675 17.8032 23.8675 18.5133V20.9556C23.8675 21.7284 23.5605 22.4697 23.0142 23.0162C22.4677 23.5625 21.7264 23.8695 20.9536 23.8695H18.5113C17.8012 23.8695 17.2255 23.2939 17.2255 22.5838C17.2255 21.8738 17.8012 21.2981 18.5113 21.2981H20.9536C21.0445 21.2981 21.1315 21.2621 21.1958 21.1978C21.2601 21.1335 21.2961 21.0465 21.2961 20.9556V18.5133C21.2961 17.8032 21.8718 17.2275 22.5818 17.2275ZM7.27687 15.7547C7.27687 15.0446 6.70123 14.469 5.99116 14.469C5.28108 14.469 4.70544 15.0446 4.70544 15.7547V18.0074C4.70544 18.7174 5.28108 19.2931 5.99116 19.2931H8.24388C8.95396 19.2931 9.5296 18.7174 9.5296 18.0074C9.5296 17.2973 8.95396 16.7217 8.24388 16.7217H7.27687V15.7547ZM9.77981 15.7547C9.77981 15.0446 10.3555 14.469 11.0655 14.469H11.9981C12.7082 14.469 13.2838 15.0446 13.2838 15.7547V18.0074C13.2838 18.7174 12.7082 19.2931 11.9981 19.2931C11.2881 19.2931 10.7124 18.7174 10.7124 18.0074V16.9913C10.174 16.8379 9.77981 16.3423 9.77981 15.7547ZM17.0384 5.99275C17.0384 5.28266 16.4628 4.70704 15.7527 4.70704C15.0426 4.70704 14.467 5.28266 14.467 5.99275V8.24548C14.467 8.95555 15.0426 9.53119 15.7527 9.53119H18.0054C18.7156 9.53119 19.2911 8.95555 19.2911 8.24548C19.2911 7.53539 18.7156 6.95976 18.0054 6.95976H17.0384V5.99275ZM14.467 12.0001C14.467 11.2901 15.0426 10.7144 15.7527 10.7144H18.0054C18.7156 10.7144 19.2911 11.2901 19.2911 12.0001V13.0956C19.2911 13.8057 18.7156 14.3813 18.0054 14.3813C17.3599 14.3813 16.8257 13.9057 16.7337 13.2859H15.7527C15.0426 13.2859 14.467 12.7102 14.467 12.0001ZM17.0384 15.7547C17.0384 15.0446 16.4628 14.469 15.7527 14.469C15.0426 14.469 14.467 15.0446 14.467 15.7547V18.0074C14.467 18.7174 15.0426 19.2931 15.7527 19.2931H18.0054C18.7156 19.2931 19.2911 18.7174 19.2911 18.0074C19.2911 17.2973 18.7156 16.7217 18.0054 16.7217H17.0384V15.7547Z" fill="white"/>
</g>
<defs>
<clipPath id="clip0_236_30666">
<rect width="24" height="24" fill="white"/>
</clipPath>
</defs>
</svg>
