<svg width="84" height="84" viewBox="0 0 84 84" fill="none" xmlns="http://www.w3.org/2000/svg">
<path d="M35.952 12.9675C36.3174 13.5522 36.5641 14.2031 36.6779 14.883C36.7918 15.563 36.7706 16.2587 36.6156 16.9305C36.4605 17.6023 36.1747 18.237 35.7744 18.7983C35.3741 19.3596 34.8671 19.8366 34.2825 20.202C27.8927 24.182 22.8166 29.9557 19.6875 36.8025C22.8474 36.5383 26.0135 37.234 28.7715 38.7986C31.5296 40.3632 33.7511 42.7239 35.1455 45.5718C36.5399 48.4197 37.0422 51.6222 36.5866 54.7603C36.1311 57.8983 34.739 60.8258 32.5925 63.1597C30.4459 65.4936 27.6448 67.1252 24.5558 67.8411C21.4667 68.557 18.2335 68.3238 15.2791 67.172C12.3248 66.0202 9.78685 64.0035 7.99744 61.3857C6.20804 58.7679 5.25046 55.671 5.25 52.5V52.3583C5.25571 51.9518 5.27322 51.5457 5.3025 51.1403C5.34975 50.3528 5.44425 49.2503 5.628 47.8958C5.9955 45.2025 6.71475 41.4908 8.169 37.3223C11.067 28.9748 16.9365 18.6585 28.7175 11.298C29.3021 10.9326 29.953 10.6859 30.633 10.5721C31.313 10.4582 32.0087 10.4794 32.6805 10.6344C33.3523 10.7895 33.987 11.0753 34.5483 11.4756C35.1096 11.8759 35.5866 12.3829 35.952 12.9675ZM72.702 12.9675C73.0674 13.5522 73.3141 14.2031 73.4279 14.883C73.5418 15.563 73.5206 16.2587 73.3656 16.9305C73.2105 17.6023 72.9247 18.237 72.5244 18.7983C72.1241 19.3596 71.6171 19.8366 71.0325 20.202C64.6427 24.182 59.5666 29.9557 56.4375 36.8025C59.5974 36.5383 62.7635 37.234 65.5215 38.7986C68.2796 40.3632 70.5011 42.7239 71.8955 45.5718C73.2899 48.4197 73.7922 51.6222 73.3366 54.7603C72.8811 57.8983 71.489 60.8258 69.3425 63.1597C67.1959 65.4936 64.3948 67.1252 61.3058 67.8411C58.2167 68.557 54.9835 68.3238 52.0291 67.172C49.0748 66.0202 46.5369 64.0035 44.7474 61.3857C42.958 58.7679 42.0005 55.671 42 52.5V52.3583C42.0057 51.9518 42.0232 51.5457 42.0525 51.1403C42.0998 50.3528 42.1942 49.2503 42.378 47.8958C42.7455 45.2025 43.4647 41.4908 44.919 37.3223C47.817 28.9748 53.6865 18.6585 65.4675 11.298C66.0521 10.9326 66.703 10.6859 67.383 10.5721C68.063 10.4582 68.7587 10.4794 69.4305 10.6344C70.1023 10.7895 70.737 11.0753 71.2983 11.4756C71.8596 11.8759 72.3366 12.3829 72.702 12.9675Z" fill="#4D67FE"/>
</svg>
