<svg width="25" height="25" viewBox="0 0 25 25" fill="none" xmlns="http://www.w3.org/2000/svg">
<path fill-rule="evenodd" clip-rule="evenodd" d="M9.39221 2.59524L16.9446 6.34166C19.2404 7.48049 21.0473 8.37676 22.273 9.2255C23.4836 10.0638 24.4297 11.0578 24.4297 12.5C24.4297 13.9422 23.4836 14.9362 22.273 15.7745C21.0473 16.6232 19.2404 17.5195 16.9446 18.6583L9.39221 22.4048C7.98899 23.1008 6.89737 23.6423 6.045 23.9938C5.21092 24.3377 4.46547 24.5635 3.80263 24.484C2.19493 24.2913 0.811503 23.0758 0.476683 21.3597C0.334775 20.6323 0.533203 19.8187 0.818297 18.9735C1.11348 18.0983 1.58264 16.9747 2.18033 15.5431L2.19645 15.5045C2.66357 14.3857 2.84335 13.9442 2.93507 13.5038C3.07306 12.8413 3.07306 12.1587 2.93507 11.4962C2.84335 11.0558 2.66357 10.6143 2.19645 9.49548L2.18033 9.45688C1.58264 8.02535 1.11348 6.90168 0.818296 6.02652C0.533203 5.18129 0.334775 4.36765 0.476684 3.64032C0.811505 1.92425 2.19492 0.708713 3.80263 0.515954C4.46547 0.436482 5.21092 0.662329 6.045 1.00622C6.89738 1.35765 7.98899 1.89916 9.39221 2.59524ZM5.45852 2.73545C4.63896 2.39755 4.22029 2.32294 3.98365 2.35131C2.99231 2.47017 2.27638 3.19468 2.11368 4.02859C2.0834 4.18375 2.10454 4.54345 2.38772 5.38301C2.65816 6.1848 3.1002 7.24507 3.71747 8.72348C3.73099 8.75587 3.74435 8.78787 3.75756 8.81949C4.17172 9.81112 4.43187 10.434 4.56704 11.083C4.76166 12.0175 4.76166 12.9825 4.56704 13.917C4.43187 14.566 4.17172 15.1889 3.75756 16.1805C3.74435 16.2121 3.73099 16.2441 3.71747 16.2765C3.1002 17.7549 2.65817 18.8152 2.38773 19.617C2.10454 20.4566 2.0834 20.8163 2.11368 20.9714C2.27638 21.8053 2.99231 22.5298 3.98365 22.6487C4.22029 22.6771 4.63896 22.6024 5.45852 22.2645C6.25367 21.9367 7.29566 21.4203 8.73542 20.7061L16.1899 17.0083C18.5679 15.8287 20.2672 14.9833 21.3824 14.2111C22.5248 13.4201 22.7552 12.9062 22.7552 12.5C22.7552 12.0938 22.5248 11.5799 21.3824 10.7889C20.2672 10.0167 18.5679 9.17135 16.1899 7.99171L8.73543 4.29386C7.29567 3.57966 6.25368 3.06329 5.45852 2.73545Z" fill="white"/>
</svg>
