<svg width="24" height="24" viewBox="0 0 24 24" fill="none" xmlns="http://www.w3.org/2000/svg">
<path d="M22 11.5V15.5C22 19 20 20.5 17 20.5H7C4 20.5 2 19 2 15.5V8.5C2 5 4 3.5 7 3.5H12" stroke="white" stroke-width="1.5" stroke-miterlimit="10" stroke-linecap="round" stroke-linejoin="round"/>
<path d="M7 9L10.13 11.5C11.16 12.32 12.85 12.32 13.88 11.5" stroke="white" stroke-width="1.5" stroke-miterlimit="10" stroke-linecap="round" stroke-linejoin="round"/>
<path d="M19.4812 2.82043L19.7612 3.39042C19.9012 3.67042 20.2512 3.93043 20.5612 3.99043L20.9412 4.05043C22.0812 4.24043 22.3512 5.08043 21.5312 5.91043L21.1812 6.26042C20.9512 6.50042 20.8212 6.96042 20.8912 7.28042L20.9412 7.49043C21.2512 8.87043 20.5212 9.40042 19.3212 8.68042L19.0612 8.53042C18.7512 8.35042 18.2512 8.35042 17.9412 8.53042L17.6812 8.68042C16.4712 9.41042 15.7412 8.87043 16.0612 7.49043L16.1112 7.28042C16.1812 6.96042 16.0512 6.50042 15.8212 6.26042L15.4712 5.91043C14.6512 5.08043 14.9212 4.24043 16.0612 4.05043L16.4412 3.99043C16.7412 3.94043 17.1012 3.67042 17.2412 3.39042L17.5212 2.82043C18.0612 1.73043 18.9412 1.73043 19.4812 2.82043Z" stroke="white" stroke-width="1.5" stroke-linecap="round" stroke-linejoin="round"/>
</svg>
