<svg width="26" height="25" viewBox="0 0 26 25" fill="none" xmlns="http://www.w3.org/2000/svg">
<path d="M12.2186 1.4048C12.4646 0.647871 13.5354 0.647869 13.7814 1.4048L16.1833 8.79705C16.2932 9.13556 16.6087 9.36475 16.9646 9.36475H24.7373C25.5332 9.36475 25.8641 10.3832 25.2202 10.851L18.932 15.4197C18.644 15.6289 18.5235 15.9997 18.6335 16.3382L21.0354 23.7305C21.2814 24.4874 20.415 25.1168 19.7711 24.649L13.4829 20.0803C13.195 19.8711 12.805 19.8711 12.5171 20.0803L6.22886 24.649C5.58498 25.1168 4.71865 24.4874 4.96459 23.7305L7.36648 16.3382C7.47646 15.9997 7.35597 15.6289 7.06802 15.4197L0.779796 10.851C0.135915 10.3832 0.466825 9.36475 1.26271 9.36475H9.03538C9.39131 9.36475 9.70676 9.13556 9.81675 8.79705L12.2186 1.4048Z" fill="#EAE30B"/>
</svg>
