<svg width="40" height="40" viewBox="0 0 40 40" fill="none" xmlns="http://www.w3.org/2000/svg">
<path d="M28.333 30.7168H21.6663L14.2497 35.65C13.1497 36.3834 11.6663 35.6001 11.6663 34.2668V30.7168C6.66634 30.7168 3.33301 27.3834 3.33301 22.3834V12.3833C3.33301 7.38332 6.66634 4.04999 11.6663 4.04999H28.333C33.333 4.04999 36.6663 7.38332 36.6663 12.3833V22.3834C36.6663 27.3834 33.333 30.7168 28.333 30.7168Z" stroke="#888888" stroke-width="1.5" stroke-miterlimit="10" stroke-linecap="round" stroke-linejoin="round"/>
<path d="M20 18.9333V18.5834C20 17.45 20.7001 16.85 21.4001 16.3667C22.0834 15.9 22.7666 15.3 22.7666 14.2C22.7666 12.6667 21.5334 11.4333 20 11.4333C18.4667 11.4333 17.2334 12.6667 17.2334 14.2" stroke="#888888" stroke-width="1.5" stroke-linecap="round" stroke-linejoin="round"/>
<path d="M19.9928 22.9166H20.0078" stroke="#888888" stroke-width="1.5" stroke-linecap="round" stroke-linejoin="round"/>
</svg>
