<svg width="25" height="24" viewBox="0 0 25 24" fill="none" xmlns="http://www.w3.org/2000/svg">
<path d="M8.94922 9H16.9492M8.94922 13H14.9492M18.9492 4C19.7449 4 20.5079 4.31607 21.0705 4.87868C21.6331 5.44129 21.9492 6.20435 21.9492 7V15C21.9492 15.7956 21.6331 16.5587 21.0705 17.1213C20.5079 17.6839 19.7449 18 18.9492 18H13.9492L8.94922 21V18H6.94922C6.15357 18 5.39051 17.6839 4.8279 17.1213C4.26529 16.5587 3.94922 15.7956 3.94922 15V7C3.94922 6.20435 4.26529 5.44129 4.8279 4.87868C5.39051 4.31607 6.15357 4 6.94922 4H18.9492Z" stroke="#4D67FE" stroke-width="2" stroke-linecap="round" stroke-linejoin="round"/>
</svg>
