<svg width="40" height="40" viewBox="0 0 40 40" fill="none" xmlns="http://www.w3.org/2000/svg">
<path d="M36.6663 20V28.3334C36.6663 33.3334 33.333 36.6667 28.333 36.6667H11.6663C6.66634 36.6667 3.33301 33.3334 3.33301 28.3334V20C3.33301 15.4667 6.06634 12.3 10.3163 11.7667C10.7497 11.7 11.1997 11.6667 11.6663 11.6667H28.333C28.7663 11.6667 29.183 11.6833 29.583 11.75C33.883 12.25 36.6663 15.4334 36.6663 20Z" stroke="#888888" stroke-width="2" stroke-linecap="round" stroke-linejoin="round"/>
<path d="M29.586 11.75C29.186 11.6833 28.7693 11.6667 28.336 11.6667H11.6693C11.2027 11.6667 10.7527 11.7 10.3193 11.7667C10.5527 11.3 10.886 10.8667 11.286 10.4667L16.7027 5.03331C18.986 2.76665 22.686 2.76665 24.9693 5.03331L27.886 7.98335C28.9527 9.03335 29.5193 10.3666 29.586 11.75Z" stroke="#888888" stroke-width="2" stroke-linecap="round" stroke-linejoin="round"/>
<path d="M36.6663 20.8333H31.6663C29.833 20.8333 28.333 22.3333 28.333 24.1666C28.333 26 29.833 27.5 31.6663 27.5H36.6663" stroke="#888888" stroke-width="2" stroke-linecap="round" stroke-linejoin="round"/>
</svg>
