<svg width="25" height="24" viewBox="0 0 25 24" fill="none" xmlns="http://www.w3.org/2000/svg">
<path d="M14.7656 16.0013H9.76562" stroke="#888888" stroke-width="1.5" stroke-miterlimit="10" stroke-linecap="round" stroke-linejoin="round"/>
<path d="M13.1609 2.52143L13.1309 2.59143L10.2309 9.32143H7.38094C6.70094 9.32143 6.05094 9.46143 5.46094 9.71143L7.21094 5.53143L7.25094 5.43143L7.32094 5.27143C7.34094 5.21143 7.36094 5.15143 7.39094 5.10143C8.70094 2.07143 10.1809 1.38143 13.1609 2.52143Z" stroke="#888888" stroke-width="1.5" stroke-linecap="round" stroke-linejoin="round"/>
<path d="M18.5466 9.52142C18.0966 9.38142 17.6166 9.32142 17.1366 9.32142H10.2266L13.1266 2.59142L13.1566 2.52142C13.3066 2.57142 13.4466 2.64142 13.5966 2.70142L15.8066 3.63142C17.0366 4.14142 17.8966 4.67142 18.4166 5.31142C18.5166 5.43142 18.5966 5.54142 18.6666 5.67142C18.7566 5.81142 18.8266 5.95142 18.8666 6.10142C18.9066 6.19142 18.9366 6.28142 18.9566 6.36142C19.2266 7.20142 19.0666 8.23142 18.5466 9.52142Z" stroke="#888888" stroke-width="1.5" stroke-linecap="round" stroke-linejoin="round"/>
<path d="M22.0256 14.2017V16.1517C22.0256 16.3517 22.0156 16.5517 22.0056 16.7517C21.8156 20.2417 19.8656 22.0017 16.1656 22.0017H8.36563C8.12563 22.0017 7.88562 21.9817 7.65562 21.9517C4.47562 21.7417 2.77562 20.0417 2.56562 16.8617C2.53562 16.6317 2.51562 16.3917 2.51562 16.1517V14.2017C2.51562 12.1917 3.73563 10.4617 5.47563 9.71166C6.07563 9.46166 6.71563 9.32166 7.39563 9.32166H17.1556C17.6456 9.32166 18.1256 9.39166 18.5656 9.52166C20.5556 10.1317 22.0256 11.9917 22.0256 14.2017Z" stroke="#888888" stroke-width="1.5" stroke-linecap="round" stroke-linejoin="round"/>
<path d="M7.21 5.53143L5.46 9.71143C3.72 10.4614 2.5 12.1914 2.5 14.2014V11.2714C2.5 8.43143 4.52 6.06143 7.21 5.53143Z" stroke="#888888" stroke-width="1.5" stroke-linecap="round" stroke-linejoin="round"/>
<path d="M22.0225 11.271V14.201C22.0225 12.001 20.5625 10.131 18.5625 9.53095C19.0825 8.23095 19.2325 7.21095 18.9825 6.36095C18.9625 6.27095 18.9325 6.18095 18.8925 6.10095C20.7525 7.06095 22.0225 9.03095 22.0225 11.271Z" stroke="#888888" stroke-width="1.5" stroke-linecap="round" stroke-linejoin="round"/>
</svg>
